<svg width="145" height="223" viewBox="0 0 145 223" fill="none" xmlns="http://www.w3.org/2000/svg">
<path d="M101.138 51.9946C95.4887 61.9519 92.9865 68.0774 83.292 63.6902C78.9431 61.9492 77.8959 65.287 69.246 63.757C64.6732 62.9933 67.0102 61.036 58.864 50.8383C58.1845 50.0212 57.4383 49.2068 56.5563 48.6621C56.082 48.4591 55.605 48.2535 55.2665 47.845C53.8409 46.4164 55.4024 44.0372 55.3332 41.9972C55.1066 37.0358 48.8657 38.7234 49.5666 29.6232C50.0809 20.8221 50.1049 12.264 63.6126 11.8768C67.4126 11.81 71.2792 11.7406 74.8767 12.8968C87.1746 16.9609 91.369 35.7701 97.0663 42.4751C100.336 46.4057 104.581 45.3643 101.138 51.9946Z" fill="#FFACAB"/>
<path d="M94.5092 37.9194C94.5092 37.9194 91.1196 39.8873 87.4342 30.0929C86.4029 27.436 84.7321 24.2344 81.7849 24.3839C80.1141 24.3839 78.6884 25.6629 77.8543 27.2384C77.0682 28.8619 76.2821 33.2918 77.0682 34.6724C78.0009 36.9848 79.4265 39.2011 80.703 41.121C83.3544 44.862 85.5182 48.9475 86.8426 53.2786C87.3836 55.2466 87.6767 57.0196 87.4315 57.7566C85.6142 61.6445 74.7579 69.6686 67.2911 65.9783C61.6418 59.5297 64.0001 58.2506 68.9619 56.5283C72.6473 55.3481 69.6495 43.9274 71.1231 40.4801C71.4162 39.6924 71.9092 38.9554 72.1544 38.0689C73.1856 35.0675 71.5654 31.3239 68.5676 30.0955C66.9953 29.4066 64.9808 29.3078 63.9495 27.93C62.721 26.2077 63.5578 23.3532 61.8363 22.0715C58.103 26.9447 48.6723 31.2277 45.6238 26.699C43.7878 23.8151 40.5287 18.5628 42.9217 16.1649C57.7565 4.89377 74.51 -11.0556 89.0491 13.1128C93.1342 19.8525 94.5092 37.9194 94.5092 37.9194Z" fill="#3D2B20"/>
<path d="M63.9898 138.633C61.4556 138.233 57.3918 140.188 53.6292 140.318C50.2369 140.455 47.5881 142.019 44.3317 142.086C38.4293 142.222 33.2036 141.066 32.9318 138.617C32.3216 133.245 32.9984 137.87 41.4138 134.334C39.8522 134.471 32.9318 134.879 32.1857 134.131C31.9831 133.792 31.778 130.393 32.1164 129.712C32.5214 129.304 36.3907 130.324 40.3266 128.147C28.7934 128.147 30.8266 129.101 30.8266 124.748C30.8266 124.545 30.8266 124.409 30.8933 124.273C31.7087 123.456 42.0214 123.05 42.0214 122.708C40.8675 121.824 37.0009 122.572 35.5753 121.552C34.4214 120.871 34.8291 118.153 36.1855 117.677C53.6931 116.657 47.6014 122.692 61.4423 124.324C62.3616 124.433 63.2064 124.7 63.9872 125.058V138.633H63.9898Z" fill="#FFACAB"/>
<path d="M58.9746 121.635L75.1845 122.051C75.4083 106.863 76.4343 92.6731 79.0751 80.4968L99.0209 86.1951C99.0209 86.1951 106.544 144.318 91.8314 153.52C83.5892 158.676 59.6728 140.332 59.6728 140.332L58.9746 121.635Z" fill="#F2F2F2"/>
<path d="M143.892 142.222C144.705 193.966 133.849 222.049 75.8336 222.049C66.0619 221.983 15.3751 224.498 6.55198 219.059C-2.60953 213.278 1.73406 199.203 3.63404 195.94C9.46991 185.603 48.8953 164.933 63.9567 156.842C81.7334 147.389 78.4104 114.684 78.9514 82.3205C78.9514 67.7009 102.497 48.8677 104.736 48.8677C105.549 48.7315 106.364 49.2762 107.044 49.7515C118.443 57.9786 131.674 56.2109 139.748 67.7704C147.623 79.0548 143.146 96.5984 143.892 142.222Z" fill="url(#paint0_linear_1_3792)"/>
<path d="M109.984 51.6524C108.068 60.2159 102.813 65.1398 102.813 65.1398L84.8815 70.1599C93.3316 65.041 100.111 55.7379 109.984 51.6524ZM117.304 123.669C103.943 125.391 90.6295 126.326 77.2683 123.373C86.603 118.892 96.3294 116.579 106.349 115.103C105.366 105.455 105.267 95.9037 107.183 86.2081C113.176 98.0212 115.582 110.721 117.304 123.669ZM143.858 124.419H139.981C140.184 128.943 140.128 133.458 139.656 137.941C139.067 140.943 138.38 144.881 135.923 146.852C132.778 149.461 127.473 150.347 122.562 150.74C107.087 151.528 91.5648 148.772 76.4342 145.522C91.4662 150.003 106.842 153.99 122.66 154.433C127.966 154.286 133.615 154.286 139.019 150.692C141.082 148.97 142.705 146.508 143.882 143.602C143.768 136.534 143.787 130.211 143.858 124.419ZM12.7646 206.465C12.8126 207.597 12.5194 209.565 12.8126 210.698C15.8584 223.005 50.5405 218.572 61.8872 218.821L61.8392 222.265C49.9036 222.511 31.8258 222.906 18.6591 221.969C12.714 221.525 7.45902 217.242 6.67291 211.336V211.189C6.10265 191.504 16.2528 188.751 49.7544 176.238C78.8698 165.146 74.2864 160.334 83.4053 159.108C74.1025 160.943 79.472 165.549 50.6897 178.502L33.35 186.476C24.5562 191.058 12.3729 194.847 12.7646 206.465Z" fill="url(#paint1_linear_1_3792)"/>
<path d="M48.7911 168.77C47.2189 168.77 45.5667 167.41 44.5967 165.28C41.6202 158.751 41.3004 149.071 41.3537 142.209C40.8208 143.087 40.1759 143.709 39.4431 144.022C38.4518 144.454 37.3752 144.275 36.4132 143.538C34.2387 141.87 32.1469 136.652 33.418 127.437C33.466 127.103 33.7458 126.897 34.1108 126.911C34.4466 126.959 34.6811 127.269 34.6358 127.605C33.5113 135.739 35.0942 140.978 37.162 142.561C37.7696 143.031 38.3692 143.138 38.9634 142.89C40.2905 142.323 41.2951 140.105 41.6522 136.951C41.7401 136.171 41.8174 135.17 41.9027 134.051C42.2757 129.186 42.7847 122.526 45.1457 120.759C46.5607 119.693 48.2262 119.632 49.7025 120.566C54.5177 123.613 57.6408 136.927 51.9862 165.149C51.3999 168.065 49.9263 168.66 49.0976 168.756C48.9936 168.764 48.8924 168.77 48.7911 168.77ZM42.6355 138.62C42.5049 145.146 42.2784 157.234 45.7133 164.77C46.4967 166.492 47.8398 167.693 48.9563 167.528C49.8117 167.429 50.4593 166.497 50.779 164.903C56.3191 137.263 53.3079 124.302 49.0443 121.602C47.7092 120.759 46.582 121.207 45.8758 121.739C43.9625 123.17 43.4376 130.035 43.1258 134.139C43.0378 135.277 42.9606 136.294 42.87 137.087C42.8087 137.624 42.7287 138.134 42.6355 138.62Z" fill="#26B3B7"/>
<path d="M80.623 141.01C78.1128 140.601 73.9744 140.056 70.0385 140.193C66.6463 140.329 63.9975 141.893 60.7411 141.96C54.8386 142.096 49.613 140.94 49.3412 138.492C48.7309 133.119 49.4078 137.744 57.8232 134.209C56.2616 134.345 49.3412 134.753 48.595 134.006C48.3925 133.666 48.1873 130.267 48.5284 129.586C48.9361 129.178 52.8027 130.198 56.7386 128.022C45.2028 128.022 47.2387 128.975 47.2387 124.622C47.2387 124.419 47.2387 124.283 47.3053 124.147C48.1207 123.33 58.4334 122.924 58.4334 122.582C57.2795 121.698 53.4129 122.446 51.9873 121.426C50.8334 120.745 51.2412 118.027 52.5975 117.551C70.1051 116.531 63.8615 124.758 77.7051 126.39C84.5562 127.207 88.0178 135.637 80.623 141.01Z" fill="#FFACAB"/>
<path d="M138.186 146.438C126.379 157.656 76.4379 143.717 76.4379 143.717C72.6965 143.568 73.5093 123.237 77.2506 123.386L111.722 119.375L107.176 86.1949H139.204C139.204 86.1949 149.589 135.56 138.186 146.438Z" fill="#F2F2F2"/>
<defs>
<linearGradient id="paint0_linear_1_3792" x1="72.7115" y1="182.52" x2="72.7115" y2="222.573" gradientUnits="userSpaceOnUse">
<stop stop-color="#F2F2F2"/>
<stop offset="1" stop-color="#F2F2F2" stop-opacity="0"/>
</linearGradient>
<linearGradient id="paint1_linear_1_3792" x1="75.2664" y1="57.8624" x2="75.2664" y2="257.124" gradientUnits="userSpaceOnUse">
<stop stop-color="#E6E6E6"/>
<stop offset="1" stop-color="#E6E6E6" stop-opacity="0"/>
</linearGradient>
</defs>
</svg>
