<svg width="98" height="98" viewBox="0 0 98 98" fill="none" xmlns="http://www.w3.org/2000/svg">
<path d="M55.7999 11.2C55.7999 16.8 51.1999 29.2 45.5999 29.2C39.9999 29.2 35.3999 16.8 35.3999 11.2C35.3999 5.6 39.9999 1 45.5999 1C51.1999 1 55.7999 5.6 55.7999 11.2Z" fill="url(#paint0_linear_1_3614)"/>
<path d="M45.6 97C52.0065 97 57.2 91.8065 57.2 85.4C57.2 78.9935 52.0065 73.8 45.6 73.8C39.1935 73.8 34 78.9935 34 85.4C34 91.8065 39.1935 97 45.6 97Z" fill="url(#paint1_linear_1_3614)"/>
<path d="M76.9998 85.4H14.1998C6.79977 85.4 4.59977 75.4 11.1998 72.2C13.5998 71 15.1998 68.6 15.1998 66V45.4C15.1998 28.6 28.7998 15 45.5998 15C53.9998 15 61.5998 18.4 66.9998 24C72.5998 29.4 75.9998 37 75.9998 45.4V66C75.9998 68.6 77.5998 71.2 79.9998 72.2C86.5998 75.4 84.3998 85.4 76.9998 85.4Z" fill="url(#paint2_linear_1_3614)"/>
<path d="M73.1996 54C82.9198 54 90.7996 46.1202 90.7996 36.4C90.7996 26.6798 82.9198 18.8 73.1996 18.8C63.4794 18.8 55.5996 26.6798 55.5996 36.4C55.5996 46.1202 63.4794 54 73.1996 54Z" fill="url(#paint3_linear_1_3614)"/>
<path d="M65.3995 38.8C66.725 38.8 67.7995 37.7255 67.7995 36.4C67.7995 35.0745 66.725 34 65.3995 34C64.074 34 62.9995 35.0745 62.9995 36.4C62.9995 37.7255 64.074 38.8 65.3995 38.8Z" fill="white"/>
<path d="M73.1993 38.8C74.5248 38.8 75.5993 37.7255 75.5993 36.4C75.5993 35.0745 74.5248 34 73.1993 34C71.8738 34 70.7993 35.0745 70.7993 36.4C70.7993 37.7255 71.8738 38.8 73.1993 38.8Z" fill="white"/>
<path d="M80.9996 38.8C82.3251 38.8 83.3996 37.7255 83.3996 36.4C83.3996 35.0745 82.3251 34 80.9996 34C79.6741 34 78.5996 35.0745 78.5996 36.4C78.5996 37.7255 79.6741 38.8 80.9996 38.8Z" fill="white"/>
<defs>
<linearGradient id="paint0_linear_1_3614" x1="45.5991" y1="29.2" x2="45.5991" y2="1.00231" gradientUnits="userSpaceOnUse">
<stop offset="0.5" stop-color="#F56F00"/>
<stop offset="1" stop-color="#FFA514"/>
</linearGradient>
<linearGradient id="paint1_linear_1_3614" x1="45.5991" y1="97" x2="45.5991" y2="73.8019" gradientUnits="userSpaceOnUse">
<stop offset="0.5" stop-color="#F56F00"/>
<stop offset="1" stop-color="#FFA514"/>
</linearGradient>
<linearGradient id="paint2_linear_1_3614" x1="45.6047" y1="85.3906" x2="45.6047" y2="14.9693" gradientUnits="userSpaceOnUse">
<stop stop-color="#FCA800"/>
<stop offset="1" stop-color="#FFE736"/>
</linearGradient>
<linearGradient id="paint3_linear_1_3614" x1="73.1982" y1="54" x2="73.1982" y2="18.8029" gradientUnits="userSpaceOnUse">
<stop offset="0.5" stop-color="#F56F00"/>
<stop offset="1" stop-color="#FFA514"/>
</linearGradient>
</defs>
</svg>
