<svg width="168" height="208" viewBox="0 0 168 208" fill="none" xmlns="http://www.w3.org/2000/svg">
<path d="M39.6918 5.12244L48.5822 95.0471L39.6918 202.878C37.8669 200.776 35.3226 199.726 32.7778 199.726C30.2375 199.726 27.6928 200.777 25.8639 202.878L18.0947 93.7995L25.8639 5.12244C27.6928 7.22356 30.2371 8.27372 32.7778 8.27372C35.3226 8.27412 37.8669 7.22356 39.6918 5.12244Z" fill="#11896C"/>
<path d="M23.452 5.12244L25.8643 21.5467V186.453L21.8177 202.877H13.8653C9.47093 202.877 5.90527 199.316 5.90527 194.921V13.0784C5.90527 8.68403 9.47093 5.12244 13.8653 5.12244H23.452Z" fill="#129979"/>
<path d="M156.273 7.91825L158.479 195.49L132.245 199.901L125.311 202.878H39.6924V5.12244H125.311L156.273 7.91825Z" fill="#1AA483"/>
<path d="M162.094 5.12244V202.877H125.312C125.784 201.111 126.722 199.458 128.078 198.102L147.63 178.55C149.12 177.06 149.957 175.038 149.957 172.931V35.0692C149.957 32.9615 149.12 30.9404 147.63 29.4503L128.078 9.89791C126.722 8.54184 125.784 6.88881 125.312 5.12284L162.094 5.12244Z" fill="#129979"/>
<path d="M167.118 31.4754V9.31816C167.118 4.17178 162.946 0 157.8 0H135.643C133.568 0 132.528 2.50941 133.996 3.97719L163.141 33.1228C164.609 34.5906 167.118 33.551 167.118 31.4754Z" fill="#3ED7B2"/>
<path d="M167.118 176.525V198.682C167.118 203.828 162.947 208 157.8 208H135.643C133.568 208 132.528 205.491 133.996 204.023L163.141 174.877C164.609 173.409 167.118 174.449 167.118 176.525Z" fill="#3ED7B2"/>
<path d="M0.880859 19.8872V10.1908C0.880859 4.56259 5.44345 0 11.0716 0H23.7735C24.9292 0 25.866 0.936813 25.866 2.09259V21.5467L3.01286 21.9789C1.84205 22.0013 0.880859 21.058 0.880859 19.8872Z" fill="#3ED7B2"/>
<path d="M0.880859 188.113V197.809C0.880859 203.437 5.44345 208 11.0716 208H23.7735C24.9292 208 25.866 207.063 25.866 205.907V186.453L3.01286 186.021C1.84205 185.999 0.880859 186.942 0.880859 188.113Z" fill="#3ED7B2"/>
<path d="M122.83 26.0471H78.9569C78.0997 26.0471 77.3692 26.6939 77.2933 27.5478C76.9658 31.2337 75.4436 34.5763 73.1166 37.1853C70.3675 40.2675 66.4951 42.3264 62.1426 42.7192C61.2801 42.7968 60.6191 43.5179 60.6191 44.3836V163.616C60.6191 164.476 61.2704 165.203 62.1271 165.28C66.086 165.633 69.6485 167.365 72.3309 169.992C75.0987 172.702 76.9293 176.365 77.2929 180.45C77.3688 181.305 78.098 181.953 78.956 181.953H122.829C123.69 181.953 124.416 181.3 124.493 180.442C124.84 176.565 126.508 173.069 129.045 170.406C131.771 167.546 135.499 165.649 139.666 165.279C140.519 165.203 141.166 164.473 141.166 163.616V44.3836C141.166 43.5199 140.509 42.7968 139.648 42.7196C135.108 42.3117 131.09 40.0908 128.323 36.7859C126.193 34.2408 124.805 31.0529 124.492 27.5555C124.417 26.6987 123.69 26.0471 122.83 26.0471Z" fill="#3ED7B2"/>
<path d="M119.761 153.252H82.0235C80.2896 153.252 78.8848 151.847 78.8848 150.113C78.8848 148.38 80.29 146.974 82.0235 146.974H119.761C121.495 146.974 122.9 148.38 122.9 150.113C122.9 151.847 121.495 153.252 119.761 153.252Z" fill="#2BAB8C"/>
<path d="M111.483 165.659H90.3018C88.5679 165.659 87.1631 164.254 87.1631 162.521C87.1631 160.787 88.5683 159.382 90.3018 159.382H111.483C113.217 159.382 114.622 160.787 114.622 162.521C114.622 164.254 113.217 165.659 111.483 165.659Z" fill="#2BAB8C"/>
<path d="M120.462 122.427L106.957 123.357H80.1434C78.9876 123.357 78.0508 122.421 78.0508 121.265V66.3341C78.0508 65.1783 78.9876 64.2415 80.1434 64.2415H106.248L120.108 65.1852C121.264 65.1852 122.201 66.122 122.201 67.2778L122.555 120.335C122.555 121.491 121.618 122.427 120.462 122.427Z" fill="#2BAB8C"/>
<path d="M123.733 66.3341V121.264C123.733 122.419 122.795 123.356 121.64 123.356H104.657C108.257 123.356 111.178 120.439 111.178 116.836V70.7659C111.178 67.1625 108.256 64.2415 104.657 64.2415H121.641C122.795 64.2415 123.733 65.1787 123.733 66.3341Z" fill="#118C6F"/>
</svg>
