<svg width="208" height="208" viewBox="0 0 208 208" fill="none" xmlns="http://www.w3.org/2000/svg">
<path d="M59.6918 5.12244L68.5822 95.0471L59.6918 202.878C57.8669 200.776 55.3226 199.726 52.7778 199.726C50.2375 199.726 47.6928 200.777 45.8639 202.878L38.0947 93.7995L45.8639 5.12244C47.6928 7.22356 50.2371 8.27372 52.7778 8.27372C55.3226 8.27412 57.8669 7.22356 59.6918 5.12244Z" fill="#11896C"/>
<path d="M43.452 5.12244L45.8643 21.5467V186.453L41.8177 202.877H33.8653C29.4709 202.877 25.9053 199.316 25.9053 194.921V13.0784C25.9053 8.68403 29.4709 5.12244 33.8653 5.12244H43.452Z" fill="#129979"/>
<path d="M176.273 7.91825L178.479 195.49L152.245 199.901L145.311 202.878H59.6924V5.12244H145.311L176.273 7.91825Z" fill="#1AA483"/>
<path d="M182.094 5.12244V202.877H145.312C145.784 201.111 146.722 199.458 148.078 198.102L167.63 178.55C169.12 177.06 169.957 175.038 169.957 172.931V35.0692C169.957 32.9615 169.12 30.9404 167.63 29.4503L148.078 9.89791C146.722 8.54184 145.784 6.88881 145.312 5.12284L182.094 5.12244Z" fill="#129979"/>
<path d="M187.118 31.4754V9.31816C187.118 4.17178 182.946 0 177.8 0H155.643C153.568 0 152.528 2.50941 153.996 3.97719L183.141 33.1228C184.609 34.5906 187.118 33.551 187.118 31.4754Z" fill="#3ED7B2"/>
<path d="M187.118 176.525V198.682C187.118 203.828 182.947 208 177.8 208H155.643C153.568 208 152.528 205.491 153.996 204.023L183.141 174.877C184.609 173.409 187.118 174.449 187.118 176.525Z" fill="#3ED7B2"/>
<path d="M20.8809 19.8872V10.1908C20.8809 4.56259 25.4435 0 31.0716 0H43.7735C44.9292 0 45.866 0.936812 45.866 2.09259V21.5467L23.0129 21.9789C21.842 22.0013 20.8809 21.058 20.8809 19.8872Z" fill="#3ED7B2"/>
<path d="M20.8809 188.113V197.809C20.8809 203.437 25.4435 208 31.0716 208H43.7735C44.9292 208 45.866 207.063 45.866 205.907V186.453L23.0129 186.021C21.842 185.999 20.8809 186.942 20.8809 188.113Z" fill="#3ED7B2"/>
<path d="M142.83 26.0471H98.9569C98.0997 26.0471 97.3692 26.6939 97.2933 27.5478C96.9658 31.2337 95.4436 34.5763 93.1166 37.1853C90.3675 40.2675 86.4951 42.3264 82.1426 42.7192C81.2801 42.7968 80.6191 43.5179 80.6191 44.3836V163.616C80.6191 164.476 81.2704 165.203 82.1271 165.28C86.086 165.633 89.6485 167.365 92.3309 169.992C95.0987 172.702 96.9293 176.365 97.2929 180.45C97.3688 181.305 98.098 181.953 98.956 181.953H142.829C143.69 181.953 144.416 181.3 144.493 180.442C144.84 176.565 146.508 173.069 149.045 170.406C151.771 167.546 155.499 165.649 159.666 165.279C160.519 165.203 161.166 164.473 161.166 163.616V44.3836C161.166 43.5199 160.509 42.7968 159.648 42.7196C155.108 42.3117 151.09 40.0908 148.323 36.7859C146.193 34.2408 144.805 31.0529 144.492 27.5555C144.417 26.6987 143.69 26.0471 142.83 26.0471Z" fill="#3ED7B2"/>
<path d="M139.761 153.252H102.023C100.29 153.252 98.8848 151.847 98.8848 150.113C98.8848 148.38 100.29 146.974 102.023 146.974H139.761C141.495 146.974 142.9 148.38 142.9 150.113C142.9 151.847 141.495 153.252 139.761 153.252Z" fill="#2BAB8C"/>
<path d="M131.483 165.659H110.302C108.568 165.659 107.163 164.254 107.163 162.521C107.163 160.787 108.568 159.382 110.302 159.382H131.483C133.217 159.382 134.622 160.787 134.622 162.521C134.622 164.254 133.217 165.659 131.483 165.659Z" fill="#2BAB8C"/>
<path d="M140.462 122.427L126.957 123.357H100.143C98.9876 123.357 98.0508 122.421 98.0508 121.265V66.3341C98.0508 65.1783 98.9876 64.2415 100.143 64.2415H126.248L140.108 65.1852C141.264 65.1852 142.201 66.122 142.201 67.2778L142.555 120.335C142.555 121.491 141.618 122.427 140.462 122.427Z" fill="#2BAB8C"/>
<path d="M143.733 66.3341V121.264C143.733 122.419 142.795 123.356 141.64 123.356H124.657C128.257 123.356 131.178 120.439 131.178 116.836V70.7659C131.178 67.1625 128.256 64.2415 124.657 64.2415H141.641C142.795 64.2415 143.733 65.1787 143.733 66.3341Z" fill="#118C6F"/>
</svg>
