<svg width="124" height="124" viewBox="0 0 124 124" fill="none" xmlns="http://www.w3.org/2000/svg">
<path d="M64.865 19.3306H22.4448V7.24914C22.4448 3.2454 25.6902 0 29.6937 0H57.6158C61.6193 0 64.865 3.2454 64.865 7.24914V19.3306Z" fill="url(#paint0_linear_1_3661)"/>
<path d="M64.865 19.3306H22.4448V7.24914C22.4448 3.2454 25.6902 0 29.6937 0H57.6158C61.6193 0 64.865 3.2454 64.865 7.24914V19.3306Z" fill="url(#paint1_linear_1_3661)"/>
<path d="M53.9648 19.3306H11.5444V7.24914C11.5444 3.2454 14.7901 0 18.7936 0H46.7157C50.7192 0 53.9648 3.2454 53.9648 7.24914V19.3306Z" fill="url(#paint2_linear_1_3661)"/>
<path d="M42.4202 13.7596V7.24914C42.4202 3.2454 39.1748 0 35.1713 0H7.24914C3.2454 0 0 3.2454 0 7.24914V85.5211C0 91.2246 4.62374 95.8484 10.3273 95.8484H113.673C119.376 95.8484 124 91.2246 124 85.5211V27.2416C124 21.5381 119.376 16.9143 113.673 16.9143H45.5749C43.8325 16.9143 42.4202 15.5019 42.4202 13.7596Z" fill="url(#paint3_linear_1_3661)"/>
<path d="M94.171 31.1216H91.6839C90.2574 31.1216 89.1011 29.9652 89.1011 28.5387V26.0517C89.1011 24.6252 90.2574 23.4688 91.6839 23.4688H94.171C95.5975 23.4688 96.7538 24.6252 96.7538 26.0517V28.5387C96.7538 29.9652 95.5975 31.1216 94.171 31.1216Z" fill="url(#paint4_linear_1_3661)"/>
<path d="M103.928 31.1216H101.441C100.015 31.1216 98.8584 29.9652 98.8584 28.5387V26.0517C98.8584 24.6252 100.015 23.4688 101.441 23.4688H103.928C105.355 23.4688 106.511 24.6252 106.511 26.0517V28.5387C106.511 29.9652 105.355 31.1216 103.928 31.1216Z" fill="url(#paint5_linear_1_3661)"/>
<path d="M113.686 31.1216H111.199C109.772 31.1216 108.616 29.9652 108.616 28.5387V26.0517C108.616 24.6252 109.772 23.4688 111.199 23.4688H113.686C115.112 23.4688 116.268 24.6252 116.268 26.0517V28.5387C116.268 29.9652 115.112 31.1216 113.686 31.1216Z" fill="url(#paint6_linear_1_3661)"/>
<path d="M0 74.1012V85.5211C0 91.2246 4.62374 95.8484 10.3273 95.8484H113.673C119.376 95.8484 124 91.2246 124 85.5211V74.1012H0Z" fill="url(#paint7_linear_1_3661)"/>
<path d="M107.804 88.0777L81.5614 44.9257C80.4464 43.3801 78.6311 43.1027 76.5795 43.1027H55.1603C51.7693 43.1027 49.7501 45.1219 49.7501 48.513V72.4155H40.3655C34.2617 72.4155 61.0275 75.8284 57.0758 81.7935L43.7626 94.1209L106.145 94.8298C111.143 94.83 106.85 92.7946 107.804 88.0777Z" fill="url(#paint8_linear_1_3661)"/>
<path d="M75.1288 40.3781H37.8398C35.0315 40.3781 32.7549 42.6546 32.7549 45.4629C32.7549 48.2712 35.0315 50.5478 37.8398 50.5478H75.129C77.9373 50.5478 80.2139 48.2712 80.2139 45.4629C80.2139 42.6546 77.9371 40.3781 75.1288 40.3781Z" fill="#455A64"/>
<path d="M75.1286 114.956H37.8395C36.9035 114.956 36.1445 114.197 36.1445 113.261V99.0745C36.1444 94.6749 38.0436 90.4896 41.3548 87.5928L47.3651 82.3317C48.0691 81.7147 48.1395 80.6438 47.5224 79.9399C47.4735 79.8841 47.4209 79.8315 47.3651 79.7826L41.3548 74.5215C38.0436 71.6247 36.1444 67.4393 36.1445 63.0398V48.853C36.1445 47.9169 36.9035 47.158 37.8395 47.158H75.1288C76.0648 47.158 76.8238 47.9169 76.8238 48.853V63.0398C76.8239 67.4393 74.9247 71.6247 71.6135 74.5215L65.6032 79.7826C64.8992 80.3996 64.8288 81.4704 65.4459 82.1744C65.4948 82.2302 65.5474 82.2828 65.6032 82.3317L71.6135 87.5928C74.9247 90.4896 76.8239 94.6749 76.8238 99.0745V113.261C76.8236 114.198 76.0647 114.956 75.1286 114.956Z" fill="#455A64"/>
<path d="M39.5347 111.566H73.4338V99.0747C73.4297 95.6508 71.9467 92.3955 69.3659 90.1456L63.3556 84.8845C61.2419 83.0355 61.0274 79.8231 62.8764 77.7094C63.0252 77.5392 63.1854 77.379 63.3556 77.2301L69.3659 71.969C71.9467 69.7191 73.4297 66.4639 73.4338 63.04V50.5479H39.5347V63.0397C39.5388 66.4635 41.0218 69.7188 43.6026 71.9687L49.6129 77.2298C51.7257 79.0799 51.9386 82.2925 50.0887 84.4052C49.9407 84.5742 49.7818 84.7331 49.6129 84.881L43.6026 90.1456C41.0218 92.3955 39.5388 95.6508 39.5347 99.0747V111.566Z" fill="#ECEFF1"/>
<path d="M66.5252 68.545C66.2632 67.9111 65.6451 67.4977 64.9591 67.4975H48.0096C47.0735 67.4958 46.3133 68.2534 46.3115 69.1895C46.3107 69.6408 46.49 70.0738 46.8095 70.3925L55.2843 78.8673C55.9461 79.529 57.019 79.529 57.681 78.8673L66.1558 70.3925C66.6414 69.9081 66.7872 69.1788 66.5252 68.545Z" fill="url(#paint9_linear_1_3661)"/>
<path d="M75.1288 111.566H37.8398C35.0315 111.566 32.7549 113.843 32.7549 116.651C32.7549 119.46 35.0315 121.736 37.8398 121.736H75.129C77.9373 121.736 80.2139 119.46 80.2139 116.651C80.2139 113.843 77.9371 111.566 75.1288 111.566Z" fill="#455A64"/>
<path d="M57.6234 93.3625C56.9537 92.7563 55.9266 92.7817 55.2876 93.4202L39.5347 109.17V111.566H73.4338V107.736L57.6234 93.3625Z" fill="url(#paint10_linear_1_3661)"/>
<defs>
<linearGradient id="paint0_linear_1_3661" x1="43.6549" y1="4.02733" x2="43.6549" y2="19.3401" gradientUnits="userSpaceOnUse">
<stop stop-color="#FF9100"/>
<stop offset="1" stop-color="#E63950"/>
</linearGradient>
<linearGradient id="paint1_linear_1_3661" x1="49.2439" y1="-5.58784" x2="38.6741" y2="10.9177" gradientUnits="userSpaceOnUse">
<stop stop-color="#B9DD39"/>
<stop offset="1" stop-color="#0B799D"/>
</linearGradient>
<linearGradient id="paint2_linear_1_3661" x1="38.3437" y1="-5.58784" x2="27.7739" y2="10.9178" gradientUnits="userSpaceOnUse">
<stop stop-color="#B9DD39"/>
<stop offset="1" stop-color="#0B799D"/>
</linearGradient>
<linearGradient id="paint3_linear_1_3661" x1="40.8351" y1="29.186" x2="101.512" y2="130.875" gradientUnits="userSpaceOnUse">
<stop stop-color="#B9DD39"/>
<stop offset="1" stop-color="#0B799D"/>
</linearGradient>
<linearGradient id="paint4_linear_1_3661" x1="91.6212" y1="25.7991" x2="96.9467" y2="32.6979" gradientUnits="userSpaceOnUse">
<stop stop-color="#B9DD39"/>
<stop offset="1" stop-color="#0B799D"/>
</linearGradient>
<linearGradient id="paint5_linear_1_3661" x1="101.379" y1="25.7991" x2="106.704" y2="32.6979" gradientUnits="userSpaceOnUse">
<stop stop-color="#B9DD39"/>
<stop offset="1" stop-color="#0B799D"/>
</linearGradient>
<linearGradient id="paint6_linear_1_3661" x1="111.136" y1="25.7991" x2="116.461" y2="32.6979" gradientUnits="userSpaceOnUse">
<stop stop-color="#B9DD39"/>
<stop offset="1" stop-color="#0B799D"/>
</linearGradient>
<linearGradient id="paint7_linear_1_3661" x1="62" y1="83.2295" x2="62" y2="103.373" gradientUnits="userSpaceOnUse">
<stop stop-color="#107C48" stop-opacity="0"/>
<stop offset="1" stop-color="#107C48"/>
</linearGradient>
<linearGradient id="paint8_linear_1_3661" x1="87.9621" y1="97.9061" x2="40.8382" y2="67.4568" gradientUnits="userSpaceOnUse">
<stop stop-color="#27965A" stop-opacity="0"/>
<stop offset="1" stop-color="#117B1C"/>
</linearGradient>
<linearGradient id="paint9_linear_1_3661" x1="53.0106" y1="71.1107" x2="59.4017" y2="85.3042" gradientUnits="userSpaceOnUse">
<stop stop-color="#B9DD39"/>
<stop offset="1" stop-color="#0B799D"/>
</linearGradient>
<linearGradient id="paint10_linear_1_3661" x1="50.6982" y1="98.6007" x2="60.3452" y2="121.326" gradientUnits="userSpaceOnUse">
<stop stop-color="#B9DD39"/>
<stop offset="1" stop-color="#0B799D"/>
</linearGradient>
</defs>
</svg>
