<svg width="57" height="56" viewBox="0 0 57 56" fill="none" xmlns="http://www.w3.org/2000/svg">
<g clip-path="url(#clip0_1_3350)">
<path d="M28.4998 17.9794C28.4998 17.9794 27.1127 5.98054 12.375 0.224182V17.9794H28.4998Z" fill="#F0F5FA"/>
<path d="M28.501 17.9794C28.501 17.9794 29.8881 5.98054 44.6258 0.224182V17.9794H28.501Z" fill="#E4ECF2"/>
<path d="M28.6774 17.9794C22.2423 6.48136 6.82485 2.9483 6.82485 2.9483L3.7627 6.05986L24.9529 20.1565L28.6774 17.9794Z" fill="#E4ECF2"/>
<path d="M28.3213 17.9794C34.7564 6.48136 50.1739 2.9483 50.1739 2.9483L53.236 6.05986L32.0457 20.1566L28.3213 17.9794Z" fill="#F0F5FA"/>
<path d="M55.5376 42.6833L33.928 54.8387C33.183 55.2579 32.2623 54.7194 32.2623 53.8645L31.1445 36.1034L32.2623 18.6328C32.2623 18.229 32.4801 17.8565 32.832 17.6586L54.4416 5.50317C55.1866 5.08401 56.1073 5.62243 56.1073 6.47739V41.709C56.1073 42.1129 55.8895 42.4853 55.5376 42.6833Z" fill="#15C69B"/>
<path d="M54.44 5.50341L51.6348 7.08132V41.7091C51.6348 42.1129 51.417 42.4854 51.0651 42.6833L32.2607 53.2608V53.8645C32.2607 54.7194 33.1814 55.2578 33.9265 54.8387L55.5361 42.6833C55.8881 42.4854 56.1058 42.1129 56.1058 41.7091V6.47752C56.1058 5.62267 55.1851 5.08426 54.44 5.50341Z" fill="#1AA483"/>
<path d="M23.07 54.8388L1.46034 42.6834C1.10836 42.4854 0.890625 42.113 0.890625 41.7091V6.47757C0.890625 5.62272 1.81131 5.08431 2.55639 5.50335L24.166 17.6588C24.5179 17.8567 24.7357 18.2291 24.7357 18.633V53.8646C24.7357 54.7195 23.8151 55.2579 23.07 54.8388Z" fill="#15C69B"/>
<path d="M24.166 17.6589L2.55639 5.50347C1.81131 5.08432 0.890625 5.62274 0.890625 6.47758V7.08139L19.695 17.6589C20.047 17.8568 20.2647 18.2293 20.2647 18.6331V53.2609L23.0699 54.8388C23.815 55.2579 24.7357 54.7195 24.7357 53.8646L25.8534 36.1595L24.7357 18.633C24.7357 18.2293 24.5179 17.8568 24.166 17.6589Z" fill="#1AA483"/>
<path d="M52.0093 20.157L36.3604 29.0989V23.6946L52.0093 14.7527V20.157Z" fill="white"/>
<path d="M31.1447 55.7758H25.8541C25.2367 55.7758 24.7363 55.2753 24.7363 54.658V19.097C24.7363 18.4797 25.2367 17.9793 25.8541 17.9793H31.1447C31.762 17.9793 32.2624 18.4797 32.2624 19.097V54.658C32.2624 55.2753 31.762 55.7758 31.1447 55.7758Z" fill="#15C69B"/>
<path d="M31.1441 17.9793H27.3438C27.9611 17.9793 28.4615 18.4797 28.4615 19.097V54.658C28.4615 55.2753 27.9611 55.7758 27.3438 55.7758H31.1441C31.7614 55.7758 32.2618 55.2753 32.2618 54.658V19.097C32.2618 18.4797 31.7614 17.9793 31.1441 17.9793Z" fill="#1AA483"/>
<path d="M24.7363 21.8783H32.2624V25.6041H24.7363V21.8783Z" fill="#FFDA45"/>
<path d="M24.7363 48.151H32.2624V51.8768H24.7363V48.151Z" fill="#FFDA45"/>
<path d="M28.5004 42.7457C28.0374 42.7457 27.6621 42.3704 27.6621 41.9074V31.8477C27.6621 31.3846 28.0374 31.0094 28.5004 31.0094C28.9634 31.0094 29.3387 31.3846 29.3387 31.8477V41.9074C29.3387 42.3703 28.9634 42.7457 28.5004 42.7457Z" fill="white"/>
</g>
<defs>
<clipPath id="clip0_1_3350">
<rect width="55.5516" height="55.5516" fill="white" transform="translate(0.724609 0.224182)"/>
</clipPath>
</defs>
</svg>
