<svg width="45" height="44" viewBox="0 0 45 44" fill="none" xmlns="http://www.w3.org/2000/svg">
<g clip-path="url(#clip0_1_3393)">
<path d="M38.0833 4.58338H6.9167C4.39151 4.57926 2.34105 6.62302 2.33692 9.14829C2.33658 9.35377 2.35007 9.55899 2.3774 9.76258C2.44237 10.2646 2.90205 10.6189 3.40418 10.554C3.52647 10.5382 3.64429 10.4979 3.75059 10.4354C4.15501 10.2001 4.61555 10.0785 5.0834 10.0834H11.6101C12.788 10.0866 13.8344 10.8358 14.2171 11.9497L14.3729 12.452C15.0037 14.3192 16.7526 15.578 18.7234 15.5833H39.9167C40.3974 15.5837 40.8696 15.7101 41.2862 15.95C41.427 16.0321 41.5871 16.075 41.75 16.0747C42.2563 16.0747 42.6667 15.6642 42.6667 15.158V9.16669C42.6667 6.6354 40.6147 4.58338 38.0833 4.58338Z" fill="#FFA000"/>
<path d="M11.6104 8.24988C13.581 8.25535 15.3302 9.51466 15.9609 11.3817L16.1162 11.8837C16.4989 12.9976 17.5458 13.7466 18.7236 13.7499H39.917C40.724 13.7494 41.5167 13.9637 42.2139 14.37C43.6328 15.1844 44.5057 16.6979 44.5 18.3339V22.1718C44.212 21.8095 43.9047 21.4602 43.5742 21.1298C41.2767 18.8322 38.1613 17.5397 34.9121 17.536C32.4883 17.536 30.1188 18.2549 28.1035 19.6014C26.0882 20.948 24.5174 22.8622 23.5898 25.1014C22.6623 27.3408 22.4197 29.8052 22.8926 32.1825C23.3655 34.5598 24.5322 36.7439 26.2461 38.4579C26.5882 38.8 26.9498 39.1195 27.3271 39.4169H5.08301C2.55201 39.4167 0.500255 37.3648 0.5 34.8339V12.8339C0.49957 11.1782 1.39429 9.65131 2.83887 8.84265C3.52009 8.44739 4.29549 8.24228 5.08301 8.24988H11.6104Z" fill="#FFC107"/>
<path d="M44.5371 29.7917C44.5371 31.6953 43.9726 33.5562 42.915 35.1391C41.8574 36.7219 40.3542 37.9555 38.5954 38.684C36.8367 39.4125 34.9014 39.6031 33.0344 39.2317C31.1673 38.8604 29.4523 37.9437 28.1062 36.5976C26.7601 35.2515 25.8434 33.5365 25.4721 31.6694C25.1007 29.8024 25.2913 27.8671 26.0198 26.1084C26.7483 24.3496 27.9819 22.8464 29.5648 21.7888C31.1476 20.7312 33.0085 20.1667 34.9121 20.1667C37.4639 20.1695 39.9104 21.1845 41.7149 22.9889C43.5193 24.7934 44.5343 27.2399 44.5371 29.7917Z" fill="#FFC107"/>
<path d="M39.0371 24.9792V26.3542H30.7871V24.9792C30.7871 24.8889 30.8049 24.7995 30.8394 24.7161C30.8739 24.6326 30.9246 24.5568 30.9884 24.493C31.0523 24.4292 31.1281 24.3785 31.2115 24.344C31.2949 24.3094 31.3843 24.2917 31.4746 24.2917H38.3496C38.4399 24.2917 38.5293 24.3094 38.6127 24.344C38.6962 24.3785 38.772 24.4292 38.8358 24.493C38.8996 24.5568 38.9503 24.6326 38.9848 24.7161C39.0194 24.7995 39.0371 24.8889 39.0371 24.9792ZM30.7871 34.6042C30.7871 34.7337 30.8236 34.8606 30.8926 34.9703C30.9615 35.08 31.0601 35.1679 31.1768 35.224C31.2936 35.2801 31.4238 35.3021 31.5525 35.2874C31.6813 35.2727 31.8032 35.2219 31.9043 35.141L34.9121 32.7347L37.9199 35.141C38.0214 35.2214 38.1433 35.2718 38.272 35.2865C38.4006 35.3011 38.5308 35.2795 38.6477 35.2239C38.765 35.1686 38.8641 35.0808 38.9331 34.971C39.0021 34.8612 39.0382 34.7339 39.0371 34.6042V27.7292H30.7871V34.6042Z" fill="white"/>
</g>
<defs>
<clipPath id="clip0_1_3393">
<rect width="44" height="44" fill="white" transform="translate(0.5)"/>
</clipPath>
</defs>
</svg>
