<svg width="98" height="99" viewBox="0 0 98 99" fill="none" xmlns="http://www.w3.org/2000/svg">
<path d="M65.0781 10.4019H68.9062C69.9215 10.4019 70.8952 10.8052 71.6131 11.5231C72.3311 12.241 72.7344 13.2147 72.7344 14.23V64.5698C72.7344 65.5851 72.3311 66.5588 71.6131 67.2767C70.8952 67.9946 69.9215 68.3979 68.9062 68.3979H65.0781V10.4019Z" fill="#596C76"/>
<path d="M65.0781 68.3941C49.0183 58.7618 30.6432 53.6737 11.9162 53.6734H8.99609C6.96553 53.6734 5.01813 52.8668 3.58231 51.431C2.14648 49.9952 1.33984 48.0478 1.33984 46.0172V32.7788C1.33984 30.7482 2.14648 28.8008 3.58231 27.365C5.01813 25.9292 6.96553 25.1225 8.99609 25.1225H11.9162C30.6432 25.1223 49.0183 20.0342 65.0781 10.4019V68.3941Z" fill="#979FEF"/>
<path d="M72.7344 32.5384H75.8926C77.1109 32.5384 78.2794 33.0224 79.1408 33.8839C80.0023 34.7454 80.4863 35.9138 80.4863 37.1321V41.6677C80.4863 42.886 80.0023 44.0545 79.1408 44.916C78.2794 45.7775 77.1109 46.2615 75.8926 46.2615H72.7344V32.5384Z" fill="#FFA800"/>
<path d="M12.6903 53.6865L7.30799 85.0166C7.23236 85.4563 7.25373 85.9072 7.37059 86.3378C7.48745 86.7684 7.69698 87.1683 7.98453 87.5094C8.27207 87.8506 8.63069 88.1248 9.03528 88.3128C9.43988 88.5009 9.88068 88.5983 10.3268 88.5982H17.3201C18.0424 88.5981 18.7414 88.3428 19.2937 87.8772C19.846 87.4117 20.2159 86.7659 20.3382 86.054L25.7412 54.6044C21.4146 54.0233 17.0556 53.7167 12.6903 53.6865Z" fill="#596C76"/>
<path d="M11.9154 31.2475H8.99609C8.58998 31.2475 8.2005 31.4088 7.91334 31.696C7.62617 31.9832 7.46484 32.3726 7.46484 32.7787V46.0172C7.46484 46.4233 7.62617 46.8128 7.91334 47.0999C8.2005 47.3871 8.58998 47.5484 8.99609 47.5484H11.9154C19.9146 47.55 27.8895 48.4283 35.6973 50.1676V28.6283C27.8895 30.3676 19.9146 31.2459 11.9154 31.2475Z" fill="#737EE6"/>
<path d="M24.4552 62.0861L22.1338 75.6009H26.017C26.7394 75.6009 27.4384 75.3455 27.9907 74.88C28.5429 74.4144 28.9129 73.7686 29.0351 73.0568L30.3045 65.6669C30.38 65.2274 30.3586 64.7766 30.2417 64.3461C30.1248 63.9157 29.9154 63.516 29.6279 63.1749C29.3405 62.8339 28.982 62.5597 28.5775 62.3717C28.1731 62.1836 27.7325 62.0862 27.2864 62.0861H24.4552Z" fill="#FFA800"/>
<path d="M96.6602 40.7405H89.0996C88.7443 40.7405 88.4035 40.5994 88.1522 40.3481C87.9009 40.0968 87.7598 39.756 87.7598 39.4007C87.7598 39.0453 87.9009 38.7046 88.1522 38.4533C88.4035 38.202 88.7443 38.0609 89.0996 38.0609H96.6602C97.0155 38.0609 97.3563 38.202 97.6076 38.4533C97.8588 38.7046 98 39.0453 98 39.4007C98 39.756 97.8588 40.0968 97.6076 40.3481C97.3563 40.5994 97.0155 40.7405 96.6602 40.7405Z" fill="#737EE6"/>
<path d="M85.4435 31.9083C85.1785 31.9083 84.9195 31.8298 84.6991 31.6826C84.4788 31.5354 84.3071 31.3262 84.2056 31.0814C84.1042 30.8367 84.0776 30.5673 84.1292 30.3074C84.1808 30.0475 84.3083 29.8088 84.4956 29.6214L89.842 24.2758C89.9663 24.1514 90.114 24.0527 90.2765 23.9854C90.439 23.9181 90.6132 23.8835 90.7891 23.8835C90.9649 23.8835 91.1391 23.9181 91.3016 23.9854C91.4641 24.0527 91.6118 24.1514 91.7361 24.2758C91.8605 24.4001 91.9592 24.5478 92.0265 24.7103C92.0938 24.8728 92.1284 25.047 92.1284 25.2229C92.1284 25.3987 92.0938 25.5729 92.0265 25.7354C91.9592 25.8979 91.8605 26.0456 91.7361 26.1699L86.3905 31.5163C86.2663 31.6409 86.1187 31.7396 85.9562 31.8069C85.7936 31.8742 85.6194 31.9086 85.4435 31.9083Z" fill="#F2F2FC"/>
<path d="M85.4435 31.9083C85.1785 31.9083 84.9195 31.8298 84.6991 31.6826C84.4788 31.5354 84.3071 31.3262 84.2056 31.0814C84.1042 30.8367 84.0776 30.5673 84.1292 30.3074C84.1808 30.0475 84.3083 29.8088 84.4956 29.6214L89.842 24.2758C89.9663 24.1514 90.114 24.0527 90.2765 23.9854C90.439 23.9181 90.6132 23.8835 90.7891 23.8835C90.9649 23.8835 91.1391 23.9181 91.3016 23.9854C91.4641 24.0527 91.6118 24.1514 91.7361 24.2758C91.8605 24.4001 91.9592 24.5478 92.0265 24.7103C92.0938 24.8728 92.1284 25.047 92.1284 25.2229C92.1284 25.3987 92.0938 25.5729 92.0265 25.7354C91.9592 25.8979 91.8605 26.0456 91.7361 26.1699L86.3905 31.5163C86.2663 31.6409 86.1187 31.7396 85.9562 31.8069C85.7936 31.8742 85.6194 31.9086 85.4435 31.9083Z" fill="#737EE6"/>
<path d="M90.7875 54.9176C90.6116 54.9178 90.4374 54.8833 90.2748 54.816C90.1123 54.7487 89.9647 54.65 89.8404 54.5256L84.494 49.1785C84.2427 48.9272 84.1016 48.5864 84.1016 48.231C84.1016 47.8757 84.2427 47.5348 84.494 47.2836C84.7453 47.0323 85.0861 46.8911 85.4415 46.8911C85.7968 46.8911 86.1377 47.0323 86.3889 47.2836L91.7345 52.6307C91.9218 52.8181 92.0493 53.0567 92.1009 53.3166C92.1526 53.5764 92.126 53.8457 92.0247 54.0904C91.9233 54.3352 91.7517 54.5444 91.5315 54.6916C91.3113 54.8388 91.0524 54.9175 90.7875 54.9176Z" fill="#F2F2FC"/>
<path d="M90.7875 54.9176C90.6116 54.9178 90.4374 54.8833 90.2748 54.816C90.1123 54.7487 89.9647 54.65 89.8404 54.5256L84.494 49.1785C84.2427 48.9272 84.1016 48.5864 84.1016 48.231C84.1016 47.8757 84.2427 47.5348 84.494 47.2836C84.7453 47.0323 85.0861 46.8911 85.4415 46.8911C85.7968 46.8911 86.1377 47.0323 86.3889 47.2836L91.7345 52.6307C91.9218 52.8181 92.0493 53.0567 92.1009 53.3166C92.1526 53.5764 92.126 53.8457 92.0247 54.0904C91.9233 54.3352 91.7517 54.5444 91.5315 54.6916C91.3113 54.8388 91.0524 54.9175 90.7875 54.9176Z" fill="#737EE6"/>
</svg>
