<svg width="57" height="56" viewBox="0 0 57 56" fill="none" xmlns="http://www.w3.org/2000/svg">
<g clip-path="url(#clip0_1_3333)">
<path d="M28.5002 0.224182L14.6123 28L28.5002 55.7758C43.8404 55.7758 56.276 43.3402 56.276 28C56.276 12.6598 43.8404 0.224182 28.5002 0.224182Z" fill="#14CFFF"/>
<path d="M0.724609 28C0.724609 43.3402 13.1603 55.7758 28.5004 55.7758V0.224182C13.1603 0.224182 0.724609 12.6598 0.724609 28Z" fill="#14CFFF"/>
<path d="M28.5001 6.73413L17.8672 28L28.5001 49.2658C40.2449 49.2658 49.766 39.7448 49.766 28C49.766 16.2552 40.2449 6.73413 28.5001 6.73413Z" fill="#E4F5FF"/>
<path d="M7.23438 28C7.23438 39.7448 16.7554 49.2658 28.5002 49.2658V6.73413C16.7554 6.73413 7.23438 16.2552 7.23438 28Z" fill="#E4F5FF"/>
<path d="M26.9006 35.3235L26.9006 28.8136L25.3662 27.2792L23.6457 32.0685L23.6457 35.3235H26.9006Z" fill="#340D66"/>
<path d="M26.8999 17.4756L23.645 17.4756V32.0686L26.8999 28.8137L26.8999 17.4756Z" fill="#373E9F"/>
<path d="M37.859 32.7619L29.9384 32.7619L25.1491 34.4824L26.6835 36.0168L37.859 36.0167L37.859 32.7619Z" fill="#373E9F"/>
<path d="M23.6396 32.7619L23.6396 36.0169L26.8945 36.0169L30.1495 32.7619L23.6396 32.7619Z" fill="#3857BC"/>
</g>
<defs>
<clipPath id="clip0_1_3333">
<rect width="55.5516" height="55.5516" fill="white" transform="translate(0.724609 0.224182)"/>
</clipPath>
</defs>
</svg>
