<svg width="32" height="32" viewBox="0 0 32 32" fill="none" xmlns="http://www.w3.org/2000/svg">
<g clip-path="url(#clip0_1_3566)">
<path d="M16.1418 23.2501H15.8579C14.0398 23.2501 12.5324 21.8283 12.4263 20.0133L11.4687 3.63819C11.4137 2.69725 11.753 1.7645 12.3997 1.07887C13.0464 0.393187 13.9578 0 14.9003 0H17.0994C18.0419 0 18.9533 0.393187 19.6 1.07881C20.2467 1.76444 20.586 2.69731 20.5311 3.63812L19.5735 20.0133C19.4673 21.8284 17.9599 23.2501 16.1418 23.2501Z" fill="#FF674F"/>
<path d="M16.1419 23.2501C17.9601 23.2501 19.4674 21.8284 19.5736 20.0133L20.5312 3.63812C20.5862 2.69725 20.2468 1.76444 19.6001 1.07881C18.9534 0.393187 18.042 0 17.0996 0H16V23.2501H16.1419Z" fill="#F2472C"/>
<path d="M16 32C14.1046 32 12.5625 30.4579 12.5625 28.5626C12.5625 26.6671 14.1046 25.1251 16 25.1251C17.8954 25.1251 19.4375 26.6671 19.4375 28.5625C19.4375 30.4579 17.8954 32 16 32Z" fill="#FF674F"/>
<path d="M16 25.1251V32C17.8954 32 19.4375 30.4579 19.4375 28.5625C19.4375 26.6671 17.8954 25.1251 16 25.1251Z" fill="#F2472C"/>
<path d="M9.46338 25.1099C9.14075 25.1099 8.82688 24.9433 8.65263 24.6446C7.89856 23.3516 7.5 21.875 7.5 20.3746C7.5 18.8741 7.89856 17.3975 8.65263 16.1046C8.91344 15.6574 9.48737 15.506 9.93475 15.7671C10.382 16.0279 10.5331 16.6019 10.2723 17.0492C9.68525 18.0558 9.375 19.2056 9.375 20.3746C9.375 21.5434 9.68525 22.6934 10.2723 23.6999C10.5331 24.1472 10.382 24.7213 9.93475 24.9821C9.78625 25.0687 9.62369 25.1099 9.46338 25.1099Z" fill="#FF9300"/>
<path d="M6.22156 26.993C5.89894 26.993 5.58506 26.8265 5.41081 26.5277C4.32431 24.6645 3.75 22.5368 3.75 20.3745C3.75 18.2123 4.32431 16.0846 5.41087 14.2214C5.67162 13.7742 6.24569 13.623 6.693 13.8839C7.14031 14.1447 7.29144 14.7187 7.03056 15.166C6.111 16.7428 5.625 18.5439 5.625 20.3745C5.625 22.2052 6.111 24.0063 7.03056 25.5831C7.29137 26.0304 7.14025 26.6044 6.693 26.8653C6.54444 26.9519 6.38194 26.993 6.22156 26.993Z" fill="#FFB500"/>
<path d="M2.97506 28.8791C2.65219 28.8791 2.33812 28.7122 2.16394 28.4131C0.748313 25.9814 0 23.2018 0 20.3746C0 17.5475 0.748313 14.7678 2.16394 12.3361C2.42444 11.8886 2.99837 11.7369 3.44581 11.9976C3.89325 12.2581 4.04481 12.832 3.78437 13.2794C2.53525 15.4251 1.875 17.8785 1.875 20.3746C1.875 22.8706 2.53525 25.3241 3.78437 27.4696C4.04488 27.9171 3.89331 28.491 3.44581 28.7515C3.2975 28.8379 3.13519 28.8791 2.97506 28.8791Z" fill="#FFE645"/>
<path d="M22.5447 25.0964C22.3849 25.0964 22.2231 25.0556 22.075 24.9696C21.6272 24.7098 21.4748 24.136 21.7347 23.6882C22.3172 22.6846 22.625 21.5388 22.625 20.3746C22.625 19.2103 22.3172 18.0645 21.7347 17.0609C21.4748 16.6131 21.6272 16.0393 22.075 15.7794C22.5227 15.5196 23.0965 15.6718 23.3564 16.1197C24.1046 17.4089 24.5 18.8802 24.5 20.3746C24.5 21.8689 24.1046 23.3402 23.3564 24.6293C23.1825 24.929 22.868 25.0964 22.5447 25.0964Z" fill="#FF9300"/>
<path d="M25.7864 26.9796C25.6264 26.9796 25.4644 26.9386 25.3161 26.8524C24.8685 26.5922 24.7165 26.0184 24.9768 25.5708C25.8915 23.9972 26.375 22.2004 26.375 20.3746C26.375 18.5487 25.8915 16.7519 24.9768 15.1783C24.7165 14.7307 24.8685 14.1569 25.3161 13.8967C25.7635 13.6364 26.3376 13.7883 26.5978 14.2361C27.6786 16.0955 28.25 18.2181 28.25 20.3746C28.25 22.531 27.6786 24.6536 26.5978 26.5131C26.4237 26.8124 26.1094 26.9796 25.7864 26.9796Z" fill="#FFB500"/>
<path d="M29.033 28.8656C28.8732 28.8656 28.7112 28.8246 28.563 28.7386C28.1153 28.4786 27.9631 27.9047 28.2232 27.4571C29.4675 25.3147 30.1251 22.8657 30.1251 20.3746C30.1251 17.8835 29.4675 15.4344 28.2232 13.2921C27.9632 12.8444 28.1153 12.2706 28.5631 12.0106C29.0107 11.7505 29.5845 11.9026 29.8446 12.3505C31.2547 14.7784 32.0001 17.5531 32.0001 20.3746C32.0001 23.196 31.2547 25.9707 29.8446 28.3987C29.6706 28.6982 29.3562 28.8656 29.033 28.8656Z" fill="#FFE645"/>
</g>
<defs>
<clipPath id="clip0_1_3566">
<rect width="32" height="32" fill="white"/>
</clipPath>
</defs>
</svg>
