<svg width="290" height="278" viewBox="0 0 290 278" fill="none" xmlns="http://www.w3.org/2000/svg">
<path fill-rule="evenodd" clip-rule="evenodd" d="M162.041 1.34272C159.58 2.50377 154.944 5.96079 156.715 5.31441C157.248 5.11977 160.02 4.83556 162.876 4.68256C167.429 4.43902 168.106 4.5039 168.377 5.20886C168.824 6.37331 167.812 7.3465 164.49 8.94719L161.557 10.361L163.672 10.1562C166.089 9.92183 171.187 7.56147 173.096 5.79133C174.91 4.11027 174.804 2.36723 172.814 1.15389C170.486 -0.265232 165.254 -0.173723 162.041 1.34272ZM129.117 1.47393C106.005 8.13764 70.6343 21.3218 65.6322 25.1371C62.6599 27.404 61.0147 34.7213 62.856 37.4855C63.2942 38.144 64.6193 39.689 65.8007 40.9188L67.9481 43.1542L66.3348 44.1216C65.4473 44.6537 59.7025 47.6329 53.568 50.7417C40.7335 57.2462 38.0792 59.0367 36.4732 62.2734C34.9137 65.4171 34.4862 71.4776 35.6162 74.4359C36.7812 77.4857 41.4041 81.8089 50.0418 87.9245C69.389 101.624 79.4889 109.215 79.4889 110.059C79.4889 110.902 54.9295 133.363 44.9022 141.691C34.6915 150.172 31.4102 152.088 25.6083 152.958C19.5987 153.859 15.5776 149.633 15.5776 142.416C15.5776 136.257 20.9195 122.502 29.3171 107.037C31.2364 103.503 32.0033 101.638 31.6731 101.308C30.9798 100.614 29.5035 102.712 24.4134 111.621C16.7324 125.065 13.7387 133.132 13.2996 141.57C12.9001 149.242 14.0752 152.918 19.2462 160.172C21.2556 162.992 21.2381 163.209 18.4004 170.574C13.0444 184.473 12.4348 198.343 16.8007 206.959C18.4072 210.129 21.8095 213.001 24.8123 213.721C29.8816 214.937 34.5932 213.04 42.2073 206.719C47.1827 202.587 49.2351 201.212 49.7116 201.688C49.8418 201.819 49.3073 204.741 48.5229 208.182C44.9449 223.885 45.3767 234.698 49.8951 242.528C53.7825 249.265 60.576 254.323 68.7828 256.592C72.6063 257.648 83.3332 258.041 88.8098 257.324C98.7068 256.029 114.944 250.88 123.423 246.348C129.75 242.967 130.399 243.428 129.064 250.355C127.117 260.458 128.664 267.971 133.85 273.597C136.859 276.861 139.058 277.841 143.4 277.855C146.55 277.864 147.352 277.678 149.452 276.451C152.847 274.467 157.517 269.854 164.685 261.404C176.32 247.687 183.63 242.001 199.166 234.58C208.287 230.222 214.535 227.77 217.362 227.436C220.023 227.121 220.69 227.643 222.026 231.089C224.473 237.397 229.747 241.53 234.631 240.969C242.687 240.042 249.362 234.798 253.53 226.122C257.43 218.006 257.427 218.031 257.395 184.178C257.376 164.82 257.165 152.453 256.79 148.833C255.336 134.769 254.641 126.173 252.595 96.9152C251.389 79.678 250.408 65.0801 250.415 64.4754C250.425 63.5545 250.927 63.9075 253.501 66.644C258.676 72.1467 258.782 71.0849 254.215 59.5024C251.035 51.4385 247.489 44.0088 246.821 44.0088C246.581 44.0088 246.074 44.8803 245.693 45.9455C244.115 50.3665 244.381 57.4394 248.645 124.382C253.069 193.842 254.119 213.892 253.57 218.383C253.252 220.972 253.006 221.428 250.724 223.651C246.484 227.778 238.011 230.864 233.33 229.986C231.643 229.669 225.226 224.783 225.226 223.815C225.226 223.524 226.697 221.925 228.494 220.259C232.233 216.795 235.087 212.191 237.366 205.948C239.32 200.591 239.68 196.327 238.54 192.041C236.703 185.139 233.543 180.789 230.367 180.789C228.415 180.789 224.951 182.941 222.881 185.44C219.264 189.806 217.745 194.958 216.972 205.482C216.688 209.343 216.235 213.649 215.964 215.05C215.383 218.053 216.298 217.469 202.862 223.421C183.868 231.834 177.993 236.04 166.761 249.265C157.963 259.624 149.41 267.564 144.215 270.197C138.957 272.861 133.74 271.123 131.608 265.997C130.484 263.294 130.195 259.24 130.783 254.403C131.799 246.047 133.947 241.826 140.989 234.345C147.995 226.903 149.615 224.384 150.9 218.932C152.327 212.878 151.452 206.751 147.501 195.141C146.045 190.861 144.853 186.854 144.853 186.237C144.853 184.795 145.659 184.512 148.163 185.074C149.332 185.337 150.296 185.348 150.45 185.099C150.595 184.863 150.076 183.742 149.296 182.608C147.401 179.855 138.461 169.538 137.77 169.308C137.423 169.193 137.024 170.508 136.679 172.9C135.829 178.787 135.959 179.309 144.322 203.606C148.208 214.896 148.699 217.234 147.62 219.32C143.944 226.426 121.505 239.354 104.089 244.401C85.4084 249.814 65.7867 246.951 57.1921 237.557C52.9827 232.957 51.0522 227.386 50.5933 218.514C50.2572 212.02 50.9055 206.641 52.637 201.551C54.8821 194.949 57.5804 191.652 64.3763 187.204C72.0205 182.201 78.5384 179.498 96.0826 174.056C110.702 169.521 116.696 162.405 116.753 149.519C116.782 143.13 116.034 140.671 111.114 130.961C108.629 126.059 106.703 121.942 106.832 121.812C107.335 121.309 117.415 128.794 146.305 151.121L160.588 162.159L161.152 168.932C162.263 182.261 162.842 195.888 163.203 217.221C163.405 229.136 163.713 239.029 163.889 239.204C164.817 240.133 167.163 231.039 168.288 222.152C169.948 209.025 169.777 192.927 167.792 175.799C167.366 172.122 167.156 168.976 167.325 168.807C167.494 168.638 169.751 169.031 172.341 169.681C176.03 170.607 178.309 170.863 182.86 170.863C188.224 170.863 188.88 170.76 191.392 169.526C194.808 167.848 198.252 164.845 199.814 162.179C203.939 155.14 204.477 139.212 201.712 105.983C200.711 93.9424 195.251 31.7252 195.052 30.0887C194.963 29.3567 195.018 28.7572 195.174 28.7572C195.329 28.7572 196.938 30.5003 198.749 32.6307C200.56 34.761 202.274 36.5041 202.559 36.5041C203.511 36.5041 202.489 32.5769 199.995 26.6462C197.443 20.5795 192.879 11.2591 191.676 9.66135C190.997 8.75836 190.935 8.78692 190.078 10.3876C188.385 13.5507 188.618 20.8691 191.559 57.0815C193.051 75.456 195.151 100.185 196.225 112.036C198.424 136.29 199.133 152.662 198.094 155.17C197.581 156.408 196.739 157.054 193.953 158.341C186.528 161.772 180.984 161.649 173.466 157.888C169.054 155.681 167.773 154.384 167.118 151.457C166.203 147.364 164.702 122.932 163.984 100.415C163.835 95.7551 163.602 90.4171 163.467 88.553L163.221 85.1638L166.591 88.7239C168.444 90.6824 170.167 92.1567 170.419 92.0013C171.055 91.6081 170.386 88.401 168.638 83.4691C166.697 77.9892 160.962 64.0396 160.433 63.5109C160.196 63.2742 159.417 64.4207 158.645 66.1385C157.385 68.9458 157.261 69.7578 157.071 76.4486C156.958 80.443 157.22 91.0102 157.655 99.9311C158.615 119.66 159.165 143.329 158.705 145.162C158.027 147.865 157.826 147.744 129.601 127.722C117.884 119.41 107.78 112.056 107.146 111.379C105.76 109.896 106.017 108.99 108.152 107.824C109.524 107.075 110.948 106.955 118.223 106.973C126.287 106.992 126.871 107.058 130.327 108.348C132.325 109.093 134.6 109.737 135.384 109.779C136.735 109.853 136.844 109.711 137.504 107.028C138.791 101.8 137.33 99.4809 130 95.1053C124.223 91.6585 122.143 89.8714 120.266 86.7451C118.475 83.7616 116.255 75.6497 115.306 68.6229C114.365 61.6473 115.263 60.0205 118.729 62.4225C119.792 63.1589 120.775 63.6489 120.913 63.5109C121.444 62.9793 118.958 57.7725 115.07 51.2714C109.412 41.8126 109.732 42.1723 109.054 44.5099C108.748 45.5659 108.376 48.3906 108.227 50.7873C107.982 54.7386 108.279 56.9426 111.423 74.4388C113.329 85.0509 114.822 94.1951 114.74 94.7592C114.62 95.5871 113.889 95.9841 110.96 96.8121C108.963 97.3766 104.948 98.7449 102.037 99.8532C95.0048 102.531 94.0877 102.493 89.6115 99.3472C81.289 93.4974 62.3098 81.8941 50.5182 75.4468C42.2979 70.9522 40.2706 69.522 40.2706 68.2176C40.2706 66.3317 44.0157 64.0808 55.894 58.8265C92.8613 42.4754 139.968 28.2111 157.451 28.0746C162.822 28.0324 163.149 28.0901 166.27 29.6263C169.575 31.2532 171.159 32.8694 171.748 35.2152C172.306 37.44 170.197 39.7727 159.696 48.5455C146.391 59.6598 142.652 63.9539 137.089 74.5119L134.538 79.3536L144.416 69.399C149.849 63.9244 157.928 55.9718 162.369 51.7266C168.281 46.0762 171.102 42.9872 172.9 40.1949C176.758 34.2013 178.292 27.7047 176.605 24.4965C175.549 22.4891 171.945 19.2127 169.788 18.3005C167.258 17.231 161.104 17.2402 155.02 18.3223C141.489 20.7301 119.605 26.6535 94.0142 34.8356C78.5568 39.7776 70.3815 42.3142 69.9119 42.3142C69.5231 42.3142 65.4221 33.2281 65.1456 31.7538C64.8837 30.3584 65.0139 29.8878 65.8472 29.2124C67.9684 27.495 91.0796 18.3504 114.085 10.1257C128.863 4.84234 134.748 2.36191 135.07 1.28026C135.312 0.465873 132.269 0.56513 129.117 1.47393ZM217.906 22.981C216.717 25.0712 217.176 44.8919 219.121 75.4802C220.086 90.6592 221.128 105.755 221.438 109.027C222.126 116.317 222.317 115.969 214.531 121.598C211.492 123.796 208.932 125.815 208.842 126.084C208.752 126.354 211.127 125.373 214.119 123.905C217.111 122.437 220.047 121.235 220.644 121.235C222.068 121.235 222.174 121.907 222.788 134.792C223.535 150.499 223.749 152.605 224.489 151.592C225.963 149.577 227.914 136.974 228.403 126.319C228.781 118.067 229.225 115.83 231.055 112.976C232.312 111.016 236.564 107.046 237.874 106.609C239.376 106.108 239.367 93.0002 237.863 91.169C237.102 90.2428 237.058 90.2423 235.394 91.1332C233.208 92.3044 230.552 95.7595 230.552 97.4333C230.552 98.1484 231.276 99.8203 232.161 101.148C234.704 104.963 234.707 105.102 232.317 107.493C229.612 110.198 228.344 110.27 227.668 107.756C227.393 106.734 226.306 94.2609 225.253 80.0373C222.5 42.8652 222.547 43.7667 223.357 43.7667C224.166 43.7667 225.915 44.8876 227.763 46.5895C230.351 48.9745 230.091 47.5186 226.177 37.7145C223.536 31.0987 220.321 24.1184 219.28 22.7389C218.593 21.8277 218.558 21.834 217.906 22.981ZM39.5962 35.8204C37.5253 39.5253 36.8005 42.2764 36.5454 47.398C36.3599 51.1233 36.4626 52.4485 36.9908 53.1437C37.6381 53.9959 37.7665 54.0027 39.202 53.2599C41.8437 51.8941 42.676 49.2907 40.3045 49.8116C37.3389 50.4629 37.0629 46.649 39.526 39.0537C40.4478 36.2107 41.1262 33.8091 41.0337 33.7167C40.9412 33.6242 40.2943 34.5707 39.5962 35.8204ZM140.993 36.6251C139.21 38.4301 135.152 46.5439 133.959 50.6866C133.071 53.7722 133.317 55.2068 135.184 57.8291C136.395 59.5286 137.212 59.6249 138.519 58.2232C139.393 57.2849 141.463 53.3941 141.463 52.6896C141.463 52.5317 140.726 52.859 139.824 53.4163C135.382 56.1616 135.169 50.8512 139.379 42.3142C142.246 36.4983 142.91 35.0515 142.708 35.0515C142.619 35.0515 141.847 35.7599 140.993 36.6251ZM178.627 58.1608C175.142 66.0959 175.331 75.09 179.002 76.0114C180.568 76.4045 181.406 75.6676 182.425 72.9988C183.319 70.6588 183.095 70.0914 181.178 69.8323C180.49 69.7394 179.72 69.154 179.37 68.4597C178.563 66.8609 178.61 62.1465 179.468 58.5544C179.847 56.9673 180.089 55.6014 180.006 55.5181C179.923 55.4349 179.302 56.624 178.627 58.1608ZM205.559 59.6056C203.661 65.3963 203.566 71.1314 205.338 73.0192C205.984 73.7072 206.788 74.2698 207.127 74.2698C208.198 74.2698 210.217 72.1491 210.665 70.5537C211.214 68.5977 210.826 68.2016 209.703 69.5699C208.993 70.4332 208.656 70.5358 207.95 70.103C206.671 69.321 206.223 65.6355 206.754 60.2713C207.007 57.7182 207.155 55.5666 207.084 55.4901C207.012 55.414 206.326 57.266 205.559 59.6056ZM92.5486 60.3497C92.0164 61.215 91.343 62.7948 91.051 63.86C90.1088 67.3025 88.2128 75.9397 88.2084 76.8117C88.206 77.278 88.1135 77.659 88.0026 77.659C87.8917 77.659 85.4404 75.2793 82.5556 72.3704C77.3009 67.0725 75.3424 65.8514 73.7248 66.8638C71.9338 67.9842 72.7642 72.0997 75.1192 73.7774C76.1471 74.509 76.562 74.585 77.0302 74.1279C77.8916 73.2859 82.1213 77.9491 84.8448 82.7439C86.0267 84.8243 87.2115 86.5228 87.4778 86.518C88.4878 86.4986 89.1516 83.9223 90.1388 76.1954C91.2684 67.3538 91.5085 66.0737 92.2033 65.1915C92.9083 64.2967 94.2301 64.4556 95.2246 65.5546C96.4084 66.8629 97.3221 66.7733 97.6886 65.3125C98.1117 63.6276 97.6188 62.0114 96.1499 60.266C94.554 58.3695 93.7546 58.3879 92.5486 60.3497ZM267.387 71.5618C266.045 73.1785 266.259 86.5829 268.094 115.909C269.871 144.303 270.819 167.263 271.078 188.172C271.232 200.621 271.53 210.807 271.74 210.807C272.205 210.807 273.829 206.546 275.072 202.062C277.649 192.763 277.591 174.228 274.86 133.823C273.915 119.843 273.02 104.265 272.873 99.2049L272.603 90.0055L273.881 91.458C274.584 92.2569 276.04 93.9583 277.116 95.2395C278.192 96.5201 279.187 97.4546 279.325 97.3156C280.512 96.1289 270.447 71.6712 268.505 71.0239C268.216 70.9275 267.712 71.1691 267.387 71.5618ZM27.9101 80.6416C26.1036 82.2272 23.8052 86.182 23.8135 87.6897C23.8159 88.1647 24.5785 89.5097 25.5081 90.679C26.4372 91.8483 27.1979 93.1924 27.1979 93.6659C27.1979 95.849 17.8731 104.059 7.58873 110.932C1.64063 114.906 -0.672283 116.878 0.614173 116.877C3.18805 116.875 16.2802 108.477 22.8403 102.619C27.5741 98.3914 30.7691 96.1289 32.5141 95.7682C34.5356 95.3503 35.179 94.8158 35.3446 93.4165C35.4473 92.5528 35.1345 91.6914 34.4571 90.9705C33.2496 89.685 32.5519 87.1048 32.5354 83.8637C32.5107 78.992 30.9928 77.9345 27.9101 80.6416ZM27.0366 83.3079C26.4479 83.8962 26.7021 86.1423 27.4835 87.2578C28.4906 88.6953 29.6187 87.8645 29.6187 85.6857C29.6187 83.612 28.1159 82.2282 27.0366 83.3079ZM11.6742 85.462C10.9538 86.8085 10.9896 93.5018 11.7221 94.3844C12.4218 95.2278 13.4105 94.7645 16.1044 92.33C18.6793 90.0041 18.7122 88.2523 16.147 90.0486C14.542 91.1729 13.6419 90.5996 13.6342 88.447C13.6211 84.7774 12.7505 83.4512 11.6742 85.462ZM233.457 94.8468C232.269 96.278 234.619 99.447 236.869 99.447C237.123 99.447 237.33 98.7004 237.33 97.7877C237.33 96.5714 236.989 95.8597 236.054 95.1247C234.533 93.9278 234.246 93.8973 233.457 94.8468ZM48.0286 104.127C45.9674 108.775 43.5499 116.696 43.3253 119.54C43.1181 122.164 43.2401 122.67 44.5875 124.76C46.1887 127.246 47.7395 128.172 49.1054 127.456C50.0379 126.967 51.5684 124.183 52.0855 122.034L52.4176 120.654L50.9903 121.671C49.2719 122.895 47.8848 122.969 46.9871 121.885C45.8038 120.456 46.2642 113.501 47.9429 107.45C48.7539 104.528 49.3383 102.059 49.2419 101.962C49.1456 101.866 48.5994 102.841 48.0286 104.127ZM148.027 109.252C145.756 112.695 143.385 119.965 143.258 123.871C143.155 127.06 143.932 128.869 145.952 130.143C147.485 131.11 151.734 125.694 150.783 123.984C150.661 123.764 150.245 124.036 149.859 124.589C148.917 125.932 148.033 125.853 146.825 124.317C144.951 121.935 145.632 116.753 148.722 109.866C149.501 108.13 150.041 106.71 149.921 106.71C149.802 106.71 148.95 107.854 148.027 109.252ZM85.2927 117.687C81.5224 120.21 75.7447 125.154 61.3323 138.189C39.2161 158.193 35.3465 161.12 28.4083 163.096C24.6714 164.16 23.2097 165.594 21.3795 169.989C17.2752 179.848 15.3699 190.762 16.5407 197.703C17.4906 203.336 19.8611 205.27 25.3774 204.916C31.202 204.542 37.0615 200.702 50.4383 188.492C65.9436 174.339 70.3467 171.978 96.435 163.836C106.028 160.842 110.57 158.752 113.066 156.18C116.025 153.134 115.677 151.212 110.665 142.922C105.967 135.15 100.803 128.469 94.5589 122.082C91.2393 118.687 88.3943 115.909 88.236 115.909C88.0782 115.909 86.7534 116.709 85.2927 117.687ZM183.471 119.591C181.697 123.551 178.937 130.863 178.55 132.631C177.929 135.475 181.026 143.023 182.815 143.023C184.036 143.023 186.976 139.53 186.976 138.081C186.976 136.766 186.871 136.696 185.079 136.801C182.235 136.969 181.65 136.214 181.65 132.373C181.65 130.016 182.13 127.522 183.37 123.431C185.32 116.999 185.363 115.371 183.471 119.591ZM287.297 122.917C284.808 126.081 282.114 138.467 282.476 145.075C282.701 149.168 283.648 150.932 285.479 150.67C286.545 150.517 288.807 146.801 289.397 144.233L289.73 142.781L288.375 144.189L287.02 145.596L285.675 143.985C283.032 140.82 283.245 137.109 286.569 128.378C288.845 122.401 289.078 120.652 287.297 122.917ZM86.6503 141.97C86.001 142.682 84.7393 144.245 83.846 145.444C82.9527 146.642 82.0521 147.82 81.8449 148.061C81.6343 148.307 79.868 147.393 77.8315 145.985C75.8309 144.602 73.411 143.143 72.4538 142.743C70.7321 142.024 70.6977 142.033 69.2456 143.588C67.4256 145.536 64.9636 149.079 64.9636 149.75C64.9636 150.025 67.1148 151.879 69.7439 153.87L74.5246 157.49L78.033 153.404C79.9624 151.156 81.6788 149.319 81.8463 149.321C82.0143 149.323 84.2977 150.966 86.921 152.972C92.245 157.042 92.0218 157.032 94.5806 153.313C97.3966 149.22 97.1782 146.916 93.7174 144.219C89.1748 140.679 88.1304 140.347 86.6503 141.97ZM130.432 148.136C127.695 150.053 127.245 153.52 129.172 157.851C129.867 159.416 130.439 161.188 130.443 161.79C130.456 164.315 125.375 169.35 109.185 182.854C103.549 187.555 98.7877 191.643 98.6056 191.938C97.8188 193.211 98.9634 192.712 103.012 190.018C112.413 183.761 124.373 173.353 131.37 165.338C133.443 162.963 133.763 162.773 135.376 162.962C136.641 163.109 137.35 162.923 137.921 162.292C138.8 161.321 138.498 160.353 136.569 157.958C135.823 157.032 135.433 155.641 135.173 152.982C134.672 147.875 133.1 146.267 130.432 148.136ZM129.11 152.245C128.655 153.677 129.734 154.719 131.493 154.547C132.513 154.447 133.038 154.106 133.16 153.465C133.533 151.499 129.711 150.349 129.11 152.245ZM4.82408 157.051C2.83025 159.046 2.64142 160.11 4.23968 160.351C8.23849 160.954 8.24188 161.28 4.32054 168.587C1.15548 174.486 0.458753 175.947 0.811233 175.947C1.28427 175.947 6.02774 168.464 8.06855 164.498C10.488 159.796 10.8032 157.615 9.28335 156.096C7.88262 154.695 6.98932 154.887 4.82408 157.051ZM217.856 160.384L214.602 164.569L217.973 167.95L221.345 171.332L225.186 167.514L229.026 163.696L233.249 166.716C235.572 168.378 237.728 169.836 238.04 169.955C238.352 170.075 239.737 168.979 241.116 167.521C244.108 164.358 244.305 162.99 242.187 160.067C240.554 157.812 239.404 157.064 237.572 157.064C235.773 157.064 234.583 157.786 231.36 160.832L228.538 163.501L224.824 159.85L221.11 156.199L217.856 160.384ZM44.0472 162.201C41.9352 166.821 41.239 170.312 41.239 176.278C41.239 180.143 41.3774 180.927 42.2073 181.757C43.4289 182.978 44.1789 182.976 45.7437 181.745C46.944 180.801 49.7692 175.601 49.3237 175.155C49.2041 175.036 48.535 175.617 47.8368 176.446C47.1372 177.278 46.2056 177.884 45.7617 177.798C45.3191 177.712 44.22 176.299 43.3204 174.659L41.6839 171.676L42.7099 168.849C46.5199 158.349 47.0791 155.567 44.0472 162.201ZM201.242 173.37C199.661 173.685 197.417 175.697 197.855 176.407C198.139 176.866 199.082 176.945 201.472 176.709C205.318 176.33 206.343 176.633 206.343 178.15C206.343 178.957 205.753 179.648 204.285 180.562L202.228 181.844L203.922 181.555C206.411 181.13 211.224 178.643 212.86 176.935C214.112 175.629 214.198 175.363 213.573 174.738C212.282 173.447 204.944 172.633 201.242 173.37ZM193.194 189.419C189.043 191.535 183.587 197.572 183.587 200.049C183.587 200.565 184.347 201.944 185.277 203.113C187.033 205.323 187.465 206.934 186.3 206.934C185.571 206.934 182.618 210.054 182.618 210.824C182.618 211.463 182.65 211.457 186.36 210.035C193.334 207.363 199.43 205.38 201.926 204.971C204.974 204.471 206.827 203.401 206.827 202.142C206.827 200.924 205.117 200.64 197.794 200.64C189.131 200.64 186.555 199.31 188.331 195.754C189.362 193.688 191.246 192.766 194.965 192.503C196.626 192.386 198.233 191.978 198.717 191.552C201.388 189.201 196.97 187.494 193.194 189.419ZM89.4145 191.044C76.272 197.919 61.5744 207.512 61.5744 209.215C61.5744 210.224 62.3737 209.972 67.2838 207.418C69.8436 206.087 72.2209 204.997 72.5661 204.997C73.5926 204.997 73.5466 206.183 72.1633 215.424C71.3116 221.114 71.2356 222.652 71.698 224.878C72.6804 229.611 75.0432 232.191 77.3101 231.006C78.7258 230.266 79.3359 229.304 80.4446 226.059L81.4372 223.154L79.4957 225.272C77.9473 226.961 77.4176 227.276 76.8801 226.83C75.8953 226.013 74.3009 222.045 73.9179 219.46C73.2784 215.139 75.2213 206.862 77.7836 202.989C78.4493 201.983 80.6848 200.031 82.7517 198.651C88.0723 195.097 90.5286 193.031 91.371 191.402C92.2319 189.737 91.9951 189.694 89.4145 191.044ZM225.226 192.277C224.826 192.428 223.581 193.179 222.457 193.946C219.463 195.988 219.061 197.753 220.079 204.371C221.108 211.069 221.769 213.162 223.137 214.058C224.153 214.724 224.42 214.678 226.45 213.488C229.809 211.52 234.207 206.981 234.578 205.101C235.241 201.745 233.017 195.284 230.46 193.132C229.073 191.965 226.957 191.62 225.226 192.277ZM125.244 194.828C122.198 200.839 121.124 210.393 123.066 214.2C125.664 219.292 129.482 217.541 131.522 210.323C131.826 209.246 131.674 209.315 130.133 210.949C128.641 212.532 128.265 212.711 127.402 212.249C126.852 211.955 125.962 211.02 125.425 210.171C124.57 208.822 124.483 208.112 124.734 204.513C124.892 202.25 125.436 198.657 125.944 196.53C126.452 194.402 126.789 192.583 126.694 192.487C126.598 192.391 125.946 193.444 125.244 194.828ZM99.1997 204.885C98.2207 205.967 96.4597 209.816 96.4457 210.905C96.4234 212.624 103.239 218.07 105.412 218.07C107.34 218.07 109.508 214.35 109.508 211.042C109.508 209.108 108.364 207.77 104.692 205.412C102.231 203.83 100.32 203.647 99.1997 204.885ZM35.1868 220.266C33.4665 221.14 31.935 222.835 32.3127 223.446C32.4604 223.685 33.069 223.88 33.666 223.88C36.4224 223.88 36.6025 226.763 34.2097 232.573C32.2614 237.303 32.2657 237.283 33.3333 236.407C34.4218 235.514 38.6118 226.65 39.3497 223.681C39.9085 221.433 39.8804 221.254 38.8418 220.413C37.5098 219.334 37.0576 219.316 35.1868 220.266ZM213.034 249.216C210.724 252.544 208.787 256.957 208.429 259.706C207.834 264.286 206.045 264.999 204.326 261.342C203.06 258.647 195.795 250.871 193.755 250.026C191.226 248.978 190.116 250.932 191.366 254.231C192.097 256.159 193.657 257.684 195.926 258.688C198.779 259.95 200.474 261.985 203.209 267.432L205.644 272.279L208.146 264.411C211.889 252.637 213.415 251.071 217.71 254.59C218.871 255.542 219.947 256.32 220.102 256.32C220.257 256.32 220.384 255.442 220.384 254.368C220.384 250.8 217.922 246.63 215.821 246.642C215.157 246.646 214.21 247.521 213.034 249.216ZM176.593 261.817C175.967 262.443 175.085 263.67 174.634 264.542L173.814 266.128L175.486 265.814C179.133 265.13 179.078 268.034 175.326 274.296C172.979 278.213 172.954 278.293 174.585 276.655C178.583 272.642 181.334 265.846 180.185 262.824C179.275 260.43 178.264 260.146 176.593 261.817Z" fill="white" fill-opacity="0.06"/>
</svg>
