<svg width="284" height="235" viewBox="0 0 284 235" fill="none" xmlns="http://www.w3.org/2000/svg">
<path d="M258.895 164.688C241.682 189.261 211.752 176.869 186.043 172.945C135.627 165.244 96.9784 230.411 45.9625 192.218C-10.5232 149.931 -6.38839 79.8782 53.9266 56.6995C222.712 -8.17069 274.52 142.386 258.895 164.688Z" fill="#F4EDE3"/>
<path d="M81.7252 23.8152C81.7252 29.1666 76.0373 33.5086 69.0035 33.5086C61.9697 33.5086 56.2819 29.1666 56.2819 23.8152C56.2819 18.4637 61.9697 14.1217 69.0035 14.1217C76.0373 14.1217 81.7252 18.4637 81.7252 23.8152Z" fill="#F4EDE3"/>
<path d="M97.4751 5.03708C97.4751 7.71279 95.0397 9.87579 92.0275 9.87579C89.0153 9.87579 86.58 7.71279 86.58 5.03708C86.58 2.36137 89.0153 0.198364 92.0275 0.198364C95.0397 0.198364 97.4751 2.36137 97.4751 5.03708Z" fill="#F4EDE3"/>
<path d="M176.19 234.213C182.039 234.213 186.781 229.471 186.781 223.622C186.781 217.773 182.039 213.031 176.19 213.031C170.341 213.031 165.599 217.773 165.599 223.622C165.599 229.471 170.341 234.213 176.19 234.213Z" fill="#F4EDE3"/>
<path d="M283.078 210.028C283.078 214.546 279.008 218.199 273.994 218.199C268.979 218.199 264.909 214.546 264.909 210.028C264.909 205.509 268.979 201.856 273.994 201.856C279.008 201.856 283.078 205.509 283.078 210.028Z" fill="#F4EDE3"/>
<path d="M260.679 221.548C260.679 223.214 258.917 224.576 256.738 224.576C254.559 224.576 252.796 223.214 252.796 221.548C252.796 219.881 254.559 218.519 256.738 218.519C258.917 218.519 260.679 219.881 260.679 221.548Z" fill="#F4EDE3"/>
<g filter="url(#filter0_d_2072_2277)">
<path d="M137.189 79.3971H104.777V70.1659C104.777 67.1067 107.256 64.627 110.315 64.627H131.65C134.709 64.627 137.189 67.1067 137.189 70.1659V79.3971Z" fill="url(#paint0_linear_2072_2277)"/>
<path d="M128.861 79.3971H96.448V70.1659C96.448 67.1067 98.9279 64.627 101.987 64.627H123.322C126.381 64.627 128.861 67.1067 128.861 70.1659V79.3971Z" fill="url(#paint1_linear_2072_2277)"/>
<path d="M120.039 75.1404V70.1659C120.039 67.1067 117.56 64.627 114.501 64.627H93.1659C90.1067 64.627 87.627 67.1067 87.627 70.1659V129.972C87.627 134.33 91.1599 137.863 95.5178 137.863H174.482C178.84 137.863 182.373 134.33 182.373 129.972V85.4417C182.373 81.0838 178.84 77.5509 174.482 77.5509H122.45C121.119 77.5509 120.039 76.4717 120.039 75.1404Z" fill="url(#paint2_linear_2072_2277)"/>
<path d="M159.581 88.4063H157.681C156.591 88.4063 155.708 87.5228 155.708 86.4328V84.5325C155.708 83.4426 156.591 82.559 157.681 82.559H159.581C160.671 82.559 161.555 83.4426 161.555 84.5325V86.4328C161.555 87.5228 160.671 88.4063 159.581 88.4063Z" fill="url(#paint3_linear_2072_2277)"/>
<path d="M167.037 88.4063H165.137C164.047 88.4063 163.163 87.5228 163.163 86.4328V84.5325C163.163 83.4426 164.047 82.559 165.137 82.559H167.037C168.127 82.559 169.01 83.4426 169.01 84.5325V86.4328C169.01 87.5228 168.127 88.4063 167.037 88.4063Z" fill="url(#paint4_linear_2072_2277)"/>
<path d="M174.492 88.4063H172.592C171.502 88.4063 170.619 87.5228 170.619 86.4328V84.5325C170.619 83.4426 171.502 82.559 172.592 82.559H174.492C175.582 82.559 176.466 83.4426 176.466 84.5325V86.4328C176.466 87.5228 175.582 88.4063 174.492 88.4063Z" fill="url(#paint5_linear_2072_2277)"/>
<path d="M87.627 121.246V129.972C87.627 134.33 91.1599 137.863 95.5178 137.863H174.482C178.84 137.863 182.373 134.33 182.373 129.972V121.246H87.627Z" fill="url(#paint6_linear_2072_2277)"/>
<path d="M169.998 131.926L149.946 98.9539C149.094 97.7729 147.707 97.5609 146.14 97.5609H129.774C127.183 97.5609 125.64 99.1038 125.64 101.695V119.958H118.469C113.806 119.958 134.257 122.566 131.237 127.124L121.065 136.543L168.73 137.085C172.549 137.085 169.269 135.53 169.998 131.926Z" fill="url(#paint7_linear_2072_2277)"/>
<path d="M145.031 95.4791H116.54C114.394 95.4791 112.654 97.2186 112.654 99.3643C112.654 101.51 114.394 103.25 116.54 103.25H145.032C147.177 103.25 148.917 101.51 148.917 99.3643C148.917 97.2186 147.177 95.4791 145.031 95.4791Z" fill="#835A3A"/>
<path d="M145.032 152.463H116.54C115.824 152.463 115.245 151.883 115.245 151.168V140.328C115.244 136.966 116.696 133.768 119.226 131.555L123.818 127.535C124.356 127.064 124.41 126.245 123.938 125.708C123.901 125.665 123.861 125.625 123.818 125.587L119.226 121.567C116.696 119.354 115.244 116.156 115.245 112.795V101.955C115.245 101.239 115.824 100.659 116.54 100.659H145.032C145.747 100.659 146.327 101.239 146.327 101.955V112.795C146.327 116.156 144.876 119.354 142.346 121.567L137.753 125.587C137.215 126.059 137.162 126.877 137.633 127.415C137.671 127.458 137.711 127.498 137.753 127.535L142.346 131.555C144.876 133.768 146.327 136.966 146.327 140.328V151.168C146.327 151.883 145.747 152.463 145.032 152.463Z" fill="#835A3A"/>
<path d="M117.835 149.873H143.736V140.328C143.733 137.712 142.6 135.225 140.628 133.506L136.036 129.486C134.421 128.073 134.257 125.618 135.67 124.003C135.783 123.873 135.906 123.751 136.036 123.637L140.628 119.617C142.6 117.898 143.733 115.411 143.736 112.795V103.25H117.835V112.794C117.838 115.411 118.971 117.898 120.943 119.617L125.535 123.637C127.15 125.05 127.312 127.505 125.899 129.119C125.786 129.248 125.664 129.37 125.535 129.483L120.943 133.506C118.971 135.225 117.838 137.712 117.835 140.328V149.873Z" fill="#ECEFF1"/>
<path d="M138.458 117.001C138.257 116.517 137.785 116.201 137.261 116.201H124.31C123.595 116.199 123.014 116.778 123.013 117.493C123.012 117.838 123.149 118.169 123.393 118.413L129.869 124.888C130.374 125.394 131.194 125.394 131.7 124.888L138.175 118.413C138.546 118.042 138.658 117.485 138.458 117.001Z" fill="url(#paint8_linear_2072_2277)"/>
<path d="M145.031 149.873H116.54C114.394 149.873 112.654 151.612 112.654 153.758C112.654 155.904 114.394 157.643 116.54 157.643H145.032C147.177 157.643 148.917 155.904 148.917 153.758C148.917 151.612 147.177 149.873 145.031 149.873Z" fill="#835A3A"/>
<path d="M131.656 135.964C131.144 135.5 130.359 135.52 129.871 136.008L117.835 148.042V149.873H143.736V146.946L131.656 135.964Z" fill="url(#paint9_linear_2072_2277)"/>
</g>
<defs>
<filter id="filter0_d_2072_2277" x="87.627" y="64.627" width="113.084" height="116.14" filterUnits="userSpaceOnUse" color-interpolation-filters="sRGB">
<feFlood flood-opacity="0" result="BackgroundImageFix"/>
<feColorMatrix in="SourceAlpha" type="matrix" values="0 0 0 0 0 0 0 0 0 0 0 0 0 0 0 0 0 0 127 0" result="hardAlpha"/>
<feOffset dx="15.2816" dy="18.338"/>
<feGaussianBlur stdDeviation="1.52816"/>
<feComposite in2="hardAlpha" operator="out"/>
<feColorMatrix type="matrix" values="0 0 0 0 0 0 0 0 0 0 0 0 0 0 0 0 0 0 0.05 0"/>
<feBlend mode="normal" in2="BackgroundImageFix" result="effect1_dropShadow_2072_2277"/>
<feBlend mode="normal" in="SourceGraphic" in2="effect1_dropShadow_2072_2277" result="shape"/>
</filter>
<linearGradient id="paint0_linear_2072_2277" x1="125.253" y1="60.3574" x2="117.177" y2="72.969" gradientUnits="userSpaceOnUse">
<stop stop-color="#F4C675"/>
<stop offset="1" stop-color="#A27525"/>
</linearGradient>
<linearGradient id="paint1_linear_2072_2277" x1="116.925" y1="60.3574" x2="108.849" y2="72.969" gradientUnits="userSpaceOnUse">
<stop stop-color="#F4C675"/>
<stop offset="1" stop-color="#A27525"/>
</linearGradient>
<linearGradient id="paint2_linear_2072_2277" x1="107.751" y1="67.4112" x2="145.917" y2="144.726" gradientUnits="userSpaceOnUse">
<stop stop-color="#F3C674"/>
<stop offset="0.268" stop-color="#EDB44D"/>
<stop offset="0.659" stop-color="#E1A842"/>
<stop offset="1" stop-color="#DBA036"/>
</linearGradient>
<linearGradient id="paint3_linear_2072_2277" x1="159.402" y1="80.8688" x2="156.076" y2="83.2354" gradientUnits="userSpaceOnUse">
<stop stop-color="#F4C675"/>
<stop offset="1" stop-color="#CD8C18"/>
</linearGradient>
<linearGradient id="paint4_linear_2072_2277" x1="166.857" y1="80.8688" x2="163.531" y2="83.2354" gradientUnits="userSpaceOnUse">
<stop stop-color="#F4C675"/>
<stop offset="1" stop-color="#CD8C18"/>
</linearGradient>
<linearGradient id="paint5_linear_2072_2277" x1="174.313" y1="80.8688" x2="170.987" y2="83.2354" gradientUnits="userSpaceOnUse">
<stop stop-color="#F4C675"/>
<stop offset="1" stop-color="#CD8C18"/>
</linearGradient>
<linearGradient id="paint6_linear_2072_2277" x1="132.124" y1="115.538" x2="131.715" y2="138.836" gradientUnits="userSpaceOnUse">
<stop stop-color="#F3C674"/>
<stop offset="1" stop-color="#DBA036"/>
</linearGradient>
<linearGradient id="paint7_linear_2072_2277" x1="154.837" y1="139.435" x2="118.831" y2="116.169" gradientUnits="userSpaceOnUse">
<stop stop-color="#C49747" stop-opacity="0"/>
<stop offset="1" stop-color="#B78731"/>
</linearGradient>
<linearGradient id="paint8_linear_2072_2277" x1="132.832" y1="113.58" x2="132.269" y2="127.064" gradientUnits="userSpaceOnUse">
<stop stop-color="#F4C675"/>
<stop offset="1" stop-color="#A27525"/>
</linearGradient>
<linearGradient id="paint9_linear_2072_2277" x1="134.198" y1="131.511" x2="134.549" y2="156.209" gradientUnits="userSpaceOnUse">
<stop stop-color="#F4C675"/>
<stop offset="1" stop-color="#A27525"/>
</linearGradient>
</defs>
</svg>
