<svg width="292" height="271" viewBox="0 0 292 271" fill="none" xmlns="http://www.w3.org/2000/svg">
<path d="M266.895 200.688C249.682 225.261 219.752 212.869 194.043 208.945C143.627 201.244 104.978 266.411 53.9625 228.218C-2.52322 185.931 1.61161 115.878 61.9266 92.6995C230.712 27.8293 282.52 178.386 266.895 200.688Z" fill="#F4EDE3"/>
<path d="M89.7253 59.8152C89.7253 65.1666 84.0374 69.5086 77.0036 69.5086C69.9699 69.5086 64.282 65.1666 64.282 59.8152C64.282 54.4637 69.9699 50.1217 77.0036 50.1217C84.0374 50.1217 89.7253 54.4637 89.7253 59.8152Z" fill="#F4EDE3"/>
<path d="M105.475 41.0371C105.475 43.7128 103.04 45.8758 100.028 45.8758C97.0155 45.8758 94.5801 43.7128 94.5801 41.0371C94.5801 38.3614 97.0155 36.1984 100.028 36.1984C103.04 36.1984 105.475 38.3614 105.475 41.0371Z" fill="#F4EDE3"/>
<path d="M184.19 270.213C190.039 270.213 194.781 265.471 194.781 259.622C194.781 253.773 190.039 249.031 184.19 249.031C178.341 249.031 173.599 253.773 173.599 259.622C173.599 265.471 178.341 270.213 184.19 270.213Z" fill="#F4EDE3"/>
<path d="M291.078 246.028C291.078 250.546 287.009 254.199 281.994 254.199C276.979 254.199 272.909 250.546 272.909 246.028C272.909 241.509 276.979 237.856 281.994 237.856C287.009 237.856 291.078 241.509 291.078 246.028Z" fill="#F4EDE3"/>
<path d="M268.679 257.548C268.679 259.214 266.917 260.576 264.738 260.576C262.559 260.576 260.797 259.214 260.797 257.548C260.797 255.881 262.559 254.519 264.738 254.519C266.917 254.519 268.679 255.881 268.679 257.548Z" fill="#F4EDE3"/>
<path fill-rule="evenodd" clip-rule="evenodd" d="M118.647 49.2466H8.45167C5.37786 49.2466 3 45.9168 3 41.611V12.5038C3 8.14056 5.43585 4.69592 8.50967 4.69592H129.666C130.13 4.69592 130.594 4.98298 130.826 5.38485C131.058 5.78673 131.058 6.30342 130.768 6.7053L124.098 17.6133V41.611C124.098 45.9168 121.663 49.2466 118.647 49.2466Z" fill="#F4EDE3"/>
<path fill-rule="evenodd" clip-rule="evenodd" d="M21.0948 37.9941C14.9472 37.9941 9.95947 33.0568 9.95947 26.9713C9.95947 20.8857 14.9472 15.9484 21.0948 15.9484C27.2424 15.9484 32.2301 20.8857 32.2301 26.9713C32.2301 33.0568 27.2424 37.9941 21.0948 37.9941Z" fill="#E6DDD2"/>
<circle cx="20.8169" cy="26.8169" r="8.81686" fill="#F5EAE1" stroke="url(#paint0_linear_1_4425)" stroke-width="1.42569"/>
<path d="M16.1008 27.1156L19.2577 30.3026C21.1147 28.4279 24.2716 25.4284 25.9429 23.7412" stroke="#614730" stroke-width="1.78211" stroke-linecap="round"/>
<rect x="41.0725" y="14.1599" width="68.6476" height="8.31238" fill="#E6DDD2"/>
<rect x="41.0725" y="27.2909" width="68.6476" height="4.15619" fill="#E6DDD2"/>
<rect x="41.0725" y="35.1096" width="46.1783" height="4.15619" fill="#E6DDD2"/>
<g filter="url(#filter0_d_1_4425)">
<path d="M146.987 111.407H117.567V103.028C117.567 100.251 119.817 98 122.594 98H141.959C144.736 98 146.987 100.251 146.987 103.028V111.407Z" fill="url(#paint1_linear_1_4425)"/>
<path d="M139.427 111.407H110.007V103.028C110.007 100.251 112.258 98 115.034 98H134.4C137.176 98 139.427 100.251 139.427 103.028V111.407Z" fill="url(#paint2_linear_1_4425)"/>
<path d="M131.42 107.543V103.028C131.42 100.251 129.17 98 126.393 98H107.028C104.251 98 102 100.251 102 103.028V157.313C102 161.269 105.207 164.475 109.162 164.475H180.838C184.793 164.475 188 161.269 188 157.313V116.893C188 112.938 184.793 109.731 180.838 109.731H133.608C132.4 109.731 131.42 108.751 131.42 107.543Z" fill="url(#paint3_linear_1_4425)"/>
<path d="M167.312 119.584H165.587C164.598 119.584 163.796 118.782 163.796 117.793V116.068C163.796 115.079 164.598 114.277 165.587 114.277H167.312C168.302 114.277 169.104 115.079 169.104 116.068V117.793C169.104 118.782 168.302 119.584 167.312 119.584Z" fill="url(#paint4_linear_1_4425)"/>
<path d="M174.08 119.584H172.355C171.365 119.584 170.563 118.782 170.563 117.793V116.068C170.563 115.079 171.365 114.277 172.355 114.277H174.08C175.069 114.277 175.871 115.079 175.871 116.068V117.793C175.871 118.782 175.069 119.584 174.08 119.584Z" fill="url(#paint5_linear_1_4425)"/>
<path d="M180.847 119.584H179.122C178.133 119.584 177.331 118.782 177.331 117.793V116.068C177.331 115.079 178.133 114.277 179.122 114.277H180.847C181.836 114.277 182.638 115.079 182.638 116.068V117.793C182.638 118.782 181.836 119.584 180.847 119.584Z" fill="url(#paint6_linear_1_4425)"/>
<path d="M102 149.393V157.313C102 161.269 105.207 164.475 109.162 164.475H180.838C184.793 164.475 188 161.269 188 157.313V149.393H102Z" fill="url(#paint7_linear_1_4425)"/>
<circle cx="174.339" cy="156.103" r="24.7371" fill="#F5EAE1" stroke="url(#paint8_linear_1_4425)" stroke-width="4"/>
<path d="M161.108 156.942L169.965 165.883C175.175 160.623 184.032 152.208 188.721 147.474" stroke="#614730" stroke-width="5" stroke-linecap="round"/>
</g>
<defs>
<filter id="filter0_d_1_4425" x="102" y="98" width="117.414" height="107.394" filterUnits="userSpaceOnUse" color-interpolation-filters="sRGB">
<feFlood flood-opacity="0" result="BackgroundImageFix"/>
<feColorMatrix in="SourceAlpha" type="matrix" values="0 0 0 0 0 0 0 0 0 0 0 0 0 0 0 0 0 0 127 0" result="hardAlpha"/>
<feOffset dx="15.2816" dy="18.338"/>
<feGaussianBlur stdDeviation="1.52816"/>
<feComposite in2="hardAlpha" operator="out"/>
<feColorMatrix type="matrix" values="0 0 0 0 0 0 0 0 0 0 0 0 0 0 0 0 0 0 0.05 0"/>
<feBlend mode="normal" in2="BackgroundImageFix" result="effect1_dropShadow_1_4425"/>
<feBlend mode="normal" in="SourceGraphic" in2="effect1_dropShadow_1_4425" result="shape"/>
</filter>
<linearGradient id="paint0_linear_1_4425" x1="23.1402" y1="12.9027" x2="23.9303" y2="43.4635" gradientUnits="userSpaceOnUse">
<stop stop-color="#F4C675"/>
<stop offset="1" stop-color="#A27525"/>
</linearGradient>
<linearGradient id="paint1_linear_1_4425" x1="136.153" y1="94.1246" x2="128.822" y2="105.572" gradientUnits="userSpaceOnUse">
<stop stop-color="#F4C675"/>
<stop offset="1" stop-color="#A27525"/>
</linearGradient>
<linearGradient id="paint2_linear_1_4425" x1="128.593" y1="94.1246" x2="121.263" y2="105.572" gradientUnits="userSpaceOnUse">
<stop stop-color="#F4C675"/>
<stop offset="1" stop-color="#A27525"/>
</linearGradient>
<linearGradient id="paint3_linear_1_4425" x1="120.266" y1="100.527" x2="154.91" y2="170.705" gradientUnits="userSpaceOnUse">
<stop stop-color="#F3C674"/>
<stop offset="0.268" stop-color="#EDB44D"/>
<stop offset="0.659" stop-color="#E1A842"/>
<stop offset="1" stop-color="#DBA036"/>
</linearGradient>
<linearGradient id="paint4_linear_1_4425" x1="167.149" y1="112.743" x2="164.13" y2="114.891" gradientUnits="userSpaceOnUse">
<stop stop-color="#F4C675"/>
<stop offset="1" stop-color="#CD8C18"/>
</linearGradient>
<linearGradient id="paint5_linear_1_4425" x1="173.917" y1="112.743" x2="170.898" y2="114.891" gradientUnits="userSpaceOnUse">
<stop stop-color="#F4C675"/>
<stop offset="1" stop-color="#CD8C18"/>
</linearGradient>
<linearGradient id="paint6_linear_1_4425" x1="180.684" y1="112.743" x2="177.665" y2="114.891" gradientUnits="userSpaceOnUse">
<stop stop-color="#F4C675"/>
<stop offset="1" stop-color="#CD8C18"/>
</linearGradient>
<linearGradient id="paint7_linear_1_4425" x1="142.39" y1="144.212" x2="142.019" y2="165.359" gradientUnits="userSpaceOnUse">
<stop stop-color="#F3C674"/>
<stop offset="1" stop-color="#DBA036"/>
</linearGradient>
<linearGradient id="paint8_linear_1_4425" x1="180.858" y1="117.065" x2="183.075" y2="202.808" gradientUnits="userSpaceOnUse">
<stop stop-color="#F4C675"/>
<stop offset="1" stop-color="#A27525"/>
</linearGradient>
</defs>
</svg>
