<svg width="292" height="271" viewBox="0 0 292 271" fill="none" xmlns="http://www.w3.org/2000/svg">
<path d="M266.895 200.688C249.682 225.261 219.752 212.869 194.043 208.945C143.627 201.244 104.978 266.411 53.9625 228.218C-2.52322 185.931 1.61161 115.878 61.9266 92.6995C230.712 27.8293 282.52 178.386 266.895 200.688Z" fill="#F4EDE3"/>
<path d="M89.7253 59.8152C89.7253 65.1666 84.0374 69.5086 77.0036 69.5086C69.9699 69.5086 64.282 65.1666 64.282 59.8152C64.282 54.4637 69.9699 50.1217 77.0036 50.1217C84.0374 50.1217 89.7253 54.4637 89.7253 59.8152Z" fill="#F4EDE3"/>
<path d="M105.475 41.0371C105.475 43.7128 103.04 45.8758 100.028 45.8758C97.0155 45.8758 94.5801 43.7128 94.5801 41.0371C94.5801 38.3614 97.0155 36.1984 100.028 36.1984C103.04 36.1984 105.475 38.3614 105.475 41.0371Z" fill="#F4EDE3"/>
<path d="M184.19 270.213C190.039 270.213 194.781 265.471 194.781 259.622C194.781 253.773 190.039 249.031 184.19 249.031C178.341 249.031 173.599 253.773 173.599 259.622C173.599 265.471 178.341 270.213 184.19 270.213Z" fill="#F4EDE3"/>
<path d="M291.078 246.028C291.078 250.546 287.008 254.199 281.994 254.199C276.979 254.199 272.909 250.546 272.909 246.028C272.909 241.509 276.979 237.856 281.994 237.856C287.008 237.856 291.078 241.509 291.078 246.028Z" fill="#F4EDE3"/>
<path d="M268.679 257.548C268.679 259.214 266.917 260.576 264.738 260.576C262.559 260.576 260.796 259.214 260.796 257.548C260.796 255.881 262.559 254.519 264.738 254.519C266.917 254.519 268.679 255.881 268.679 257.548Z" fill="#F4EDE3"/>
<path fill-rule="evenodd" clip-rule="evenodd" d="M118.647 49.2466H8.45167C5.37786 49.2466 3 45.9168 3 41.611V12.5038C3 8.14056 5.43585 4.69592 8.50967 4.69592H129.666C130.13 4.69592 130.594 4.98298 130.826 5.38485C131.058 5.78673 131.058 6.30342 130.768 6.7053L124.098 17.6133V41.611C124.098 45.9168 121.663 49.2466 118.647 49.2466Z" fill="#F4EDE3"/>
<path fill-rule="evenodd" clip-rule="evenodd" d="M21.0948 37.9941C14.9472 37.9941 9.95947 33.0568 9.95947 26.9713C9.95947 20.8857 14.9472 15.9484 21.0948 15.9484C27.2424 15.9484 32.2301 20.8857 32.2301 26.9713C32.2301 33.0568 27.2424 37.9941 21.0948 37.9941Z" fill="#E6DDD2"/>
<g clip-path="url(#clip0_1_4342)">
<mask id="mask0_1_4342" style="mask-type:luminance" maskUnits="userSpaceOnUse" x="15" y="20" width="14" height="14">
<path d="M15 20H28.1281V33.2127H15V20Z" fill="white"/>
</mask>
<g mask="url(#mask0_1_4342)">
<path d="M26.4189 29.1312H16.7603C17.2028 29.1312 17.4531 28.8982 17.5951 28.5119C18.2823 26.6466 16.4521 21.2105 21.5897 21.2105C26.7273 21.2105 24.8968 26.6466 25.584 28.5119C25.7263 28.8982 25.9766 29.1312 26.4189 29.1312Z" fill="#D6AA6E"/>
<path d="M27.354 30.0724C27.354 30.5921 26.9353 31.0135 26.4189 31.0135H16.7603C16.5021 31.0135 16.2683 30.9083 16.099 30.7379C15.9298 30.5676 15.8252 30.3323 15.8252 30.0724C15.8252 29.5527 16.2439 29.1312 16.7603 29.1312H26.4189C26.6771 29.1312 26.911 29.2365 27.0802 29.4069C27.2494 29.5772 27.354 29.8125 27.354 30.0724Z" fill="#AD7C55"/>
<path d="M25.5841 28.5119H20.5641C20.0228 28.5119 19.5901 28.061 19.6068 27.5166C19.6776 25.2131 19.3125 21.2543 21.5522 21.2108C15.4044 21.2428 19.3343 29.1312 16.7605 29.1312H17.0168H19.0869H26.419C25.9767 29.1312 25.7264 28.8982 25.5841 28.5119Z" fill="#AD7C55"/>
<path d="M27.3541 30.0724C27.3541 30.5921 26.9354 31.0135 26.419 31.0135H19.4627C19.2045 31.0135 18.9707 30.9083 18.8014 30.7379C18.6322 30.5676 18.5276 30.3323 18.5276 30.0724C18.5276 29.5527 18.9463 29.1312 19.4627 29.1312H26.419C26.6772 29.1312 26.9111 29.2365 27.0803 29.4069C27.2495 29.5772 27.3541 29.8125 27.3541 30.0724Z" fill="#D6AA6E"/>
<path d="M23.46 31.0135C23.46 31.879 22.8797 32.6078 22.0897 32.8279C21.9305 32.8723 21.7628 32.8961 21.5897 32.8961C20.5567 32.8961 19.7192 32.0532 19.7192 31.0135H23.46Z" fill="#AD7C55"/>
<path d="M23.3695 31.5942C23.1769 32.1924 22.6949 32.6595 22.0897 32.828C21.7093 32.7221 21.3775 32.4983 21.1358 32.1981C20.9409 31.9561 21.1167 31.5942 21.4262 31.5942H23.3695Z" fill="#D6AA6E"/>
<path d="M22.5403 21.2826C22.5423 21.2589 22.5431 21.2349 22.5431 21.2106C22.5431 20.6808 22.1162 20.2511 21.5898 20.2511C21.0631 20.2511 20.6365 20.6808 20.6365 21.2106C20.6365 21.2349 20.6372 21.2589 20.6393 21.2826" fill="#AD7C55"/>
<path d="M18.7468 31.0137H26.4189C26.9354 31.0137 27.3541 30.5923 27.3541 30.0724C27.3541 29.5526 26.9354 29.1312 26.4189 29.1312H16.7604C16.2439 29.1312 15.8252 29.5526 15.8252 30.0724C15.8252 30.5923 16.2439 31.0137 16.7604 31.0137H17.9776" stroke="#2C251F" stroke-width="0.431579" stroke-miterlimit="10" stroke-linecap="round" stroke-linejoin="round"/>
<path d="M24.9384 23.0477C24.4742 21.9841 23.5277 21.2106 21.5897 21.2106C15.3883 21.2106 19.3394 29.1312 16.7605 29.1312" stroke="#2C251F" stroke-width="0.431579" stroke-miterlimit="10" stroke-linecap="round" stroke-linejoin="round"/>
<path d="M26.4188 29.1312C24.8154 29.1312 25.7363 26.0694 25.1719 23.753" stroke="#2C251F" stroke-width="0.431579" stroke-miterlimit="10" stroke-linecap="round" stroke-linejoin="round"/>
<path d="M19.7192 31.0136C19.7192 32.0533 20.5566 32.8961 21.5897 32.8961C22.6226 32.8961 23.4601 32.0533 23.4601 31.0136" stroke="#2C251F" stroke-width="0.431579" stroke-miterlimit="10" stroke-linecap="round" stroke-linejoin="round"/>
<path d="M22.5403 21.2826C22.5423 21.2589 22.5431 21.2349 22.5431 21.2106C22.5431 20.6808 22.1162 20.2511 21.5898 20.2511C21.0631 20.2511 20.6365 20.6808 20.6365 21.2106C20.6365 21.2349 20.6372 21.2589 20.6393 21.2826" stroke="#2C251F" stroke-width="0.431579" stroke-miterlimit="10" stroke-linecap="round" stroke-linejoin="round"/>
<path d="M24.771 21.1031C24.771 21.1031 26.2324 21.916 26.2324 24.1997" stroke="#2C251F" stroke-width="0.431579" stroke-miterlimit="10" stroke-linecap="round" stroke-linejoin="round"/>
<path d="M26.2324 21.1806C26.2324 21.1806 27.0785 21.7225 27.0785 23.0901" stroke="#2C251F" stroke-width="0.431579" stroke-miterlimit="10" stroke-linecap="round" stroke-linejoin="round"/>
<path d="M18.4082 21.1031C18.4082 21.1031 16.9468 21.916 16.9468 24.1997" stroke="#2C251F" stroke-width="0.431579" stroke-miterlimit="10" stroke-linecap="round" stroke-linejoin="round"/>
<path d="M16.9467 21.1806C16.9467 21.1806 16.1006 21.7225 16.1006 23.0901" stroke="#2C251F" stroke-width="0.431579" stroke-miterlimit="10" stroke-linecap="round" stroke-linejoin="round"/>
</g>
</g>
<rect x="41.0725" y="14.1599" width="68.6476" height="8.31238" fill="#E6DDD2"/>
<rect x="41.0725" y="27.2909" width="68.6476" height="4.15619" fill="#E6DDD2"/>
<rect x="41.0725" y="35.1096" width="46.1783" height="4.15619" fill="#E6DDD2"/>
<g filter="url(#filter0_d_1_4342)">
<path d="M149.999 195.373C156.054 195.373 160.962 190.465 160.962 184.411C160.962 178.356 156.054 173.448 149.999 173.448C143.945 173.448 139.037 178.356 139.037 184.411C139.037 190.465 143.945 195.373 149.999 195.373Z" fill="#A96A38"/>
<path d="M185.921 165.294H114.077C109.17 165.294 105.193 169.272 105.193 174.179C105.193 179.086 109.17 183.063 114.077 183.063H185.921C190.828 183.063 194.806 179.086 194.806 174.179C194.806 169.272 190.828 165.294 185.921 165.294Z" fill="url(#paint0_linear_1_4342)"/>
<path d="M180.779 158.591V140.782C180.779 126.378 170.886 114.291 157.526 110.932C158.288 109.636 158.729 108.125 158.729 106.513C158.729 101.692 154.82 97.7833 149.999 97.7833C145.179 97.7833 141.27 101.692 141.27 106.513C141.27 108.125 141.711 109.636 142.473 110.932C129.112 114.291 119.222 126.379 119.222 140.782V158.591C119.222 162.447 116.097 165.572 112.241 165.572H187.757C183.902 165.572 180.779 162.447 180.779 158.591ZM149.999 110.002C148.071 110.002 146.507 108.441 146.507 106.513C146.507 104.583 148.071 103.021 149.999 103.021C151.927 103.021 153.491 104.583 153.491 106.513C153.491 108.441 151.927 110.002 149.999 110.002Z" fill="url(#paint1_linear_1_4342)"/>
<path d="M180.779 145.838V156.102L167.111 142.434L167.161 142.431C167.863 142.393 168.55 142.613 169.119 143.026C171.715 144.911 174.909 146.022 178.362 146.022C179.185 146.022 179.99 145.958 180.779 145.838Z" fill="#C79234"/>
<path d="M178.363 146.713C187.445 146.713 194.807 139.35 194.807 130.269C194.807 121.187 187.445 113.825 178.363 113.825C169.281 113.825 161.919 121.187 161.919 130.269C161.919 139.35 169.281 146.713 178.363 146.713Z" fill="#A96A38"/>
<path d="M174.654 123.683C174.654 123.149 174.87 122.728 175.301 122.421L178.501 119.343C178.727 119.118 179.004 119.005 179.332 119.005C179.702 119.005 180.035 119.102 180.333 119.297C180.63 119.492 180.779 119.754 180.779 120.082V140.456C180.779 140.784 180.614 141.046 180.287 141.241C179.958 141.436 179.579 141.533 179.148 141.533C178.696 141.533 178.312 141.436 177.994 141.241C177.675 141.046 177.517 140.784 177.517 140.456V123.344L176.44 124.699C176.234 124.904 176.009 125.006 175.763 125.006C175.455 125.006 175.193 124.868 174.978 124.591C174.762 124.314 174.654 124.011 174.654 123.683Z" fill="white"/>
</g>
<defs>
<filter id="filter0_d_1_4342" x="101.205" y="97.7833" width="115.888" height="118.937" filterUnits="userSpaceOnUse" color-interpolation-filters="sRGB">
<feFlood flood-opacity="0" result="BackgroundImageFix"/>
<feColorMatrix in="SourceAlpha" type="matrix" values="0 0 0 0 0 0 0 0 0 0 0 0 0 0 0 0 0 0 127 0" result="hardAlpha"/>
<feOffset dx="15.2484" dy="18.2981"/>
<feGaussianBlur stdDeviation="1.52484"/>
<feComposite in2="hardAlpha" operator="out"/>
<feColorMatrix type="matrix" values="0 0 0 0 0 0 0 0 0 0 0 0 0 0 0 0 0 0 0.05 0"/>
<feBlend mode="normal" in2="BackgroundImageFix" result="effect1_dropShadow_1_4342"/>
<feBlend mode="normal" in="SourceGraphic" in2="effect1_dropShadow_1_4342" result="shape"/>
</filter>
<linearGradient id="paint0_linear_1_4342" x1="107.748" y1="173.24" x2="123.066" y2="203.959" gradientUnits="userSpaceOnUse">
<stop stop-color="#F3C674"/>
<stop offset="0.268" stop-color="#EDB44D"/>
<stop offset="0.659" stop-color="#E0AD4F"/>
<stop offset="1" stop-color="#E6B151"/>
</linearGradient>
<linearGradient id="paint1_linear_1_4342" x1="125.653" y1="111.312" x2="190.662" y2="164.269" gradientUnits="userSpaceOnUse">
<stop stop-color="#F3C674"/>
<stop offset="0.268" stop-color="#EDB44D"/>
<stop offset="0.659" stop-color="#E1A842"/>
<stop offset="1" stop-color="#DBA036"/>
</linearGradient>
<clipPath id="clip0_1_4342">
<rect width="13.1281" height="13.2127" fill="white" transform="translate(15 20)"/>
</clipPath>
</defs>
</svg>
