<svg width="296" height="319" viewBox="0 0 296 319" fill="none" xmlns="http://www.w3.org/2000/svg">
<path d="M262.895 215.688C245.682 240.261 215.752 227.869 190.043 223.945C139.627 216.244 100.978 281.411 49.9625 243.218C-6.52322 200.931 -2.38839 130.878 57.9266 107.7C226.712 42.8293 278.52 193.386 262.895 215.688Z" fill="#F4EDE3"/>
<path d="M85.7253 74.8152C85.7253 80.1666 80.0374 84.5086 73.0036 84.5086C65.9699 84.5086 60.282 80.1666 60.282 74.8152C60.282 69.4637 65.9699 65.1217 73.0036 65.1217C80.0374 65.1217 85.7253 69.4637 85.7253 74.8152Z" fill="#F4EDE3"/>
<path d="M101.475 56.0371C101.475 58.7128 99.0398 60.8758 96.0276 60.8758C93.0155 60.8758 90.5801 58.7128 90.5801 56.0371C90.5801 53.3614 93.0155 51.1984 96.0276 51.1984C99.0398 51.1984 101.475 53.3614 101.475 56.0371Z" fill="#F4EDE3"/>
<path d="M180.19 285.213C186.039 285.213 190.781 280.471 190.781 274.622C190.781 268.773 186.039 264.031 180.19 264.031C174.341 264.031 169.599 268.773 169.599 274.622C169.599 280.471 174.341 285.213 180.19 285.213Z" fill="#F4EDE3"/>
<path d="M287.078 261.028C287.078 265.546 283.008 269.199 277.994 269.199C272.979 269.199 268.909 265.546 268.909 261.028C268.909 256.509 272.979 252.856 277.994 252.856C283.008 252.856 287.078 256.509 287.078 261.028Z" fill="#F4EDE3"/>
<path d="M264.679 272.548C264.679 274.214 262.917 275.576 260.738 275.576C258.559 275.576 256.796 274.214 256.796 272.548C256.796 270.881 258.559 269.519 260.738 269.519C262.917 269.519 264.679 270.881 264.679 272.548Z" fill="#F4EDE3"/>
<g filter="url(#filter0_d_1_4274)">
<path d="M249.53 238.736V256.288H243.522V264.712H208.738C207.41 264.712 206.242 264.032 205.562 263.008C205.162 262.408 204.93 261.688 204.93 260.912V231.272C204.93 229.256 206.562 227.624 208.586 227.624H219.586C220.578 227.624 221.53 228.024 222.21 228.744L227.258 233.96C227.938 234.672 228.898 235.08 229.89 235.08H245.882C247.898 235.08 249.53 236.712 249.53 238.736Z" fill="#866242"/>
<path d="M244.402 226.536V248.536C244.402 250.336 242.946 251.792 241.154 251.792H219.786C217.994 251.792 216.538 250.336 216.538 248.536V226.536C216.538 224.744 217.994 223.288 219.786 223.288H241.154C242.946 223.288 244.402 224.744 244.402 226.536Z" fill="#E7D1BD"/>
<path d="M256.058 247.064L250.675 261.616C249.987 263.48 248.211 264.712 246.227 264.712H208.738C207.41 264.712 206.243 264.032 205.562 263.008L212.402 244.52C212.93 243.088 214.299 242.136 215.826 242.136H252.635C255.179 242.136 256.946 244.68 256.058 247.064Z" fill="#A77D58"/>
<path d="M250.722 242.136V257.704C250.722 258.256 250.082 258.56 249.658 258.208L246.13 255.28C245.89 255.08 245.546 255.08 245.306 255.28L241.778 258.208C241.354 258.56 240.722 258.256 240.722 257.704V242.136H250.722Z" fill="#D7BAA0"/>
<path d="M234.97 230.088H225.97C225.746 230.088 225.57 229.912 225.57 229.688C225.57 229.464 225.746 229.288 225.97 229.288H234.97C235.194 229.288 235.37 229.464 235.37 229.688C235.37 229.912 235.186 230.088 234.97 230.088Z" fill="#A88A6E"/>
<path d="M239.722 234.184H221.21C220.986 234.184 220.81 234.008 220.81 233.784C220.81 233.56 220.986 233.384 221.21 233.384H239.714C239.938 233.384 240.114 233.56 240.114 233.784C240.114 234.008 239.946 234.184 239.722 234.184Z" fill="#A88A6E"/>
<path d="M232.114 238.288H221.21C220.986 238.288 220.81 238.112 220.81 237.888C220.81 237.664 220.986 237.488 221.21 237.488H232.114C232.338 237.488 232.514 237.664 232.514 237.888C232.514 238.112 232.338 238.288 232.114 238.288Z" fill="#A88A6E"/>
</g>
<g filter="url(#filter1_d_1_4274)">
<path opacity="0.3" d="M52.9224 93.0549C48.0801 88.2126 41.6419 85.5458 34.7938 85.5458C27.9458 85.5458 21.5076 88.2126 16.6653 93.0549C11.823 97.8972 9.15625 104.335 9.15625 111.183C9.15625 118.031 11.823 124.47 16.6653 129.312C21.5076 134.154 27.9458 136.821 34.7938 136.821C41.6419 136.821 48.0801 134.154 52.9224 129.312C57.7647 124.47 60.4314 118.031 60.4314 111.183C60.4314 104.335 57.7647 97.8971 52.9224 93.0549ZM34.7938 131.789C23.4319 131.789 14.1884 122.545 14.1884 111.183C14.1884 111.165 14.189 111.146 14.1891 111.128C14.1891 111.123 14.1884 111.119 14.1884 111.114C14.1884 111.106 14.1894 111.098 14.1896 111.091C14.2396 99.8649 23.3116 90.7318 34.5138 90.5816C34.5373 90.5805 34.5605 90.5781 34.5842 90.5781C34.5984 90.5781 34.6123 90.5798 34.6264 90.5802C34.6823 90.5798 34.738 90.5781 34.7939 90.5781C46.1559 90.5781 55.3993 99.8217 55.3993 111.184C55.3993 122.545 46.1558 131.789 34.7938 131.789Z" fill="#866242"/>
<path d="M50.4453 112.421C49.6075 112.421 48.9283 111.742 48.9283 110.904C48.9283 110.066 49.6075 109.387 50.4453 109.387H52.2739C51.4151 100.967 44.5864 94.2878 36.101 93.6606V95.2525C36.101 96.0903 35.4218 96.7695 34.584 96.7695C33.7462 96.7695 33.067 96.0903 33.067 95.2525V93.6969C24.7071 94.5161 18.048 101.218 17.2946 109.597H18.9322C19.7701 109.597 20.4493 110.276 20.4493 111.114C20.4493 111.952 19.7701 112.631 18.9322 112.631H17.2822C17.9797 121.144 24.7723 127.958 33.2767 128.689V126.765C33.2767 125.928 33.9559 125.248 34.7937 125.248C35.6315 125.248 36.3107 125.928 36.3107 126.765V128.689C44.8847 127.952 51.7186 121.032 52.3209 112.421H50.4453ZM40.9347 107.188L35.8665 112.256C35.582 112.541 35.1962 112.7 34.7938 112.7C34.3915 112.7 34.0055 112.541 33.7211 112.256L24.8989 103.434C24.3064 102.842 24.3064 101.881 24.8989 101.289C25.4913 100.696 26.4518 100.696 27.0442 101.289L34.7939 109.038L38.7896 105.042C39.3819 104.45 40.3424 104.45 40.9349 105.042C41.5272 105.635 41.5272 106.595 40.9347 107.188Z" fill="#866242"/>
</g>
<g filter="url(#filter2_d_1_4274)">
<path d="M24.2906 266.596L36.9819 271.827L41.8899 290.187L49.4551 277.538L59.1543 282.915L65.5561 243.155L24.2906 266.596Z" fill="#A77D58"/>
<path d="M65.556 243.155L44.0072 274.518L41.8898 290.187L36.9819 271.827L65.556 243.155Z" fill="#866242"/>
<path d="M49.4551 277.538L41.8899 290.187L44.0073 274.518L49.4551 277.538Z" fill="#6C4D32"/>
</g>
<path d="M64.7793 246.454C168.132 216.37 55.5481 21.5896 178.193 31.3477" stroke="#C8BAA7" stroke-dasharray="2 2"/>
<path fill-rule="evenodd" clip-rule="evenodd" d="M176.957 49.2466H287.152C290.226 49.2466 292.604 45.9168 292.604 41.611V12.5038C292.604 8.14056 290.168 4.69592 287.094 4.69592H165.938C165.474 4.69592 165.01 4.98298 164.778 5.38485C164.546 5.78673 164.546 6.30342 164.836 6.7053L171.505 17.6133V41.611C171.505 45.9168 173.941 49.2466 176.957 49.2466Z" fill="#F4EDE3"/>
<rect x="181.61" y="15.637" width="24.7571" height="24.7571" rx="5.06395" fill="#614730" fill-opacity="0.1"/>
<path fill-rule="evenodd" clip-rule="evenodd" d="M192.579 20.0721L191.236 21.4127H189.354C187.944 21.4127 187.46 21.4247 187.424 21.4607C187.388 21.4967 187.376 21.9761 187.376 23.3718V25.2348L186.093 26.5151C185.387 27.2193 184.783 27.8451 184.751 27.9058C184.71 27.9825 184.704 28.0374 184.731 28.0859C184.753 28.1242 185.356 28.7407 186.073 29.4558L187.376 30.7562V32.6392C187.376 34.0504 187.388 34.5343 187.424 34.5702C187.46 34.6062 187.944 34.6183 189.354 34.6183H191.236L192.579 35.9588C193.317 36.6961 193.947 37.2994 193.978 37.2994C194.009 37.2994 194.64 36.6961 195.379 35.9588L196.724 34.6183H198.605C200.014 34.6183 200.498 34.6062 200.534 34.5702C200.57 34.5343 200.582 34.0508 200.582 32.6408V30.7594L201.922 29.4167C202.659 28.6782 203.263 28.0477 203.263 28.0155C203.263 27.9833 202.659 27.3528 201.922 26.6143L200.582 25.2716V23.3902C200.582 21.9802 200.57 21.4967 200.534 21.4607C200.498 21.4247 200.014 21.4127 198.605 21.4127H196.724L195.379 20.0721C194.64 19.3348 194.009 18.7316 193.978 18.7316C193.947 18.7316 193.317 19.3348 192.579 20.0721ZM195.259 20.5519L196.519 21.8121L198.34 21.8225L200.161 21.8329L200.181 23.6634L200.201 25.494L201.462 26.7547L202.722 28.0155L201.452 29.286L200.182 30.5565L200.172 32.3773L200.161 34.1981L198.331 34.2181L196.5 34.2381L195.24 35.4984L193.979 36.7587L192.708 35.4887L191.438 34.2188L189.617 34.2084L187.796 34.1981L187.776 32.3675L187.756 30.5369L186.496 29.2762L185.236 28.0155L186.506 26.7449L187.775 25.4744L187.786 23.6536L187.796 21.8329L189.627 21.8129L191.458 21.7929L192.708 20.5423C193.396 19.8546 193.968 19.2918 193.979 19.2918C193.99 19.2918 194.566 19.8589 195.259 20.5519ZM192.779 21.2326L191.636 22.3731H190.028C188.478 22.3731 188.418 22.3759 188.378 22.4505C188.351 22.5001 188.336 23.0933 188.336 24.1015V25.675L187.216 26.795C186.343 27.6676 186.096 27.9371 186.096 28.0155C186.096 28.0938 186.343 28.3634 187.216 29.236L188.336 30.3559V31.9407C188.336 33.4251 188.341 33.5296 188.41 33.5916C188.475 33.6509 188.649 33.6579 190.061 33.6579H191.638L192.758 34.7783C193.631 35.6513 193.9 35.8988 193.979 35.8988C194.057 35.8988 194.327 35.6513 195.199 34.7783L196.319 33.6579H197.907C199.298 33.6579 199.503 33.65 199.558 33.595C199.613 33.5399 199.621 33.3344 199.621 31.944V30.3559L200.739 29.2389C201.353 28.6245 201.866 28.0845 201.878 28.039C201.896 27.972 201.682 27.7376 200.76 26.8145L199.621 25.6727V24.0709C199.621 22.8784 199.609 22.4569 199.573 22.4211C199.537 22.3854 199.116 22.3731 197.923 22.3731H196.322L195.179 21.2326C194.55 20.6054 194.01 20.0921 193.979 20.0921C193.948 20.0921 193.408 20.6054 192.779 21.2326ZM195.069 21.7228L196.14 22.7933L197.659 22.8046L199.178 22.816L199.19 24.335L199.201 25.8541L200.281 26.9348L201.361 28.0155L200.281 29.0962L199.201 30.1769L199.19 31.6959L199.178 33.2149L197.659 33.2263L196.14 33.2377L195.06 34.3179L193.979 35.398L192.898 34.3179L191.817 33.2377L190.298 33.2263L188.779 33.2149L188.768 31.6959L188.757 30.1769L187.676 29.0962L186.596 28.0155L187.676 26.9348L188.757 25.8541L188.768 24.335L188.779 22.816L190.299 22.8046L191.818 22.7933L192.888 21.7228C193.477 21.1341 193.968 20.6524 193.978 20.6524C193.989 20.6524 194.48 21.1341 195.069 21.7228Z" fill="#101010" fill-opacity="0.3"/>
<path d="M192.665 30.5702C192.364 30.5702 192.107 30.4882 191.895 30.3244C191.684 30.1592 191.522 29.9201 191.41 29.6071C191.298 29.2927 191.242 28.9131 191.242 28.4682C191.242 28.0259 191.298 27.6483 191.41 27.3353C191.523 27.0209 191.686 26.7811 191.897 26.616C192.11 26.4494 192.366 26.3662 192.665 26.3662C192.963 26.3662 193.218 26.4494 193.43 26.616C193.643 26.7811 193.806 27.0209 193.917 27.3353C194.031 27.6483 194.087 28.0259 194.087 28.4682C194.087 28.9131 194.031 29.2927 193.919 29.6071C193.808 29.9201 193.646 30.1592 193.434 30.3244C193.222 30.4882 192.966 30.5702 192.665 30.5702ZM192.665 30.1306C192.963 30.1306 193.195 29.9867 193.36 29.699C193.525 29.4113 193.608 29.001 193.608 28.4682C193.608 28.1139 193.57 27.8121 193.494 27.563C193.419 27.314 193.311 27.1241 193.17 26.9936C193.03 26.8631 192.862 26.7978 192.665 26.7978C192.369 26.7978 192.138 26.9436 191.971 27.2354C191.805 27.5257 191.722 27.9367 191.722 28.4682C191.722 28.8225 191.759 29.1236 191.833 29.3713C191.908 29.6191 192.015 29.8076 192.155 29.9368C192.296 30.066 192.466 30.1306 192.665 30.1306ZM196.566 26.4221V30.5142H196.071V26.9416H196.047L195.048 27.605V27.1015L196.071 26.4221H196.566Z" fill="#301F17"/>
<rect x="212.683" y="16.1599" width="68.6476" height="8.31238" fill="#E6DDD2"/>
<rect x="212.683" y="29.2909" width="68.6476" height="4.15619" fill="#E6DDD2"/>
<rect x="212.683" y="37.1096" width="46.1783" height="4.15619" fill="#E6DDD2"/>
<g filter="url(#filter3_d_1_4274)">
<path d="M234.64 116.085H248.139C249.316 116.085 250.271 115.085 250.271 113.851V88.6655C250.271 87.4322 249.316 86.4324 248.139 86.4324H230.691L234.64 116.085Z" fill="#F5F5F5"/>
<path d="M248.139 86.4323H246.007C247.184 86.4323 248.139 87.4322 248.139 88.6655V113.851C248.139 115.085 247.184 116.084 246.007 116.084H248.139C249.316 116.085 250.271 115.085 250.271 113.851V88.6655C250.271 87.4322 249.316 86.4323 248.139 86.4323Z" fill="#D2BBA7"/>
<path d="M246.516 97.2321H247.997C248.075 97.2321 248.139 97.1654 248.139 97.0831V95.1455C248.139 95.0632 248.075 94.9965 247.997 94.9965H243.134C243.056 94.9965 242.992 94.9298 242.992 94.8475V93.452C242.992 93.3697 242.929 93.303 242.85 93.303H241.002C240.924 93.303 240.86 93.3697 240.86 93.452V94.8475C240.86 94.9298 240.796 94.9965 240.718 94.9965H235.856C235.777 94.9965 235.714 95.0632 235.714 95.1455V97.0831C235.714 97.1654 235.777 97.2321 235.856 97.2321H243.856C243.962 97.2321 244.031 97.3489 243.983 97.4479C243.565 98.3127 242.934 99.4235 242.035 100.553C241.978 100.624 241.873 100.624 241.816 100.553C241.267 99.8625 240.817 99.1796 240.456 98.5563C240.416 98.4862 240.329 98.4634 240.262 98.5053L238.674 99.496C238.606 99.5383 238.584 99.6301 238.625 99.7008C239.068 100.469 239.631 101.317 240.329 102.17C240.38 102.233 240.374 102.327 240.314 102.381C239.309 103.281 238.097 104.107 236.648 104.728C236.575 104.759 236.54 104.844 236.569 104.92L237.249 106.721C237.279 106.798 237.362 106.836 237.435 106.805C239.034 106.122 240.514 105.161 241.83 103.958C241.884 103.909 241.963 103.909 242.016 103.958C243.207 105.048 244.659 106.055 246.417 106.805C246.49 106.836 246.574 106.798 246.603 106.722L247.284 104.92C247.313 104.844 247.277 104.759 247.205 104.728C245.754 104.106 244.542 103.28 243.537 102.38C243.477 102.327 243.471 102.233 243.523 102.17C243.944 101.657 244.341 101.114 244.711 100.543C245.551 99.2497 246.084 98.0808 246.385 97.324C246.407 97.2685 246.459 97.2321 246.516 97.2321Z" fill="#D2BBA7"/>
<path d="M240.28 108.769L231.038 80.3013C230.963 80.0706 230.756 79.9155 230.524 79.9155H217.082C215.905 79.9155 214.95 80.9154 214.95 82.1487V106.536C214.95 107.77 215.905 108.769 217.082 108.769H240.28Z" fill="#866242"/>
<path d="M223.308 99.4452H220.374L223.68 89.4302H227.397L230.702 99.4452H227.768L225.577 92.1883H225.499L223.308 99.4452ZM222.761 95.494H228.277V97.5283H222.761V95.494Z" fill="white"/>
<path d="M240.28 108.769L234.64 116.085L231.606 108.769H240.28Z" fill="#AE8C6E"/>
</g>
<rect x="102.61" y="153" width="77" height="38" rx="7" fill="#EADFCF"/>
<path d="M167.606 170.469C167.55 170.377 167.457 170.268 167.325 170.115C167.179 169.952 167.089 169.852 167.021 169.792C166.098 168.857 165.236 168.403 164.39 168.403C162.702 168.403 161.591 170.177 160.518 171.893C160.085 172.585 159.675 173.238 159.246 173.747C158.83 174.253 158.062 174.36 157.491 174.36C156.076 174.36 154.328 173.683 153.533 172.905C156.239 172.374 156.499 171.772 157.721 168.947L158.146 167.964L157.309 168.199C157.285 168.206 154.878 168.874 152.606 168.874C151.641 168.874 150.842 168.754 150.23 168.518C149.865 168.377 149.313 168.08 148.673 167.736C147.074 166.876 145.082 165.804 143.601 165.804C143.11 165.804 142.697 165.924 142.374 166.16C141.548 166.761 139.402 170.328 139.834 171.697C139.967 172.121 140.313 172.364 140.783 172.364C140.873 172.364 140.97 172.355 141.07 172.338L141.267 172.304L141.363 172.126C141.902 171.13 142.606 170.666 143.58 170.666C144.701 170.666 146.029 171.274 147.314 171.862C147.592 171.989 147.876 172.119 148.157 172.242C146.467 173.108 143.864 174.188 141.412 174.189C140.863 174.189 140.34 174.133 139.858 174.025C138.553 173.731 137.548 172.672 136.485 171.549C135.263 170.261 133.503 168.819 132.213 168.96C130.923 169.101 129.392 171.46 129.392 171.46C128.505 172.79 127.42 174.043 126.316 174.043C126.233 174.043 126.148 174.035 126.064 174.021C124.307 173.72 123.964 171.637 123.601 169.432C123.306 167.637 123 165.78 121.864 164.761L121.532 164.464L121.264 164.82C121.059 165.091 120.875 165.331 120.709 165.546C119.164 167.555 119.146 167.725 120.233 170.1C120.319 170.287 120.412 170.489 120.511 170.709C120.588 170.879 120.69 171.076 120.809 171.303C121.172 172.001 121.781 173.17 121.57 173.71C121.538 173.792 121.468 173.911 121.231 173.992C120.691 174.178 119.293 174.611 117.981 174.611C117.443 174.611 116.99 174.537 116.635 174.391C115.826 174.059 115.543 173.129 115.541 173.122L115.452 172.811L115.135 172.819C114.122 172.844 113.881 174.793 113.689 177.145C113.668 177.401 113.65 177.621 113.634 177.765L113.61 177.967L113.752 178.111C114.667 179.043 115.872 179.536 117.235 179.536C119.48 179.536 121.637 178.21 122.582 176.376C123.378 177.929 124.569 178.829 125.888 178.829C127.071 178.829 128.226 178.103 129.127 176.813C130.166 178.432 131.427 179.315 132.726 179.315C133.623 179.315 134.912 178.892 136.144 176.98C137.17 178.384 138.573 179.095 140.323 179.095C144 179.095 148.467 175.89 151.137 173.975C151.222 173.914 151.306 173.854 151.388 173.795C152.441 176.146 155.186 179.071 157.854 179.071C158.743 179.071 159.97 178.732 160.969 177.197C162.326 178.493 163.476 179.101 164.562 179.101H164.562C165.682 179.101 166.685 178.423 167.542 177.089C168.946 174.924 168.965 172.344 167.606 170.469ZM134.149 175.164C133.321 175.164 131.799 174.651 131.392 173.878C131.294 173.691 131.199 173.389 131.501 172.927C131.711 172.606 131.936 172.45 132.186 172.45C132.491 172.45 132.864 172.671 133.235 173.072C133.772 173.652 134.214 174.537 134.301 175.157C134.259 175.161 134.21 175.164 134.149 175.164ZM165.505 175.164C164.676 175.164 163.154 174.651 162.748 173.878C162.65 173.691 162.554 173.389 162.857 172.927C163.067 172.606 163.291 172.45 163.542 172.45C163.847 172.45 164.219 172.671 164.59 173.072C165.127 173.652 165.569 174.537 165.656 175.157C165.615 175.161 165.565 175.164 165.505 175.164Z" fill="#866242"/>
<defs>
<filter id="filter0_d_1_4274" x="194.61" y="209" width="92" height="95" filterUnits="userSpaceOnUse" color-interpolation-filters="sRGB">
<feFlood flood-opacity="0" result="BackgroundImageFix"/>
<feColorMatrix in="SourceAlpha" type="matrix" values="0 0 0 0 0 0 0 0 0 0 0 0 0 0 0 0 0 0 127 0" result="hardAlpha"/>
<feOffset dx="10" dy="14"/>
<feGaussianBlur stdDeviation="5.5"/>
<feComposite in2="hardAlpha" operator="out"/>
<feColorMatrix type="matrix" values="0 0 0 0 0 0 0 0 0 0 0 0 0 0 0 0 0 0 0.1 0"/>
<feBlend mode="normal" in2="BackgroundImageFix" result="effect1_dropShadow_1_4274"/>
<feBlend mode="normal" in="SourceGraphic" in2="effect1_dropShadow_1_4274" result="shape"/>
</filter>
<filter id="filter1_d_1_4274" x="-0.529097" y="77" width="93.4348" height="96.8531" filterUnits="userSpaceOnUse" color-interpolation-filters="sRGB">
<feFlood flood-opacity="0" result="BackgroundImageFix"/>
<feColorMatrix in="SourceAlpha" type="matrix" values="0 0 0 0 0 0 0 0 0 0 0 0 0 0 0 0 0 0 127 0" result="hardAlpha"/>
<feOffset dx="11.3945" dy="15.9523"/>
<feGaussianBlur stdDeviation="6.26696"/>
<feComposite in2="hardAlpha" operator="out"/>
<feColorMatrix type="matrix" values="0 0 0 0 0 0 0 0 0 0 0 0 0 0 0 0 0 0 0.1 0"/>
<feBlend mode="normal" in2="BackgroundImageFix" result="effect1_dropShadow_1_4274"/>
<feBlend mode="normal" in="SourceGraphic" in2="effect1_dropShadow_1_4274" result="shape"/>
</filter>
<filter id="filter2_d_1_4274" x="10.4709" y="231" width="99.2805" height="102.699" filterUnits="userSpaceOnUse" color-interpolation-filters="sRGB">
<feFlood flood-opacity="0" result="BackgroundImageFix"/>
<feColorMatrix in="SourceAlpha" type="matrix" values="0 0 0 0 0 0 0 0 0 0 0 0 0 0 0 0 0 0 127 0" result="hardAlpha"/>
<feOffset dx="11.3945" dy="15.9523"/>
<feGaussianBlur stdDeviation="6.26696"/>
<feComposite in2="hardAlpha" operator="out"/>
<feColorMatrix type="matrix" values="0 0 0 0 0 0 0 0 0 0 0 0 0 0 0 0 0 0 0.1 0"/>
<feBlend mode="normal" in2="BackgroundImageFix" result="effect1_dropShadow_1_4274"/>
<feBlend mode="normal" in="SourceGraphic" in2="effect1_dropShadow_1_4274" result="shape"/>
</filter>
<filter id="filter3_d_1_4274" x="207.61" y="73" width="70" height="75" filterUnits="userSpaceOnUse" color-interpolation-filters="sRGB">
<feFlood flood-opacity="0" result="BackgroundImageFix"/>
<feColorMatrix in="SourceAlpha" type="matrix" values="0 0 0 0 0 0 0 0 0 0 0 0 0 0 0 0 0 0 127 0" result="hardAlpha"/>
<feOffset dx="10" dy="14"/>
<feGaussianBlur stdDeviation="5.5"/>
<feComposite in2="hardAlpha" operator="out"/>
<feColorMatrix type="matrix" values="0 0 0 0 0 0 0 0 0 0 0 0 0 0 0 0 0 0 0.1 0"/>
<feBlend mode="normal" in2="BackgroundImageFix" result="effect1_dropShadow_1_4274"/>
<feBlend mode="normal" in="SourceGraphic" in2="effect1_dropShadow_1_4274" result="shape"/>
</filter>
</defs>
</svg>
