<svg width="124" height="114" viewBox="0 0 124 114" fill="none" xmlns="http://www.w3.org/2000/svg">
<path d="M104.276 88.8242V108.066C104.276 110.741 101.453 112.474 99.0675 111.264L62 92.4615" stroke="#EBC9A9" stroke-width="3.6845" stroke-miterlimit="10" stroke-linecap="round"/>
<path d="M19.7246 88.8242V108.066C19.7246 110.741 22.5473 112.474 24.9327 111.264L62.0002 92.4615" stroke="#EBC9A9" stroke-width="3.6845" stroke-miterlimit="10" stroke-linecap="round"/>
<path opacity="0.35" d="M59.8122 86.6199C59.8122 87.8183 60.8015 88.7936 61.9999 88.7936V93.9353L12.7553 83.8264L6.71309 82.6252C2.84068 81.8555 0.0515137 78.4573 0.0515137 74.5092V17.0752C0.0515137 11.9869 4.6004 8.10421 9.6255 8.90301L61.9999 17.2287V22.3704C60.8015 22.3704 59.8122 23.3457 59.8122 24.5441V86.6199Z" fill="url(#paint0_radial_1_4679)"/>
<path opacity="0.35" d="M64.1877 86.6199C64.1877 87.8183 63.1984 88.7936 62 88.7936V93.9353L111.245 83.8264L117.287 82.6252C121.159 81.8555 123.948 78.4573 123.948 74.5092V17.0752C123.948 11.9869 119.4 8.10421 114.374 8.90301L62 17.2287V22.3704C63.1984 22.3704 64.1877 23.3457 64.1877 24.5441V86.6199Z" fill="url(#paint1_radial_1_4679)"/>
<path d="M59.8121 86.6199C59.8121 87.8183 60.8014 88.7936 61.9998 88.7936V93.9353L19.7239 75.5843L12.7594 72.5634C9.518 71.1574 7.42041 67.9613 7.42041 64.4278V9.2193C7.42041 3.00153 13.6529 -1.28575 19.4595 0.93784L61.9998 17.2285V22.3702C60.8014 22.3702 59.8121 23.3455 59.8121 24.5439V86.6199Z" fill="white"/>
<path d="M116.579 9.21932V64.4278C116.579 67.9611 114.482 71.1574 111.24 72.5634L104.276 75.5843L62 93.9353V88.7936C63.1982 88.7936 64.1739 87.8181 64.1739 86.6199V24.5441C64.1739 23.3457 63.1982 22.3704 62 22.3704V17.2287L104.54 0.93804C110.347 -1.28555 116.579 3.00154 116.579 9.21932Z" fill="#F5DFCA"/>
<defs>
<radialGradient id="paint0_radial_1_4679" cx="0" cy="0" r="1" gradientUnits="userSpaceOnUse" gradientTransform="translate(31.0259 51.3669) scale(37.2254 37.2254)">
<stop stop-color="#F2EAD4"/>
<stop offset="1" stop-color="#F3ECD3"/>
</radialGradient>
<radialGradient id="paint1_radial_1_4679" cx="0" cy="0" r="1" gradientUnits="userSpaceOnUse" gradientTransform="translate(92.9742 51.3669) rotate(180) scale(37.2254 37.2254)">
<stop stop-color="#F2E6D4"/>
<stop offset="1" stop-color="#F3E8D3"/>
</radialGradient>
</defs>
</svg>
