<svg width="38" height="16" viewBox="0 0 38 16" fill="none" xmlns="http://www.w3.org/2000/svg">
<path d="M33.6328 8.71501C34.034 8.32275 34.034 7.67725 33.6328 7.28498L28.7313 2.49248C28.3301 2.10021 28.3301 1.4547 28.7313 1.06244L29.1188 0.683532C29.5075 0.303563 30.1284 0.303568 30.517 0.683542L37.2687 7.28498C37.6699 7.67725 37.6699 8.32275 37.2687 8.71502L30.5171 15.3164C30.1284 15.6964 29.5075 15.6964 29.1188 15.3164L28.7313 14.9375C28.3301 14.5453 28.3301 13.8997 28.7313 13.5075L33.6328 8.71501Z" fill="white"/>
<path d="M19.6328 8.71501C20.034 8.32275 20.034 7.67725 19.6328 7.28498L14.7313 2.49248C14.3301 2.10021 14.3301 1.4547 14.7313 1.06244L15.1188 0.683532C15.5075 0.303563 16.1284 0.303568 16.517 0.683542L23.2687 7.28498C23.6699 7.67725 23.6699 8.32275 23.2687 8.71502L16.5171 15.3164C16.1284 15.6964 15.5075 15.6964 15.1188 15.3164L14.7313 14.9375C14.3301 14.5453 14.3301 13.8997 14.7313 13.5075L19.6328 8.71501Z" fill="white" fill-opacity="0.5"/>
<path d="M5.63282 8.71501C6.034 8.32275 6.03401 7.67725 5.63282 7.28498L0.731293 2.49248C0.330102 2.10021 0.330108 1.4547 0.731306 1.06244L1.11884 0.683532C1.50747 0.303563 2.12843 0.303568 2.51705 0.683542L9.26871 7.28498C9.6699 7.67725 9.6699 8.32275 9.26871 8.71502L2.51706 15.3164C2.12843 15.6964 1.50747 15.6964 1.11884 15.3164L0.731288 14.9375C0.330098 14.5453 0.330098 13.8997 0.731288 13.5075L5.63282 8.71501Z" fill="white" fill-opacity="0.25"/>
</svg>
