<svg width="390" height="411" viewBox="0 0 390 411" fill="none" xmlns="http://www.w3.org/2000/svg">
<path d="M185.646 77.8071C100.004 25.9717 10.946 65.1324 -22.8775 91.1921L3.89297 498.649L463.803 471.616C460.971 439.436 455.255 364.586 455.045 322.623C454.783 270.17 406.565 236.897 394.133 159.771C381.701 82.6445 292.7 142.601 185.646 77.8071Z" fill="#618E00"/>
<path d="M177.081 85.3762C88.9788 37.8418 1.96781 81.3611 -30.5248 109.062L16.3736 514.696L474.383 464.94C469.962 432.939 460.55 358.464 458.264 316.563C455.407 264.187 405.601 233.34 389.368 156.923C373.135 80.507 287.21 144.794 177.081 85.3762Z" fill="#FCFFF5"/>
<path d="M177.576 94.5155C89.4734 46.9812 2.46244 90.5005 -30.0302 118.202L16.8683 523.835L474.877 474.079C470.457 442.079 461.044 367.603 458.758 325.702C455.901 273.326 406.095 242.479 389.863 166.063C373.63 89.6464 287.704 153.933 177.576 94.5155Z" stroke="#618E00"/>
<path d="M162.959 342.361C84.3212 282.398 0.869474 316.474 -31.0267 341.007L-56.6552 443.33L365.661 432.833C393.672 411.827 432.549 368.842 363.973 364.947C278.254 360.079 261.256 417.314 162.959 342.361Z" fill="#DFEDD1"/>
</svg>
