<svg width="192" height="174" viewBox="0 0 192 174" fill="none" xmlns="http://www.w3.org/2000/svg">
<g clip-path="url(#clip0_1_6802)">
<path d="M46.8251 105.499C46.8352 105.337 46.8352 105.176 46.8251 105.014C46.8251 103.893 46.8251 102.813 46.7041 101.813C46.5831 100.814 46.5125 99.8846 46.4218 99.0263C46.331 98.168 46.1797 97.4208 46.0285 96.7443C45.8772 96.0678 45.8066 95.4922 45.6755 95.0277C45.494 94.2098 45.3629 93.715 45.3428 93.5939C45.3428 93.7049 45.5545 94.1997 45.8268 94.9873C45.9882 95.4518 46.1293 95.9971 46.3209 96.6837C46.5125 97.3703 46.6839 98.1075 46.8856 98.9556C47.0873 99.8038 47.2285 100.733 47.3394 101.753C47.4866 102.831 47.5774 103.916 47.6117 105.004C47.6117 105.115 47.6117 105.236 47.6117 105.347L46.8251 105.499Z" fill="#618E00"/>
<path d="M86.6263 68.0572C86.6263 67.2393 86.5053 66.482 86.4549 65.7752C86.4044 65.0684 86.233 64.4524 86.1221 63.887C85.9284 63.0269 85.6791 62.1802 85.3759 61.3525C85.265 61.0597 85.1944 60.8375 85.1439 60.6961C85.1439 60.8375 85.2448 61.0697 85.3456 61.3626C85.6044 62.2017 85.8165 63.0546 85.9809 63.9172C86.0616 64.4827 86.1423 65.1088 86.2431 65.8055C86.3439 66.5022 86.3742 67.2494 86.3339 68.0572C86.3369 69.8959 86.11 71.7277 85.6582 73.5099C84.5278 78.1516 81.9535 82.3134 78.307 85.3947C76.2219 87.2269 73.644 88.4034 70.8952 88.7773C67.9573 89.1816 64.9753 88.4604 62.5456 86.7578C61.328 85.9401 60.2963 84.8744 59.5179 83.6304C58.7395 82.3863 58.2318 80.9919 58.028 79.5381C57.7206 76.7725 58.1124 73.9739 59.1675 71.3995C60.0819 69.0332 61.3061 66.799 62.8078 64.7553C64.102 62.9575 65.6549 61.3616 67.4162 60.0196C69.9838 58.05 73.0735 56.8805 76.3003 56.6571C77.1794 56.6124 78.0608 56.653 78.9322 56.7783L79.7893 56.9197L78.9322 56.7379C78.0651 56.5723 77.1826 56.5012 76.3003 56.5259C73.0073 56.6199 69.8194 57.7074 67.154 59.646C65.3083 60.963 63.6728 62.553 62.3036 64.3615C61.5028 65.4003 60.775 66.4934 60.1255 67.6331L59.9843 65.9973L60.0952 65.8055C60.569 64.9675 60.9414 64.076 61.2045 63.1498C60.7077 63.6605 60.2619 64.2185 59.8734 64.8159L59.8129 64.0283C59.8834 63.887 59.9742 63.7254 60.0448 63.5638C60.4741 62.68 60.7958 61.7477 61.0028 60.787C60.5043 61.3894 60.0653 62.0386 59.6919 62.7257L59.6314 62.0694C59.8607 61.465 59.9901 60.8273 60.0145 60.1812C60.0145 60.1812 59.8129 60.4639 59.5305 60.8981L59.4498 59.8883C59.77 59.1514 60.0133 58.3832 60.1759 57.5962C60.1759 57.5962 59.8229 58.0708 59.349 58.8079V58.5454C59.3699 58.5104 59.3868 58.4731 59.3994 58.4343C59.703 57.7968 59.9038 57.1152 59.9944 56.4148C59.7149 56.7011 59.4618 57.012 59.2381 57.3438L59.1877 56.748L59.2381 56.6369C59.601 55.8215 59.8586 54.963 60.0045 54.0823C59.655 54.5065 59.3413 54.9591 59.0666 55.4353L58.9961 54.5972C59.3753 53.8835 59.6794 53.1323 59.9036 52.3556C59.5374 52.719 59.2002 53.1106 58.8952 53.5269V53.1937C58.9759 53.0624 59.0566 52.9513 59.1272 52.8201C59.4507 52.2233 59.6657 51.5737 59.7624 50.9016C59.3835 51.2342 59.045 51.6104 58.754 52.0224C58.754 51.6589 58.6935 51.2853 58.6532 50.9016C58.7407 50.7886 58.8215 50.6706 58.8952 50.5481C59.2952 49.9266 59.6329 49.2671 59.9036 48.5791C59.3915 48.9337 58.9446 49.3744 58.5826 49.8817C58.5826 49.6798 58.5826 49.4879 58.5826 49.296C58.5857 49.2591 58.5857 49.2219 58.5826 49.185C58.9152 48.3796 59.1423 47.5345 59.2582 46.6707C58.9713 47.0488 58.7118 47.4469 58.4818 47.8622L57.1204 31.2316C57.1204 31.2316 56.9389 37.9263 57.4734 46.7212C56.4007 43.6461 55.6834 40.458 55.3355 37.2194C54.3271 41.4705 53.0868 62.1704 53.0868 62.1704C52.2196 69.7435 53.6918 87.5151 53.6918 87.5151C54.055 93.1052 54.1122 98.711 53.8633 104.307C55.3961 104.065 56.8885 103.843 58.4717 103.631C58.8851 102.56 59.2784 101.551 59.6414 100.602C61.5574 95.472 62.9187 91.847 63.433 90.4434C62.8582 91.746 61.507 94.9873 59.5608 99.5312V99.0768C59.5572 99.1171 59.5572 99.1576 59.5608 99.198C59.5608 99.198 59.8734 97.754 60.1658 95.7244C60.307 95.5326 60.4481 95.3407 60.5893 95.1186C61.1048 94.3063 61.5212 93.435 61.8297 92.5235C61.277 93.0707 60.7772 93.6692 60.3372 94.3108C60.3422 94.2368 60.3422 94.1626 60.3372 94.0886C60.7152 93.5886 61.0145 93.0335 61.2246 92.4427C61.4912 91.735 61.6378 90.9875 61.6582 90.2314C61.6807 89.9187 61.6807 89.6049 61.6582 89.2923C61.6582 89.2923 61.2044 90.6454 60.6498 92.2004L60.5893 92.4023C60.7708 89.7467 60.7003 87.7171 60.7003 87.7171C60.7003 87.7171 60.4179 88.5653 60.1255 89.9082C58.2297 86.8285 57.1608 80.5882 57.1608 80.5882C56.643 76.7234 57.3895 72.7945 59.2885 69.3901C59.0061 69.9657 58.7439 70.5715 58.4818 71.1976C57.3276 73.8907 56.8898 76.8372 57.2112 79.7501C57.407 81.3076 57.9331 82.8052 58.754 84.1426C59.6071 85.5152 60.733 86.6975 62.0616 87.6161C62.776 88.117 63.5437 88.537 64.3507 88.8682C64.5254 88.9553 64.7076 89.0263 64.8952 89.0802C66.8699 89.8072 68.9946 90.0294 71.0767 89.7265C73.9869 89.3003 76.706 88.0214 78.8918 86.051C80.8627 84.3328 82.518 82.2823 83.7826 79.9925C84.8939 78.0115 85.6996 75.8735 86.1725 73.6512C86.5658 71.8142 86.7183 69.9337 86.6263 68.0572ZM56.9893 29.101C56.5115 29.8721 56.087 30.6751 55.7187 31.5042C54.45 34.5932 53.625 37.8467 53.2683 41.1676C52.996 43.2577 52.7742 45.5499 52.5322 48.0036C52.2902 50.4573 52.028 53.0523 51.8162 55.8695C51.281 61.9122 51.089 67.9805 51.2414 74.0451C51.4532 80.4974 52.3204 86.5559 52.6935 92.0792C52.9913 96.2192 53.0418 100.373 52.8448 104.519L53.3691 104.428C53.6715 100.305 53.7119 96.1671 53.4902 92.0388C53.1977 86.4549 52.3809 80.3964 52.1691 74.0148C51.9574 67.6331 52.2498 61.514 52.6028 55.9907C52.7944 53.2139 52.9961 50.5784 53.1675 48.1146C53.3389 45.6508 53.5204 43.3587 53.7322 41.2685C53.9885 37.9639 54.7047 34.7114 55.8599 31.6052C56.1945 30.7702 56.5818 29.9574 57.0196 29.1717L57.4633 28.4043C57.3927 28.4649 57.2313 28.7274 56.9893 29.1111V29.101ZM41.2683 101.187C41.7769 100.749 42.2306 100.25 42.6196 99.7028C42.0497 100.006 41.5153 100.372 41.0263 100.793C41.0969 100.49 41.1776 100.177 41.2482 99.8745C41.5864 99.5658 41.8968 99.2279 42.1759 98.8647C41.9045 98.9689 41.6416 99.0938 41.3893 99.2383C41.6414 98.2286 41.8734 97.3299 42.1053 96.4615C43.1742 92.4225 43.9305 89.8376 44.0112 89.5346C43.8902 89.8275 42.9322 92.3417 41.6515 96.3303C41.5708 96.5861 41.4902 96.8486 41.4095 97.1179C41.1987 97.1955 40.9781 97.2431 40.754 97.2592C40.9395 96.916 41.0267 96.5281 41.0061 96.1384C40.5826 96.2514 40.2073 96.4996 39.9372 96.8452C39.8956 96.9082 39.8618 96.976 39.8364 97.0472C39.7233 96.9708 39.6186 96.8828 39.5238 96.7847C39.67 96.7547 39.8078 96.6926 39.9271 96.6029C40.2125 96.3391 40.3918 95.98 40.4313 95.5931C40.0612 95.5331 39.6818 95.6084 39.3624 95.8052C39.2691 95.88 39.1874 95.9685 39.1204 96.0677C39.1034 96.0094 39.0832 95.9521 39.0599 95.8961L39.1607 95.7648C39.585 95.1594 39.8771 94.4713 40.0179 93.7453C39.6067 93.9864 39.2273 94.2781 38.8885 94.6137C38.8893 94.1845 38.9435 93.7571 39.0498 93.3414C39.3423 92.9173 39.6347 92.5235 39.8767 92.1499C40.4616 91.4229 40.9456 90.7867 41.3692 90.2718C41.9439 89.6255 42.3776 89.161 42.5591 88.9086C42.3372 89.1105 41.8935 89.5548 41.2582 90.1809C40.8045 90.6555 40.2498 91.2714 39.6448 91.9681C39.0398 92.6649 38.3641 93.5231 37.7086 94.5228C36.9803 95.5811 36.3071 96.6765 35.6918 97.8045C34.9726 99.1141 34.3262 100.462 33.7557 101.843C33.1255 103.369 32.5966 104.934 32.1725 106.529C31.9809 107.175 31.8297 107.852 31.6885 108.548L32.6969 108.316C32.8078 107.791 32.9288 107.256 33.07 106.751C33.4554 105.184 33.937 103.643 34.512 102.136C34.7339 101.551 34.9658 100.995 35.2078 100.45C34.3493 103.004 33.7017 105.625 33.2717 108.286C35.4498 107.781 37.6179 107.276 39.8061 106.862C39.9642 106.683 40.0842 106.473 40.1591 106.246C40.0095 106.31 39.8647 106.384 39.7255 106.468C39.8565 105.893 39.9876 105.337 40.1087 104.792C40.4268 104.493 40.7047 104.153 40.9355 103.782C40.7039 103.885 40.4813 104.006 40.27 104.146C40.27 103.924 40.3708 103.691 40.4313 103.469L40.8045 103.065C41.1675 102.638 41.4696 102.162 41.7019 101.652C41.316 101.918 40.9578 102.222 40.633 102.56C40.7238 102.237 40.7944 101.914 40.875 101.551C40.9759 101.45 41.1271 101.379 41.2683 101.197V101.187Z" fill="#618E00"/>
<path d="M114.126 89.9991C114.274 90.1729 114.412 90.355 114.539 90.5444C114.438 90.4232 114.297 90.2415 114.095 90.0294C113.487 89.4049 112.746 88.9252 111.927 88.6259C110.634 88.1516 109.271 87.899 107.894 87.8787C106.072 87.7805 104.246 87.8889 102.448 88.2018C100.274 88.5914 98.1609 89.2705 96.1661 90.2213C93.8795 91.2818 91.776 92.6997 89.9342 94.4218C87.9106 96.333 86.2681 98.6117 85.0938 101.137C85.0938 101.187 85.0938 101.228 85.0333 101.288H84.0249C84.1056 101.096 84.1862 100.915 84.277 100.723C85.5192 98.1167 87.2517 95.7751 89.3796 93.8261C93.0134 90.5739 97.5241 88.4665 102.348 87.7676C104.188 87.5023 106.052 87.4481 107.904 87.606C109.289 87.6849 110.652 87.992 111.938 88.5148C112.766 88.8438 113.513 89.3504 114.126 89.9991Z" fill="#618E00"/>
<path d="M116.173 97.0472C116.223 96.7443 116.243 96.5322 116.263 96.3707C116.263 96.5322 116.263 96.7443 116.263 97.0472C116.164 97.9255 115.965 98.7894 115.669 99.6221C115.426 100.27 115.147 100.904 114.832 101.52H114.6C114.946 100.893 115.256 100.246 115.527 99.5817C115.85 98.7681 116.067 97.9162 116.173 97.0472Z" fill="#618E00"/>
<path d="M94.6838 10.7942C94.687 10.7776 94.687 10.7604 94.6838 10.7438L94.4014 10.0571C93.5127 8.08549 92.4744 6.18496 91.2955 4.37223C90.8922 3.72598 90.5292 3.2514 90.2871 2.92828L90.2266 2.8374L89.7426 0C86.3342 6.20997 88.4115 31.0297 88.4115 31.0297C88.8249 36.5732 91.7998 51.1237 92.9695 56.6975C92.6535 55.6003 92.3409 54.4694 92.0317 53.3048C91.4468 51.0833 90.8518 48.7508 90.2771 46.3274C89.7023 43.904 89.1779 41.3796 88.6737 38.7845C88.1695 36.1895 87.7561 33.6348 87.4233 31.171C87.0905 28.7072 86.8283 26.3141 86.6569 24.0321C86.4855 21.75 86.3846 19.5791 86.3342 17.5394C86.3342 16.5296 86.3342 15.5199 86.3342 14.5909C86.3342 13.6619 86.3947 12.7431 86.4149 11.8747C86.5661 8.41123 86.8787 5.61422 87.1409 3.69569C87.4031 1.77716 87.6048 0.666436 87.6048 0.666436C87.6048 0.666436 87.3829 1.72668 86.9997 3.63511C86.5234 6.33888 86.1869 9.06547 85.9913 11.804C85.9308 12.6724 85.8804 13.5913 85.8199 14.5404C85.7594 15.4896 85.709 16.5599 85.709 17.5697C85.709 19.5892 85.709 21.8106 85.8804 24.1129C86.0519 26.4151 86.2434 28.8284 86.556 31.3124C86.8686 33.7964 87.2922 36.3611 87.7661 38.9865C88.2401 41.6119 88.835 44.1261 89.43 46.5596C90.025 48.9931 90.6603 51.3257 91.2955 53.537C91.9308 55.7484 92.6065 57.8386 93.1107 59.7874C93.5905 61.6035 93.8412 63.4726 93.8569 65.3511C93.8569 67.0677 93.7762 68.6429 93.6855 70.0162C93.5947 71.3894 93.4939 72.5809 93.4535 73.5503C93.3527 75.489 93.4535 76.5795 93.4535 76.5795C93.4535 76.5795 93.4535 75.4991 93.635 73.5503C93.7359 72.5405 93.867 71.3995 94.0082 70.0263C94.1493 68.653 94.3308 67.0879 94.3611 65.341C94.3611 64.7856 94.3611 64.2202 94.3611 63.6345C94.5224 61.3188 94.6502 59.0772 94.7443 56.9096C95.004 56.5996 95.2273 56.2608 95.4098 55.8998C95.7621 55.172 95.9514 54.376 95.9645 53.5673C95.5276 54.2103 95.1399 54.8853 94.8048 55.5868C94.8048 55.0012 94.8552 54.4054 94.8754 53.8298L94.9359 53.7491C95.2813 53.1779 95.53 52.5536 95.672 51.9012C95.7515 51.6434 95.8122 51.3802 95.8535 51.1136C95.8535 51.1136 95.3796 51.6993 94.7846 52.5172C94.7846 51.9012 94.7846 51.2853 94.7846 50.6895C94.9661 50.4169 95.1375 50.1342 95.309 49.8211C95.7229 49.0327 96.0347 48.1945 96.2367 47.327C96.3278 46.9689 96.3919 46.6043 96.4283 46.2365L94.8149 49.2658C94.8149 48.4378 94.8149 47.6199 94.8149 46.8121C94.9359 46.5293 95.067 46.2466 95.1981 45.9336C95.6437 44.8001 95.9814 43.6269 96.2065 42.4298C95.6762 43.2574 95.2109 44.125 94.8149 45.0248C94.8149 44.4997 94.8149 44.0151 94.8149 43.4597C95.2202 42.7144 95.5479 41.9294 95.793 41.1171C96.0807 40.1677 96.2832 39.1944 96.3981 38.209C96.4888 37.4517 96.509 36.9771 96.509 36.9771C96.509 36.9771 96.3174 37.4113 96.0552 38.1282C95.793 38.8451 95.4602 39.8246 95.1275 40.9151C95.0165 41.2483 94.9258 41.5715 94.825 41.9249C94.825 40.9151 94.825 39.8347 94.825 38.6836C95.1441 38.1661 95.4109 37.6182 95.6216 37.0478C95.8681 36.331 96.0141 35.5833 96.0552 34.8263C96.0744 34.5136 96.0744 34.2 96.0552 33.8873C96.0552 33.8873 95.5208 35.2201 94.9561 36.8155C94.8956 36.9771 94.8451 37.1286 94.7947 37.2901C94.7947 36.2804 94.714 35.2706 94.6535 34.1498C94.8124 33.7431 94.9504 33.3286 95.067 32.9078C95.4745 31.5131 95.7712 30.0882 95.9544 28.6466C95.3878 29.8246 94.9092 31.043 94.5224 32.2918C94.5224 31.8779 94.4619 31.4538 94.4216 31.0398C94.593 30.5753 94.7443 30.03 94.8955 29.5453C95.2969 28.1023 95.5868 26.6304 95.7628 25.1428C95.1536 26.4717 94.6479 27.8456 94.2502 29.2525L94.0989 28.0105C94.0989 27.647 94.0687 27.2936 94.0082 26.9503C94.0888 26.6372 94.1695 26.3141 94.2401 25.991C94.5865 24.403 94.7423 22.7793 94.704 21.1543C94.704 21.1543 94.2703 22.7093 93.7863 24.7894C93.7863 24.3855 93.7056 23.9816 93.6552 23.5979C93.6552 23.406 93.7258 23.2243 93.746 23.0324C93.9038 21.78 93.9745 20.5182 93.9577 19.256C93.9577 18.2462 93.9577 17.6807 93.9577 17.6807C93.9577 17.6807 93.8266 18.2765 93.6552 19.2257C93.5745 19.7103 93.4737 20.2354 93.3829 20.922C93.272 20.084 93.1611 19.3266 93.0603 18.64C93.0603 18.2563 93.0603 18.0241 93.0603 18.0241V18.1048C92.8888 17.0143 92.7376 16.1358 92.6166 15.4694C92.7657 14.7041 92.8433 13.9266 92.8485 13.147C92.852 12.759 92.8318 12.3712 92.788 11.9857C92.788 11.9857 92.5863 12.7633 92.304 13.9043L91.5981 9.97634C91.4871 9.05747 91.356 8.47182 91.356 8.47182V8.58289L90.3476 2.96867C90.5594 3.31199 90.8821 3.80676 91.2552 4.4732C92.3308 6.32999 93.2678 8.26389 94.0586 10.2591C95.2326 13.2035 96.1503 16.2441 96.8014 19.3468C97.5925 23.1558 98.078 27.022 98.2535 30.9085C98.4831 37.9833 98.2675 45.0656 97.6081 52.1133C97.4925 54.2611 97.1991 56.3957 96.7308 58.4949C96.5542 59.2615 96.3216 60.0141 96.035 60.7466C96.3695 60.0283 96.6493 59.2857 96.872 58.5252C97.4538 56.4437 97.852 54.315 98.0619 52.1638C99.0218 45.0982 99.3928 37.965 99.1712 30.8378C98.988 26.9053 98.4445 22.998 97.5476 19.1651C96.8395 16.2963 95.8812 13.4952 94.6838 10.7942Z" fill="#618E00"/>
<path d="M106.341 55.1223C104.889 57.4044 103.86 59.333 103.154 60.6659L102.146 62.7561L103.316 60.7366C104.102 59.4542 105.222 57.5861 106.765 55.3849C108.307 53.1836 110.203 50.5987 112.452 47.8521C114.701 45.1056 117.272 42.1571 120.065 39.1582C122.859 36.1592 125.571 33.3218 128.072 30.8075C130.261 28.5742 132.618 26.5117 135.121 24.6379C136.816 23.3646 138.638 22.2683 140.556 21.3664C141.083 21.0817 141.625 20.8255 142.18 20.5989L142.734 20.3667L142.159 20.5586C141.776 20.6696 141.232 20.8615 140.526 21.1442C138.544 21.9494 136.654 22.9649 134.889 24.1735C132.272 25.9772 129.816 28.0042 127.548 30.232C124.966 32.7059 122.203 35.4928 119.4 38.5119C116.596 41.5311 114.045 44.5704 111.857 47.3473C109.669 50.1241 107.783 52.8302 106.341 55.1223Z" fill="#618E00"/>
<path d="M108.529 65.7853C110.952 64.2683 113.276 62.5989 115.487 60.787C117.181 59.3936 118.159 58.4646 118.159 58.4646L115.215 60.4134C113.39 61.615 110.858 63.2407 108.045 65.0078C105.232 66.7749 102.66 68.3299 100.784 69.4406L97.7593 71.238C97.7593 71.238 99.0298 70.7634 101.016 69.8445C103.604 68.6515 106.113 67.2957 108.529 65.7853Z" fill="#618E00"/>
<path d="M172.654 86.162C169.596 85.2413 166.47 84.566 163.306 84.1425C159.272 83.5468 154.533 82.9914 149.188 82.4461C146.536 82.1735 143.733 81.9413 140.838 81.7191C137.944 81.497 134.929 81.3556 131.843 81.2445L127.275 81.1436H122.838L118.563 81.2344L114.459 81.4364C111.786 81.608 109.255 81.7999 106.896 82.0624C104.536 82.325 102.338 82.638 100.331 82.9106C98.3241 83.1833 96.5291 83.5165 94.9661 83.9204C93.4031 84.3243 92.0317 84.4959 90.9325 84.7787L87.5342 85.6168L90.9627 84.92C92.072 84.6777 93.4333 84.4858 94.9964 84.2132C96.5594 83.9406 98.3846 83.7184 100.381 83.4256C102.378 83.1328 104.566 82.9207 106.936 82.7592C109.306 82.5976 111.817 82.4057 114.479 82.2745L118.563 82.1432L122.828 82.0927H127.245L131.793 82.2038C134.869 82.3149 137.843 82.4663 140.758 82.638C143.672 82.8096 146.445 83.0318 149.097 83.2539C154.401 83.7083 159.181 84.1526 163.215 84.6272C166.376 84.9811 169.507 85.565 172.583 86.3741C173.672 86.677 174.499 86.9395 175.064 87.1415L175.921 87.4343L175.074 87.1011C174.549 86.8083 173.733 86.5053 172.654 86.162Z" fill="#618E00"/>
<path d="M154.159 94.5127L155.601 94.9267L154.21 94.3714C153.201 93.9978 151.86 93.4828 150.126 92.9173C148.391 92.3519 146.294 91.7157 143.944 91.12C142.764 90.8372 141.524 90.5343 140.233 90.292C138.943 90.0496 137.591 89.7871 136.2 89.565C134.808 89.3428 133.457 89.1813 132.166 89.0601C130.875 88.9389 129.585 88.8379 128.385 88.7572C125.954 88.6259 123.776 88.5754 121.941 88.6259C120.106 88.6764 118.623 88.7269 117.595 88.8076L116.021 88.9288H117.615C118.623 88.9288 120.106 88.9288 121.931 89.0601C123.756 89.1914 125.964 89.2923 128.314 89.5145C129.514 89.6457 130.774 89.7467 132.075 89.9184C133.376 90.09 134.707 90.2718 136.109 90.4636C137.511 90.6555 138.811 90.8978 140.143 91.1402C141.474 91.3825 142.663 91.6249 143.843 91.8571C145.86 92.3014 147.756 92.7356 149.369 93.1395C149.11 93.3352 148.864 93.5477 148.633 93.7756L147.423 93.4222C147.453 93.3469 147.477 93.2692 147.494 93.19L147.282 93.3919C137.094 90.6888 126.547 89.5918 116.021 90.1405C117.249 91.5279 118.066 93.2302 118.381 95.0565C118.696 96.8828 118.497 98.761 117.806 100.48L117.151 100.591H118.159C117.564 101.147 117.151 101.601 117.151 101.601C117.887 101.355 118.588 101.015 119.238 100.591L120.378 100.501C120.005 100.985 119.783 101.349 119.783 101.349C120.31 101.094 120.81 100.786 121.275 100.43L121.84 100.369C121.437 100.753 121.185 101.016 121.185 101.016C121.824 100.87 122.434 100.618 122.99 100.268L124.532 100.097C123.968 100.602 123.595 100.995 123.524 101.106C124.295 100.835 125.025 100.458 125.692 99.9856L126.489 99.8745C126.045 100.319 125.763 100.642 125.763 100.642C126.426 100.436 127.052 100.126 127.618 99.7231L128.939 99.5211C128.648 99.8991 128.394 100.305 128.183 100.733C128.807 100.367 129.369 99.9038 129.847 99.3595L129.927 99.2788C130.311 99.2081 130.714 99.1475 131.107 99.0667C130.099 99.9149 129.322 100.662 129.171 100.814C130.184 100.461 131.131 99.9423 131.974 99.2788L132.509 98.8244L132.983 98.7234L134.163 98.4811C133.517 99.1778 133.064 99.7332 132.983 99.8341C133.884 99.4584 134.703 98.9095 135.393 98.2185L136.674 97.9358C135.877 98.7335 135.312 99.4302 135.201 99.5514C136.13 99.1593 136.978 98.5977 137.702 97.8954C137.803 97.8045 137.894 97.7036 137.974 97.6228L138.741 97.4309C139.094 97.3703 139.447 97.3198 139.749 97.2492C139.316 97.8247 139.053 98.2589 139.053 98.2589C139.625 97.9372 140.162 97.5583 140.657 97.128L142.371 96.8453C141.988 97.5016 141.776 97.9762 141.776 97.9762C142.297 97.581 142.771 97.127 143.188 96.6231L144.267 96.4212L143.44 97.3299C143.71 97.2337 143.973 97.119 144.227 96.9866C144.604 96.7692 144.962 96.5192 145.295 96.2394C146.879 95.9365 148.27 95.6639 149.329 95.4114C149.195 95.6607 149.074 95.9168 148.966 96.1788C149.486 95.9481 149.948 95.6029 150.317 95.1691C150.701 95.0743 151.078 94.9562 151.447 94.8157L150.721 94.543C150.876 94.2629 150.985 93.9594 151.043 93.6444C152.354 93.9877 153.393 94.3108 154.159 94.5127ZM150.126 94.331C149.864 94.23 149.531 94.1391 149.188 94.018C149.339 93.7768 149.477 93.5273 149.601 93.2707L149.964 93.3515C150.287 93.4424 150.59 93.5333 150.892 93.604C150.629 93.8199 150.382 94.0562 150.156 94.3108L150.126 94.331Z" fill="#618E00"/>
<path d="M149.793 98.9455L151.184 98.0569L149.863 99.0667C149.41 99.41 148.855 99.8341 148.179 100.288C147.504 100.743 146.768 101.298 145.9 101.844C144.67 102.661 143.218 103.54 141.605 104.449L140.395 104.257C142.411 103.247 144.156 102.318 145.658 101.44C146.556 100.955 147.332 100.43 148.018 100.036C148.704 99.6423 149.309 99.2586 149.793 98.9455Z" fill="#618E00"/>
<path d="M46.6334 102.742C46.5073 103.379 46.3076 103.999 46.0384 104.59C45.9679 104.756 45.8871 104.918 45.7964 105.075C45.7964 105.277 45.7964 105.479 45.7964 105.701C44.3241 105.953 42.8619 106.236 41.3896 106.539C42.3532 102.671 43.6038 98.8807 45.1308 95.1993C45.1308 95.1993 45.3729 96.6534 45.5645 98.8042C45.7221 98.4513 45.911 98.1133 46.1292 97.7944C46.0896 98.3874 45.9675 98.972 45.7661 99.5312C45.7661 99.6321 45.6855 99.723 45.6552 99.8139C45.6552 100.228 45.7056 100.662 45.7258 101.106C45.8926 100.8 46.0813 100.507 46.2905 100.228C46.1948 100.861 46.0255 101.482 45.7863 102.076C45.7863 102.712 45.7863 103.358 45.7863 104.035C46.0278 103.578 46.3114 103.146 46.6334 102.742Z" fill="#618E00"/>
<path d="M65.9343 54.5669C65.771 50.9022 65.2817 47.2594 64.4721 43.6818C63.6573 40.1044 62.5164 36.6095 61.0637 33.241C60.5091 31.9586 60.0553 30.9185 59.6721 30.2117L59.1679 29.2019C59.1679 29.3231 59.2788 29.5352 59.3898 29.828C58.9304 28.9219 58.3687 28.0715 57.7158 27.2935L57.978 29.0202C57.978 29.0202 62.8688 51.5376 62.8486 61.2717C63.6626 60.2137 64.717 59.3656 65.9242 58.7978C65.9242 58.9694 65.9242 59.0704 65.9242 59.0704C65.9242 59.0704 65.9242 58.6362 65.9242 57.8486C65.9242 57.061 65.9848 55.9402 65.9343 54.5669ZM65.0872 51.9819C65.2385 52.9311 65.3595 53.8096 65.4604 54.6073C65.3495 53.8096 65.2284 52.9109 65.0872 51.9819Z" fill="#618E00"/>
<path d="M113.944 47.327C107.138 55.2233 100.321 69.6324 100.321 69.6324L104.849 64.8563C105.519 64.547 106.144 64.146 106.704 63.6648C106.704 63.6648 106.331 63.7254 105.776 63.8667L107.299 62.2612C107.909 61.9067 108.475 61.4795 108.983 60.989C108.983 60.989 108.721 61.0596 108.317 61.201L111.988 57.3337C112.482 57.0509 112.775 56.8389 112.775 56.8389L112.381 56.9096L114.307 54.8901C114.64 54.7184 114.832 54.5972 114.832 54.5972L114.519 54.6679L116.193 52.8908C116.545 52.6856 116.882 52.4562 117.201 52.2041C117.201 52.2041 117.03 52.2041 116.758 52.2849L120.791 47.5896C121.289 47.2827 121.767 46.9455 122.223 46.5798L121.447 46.8322L122.284 45.8225C122.909 45.4539 123.494 45.0207 124.028 44.53C124.277 44.2903 124.513 44.0375 124.734 43.7727L123.524 44.4088L124.633 43.1164C125.607 42.6999 126.519 42.153 127.346 41.4907L125.521 42.0965L126.529 40.8949C127.513 40.4133 128.443 39.8277 129.302 39.148C129.302 39.148 128.546 39.4005 127.467 39.8145L128.738 38.3301C129.212 38.0439 129.67 37.7303 130.109 37.3911C130.109 37.3911 129.807 37.4819 129.333 37.6536L130.553 36.2198C131.653 35.7692 132.73 35.2637 133.78 34.7051C133.78 34.7051 132.771 34.9172 131.319 35.3413L131.874 34.695C132.797 34.1954 133.651 33.5776 134.415 32.8573C134.415 32.8573 133.82 33.0592 132.963 33.4227L133.679 32.5847L133.86 32.514C134.715 32.1346 135.487 31.5889 136.129 30.9085C136.129 30.9085 135.575 31.0801 134.818 31.3831L135.373 30.7267L135.817 30.5349C136.671 30.1435 137.457 29.6186 138.146 28.9798C137.517 29.1397 136.897 29.3353 136.291 29.5655L136.381 29.4544C136.553 29.2424 136.754 29.0101 136.966 28.7678C137.668 28.4942 138.343 28.1561 138.983 27.758C138.553 27.7907 138.126 27.848 137.702 27.9297C137.998 27.6066 138.311 27.27 138.64 26.92C139.081 26.6463 139.506 26.3462 139.911 26.0213L139.376 26.1626C142.25 23.2344 145.709 20.0334 145.709 20.0334C130.079 25.6477 113.944 47.327 113.944 47.327Z" fill="#618E00"/>
<path d="M126.499 47.4583L133.951 36.0986C133.951 36.0986 110.041 63.059 104.939 66.1488C104.939 66.1488 116.697 59.333 118.25 57.0611C118.25 57.1015 119.51 51.6286 126.499 47.4583Z" fill="#618E00"/>
<path d="M173.803 84.8999C161.702 78.2759 147.655 76.6805 138.559 76.4583C137.31 76.6345 136.044 76.665 134.788 76.5492C134.465 76.5492 134.173 76.4886 133.89 76.4482C132.993 76.4482 132.206 76.4482 131.531 76.529C131.914 76.6502 132.136 76.7411 132.136 76.7411C131.212 76.8565 130.277 76.8565 129.353 76.7411C129.231 76.7274 129.109 76.7072 128.99 76.6805H128.939L126.61 76.8319C127.094 76.9329 127.396 77.0238 127.396 77.0238C126.236 77.1765 125.067 77.2507 123.897 77.2459C123.312 77.2459 122.768 77.2459 122.284 77.1652L119.813 77.4075C120.63 77.5287 121.144 77.6599 121.144 77.6599C119.643 77.8065 118.135 77.8773 116.627 77.872H115.85C114.781 78.0033 113.763 78.1446 112.744 78.2961C113.356 78.3374 113.965 78.4115 114.569 78.5182C114.569 78.5182 112.553 78.8111 110.102 78.9625C109.296 78.9625 108.539 79.0231 107.864 79.0433L106.109 79.3462C107.369 79.3462 108.206 79.4371 108.206 79.4371C106.499 79.778 104.771 80.0074 103.033 80.1237C102.59 80.1237 102.166 80.1237 101.763 80.1237C99.1409 80.6589 96.8317 81.1941 94.8451 81.6888C95.7707 81.6564 96.6974 81.6902 97.6182 81.7898C96.4071 82.1188 95.1682 82.3351 93.9174 82.4361C93.2802 82.4894 92.6407 82.5096 92.0014 82.4966C91.7191 82.5774 91.5174 82.638 91.3964 82.6582L91.8703 82.4966H91.7594C89.6115 83.0924 88.1191 83.5064 87.3527 83.8093C86.4955 84.8191 85.6081 85.7581 84.6905 86.8386C82.1896 89.6861 79.6485 92.8971 76.8149 96.2898C75.4031 97.966 74.1123 99.6725 72.6199 101.127L71.6115 102.136C71.1375 102.136 70.6938 102.207 70.23 102.257C70.7947 101.692 71.3796 101.116 71.9543 100.511C73.3964 99.0667 74.6871 97.3602 76.0787 95.6941C78.8518 92.3417 81.514 89.1004 84.0855 86.3236C86.6569 83.5468 89.0165 81.0729 91.0233 79.0332C94.5829 75.4284 96.993 73.0959 97.4972 72.6213C96.993 73.1867 94.7342 75.6505 91.3661 79.3563C90.1863 80.6387 88.8855 82.0927 87.4838 83.668C114.176 70.3796 133.568 73.106 133.568 73.106C150.247 72.6819 164.99 79.5684 173.803 84.8999Z" fill="#618E00"/>
<path d="M182.516 90.9281L179.49 88.434C178.553 87.606 177.302 86.7174 175.88 85.6673C174.458 84.6171 172.754 83.5064 170.838 82.2846C166.376 79.5302 161.646 77.2364 156.721 75.4385C150.649 73.2829 144.324 71.9253 137.904 71.3995C136.381 71.2783 134.879 71.2077 133.396 71.1774C135.818 71.1056 138.22 70.7082 140.536 69.996C142.731 69.3465 144.846 68.4487 146.838 67.3201C149.74 65.7171 152.307 63.5713 154.401 60.9991C154.778 60.548 155.09 60.134 155.339 59.7571C155.588 59.3801 155.8 59.0671 155.974 58.818L156.458 58.0203L155.934 58.7978C155.728 59.1119 155.506 59.4152 155.269 59.7066C154.955 60.1257 154.618 60.5269 154.26 60.9082C152.103 63.3859 149.504 65.4404 146.596 66.9667C144.601 68.0134 142.498 68.8396 140.324 69.4305C137.847 70.1283 135.283 70.4683 132.711 70.4402C129.898 70.4695 127.134 69.7068 124.734 68.239C123.101 67.1522 121.816 65.6165 121.033 63.8163L121.457 63.6446L120.993 63.7355C120.82 63.3242 120.671 62.9027 120.549 62.4733H120.6H120.539C120.401 61.9669 120.303 61.4503 120.247 60.9284C120.156 60.1839 120.156 59.4312 120.247 58.6867C120.374 57.9497 120.57 57.2263 120.832 56.5259C121.357 55.1426 122.103 53.8536 123.04 52.709C124.826 50.5144 127.044 48.7102 129.554 47.4078C131.834 46.2189 134.318 45.4721 136.875 45.2066C139.105 44.9231 141.361 44.9231 143.591 45.2066C145.433 45.4501 147.234 45.9392 148.946 46.6606C150.248 47.1977 151.478 47.8965 152.606 48.7407C153.025 49.0509 153.422 49.3882 153.796 49.7504C154.082 49.9982 154.355 50.2611 154.613 50.538L155.248 51.2146L154.643 50.5077C154.398 50.2194 154.135 49.9463 153.857 49.6899C153.487 49.33 153.097 48.9928 152.687 48.6801C151.579 47.7859 150.363 47.0361 149.067 46.4486C147.347 45.6651 145.528 45.1182 143.662 44.8228C141.394 44.4608 139.089 44.3963 136.805 44.631C134.158 44.8577 131.578 45.584 129.201 46.7717C128.557 47.0898 127.931 47.4438 127.326 47.8319C127.769 47.3573 128.274 46.8222 128.838 46.1759C131.358 43.3385 133.673 40.3252 135.766 37.1588C137.845 33.9829 139.695 30.6625 141.302 27.2229C142.532 24.5773 143.168 22.8911 143.168 22.8911C143.168 22.8911 142.331 24.4865 140.899 27.0108C139.467 29.5352 137.42 32.9684 135 36.654C132.579 40.3396 130.23 43.5809 128.485 45.8932C127.709 46.9029 127.074 47.7309 126.579 48.357C125.008 49.448 123.591 50.7454 122.364 52.2142C121.352 53.4185 120.548 54.7836 119.984 56.2532C119.699 57.012 119.486 57.7965 119.349 58.5959C119.248 59.4174 119.248 60.2482 119.349 61.0697C119.414 61.6011 119.515 62.1274 119.652 62.645C118.124 62.9074 116.615 63.2682 115.134 63.7254C113.34 64.2884 111.596 65.0011 109.921 65.856C111.783 65.594 113.621 65.1821 115.416 64.6241C116.893 64.155 118.338 63.5917 119.742 62.9378C119.841 63.2998 119.966 63.6541 120.116 63.998C117.258 64.6511 114.437 65.4566 111.665 66.4113C108.456 67.5277 105.32 68.8464 102.277 70.3595C102.277 70.3595 106.684 69.1377 111.978 67.3302C115.517 66.0983 118.573 64.9068 120.206 64.301C121.06 66.2619 122.46 67.9344 124.24 69.1175C126.49 70.4005 129.033 71.0788 131.621 71.0865C122.038 71.1899 112.539 72.8963 103.517 76.1352C100.187 77.272 96.9337 78.6211 93.7761 80.1742C91.5374 81.2951 90.3677 82.0322 90.3677 82.0322C90.3677 82.0322 91.5677 81.3456 93.8366 80.3055C97.0373 78.8436 100.32 77.5692 103.669 76.4887C114.694 72.8629 126.319 71.4258 137.894 72.2578C144.237 72.7902 150.492 74.0957 156.519 76.1453C161.421 77.8575 166.148 80.0351 170.637 82.6481C172.532 83.8093 174.277 84.8191 175.679 85.8692L177.695 87.2627C176.391 86.3943 175.067 85.5932 173.722 84.8595C176.495 86.5357 178.694 88.0604 180.186 89.1509L182.415 90.8776L182.516 90.9281Z" fill="#618E00"/>
<path d="M170.021 84.708C170.021 84.708 148.845 68.552 90.3574 84.1426C92.6364 83.567 129.211 74.6812 170.021 84.708Z" fill="#618E00"/>
<path d="M85.7088 87.5051C85.5474 87.7373 84.0953 89.6457 81.7357 92.5538C79.6583 95.1085 76.8651 98.4104 73.5878 101.985L72.2466 102.106C75.8163 98.2791 79.013 94.8359 81.3827 92.2509L85.7088 87.5051Z" fill="#618E00"/>
<path d="M95.2383 75.9131C93.73 77.399 92.3345 78.9954 91.0635 80.6892C92.7725 79.4404 94.387 78.0667 95.8937 76.5795C97.396 75.0909 98.7879 73.4947 100.058 71.8034C98.3528 73.0525 96.7417 74.4261 95.2383 75.9131Z" fill="#618E00"/>
<path d="M90.287 101.076C89.6013 101.076 88.9055 101.076 88.2702 101.137C88.2702 100.935 88.2701 100.723 88.2197 100.541C88.6996 99.8492 89.0672 99.0858 89.3088 98.2791C89.1998 98.7903 89.2333 99.3217 89.4059 99.8151C89.5784 100.308 89.8832 100.745 90.287 101.076Z" fill="#618E00"/>
<path d="M113.591 98.3498L113.329 99.1273L114.176 98.5214C113.809 99.2021 113.344 99.8247 112.795 100.369C112.694 100.591 112.563 100.814 112.442 101.036C113.087 100.652 113.551 100.41 113.612 100.389C113.344 100.747 113.051 101.085 112.734 101.399C106.553 101.066 100.341 100.925 94.1494 100.995C94.7876 100.632 95.3465 100.145 95.7931 99.5615C97.1645 97.6833 97.2452 93.2808 93.9175 93.503C94.8452 93.4323 96.4889 92.0489 97.6082 91.4128C97.5081 91.5479 97.4172 91.6896 97.336 91.8369C96.8159 92.743 96.4736 93.7404 96.3275 94.7753C97.0242 94.0161 97.6362 93.1832 98.1528 92.2913C98.4351 91.7864 98.657 91.2815 98.8385 90.8877C99.1914 90.7464 99.5443 90.6151 99.9074 90.4939C99.8486 90.5508 99.7977 90.6153 99.7561 90.6858C99.4066 91.2177 99.1952 91.8285 99.141 92.4629C99.1013 92.724 99.1013 92.9895 99.141 93.2505C99.141 93.2505 99.7662 92.3115 100.523 91.231C100.775 90.8271 101.017 90.4535 101.218 90.1203C101.743 89.989 102.227 89.8376 102.771 89.7366C102.59 89.8881 102.408 90.0597 102.227 90.2415C101.732 90.7902 101.34 91.4228 101.067 92.1095C100.954 92.3966 100.869 92.6943 100.815 92.9981C100.815 92.9981 101.823 92.0489 102.923 90.8776C103.376 90.3727 103.79 89.8679 104.123 89.4842C104.758 89.3933 105.444 89.2923 106.139 89.2418C105.843 89.3932 105.56 89.5689 105.292 89.7669C104.718 90.2272 104.233 90.7884 103.86 91.4229C103.701 91.681 103.569 91.9551 103.467 92.2408C103.608 92.16 104.707 91.4128 105.897 90.5141C106.533 90.0193 107.107 89.5044 107.531 89.161C108.28 89.1527 109.029 89.2068 109.77 89.3226C109.142 89.5461 108.548 89.8554 108.005 90.2415C107.346 90.7145 106.764 91.2867 106.28 91.9379C106.074 92.2053 105.895 92.4929 105.746 92.7962C105.907 92.7053 107.178 91.9682 108.549 91.0089C109.296 90.4939 109.931 89.9991 110.405 89.6255L110.586 89.5347C111.209 89.6845 111.798 89.9518 112.321 90.3223C112.884 90.7821 113.342 91.3586 113.662 92.0122C113.983 92.6658 114.158 93.381 114.176 94.1088C114.454 93.776 114.75 93.4591 115.064 93.1597C114.973 93.8692 114.702 94.5435 114.277 95.1186L114.166 95.2599C114.166 95.3407 114.166 95.4316 114.166 95.5326C114.892 94.957 115.437 94.5228 115.548 94.5228C115.152 95.266 114.65 95.9466 114.055 96.5423C114.014 96.8513 113.956 97.158 113.884 97.4612L114.842 96.7948C114.48 97.355 114.061 97.8761 113.591 98.3498Z" fill="#618E00"/>
<path d="M152.697 59.9792C153.672 59.2603 154.544 58.4109 155.289 57.4548L153.141 58.818C153.141 58.7271 153.231 58.6463 153.272 58.5655C153.506 58.3322 153.716 58.075 153.897 57.7981C154.02 57.6043 154.121 57.3978 154.199 57.1822L153.786 57.4548C153.968 56.9888 154.1 56.5048 154.179 56.0109C154.5 55.7203 154.739 55.3515 154.875 54.9405C154.667 54.9998 154.464 55.0775 154.27 55.1728C154.275 55.1022 154.275 55.0313 154.27 54.9607C154.229 53.4688 153.665 52.0388 152.677 50.9217C152.338 50.8974 152.002 50.8535 151.668 50.7905C150.849 50.6181 150.053 50.3469 149.299 49.9827C150.003 49.7843 150.74 49.726 151.467 49.811C151.187 49.5909 150.894 49.3885 150.589 49.2051C150.241 49.0047 149.881 48.826 149.51 48.67C149.006 48.7957 148.494 48.8868 147.978 48.9426C147.053 49.0201 146.124 48.9964 145.205 48.8719C146.007 48.4188 146.885 48.1176 147.796 47.9833C146.942 47.787 146.077 47.6453 145.205 47.5593L144.398 47.8521C143.448 48.1595 142.482 48.4123 141.504 48.6094C141.709 48.3833 141.935 48.1771 142.179 47.9934C142.476 47.7676 142.789 47.5651 143.117 47.3876C142.32 47.3876 141.534 47.3068 140.737 47.2866L139.487 47.6097C137.561 48.0742 135.887 48.4276 135.887 48.4276C136.172 48.1828 136.475 47.96 136.794 47.7612C137.06 47.5928 137.337 47.441 137.621 47.3068C136.341 47.3068 135.06 47.4381 133.789 47.5694C134.031 47.6391 134.264 47.7338 134.485 47.8521C135.045 48.1605 135.526 48.5963 135.887 49.1244C135.498 49.1263 135.111 49.0719 134.737 48.9628C135.071 49.5025 135.246 50.1255 135.241 50.7602C135.251 50.9115 135.251 51.0633 135.241 51.2146L136.522 51.3761C138.357 51.6386 139.941 51.9214 139.941 51.9214C139.614 52.0481 139.276 52.146 138.932 52.2142C138.1 52.3883 137.244 52.419 136.401 52.3051C135.942 52.2423 135.49 52.1375 135.05 51.9921C134.907 52.3987 134.706 52.7829 134.455 53.1331L135.362 53.5673L138.64 55.1526C138.271 55.1832 137.9 55.1832 137.531 55.1526C136.639 55.0609 135.77 54.8185 134.959 54.4357C134.589 54.2529 134.235 54.0402 133.9 53.7995C133.7 54.001 133.484 54.1866 133.255 54.3549C133.043 54.5063 132.811 54.6477 132.569 54.7891C132.771 54.9506 132.993 55.1021 133.225 55.2637C134.122 55.8695 134.999 56.3744 135.645 56.7379L136.714 57.3336C136.3 57.3126 135.889 57.2585 135.483 57.1721C134.489 56.9868 133.542 56.6021 132.7 56.0412C132.335 55.7945 131.997 55.5102 131.692 55.193C131.145 55.4181 130.573 55.5742 129.988 55.6575C130.169 56.2734 130.351 56.849 130.512 57.2731C130.673 57.6972 130.805 58.0001 130.805 58.0001C130.558 57.8826 130.331 57.7295 130.129 57.5457C129.641 57.1022 129.291 56.5273 129.12 55.8897C129.12 55.8291 129.12 55.7685 129.12 55.6978C128.738 55.6883 128.358 55.6272 127.991 55.5161C127.991 55.5868 127.991 55.6474 127.991 55.718C127.991 56.4855 127.91 57.2024 127.9 57.7375V58.6261C127.713 58.3825 127.56 58.1141 127.447 57.8284C127.147 57.1458 127.012 56.402 127.053 55.6575C127.069 55.4742 127.096 55.2921 127.134 55.1122H127.053C126.739 54.8906 126.472 54.6092 126.267 54.2842L126.115 54.8093C125.917 55.4411 125.779 56.0902 125.702 56.748C125.678 57.0403 125.678 57.3341 125.702 57.6265C125.501 57.386 125.351 57.108 125.258 56.8086C125.028 56.0723 125.028 55.283 125.258 54.5467C125.398 54.1057 125.595 53.6848 125.843 53.2946C125.76 53.0579 125.633 52.8387 125.47 52.6484C124.109 51.2146 122.697 55.3747 122.526 56.1926C122.151 58.1245 122.124 60.1077 122.445 62.0492C122.63 63.6741 123.338 65.1946 124.462 66.381C124.518 66.6445 124.616 66.8969 124.754 67.1282C124.839 67.2615 124.941 67.3836 125.057 67.4917C125.057 67.4917 125.057 67.2898 125.057 66.9869C125.347 67.2251 125.657 67.438 125.984 67.623C125.984 67.623 125.984 67.7139 125.984 67.7543C126.163 68.0803 126.442 68.3391 126.781 68.4914C126.917 68.5608 127.063 68.6053 127.215 68.6227L127.023 68.239L126.963 68.1279C127.532 68.3493 128.119 68.5216 128.717 68.6429C128.81 68.7917 128.93 68.9219 129.07 69.0266C129.379 69.2428 129.752 69.3494 130.129 69.3295C130.285 69.3176 130.438 69.2801 130.583 69.2184L130.21 68.9862L130.048 68.865C130.341 68.865 130.623 68.9357 130.926 68.9559C131.268 69.1705 131.633 69.3466 132.015 69.481C132.798 69.7545 133.627 69.8679 134.455 69.8142C133.882 69.4969 133.289 69.217 132.68 68.9761C132.962 68.9761 133.245 68.9761 133.527 68.9761C133.769 69.0569 134.021 69.1376 134.294 69.2083C135.247 69.4263 136.234 69.4538 137.198 69.2891C137.198 69.2891 136.492 69.0468 135.504 68.7842L136.139 68.6933L136.774 68.8246C137.759 68.9884 138.765 68.961 139.739 68.7438C139.739 68.7438 139.043 68.552 138.055 68.35L139.396 68.0471C139.658 68.0471 139.931 68.1178 140.233 68.138C141.236 68.1915 142.24 68.0823 143.208 67.8149C143.208 67.8149 142.421 67.6432 141.332 67.522L142.179 67.2595C142.566 67.2793 142.953 67.2793 143.339 67.2595C144.165 67.1925 144.979 67.0159 145.759 66.7344C146.084 66.6248 146.4 66.4932 146.707 66.3406C146.707 66.3406 145.699 66.3406 144.287 66.482C144.791 66.2699 145.295 66.0377 145.799 65.7853C146.179 65.7194 146.551 65.6145 146.909 65.4722C147.555 65.222 148.153 64.8597 148.673 64.4019C148.894 64.2197 149.096 64.0168 149.278 63.7961L148.835 63.9677C149.178 63.7153 149.52 63.4426 149.843 63.17L150.257 63.0387C151.032 62.7534 151.75 62.3291 152.374 61.7867C152.633 61.5611 152.872 61.3146 153.09 61.0495C153.09 61.0495 152.283 61.4736 151.154 61.9482C151.362 61.7126 151.574 61.4703 151.789 61.2212C152.13 60.8363 152.434 60.4205 152.697 59.9792Z" fill="#618E00"/>
<path d="M145.275 98.9556C145.336 99.1357 145.336 99.3308 145.275 99.511C145.213 99.6206 145.129 99.7165 145.028 99.7928C144.928 99.8691 144.813 99.9244 144.69 99.9553C144.608 99.7683 144.576 99.5626 144.6 99.3595L143.591 99.9755C143.563 100.326 143.47 100.668 143.319 100.985C143.094 101.387 142.78 101.733 142.401 101.995C142.392 101.524 142.492 101.057 142.694 100.632C142.734 100.553 142.781 100.479 142.835 100.41C142.331 100.702 141.826 101.005 141.252 101.308C141.245 101.623 141.162 101.932 141.01 102.207C140.804 102.541 140.507 102.807 140.153 102.974C140.131 102.585 140.219 102.197 140.405 101.854C140.426 101.81 140.453 101.769 140.485 101.732L139.931 102.045C139.905 102.453 139.773 102.846 139.548 103.186C139.33 103.526 139.032 103.807 138.68 104.004L138.408 104.126C138.408 104.126 138.408 104.126 138.408 103.964C138.529 103.561 138.698 103.175 138.912 102.813C139.016 102.666 139.127 102.524 139.245 102.389L138.166 102.954C138.114 103.268 138.012 103.572 137.863 103.853L137.158 103.752C137.191 103.658 137.232 103.567 137.279 103.479L137.369 103.348C137.148 103.449 136.916 103.58 136.684 103.691C135.08 103.459 133.497 103.257 131.904 103.065C138.327 101.167 144.721 99.0263 148.24 96.9563C148.008 97.1683 146.979 97.8954 145.275 98.9556Z" fill="#618E00"/>
<path d="M78.0954 62.6147C77.9743 62.7359 77.8735 62.8469 77.7626 62.9479C77.5915 62.9632 77.4194 62.9632 77.2483 62.9479C77.339 62.8772 77.4298 62.8166 77.5206 62.7359C77.8838 62.3777 78.1688 61.9479 78.3575 61.4737C78.4435 61.2767 78.5045 61.0698 78.5391 60.8577C78.5391 60.8577 77.8029 61.4838 77.0265 62.231L76.5122 62.7459C76.346 62.6783 76.1871 62.5937 76.0382 62.4935C76.1183 62.4626 76.1959 62.4255 76.2701 62.3824C76.9413 62.0074 77.5228 61.4906 77.9743 60.8678C77.2764 61.1059 76.6014 61.4067 75.9575 61.7665L75.6348 61.9684C75.1508 61.09 75.3827 59.9489 74.4953 59.232C73.608 58.5151 72.4785 59.232 71.692 59.5551L70.5222 62.6955L69.0298 66.6638C69.0003 66.2368 69.0003 65.8084 69.0298 65.3814C69.0839 64.3458 69.2947 63.3244 69.655 62.3521C69.9904 61.4695 70.4451 60.6372 71.0063 59.8783C70.5727 60.1004 70.139 60.3427 69.7054 60.6154L68.3441 64.0182C67.4365 66.27 66.7004 68.1178 66.7004 68.1178C66.6649 67.6742 66.6649 67.2285 66.7004 66.785C66.7947 65.7182 67.0427 64.6706 67.4365 63.6749C67.7934 62.7849 68.2609 61.9435 68.8281 61.1707C68.028 61.7312 67.2666 62.3452 66.5491 63.0085C66.3979 63.8264 66.1558 65.0886 65.7827 66.482C65.3924 67.9399 64.9245 69.3758 64.3811 70.7836C64.3197 69.2561 64.4862 67.728 64.8752 66.2498C65.1063 65.3862 65.4134 64.5448 65.7928 63.7355C64.9249 64.6087 64.129 65.5509 63.413 66.5527L63.3323 66.8152C63.1811 67.4312 62.9592 68.2693 62.7172 69.1983C62.4752 70.1272 62.2836 70.9552 62.1424 71.5813L61.9105 72.591C61.8029 72.2621 61.7253 71.9242 61.6786 71.5813C61.5708 70.7771 61.6049 69.9603 61.7794 69.168C61.4768 69.7334 61.2046 70.3191 60.9626 70.9047V70.9653C60.9626 71.6318 60.9626 72.5203 60.9626 73.4897C60.9626 74.4591 60.9626 75.3577 61.0433 76.0141L61.1239 77.1046C60.9076 76.7897 60.7283 76.4509 60.5895 76.0949C60.2912 75.3957 60.1106 74.6519 60.055 73.8936C59.9743 74.2672 59.9138 74.6408 59.8634 75.0144C59.7793 75.6841 59.7456 76.3592 59.7626 77.0339C60.1054 77.4782 60.5592 78.0437 61.0231 78.7101C61.4869 79.3766 61.9004 79.9723 62.213 80.4267L62.7071 81.1941C62.4181 81.0805 62.1411 80.9384 61.8802 80.77C61.2505 80.3733 60.7027 79.8591 60.2668 79.2554C60.1179 79.0493 59.9832 78.8334 59.8634 78.6091C60.0191 79.6232 60.3108 80.6116 60.7307 81.5475C63.9676 88.6158 74.2735 88.333 78.9827 82.9814L79.0634 82.8804L79.2752 82.7592C79.9692 82.3007 80.5768 81.723 81.0701 81.0527C81.0701 81.0527 80.7071 81.184 80.1928 81.4364C80.6264 80.8306 81.0298 80.2045 81.413 79.5381C81.5542 79.4068 81.6853 79.2655 81.8264 79.114C82.5495 78.3102 83.1293 77.388 83.5407 76.3877C83.5407 76.3877 83.097 76.7916 82.4718 77.3974C82.6937 76.9128 82.8954 76.3877 83.0769 75.9232C83.5842 75.3047 84.0142 74.6265 84.3575 73.9037C84.3575 73.9037 84.0147 74.1561 83.5306 74.5802C83.6416 74.1965 83.7525 73.8128 83.8533 73.419L83.9239 73.3079C84.353 72.5018 84.675 71.643 84.8819 70.7533C84.9725 70.3843 85.0398 70.0099 85.0836 69.6325L84.3474 71.0158C84.4906 70.0125 84.5613 69.0001 84.5592 67.9866C84.6197 67.8452 84.6802 67.7038 84.7306 67.5524C84.9277 66.9706 85.0232 66.3592 85.013 65.7449C85.0166 65.4911 84.9964 65.2376 84.9525 64.9876C84.9525 64.9876 84.7306 65.5026 84.4584 66.2296C84.4584 65.7853 84.3475 65.341 84.2668 64.9068C84.3987 64.4058 84.4665 63.8901 84.4684 63.372C84.4684 63.372 84.3071 63.6042 84.0752 63.9879C83.9721 63.5568 83.8441 63.132 83.692 62.7157C83.6902 62.2577 83.6429 61.8011 83.5508 61.3525C83.5508 61.3525 83.4802 61.5847 83.3794 61.9482C83.2785 61.7059 83.1878 61.4636 83.0668 61.2313C82.139 59.3835 81.6651 60.1105 80.9189 61.0799C81.0698 60.6071 81.138 60.1118 81.1206 59.6157C80.7126 60.197 80.3486 60.8079 80.0315 61.4434C79.8701 61.7564 79.739 62.0593 79.6281 62.3319C79.3851 62.4898 79.1245 62.6185 78.8517 62.7157C79.1612 62.2736 79.4089 61.7912 79.5878 61.2818C79.0199 61.6401 78.5156 62.0906 78.0954 62.6147Z" fill="#618E00"/>
<path d="M65.339 90.09C65.2684 90.2516 64.734 91.5441 64.0281 93.5939C63.3222 95.6437 62.334 98.8345 61.2449 102.197C61.1239 102.571 61.0029 102.954 60.892 103.318L59.9844 103.439C60.1256 102.944 60.2869 102.429 60.4483 101.934C61.3645 99.0463 62.4315 96.2084 63.6449 93.4323C64.1402 92.2843 64.7059 91.168 65.339 90.09Z" fill="#618E00"/>
<path d="M65.0671 88.7774L64.8351 89.0399L64.6234 89.262L59.7226 103.469L58.9058 103.59L64.2906 88.8278L64.4419 88.4037L65.0671 88.7774Z" fill="#618E00"/>
<path d="M63.5241 102.995L61.5073 103.247L63.9678 95.8153L66.6098 90.3121C67.114 93.8059 65.4603 98.7133 63.5241 102.995Z" fill="#618E00"/>
</g>
<g clip-path="url(#clip1_1_6802)">
<path d="M174.479 157.967C123.299 142.611 68.6907 142.611 17.5101 157.967C16.0784 158.404 14.5313 158.265 13.2014 157.581C11.8715 156.897 10.8648 155.722 10.3977 154.309C7.33749 144.972 4.27724 135.628 1.21698 126.276C0.983596 125.564 0.894756 124.814 0.955608 124.068C1.01646 123.322 1.2258 122.595 1.57149 121.93C1.91718 121.265 2.39234 120.674 2.96946 120.193C3.54658 119.711 4.21415 119.348 4.93352 119.125C64.2978 101.165 127.703 101.165 187.067 119.125C187.786 119.348 188.454 119.711 189.03 120.193C189.607 120.675 190.082 121.265 190.426 121.931C190.771 122.596 190.979 123.323 191.039 124.069C191.098 124.815 191.008 125.565 190.772 126.276C187.72 135.62 184.663 144.965 181.603 154.309C181.133 155.723 180.125 156.898 178.793 157.582C177.461 158.266 175.913 158.404 174.479 157.967Z" fill="#547904"/>
<path d="M174.479 154.562C123.298 139.205 68.6902 139.205 17.5096 154.562C16.0794 155.005 14.531 154.871 13.1997 154.188C11.8685 153.505 10.8617 152.329 10.3973 150.915L1.21652 122.882C0.98159 122.17 0.891557 121.419 0.951703 120.673C1.01185 119.926 1.22096 119.199 1.56684 118.533C1.91272 117.868 2.38848 117.277 2.9664 116.796C3.54432 116.315 4.21284 115.953 4.93306 115.731C64.2974 97.7704 127.702 97.7704 187.066 115.731C187.787 115.953 188.455 116.315 189.032 116.796C189.61 117.278 190.085 117.868 190.43 118.534C190.775 119.2 190.983 119.927 191.042 120.674C191.1 121.42 191.009 122.171 190.772 122.882C187.719 132.226 184.663 141.57 181.602 150.915C181.135 152.33 180.127 153.506 178.794 154.189C177.46 154.871 175.911 155.005 174.479 154.562Z" fill="#618E00"/>
<path d="M176.215 155.77C175.544 155.768 174.877 155.668 174.236 155.474C123.24 140.117 68.8042 140.117 17.8083 155.474C16.1419 155.989 14.338 155.832 12.7874 155.037C11.2367 154.241 10.064 152.871 9.52345 151.222L0.342685 123.167C0.0674259 122.33 -0.0362235 121.447 0.0378682 120.57C0.11196 119.693 0.362307 118.839 0.774088 118.059C1.1754 117.29 1.72753 116.608 2.39806 116.053C3.06859 115.499 3.844 115.083 4.67868 114.83C64.2095 96.7488 127.823 96.7488 187.354 114.83C188.19 115.079 188.967 115.494 189.638 116.049C190.309 116.604 190.86 117.288 191.259 118.059C191.674 118.838 191.926 119.692 192.001 120.57C192.075 121.447 191.969 122.331 191.69 123.167L182.52 151.211C182.088 152.535 181.246 153.689 180.113 154.508C178.981 155.326 177.616 155.768 176.215 155.77ZM174.778 153.683C175.973 154.054 177.268 153.943 178.381 153.373C179.495 152.804 180.338 151.822 180.728 150.64L189.898 122.607C190.096 122.006 190.17 121.372 190.117 120.742C190.064 120.111 189.884 119.498 189.588 118.938C189.305 118.39 188.913 117.904 188.436 117.509C187.959 117.115 187.407 116.82 186.812 116.642C127.638 98.6712 64.4059 98.6712 5.23174 116.642C4.63656 116.821 4.08337 117.117 3.6047 117.511C3.12603 117.905 2.7315 118.39 2.4443 118.938C2.14798 119.498 1.96876 120.112 1.91744 120.742C1.86611 121.373 1.94375 122.007 2.14566 122.607L11.3154 150.64C11.706 151.822 12.5492 152.804 13.6627 153.373C14.7763 153.943 16.0707 154.054 17.2663 153.683C68.6159 138.222 123.428 138.222 174.778 153.683Z" fill="#A7CA5D"/>
<path d="M48.3814 140.798L43.6251 141.809L41.789 133.284L33.0617 135.141L34.8979 143.665L30.1416 144.665L25.6396 123.794L30.3849 122.783L32.1879 131.131L40.9151 129.286L39.1122 120.937L43.8795 119.927L48.3814 140.798Z" fill="#547904"/>
<path d="M65.7034 138.37L52.9056 140.139L49.9302 118.938L62.2855 117.236L62.8275 121.124L55.328 122.223L55.9917 126.935L62.9713 125.968L63.5133 129.846L56.5337 130.802L57.2085 135.657L65.2057 134.559L65.7034 138.37Z" fill="#547904"/>
<path d="M87.7263 136.701L82.4501 137.063L80.5918 132.417L72.9486 132.955L71.765 137.81L66.522 138.173L72.8379 116.28L78.5897 115.884L87.7263 136.701ZM79.2202 128.803L76.4107 121.794C76.1779 121.18 76.0111 120.543 75.9129 119.894H75.7912C75.7859 120.531 75.7042 121.165 75.5479 121.783L73.7228 129.176L79.2202 128.803Z" fill="#547904"/>
<path d="M102.836 136.767H90.0048L89.9385 115.39H94.7944V132.878H102.769L102.836 136.767Z" fill="#547904"/>
<path d="M121.584 120.3L115.446 119.938L114.406 137.393L109.55 137.107L110.59 119.652L104.484 119.301L104.716 115.379L121.817 116.379L121.584 120.3Z" fill="#547904"/>
<path d="M141.517 140.391L136.694 139.743L137.866 131.109L129.017 129.923L127.845 138.557L123.044 137.92L125.92 116.708L130.732 117.345L129.626 125.815L138.475 127.001L139.581 118.532L144.404 119.18L141.517 140.391Z" fill="#547904"/>
<path d="M166.36 123.739L156.593 135.822L154.989 143.27L150.244 142.259L151.881 134.899L148.109 119.916L153.54 121.014L155.255 129.55C155.255 129.703 155.321 130.307 155.366 131.362H155.432C155.638 130.812 155.909 130.289 156.239 129.802L161.383 122.673L166.36 123.739Z" fill="#547904"/>
<path d="M48.3814 138.887L43.6251 139.897L41.789 131.373L33.0617 133.218L34.8979 141.743L30.1416 142.753L25.6396 121.827L30.3849 120.817L32.1879 129.165L40.9151 127.309L39.1122 118.96L43.8795 117.95L48.3814 138.887Z" fill="white"/>
<path d="M65.7034 136.459L52.9056 138.195L49.9302 116.994L62.2855 115.324L62.8275 119.213L55.328 120.245L55.9917 124.969L62.9713 124.002L63.5133 127.869L56.5337 128.835L57.2085 133.691L65.2057 132.592L65.7034 136.459Z" fill="white"/>
<path d="M87.7264 134.789L82.4502 135.152L80.5366 130.505L72.8933 131.032L71.7098 135.888L66.4668 136.25L72.7827 114.369L78.5346 113.962L87.7264 134.789ZM79.2203 126.891L76.4108 119.872C76.1765 119.262 76.0096 118.628 75.9131 117.983H75.7914C75.7867 118.616 75.705 119.247 75.548 119.861L73.7229 127.265L79.2203 126.891Z" fill="white"/>
<path d="M102.836 134.899H90.0048L89.9385 113.479H94.7944V130.967H102.769L102.836 134.899Z" fill="white"/>
<path d="M121.584 118.422L115.446 118.059L114.406 135.503L109.55 135.218L110.59 117.774L104.484 117.422L104.716 113.501L121.817 114.5L121.584 118.422Z" fill="white"/>
<path d="M141.517 138.524L136.694 137.876L137.866 129.242L129.017 128.056L127.845 136.69L123.044 136.042L125.92 114.841L130.732 115.478L129.626 123.936L138.475 125.123L139.581 116.664L144.404 117.313L141.517 138.524Z" fill="white"/>
<path d="M166.36 121.827L156.593 133.91L154.989 141.358L150.244 140.348L151.826 132.988L148.054 117.994L153.485 119.092L155.199 127.627C155.199 127.781 155.266 128.385 155.31 129.429H155.376C155.583 128.879 155.854 128.355 156.184 127.869L161.327 120.74L166.36 121.827Z" fill="white"/>
<path d="M80.3597 159.511H75.7443V163.599H80.0135V164.843H75.7443V170.077H74.3597V158.258H80.3597V159.511ZM85.9476 170.275C84.7004 170.275 83.7031 169.882 82.9559 169.096C82.2141 168.305 81.8432 167.258 81.8432 165.956C81.8432 164.538 82.2306 163.431 83.0053 162.635C83.78 161.838 84.8267 161.44 86.1454 161.44C87.4037 161.44 88.3844 161.827 89.0877 162.602C89.7965 163.376 90.1509 164.451 90.1509 165.824C90.1509 167.17 89.769 168.25 89.0053 169.063C88.2471 169.871 87.2278 170.275 85.9476 170.275ZM86.0465 162.577C85.1784 162.577 84.4916 162.874 83.9861 163.467C83.4806 164.055 83.2278 164.868 83.2278 165.907C83.2278 166.907 83.4833 167.695 83.9943 168.272C84.5053 168.849 85.1894 169.137 86.0465 169.137C86.9201 169.137 87.5905 168.854 88.0575 168.288C88.53 167.723 88.7663 166.918 88.7663 165.874C88.7663 164.819 88.53 164.005 88.0575 163.434C87.5905 162.863 86.9201 162.577 86.0465 162.577ZM95.8377 170.275C94.5905 170.275 93.5932 169.882 92.846 169.096C92.1042 168.305 91.7333 167.258 91.7333 165.956C91.7333 164.538 92.1207 163.431 92.8954 162.635C93.6701 161.838 94.7168 161.44 96.0355 161.44C97.2938 161.44 98.2745 161.827 98.9778 162.602C99.6866 163.376 100.041 164.451 100.041 165.824C100.041 167.17 99.6591 168.25 98.8954 169.063C98.1372 169.871 97.1179 170.275 95.8377 170.275ZM95.9366 162.577C95.0685 162.577 94.3817 162.874 93.8762 163.467C93.3707 164.055 93.1179 164.868 93.1179 165.907C93.1179 166.907 93.3734 167.695 93.8844 168.272C94.3954 168.849 95.0795 169.137 95.9366 169.137C96.8102 169.137 97.4806 168.854 97.9476 168.288C98.4201 167.723 98.6564 166.918 98.6564 165.874C98.6564 164.819 98.4201 164.005 97.9476 163.434C97.4806 162.863 96.8102 162.577 95.9366 162.577ZM109.404 170.077H108.052V168.643H108.019C107.393 169.731 106.426 170.275 105.118 170.275C104.057 170.275 103.209 169.898 102.571 169.146C101.939 168.387 101.623 167.357 101.623 166.055C101.623 164.659 101.975 163.541 102.678 162.701C103.382 161.86 104.318 161.44 105.489 161.44C106.648 161.44 107.492 161.896 108.019 162.808H108.052V157.582H109.404V170.077ZM108.052 166.261V165.016C108.052 164.335 107.827 163.758 107.376 163.286C106.926 162.813 106.354 162.577 105.662 162.577C104.838 162.577 104.189 162.879 103.717 163.483C103.244 164.088 103.008 164.923 103.008 165.989C103.008 166.962 103.233 167.731 103.684 168.297C104.14 168.857 104.75 169.137 105.514 169.137C106.266 169.137 106.876 168.865 107.343 168.321C107.816 167.777 108.052 167.091 108.052 166.261Z" fill="#6A6C09"/>
<path d="M118.154 164.571H152.967M32.7031 164.571H67.5163" stroke="#6A6C09" stroke-width="2.10989" stroke-linecap="round"/>
</g>
<defs>
<clipPath id="clip0_1_6802">
<rect width="150.857" height="108.659" fill="white" transform="translate(31.6484)"/>
</clipPath>
<clipPath id="clip1_1_6802">
<rect width="192" height="71.7363" fill="white" transform="translate(0 101.275)"/>
</clipPath>
</defs>
</svg>
