<svg width="40" height="40" viewBox="0 0 40 40" fill="none" xmlns="http://www.w3.org/2000/svg">
<path d="M18.0782 8.17185C17.9982 8.17185 17.9182 8.14123 17.8573 8.08029C17.7351 7.95811 17.7351 7.76061 17.8573 7.63842L19.6291 5.86654C19.7513 5.74436 19.9488 5.74436 20.071 5.86654C20.1932 5.98873 20.1932 6.18623 20.071 6.30842L18.2991 8.08029C18.2379 8.14123 18.1579 8.17185 18.0782 8.17185Z" fill="#51528C"/>
<path d="M18.7528 28.4825L18.8062 28.4969C19.1162 28.5788 19.38 28.7572 19.5653 28.9994C19.7541 29.2419 19.8612 29.5409 19.8612 29.8619C19.8612 30.6603 19.2056 31.2947 18.4072 31.2731C17.3416 31.2481 16.1512 31.1447 14.8719 30.9097C13.8206 30.7172 12.8653 30.4678 12.0206 30.1969C11.8247 29.9725 11.4503 29.4913 11.3078 28.7713C11.0941 27.7056 11.5322 26.8647 11.6641 26.6328" fill="#FCAF9F"/>
<path d="M12.0208 23.4253C11.8551 23.5965 11.4279 24.0844 11.3079 24.8509C11.1658 25.7597 11.5511 26.4459 11.6642 26.6328C12.7626 27.0072 13.952 27.37 15.2283 27.7019C16.477 28.0265 17.6673 28.285 18.787 28.4906C19.392 28.6444 20.0179 28.3015 20.2126 27.7175C20.4145 27.1119 20.1011 26.455 19.5036 26.2309L12.0208 23.4253Z" fill="#FCAF9F"/>
<path d="M16.0371 21.5294H16.0405L20.4171 24.0028C20.8055 24.2203 21.0336 24.63 21.0336 25.054C21.0336 25.1859 21.0124 25.3144 20.9696 25.4425C20.7558 26.0912 20.0393 26.4331 19.398 26.1909L12.0208 23.4253C11.9318 23.1759 11.6502 22.2956 12.0208 21.2869C12.299 20.524 12.8121 20.075 13.058 19.8862" fill="#FCAF9F"/>
<path d="M20.9375 15.1562C20.9375 16.275 20.025 17.1875 18.9062 17.1875C17.7875 17.1875 16.875 16.275 16.875 15.1562C16.875 14.4344 17.2563 13.7969 17.8313 13.4375C17.2563 13.0781 16.875 12.4406 16.875 11.7188C16.875 11.4312 16.9375 11.1562 17.0438 10.9094C16.9375 10.925 16.8313 10.9375 16.7188 10.9375C15.7594 10.9375 14.9563 10.2687 14.7438 9.375C14.375 9.75938 13.8563 10 13.2812 10C12.5563 10 11.9219 9.61875 11.5625 9.04688C11.2031 9.61875 10.5687 10 9.84375 10C9.42187 10 9.02813 9.86875 8.70313 9.65C8.60625 10.1062 8.35 10.5063 8 10.7938C7.65 11.0781 7.20625 11.25 6.71875 11.25C6.81875 11.4906 6.875 11.7531 6.875 12.0312C6.875 13.0031 6.1875 13.8187 5.27188 14.0156C5.49375 14.3406 5.625 14.7344 5.625 15.1562C5.625 16.0281 5.07188 16.7719 4.29688 17.0594C4.725 17.4313 5 17.9812 5 18.5938C5 19.2562 4.67812 19.8438 4.1875 20.2156C4.85312 20.55 5.3125 21.2375 5.3125 22.0312C5.3125 22.6438 5.0375 23.1938 4.60938 23.5656C5.38438 23.8531 5.9375 24.5969 5.9375 25.4688C5.9375 25.8906 5.80625 26.2844 5.5875 26.6094C6.5 26.8063 7.1875 27.6219 7.1875 28.5938C7.1875 28.8719 7.13125 29.1344 7.03125 29.375C8.15 29.375 9.0625 30.2875 9.0625 31.4062C9.0625 31.5188 9.05 31.625 9.03437 31.7313C9.28125 31.625 9.55625 31.5625 9.84375 31.5625C10.7156 31.5625 11.4594 32.1156 11.7469 32.8906C12.1188 32.4625 12.6687 32.1875 13.2812 32.1875C13.8312 32.1875 14.3312 32.4094 14.6969 32.7656L14.7281 32.5625C14.9156 31.6375 15.7375 30.9375 16.7188 30.9375C17.3031 30.9375 17.8313 31.1844 18.2 31.5844C18.5406 31.9437 18.75 32.4344 18.75 32.9688C18.75 34.0875 17.8375 35 16.7188 35C16.1688 35 15.6688 34.7781 15.3031 34.4219C15.2 35.4469 14.3312 36.25 13.2812 36.25C12.4094 36.25 11.6656 35.6969 11.3781 34.9219C11.0062 35.35 10.4563 35.625 9.84375 35.625C8.725 35.625 7.8125 34.7125 7.8125 33.5938C7.8125 33.4812 7.825 33.375 7.84063 33.2687C7.59375 33.375 7.31875 33.4375 7.03125 33.4375C5.9125 33.4375 5 32.525 5 31.4062C5 31.1281 5.05625 30.8656 5.15625 30.625C4.0375 30.625 3.125 29.7125 3.125 28.5938C3.125 28.1719 3.25625 27.7781 3.475 27.4531C2.5625 27.2562 1.875 26.4406 1.875 25.4688C1.875 24.8562 2.15 24.3062 2.57812 23.9344C1.80312 23.6469 1.25 22.9031 1.25 22.0312C1.25 21.3688 1.57187 20.7812 2.0625 20.4094C1.39687 20.075 0.9375 19.3875 0.9375 18.5938C0.9375 17.7219 1.49062 16.9781 2.26562 16.6906C1.8375 16.3187 1.5625 15.7688 1.5625 15.1562C1.5625 14.1844 2.25 13.3688 3.16563 13.1719C2.94375 12.8469 2.8125 12.4531 2.8125 12.0312C2.8125 11.4719 3.04062 10.9625 3.40937 10.5969C3.775 10.2281 4.28438 10 4.84375 10C4.74375 9.75938 4.6875 9.49687 4.6875 9.21875C4.6875 8.1 5.6 7.1875 6.71875 7.1875C7.14063 7.1875 7.53437 7.31875 7.85937 7.5375C8.05625 6.625 8.87188 5.9375 9.84375 5.9375C10.5687 5.9375 11.2031 6.31875 11.5625 6.89062C11.9219 6.31875 12.5563 5.9375 13.2812 5.9375C14.2406 5.9375 15.0437 6.60625 15.2562 7.5C15.625 7.11562 16.1437 6.875 16.7188 6.875C17.8375 6.875 18.75 7.7875 18.75 8.90625C18.75 9.19375 18.6875 9.46875 18.5812 9.71563C18.6875 9.7 18.7937 9.6875 18.9062 9.6875C20.025 9.6875 20.9375 10.6 20.9375 11.7188C20.9375 12.4406 20.5562 13.0781 19.9812 13.4375C20.5562 13.7969 20.9375 14.4344 20.9375 15.1562Z" fill="#924A56"/>
<path d="M18.1999 31.5844C18.1062 31.6375 16.1968 32.6688 14.6968 32.7656L14.728 32.5625C14.9155 31.6375 15.7374 30.9375 16.7187 30.9375C17.303 30.9375 17.8312 31.1844 18.1999 31.5844Z" fill="#723B47"/>
<path d="M35.5423 22.3562L30.9092 20.9306L25.1852 15.4928C24.3098 14.6612 23.073 14.3293 21.8989 14.6112L16.3161 15.9512C15.6058 16.1215 15.2717 16.9381 15.6589 17.5575L15.9511 18.025C16.3964 18.7378 17.1336 19.2175 17.9658 19.3362L21.6433 19.8615C21.857 20.6168 22.3983 22.1175 23.7817 23.4256C24.5508 24.1525 25.3361 24.5897 25.9202 24.8512" fill="#FCAF9F"/>
<path d="M18.2468 19.3765C18.3074 19.5296 18.3396 19.6936 18.3396 19.8577C18.3396 20.093 18.2755 20.328 18.1437 20.5421C17.5165 21.5437 16.1977 21.8499 15.1962 21.2227C14.1449 20.5633 13.0933 19.9077 12.0387 19.2483C11.5327 18.9312 11.2474 18.3468 11.3365 17.7552C11.3865 17.4237 11.4862 17.0458 11.6643 16.654C11.6677 16.6468 11.6715 16.6396 11.6749 16.6327C12.0668 15.7846 13.154 15.5243 13.9165 16.0624L15.5168 17.1921" fill="#FCAF9F"/>
<path d="M34.778 33.6438L31.8499 32.4126L29.128 31.2657C27.9343 31.6345 26.2155 32.0063 24.1374 31.9782C22.1218 31.9501 20.4187 31.5438 19.1249 31.1032H19.1187L16.4343 27.2532L16.028 23.0782L15.0718 20.3532L16.8562 18.9313C16.4937 18.7032 16.1812 18.397 15.9499 18.0251L15.6593 17.5563C15.2718 16.9376 15.6062 16.122 16.3155 15.9501L21.8999 14.6095C23.0718 14.3282 24.3093 14.6595 25.1843 15.4938L30.9093 20.9313L35.5436 22.3563C37.0218 26.2751 34.778 33.6438 34.778 33.6438Z" fill="#F9C87F"/>
<path d="M31.8505 32.4137C31.7258 33.0981 31.7042 33.939 31.9789 34.8299C32.1642 35.4287 32.4386 35.9028 32.6917 36.2556C32.6917 36.2556 36.6427 32.1481 35.8714 30.1399C35.1002 28.1318 31.8505 32.4137 31.8505 32.4137Z" fill="#DBBDBD"/>
<path d="M34.7782 33.6439L31.8501 32.4127C36.4188 27.2408 35.5438 22.3564 35.5438 22.3564C37.022 26.2752 34.7782 33.6439 34.7782 33.6439Z" fill="#E08E15"/>
<path d="M38.7502 38.7502C36.7305 37.9186 34.7111 37.0871 32.6914 36.2555C33.4267 35.1618 34.2205 33.7358 34.8298 31.9789C36.2327 27.9327 35.893 24.3339 35.5427 22.3564L38.7502 23.0689V38.7502Z" fill="white"/>
<path d="M20.9937 21.4062C20.9937 22.525 20.0812 23.4375 18.9624 23.4375C18.5155 23.4375 18.0999 23.2906 17.7655 23.0437C17.2593 22.675 16.9312 22.0781 16.9312 21.4062C16.9312 20.2875 17.8437 19.375 18.9624 19.375C19.5374 19.375 20.0593 19.6156 20.428 20.0062C20.778 20.3687 20.9937 20.8625 20.9937 21.4062Z" fill="#924A56"/>
<path d="M20.428 20.0062C20.3562 20.0406 19.328 20.5281 18.9624 20.4187C18.5874 20.3062 19.7124 21.8906 17.7655 23.0437C17.2593 22.675 16.9312 22.0781 16.9312 21.4062C16.9312 20.2875 17.8437 19.375 18.9624 19.375C19.5374 19.375 20.0593 19.6156 20.428 20.0062Z" fill="#723B47"/>
<path d="M18.7528 28.4825L18.8062 28.4969C19.1162 28.5788 19.38 28.7572 19.5653 28.9994C19.7541 29.2419 19.8612 29.5409 19.8612 29.8619C19.8612 30.6603 19.2056 31.2947 18.4072 31.2731C17.3416 31.2481 16.1512 31.1447 14.8719 30.9097C13.8206 30.7172 12.8653 30.4678 12.0206 30.1969C11.8247 29.9725 11.4503 29.4913 11.3078 28.7713C11.0941 27.7056 11.5322 26.8647 11.6641 26.6328" fill="#F9C87F"/>
<path d="M12.0208 23.4253C11.8551 23.5965 11.4279 24.0844 11.3079 24.8509C11.1658 25.7597 11.5511 26.4459 11.6642 26.6328C12.7626 27.0072 13.952 27.37 15.2283 27.7019C16.477 28.0265 17.6673 28.285 18.787 28.4906C19.392 28.6444 20.0179 28.3015 20.2126 27.7175C20.4145 27.1119 20.1011 26.455 19.5036 26.2309L12.0208 23.4253Z" fill="#F9C87F"/>
<path d="M21.0343 25.0533C21.0343 25.1846 21.0124 25.3127 20.9687 25.4439C20.7562 26.0908 20.0405 26.4346 19.3968 26.1908L19.0968 26.0783L12.0218 23.4252C11.9312 23.1752 11.6499 22.2971 12.0218 21.2877C12.0937 21.0939 12.178 20.9189 12.2749 20.7658V20.7627C12.5437 20.3127 12.8749 20.0283 13.0562 19.8877L16.0374 21.5283H16.0405L20.4187 24.0033C20.8062 24.2189 21.0343 24.6314 21.0343 25.0533Z" fill="#F9C87F"/>
<path d="M18.3406 19.8565C18.3406 20.094 18.275 20.3284 18.1438 20.5409C17.8281 21.044 17.3406 21.3721 16.8063 21.494H16.8031C16.2719 21.6159 15.6938 21.5346 15.1969 21.2221C14.1438 20.5628 13.0938 19.9065 12.0375 19.2471C11.5313 18.9315 11.2469 18.3471 11.3375 17.7565C11.3875 17.4253 11.4875 17.0503 11.6656 16.6565C11.6656 16.6534 11.6656 16.6534 11.6656 16.6534C11.6688 16.6471 11.6719 16.6409 11.675 16.6315C12.0656 15.7846 13.1531 15.5253 13.9156 16.0628L15.5156 17.1909L18.2469 19.3753C18.3063 19.5315 18.3406 19.694 18.3406 19.8565Z" fill="#F9C87F"/>
<path d="M24.5877 3.33447C24.2346 4.44697 23.5971 5.40634 22.7408 6.11259C22.4939 6.31884 22.2221 6.50322 21.9408 6.66572C21.6783 6.81572 21.3814 6.8876 21.0814 6.8876C20.5314 6.8876 19.9564 6.65009 19.5096 6.20322C18.8502 5.54385 18.6502 4.61572 18.9721 3.9126C19.0221 3.80322 19.0846 3.69697 19.1627 3.6001C19.3189 3.4001 19.4846 3.20322 19.6596 3.00947C20.3752 2.21884 21.2096 1.53759 22.1408 0.981345C22.2658 0.90947 22.4221 0.92822 22.5221 1.02822L24.5127 3.01884C24.5939 3.10009 24.6252 3.22197 24.5877 3.33447Z" fill="#FFD066"/>
<path d="M24.5877 3.33447C24.2346 4.44697 23.5971 5.40635 22.7408 6.1126C22.4939 6.31885 22.2221 6.50322 21.9408 6.66572C21.6783 6.81572 21.3814 6.8876 21.0814 6.8876C20.5314 6.8876 19.9564 6.6501 19.5096 6.20322C18.8502 5.54385 18.6502 4.61572 18.9721 3.9126C18.9721 3.9126 21.8408 7.47197 24.5877 3.33447Z" fill="#ED9D3E"/>
<path d="M21.4447 2.18775L22.1375 1.58431C22.2054 1.52525 22.3054 1.52181 22.3772 1.57618L22.9022 1.97525C23.0347 2.07587 22.9829 2.28587 22.8188 2.31368L21.601 2.51837C21.4119 2.54993 21.3004 2.31368 21.4447 2.18775Z" fill="#FFF7E1"/>
<path d="M13.0254 8.3394C13.5623 8.3394 13.9976 7.90413 13.9976 7.36721C13.9976 6.83028 13.5623 6.39502 13.0254 6.39502C12.4885 6.39502 12.0532 6.83028 12.0532 7.36721C12.0532 7.90413 12.4885 8.3394 13.0254 8.3394Z" fill="#BE7B85"/>
<path d="M16.999 9.19182C17.4698 9.19182 17.8515 8.81014 17.8515 8.33932C17.8515 7.86849 17.4698 7.48682 16.999 7.48682C16.5282 7.48682 16.1465 7.86849 16.1465 8.33932C16.1465 8.81014 16.5282 9.19182 16.999 9.19182Z" fill="#BE7B85"/>
<path d="M19.2826 11.8489C19.6787 11.8489 19.9998 11.5278 19.9998 11.1317C19.9998 10.7356 19.6787 10.4146 19.2826 10.4146C18.8865 10.4146 18.5654 10.7356 18.5654 11.1317C18.5654 11.5278 18.8865 11.8489 19.2826 11.8489Z" fill="#BE7B85"/>
<path d="M9.79396 8.45902C10.3309 8.45902 10.7662 8.02376 10.7662 7.48684C10.7662 6.94991 10.3309 6.51465 9.79396 6.51465C9.25704 6.51465 8.82178 6.94991 8.82178 7.48684C8.82178 8.02376 9.25704 8.45902 9.79396 8.45902Z" fill="#BE7B85"/>
<path d="M6.56252 9.73246C7.09944 9.73246 7.53471 9.2972 7.53471 8.76027C7.53471 8.22335 7.09944 7.78809 6.56252 7.78809C6.0256 7.78809 5.59033 8.22335 5.59033 8.76027C5.59033 9.2972 6.0256 9.73246 6.56252 9.73246Z" fill="#BE7B85"/>
<path d="M4.44924 12.5098C4.98616 12.5098 5.42143 12.0745 5.42143 11.5376C5.42143 11.0007 4.98616 10.5654 4.44924 10.5654C3.91231 10.5654 3.47705 11.0007 3.47705 11.5376C3.47705 12.0745 3.91231 12.5098 4.44924 12.5098Z" fill="#BE7B85"/>
<path d="M3.13137 15.7188C3.66829 15.7188 4.10355 15.2835 4.10355 14.7466C4.10355 14.2097 3.66829 13.7744 3.13137 13.7744C2.59444 13.7744 2.15918 14.2097 2.15918 14.7466C2.15918 15.2835 2.59444 15.7188 3.13137 15.7188Z" fill="#BE7B85"/>
<path d="M2.50539 19.2383C3.04231 19.2383 3.47758 18.8031 3.47758 18.2661C3.47758 17.7292 3.04231 17.2939 2.50539 17.2939C1.96847 17.2939 1.5332 17.7292 1.5332 18.2661C1.5332 18.8031 1.96847 19.2383 2.50539 19.2383Z" fill="#BE7B85"/>
<path d="M2.77105 22.6114C3.25568 22.6114 3.64855 22.2186 3.64855 21.7339C3.64855 21.2493 3.25568 20.8564 2.77105 20.8564C2.28642 20.8564 1.89355 21.2493 1.89355 21.7339C1.89355 22.2186 2.28642 22.6114 2.77105 22.6114Z" fill="#BE7B85"/>
<path d="M3.35412 26.05C3.82287 26.05 4.20287 25.67 4.20287 25.2013C4.20287 24.7325 3.82287 24.3525 3.35412 24.3525C2.88537 24.3525 2.50537 24.7325 2.50537 25.2013C2.50537 25.67 2.88537 26.05 3.35412 26.05Z" fill="#BE7B85"/>
<path d="M4.44941 29.1093C4.83947 29.1093 5.15566 28.7931 5.15566 28.403C5.15566 28.013 4.83947 27.6968 4.44941 27.6968C4.05936 27.6968 3.74316 28.013 3.74316 28.403C3.74316 28.7931 4.05936 29.1093 4.44941 29.1093Z" fill="#BE7B85"/>
<path d="M6.28453 31.7727C6.56033 31.7727 6.78391 31.5491 6.78391 31.2733C6.78391 30.9975 6.56033 30.7739 6.28453 30.7739C6.00873 30.7739 5.78516 30.9975 5.78516 31.2733C5.78516 31.5491 6.00873 31.7727 6.28453 31.7727Z" fill="#BE7B85"/>
<path d="M8.99717 34.0734C9.19219 34.0734 9.35029 33.9153 9.35029 33.7203C9.35029 33.5253 9.19219 33.3672 8.99717 33.3672C8.80214 33.3672 8.64404 33.5253 8.64404 33.7203C8.64404 33.9153 8.80214 34.0734 8.99717 34.0734Z" fill="#BE7B85"/>
<path d="M26.0479 24.5658C25.2851 24.2243 24.5951 23.7639 23.9966 23.1983C22.7763 22.0443 22.2079 20.7049 21.9457 19.7821V19.7814C21.9451 19.7799 21.9444 19.778 21.9441 19.7761C21.941 19.7652 21.9332 19.7574 21.9291 19.7474C21.9182 19.7202 21.9072 19.693 21.8891 19.6702C21.8785 19.6564 21.8641 19.6477 21.8513 19.6361C21.8341 19.6205 21.8188 19.6033 21.7985 19.5918C21.7785 19.5802 21.7557 19.5755 21.7335 19.5686C21.7179 19.5636 21.7044 19.5549 21.6876 19.5524L18.0101 19.0271C17.2679 18.9211 16.6138 18.4952 16.2163 17.8593L15.9241 17.3914C15.7935 17.1827 15.7722 16.9321 15.8654 16.7039C15.9585 16.4761 16.1494 16.3121 16.3891 16.2546L19.9341 15.4036C20.1019 15.3633 20.2054 15.1949 20.1651 15.0268C20.1247 14.8589 19.956 14.7555 19.7882 14.7958L16.2435 15.6471C15.806 15.7521 15.4572 16.0511 15.2869 16.4674C15.2676 16.5152 15.2513 16.5633 15.2372 16.6121L14.0966 15.8071C13.6472 15.4896 13.0841 15.3899 12.5504 15.5324C12.0347 15.6705 11.6119 16.0236 11.3797 16.5246C11.2066 16.9049 11.0882 17.3033 11.0272 17.7086C10.9207 18.4164 11.2526 19.1249 11.8729 19.5133L12.5369 19.9283C12.2404 20.2205 11.9276 20.6296 11.7272 21.1793C11.4007 22.0683 11.5251 22.8686 11.6682 23.3511C11.4241 23.6402 11.1044 24.1293 10.9988 24.8024C10.8735 25.6043 11.1069 26.2524 11.3085 26.6371C11.1022 27.053 10.8072 27.8633 11.0013 28.8318C11.1157 29.4086 11.3794 29.9371 11.7854 30.4018C11.8226 30.4446 11.871 30.4764 11.9251 30.4936C12.8569 30.7927 13.8294 31.0358 14.8154 31.2161C15.9935 31.4327 17.1994 31.5568 18.3991 31.5846C18.4151 31.5849 18.4313 31.5852 18.4469 31.5852C18.9013 31.5852 19.3282 31.4124 19.6535 31.0958C19.9888 30.7693 20.1735 30.3308 20.1735 29.8608C20.1735 29.4746 20.0485 29.1099 19.8138 28.8086C19.7829 28.7683 19.7466 28.7339 19.7126 28.6968C20.0772 28.5283 20.3741 28.2196 20.5088 27.8155C20.6632 27.3518 20.5782 26.8696 20.3222 26.4961C20.3754 26.4774 20.4282 26.4561 20.4797 26.4311C20.8566 26.2508 21.136 25.9343 21.266 25.5399C21.3191 25.3802 21.346 25.2164 21.346 25.0527C21.346 24.5039 21.0485 23.9968 20.571 23.7293L17.0607 21.7455C17.6197 21.5711 18.0941 21.2086 18.4094 20.7049C18.5682 20.4474 18.6519 20.1539 18.6519 19.8568C18.6519 19.8199 18.6441 19.7839 18.6416 19.7474L21.4035 20.1421C21.7088 21.1293 22.3232 22.4758 23.5669 23.6514C24.2163 24.2655 24.9654 24.7646 25.7919 25.1352C25.8335 25.1539 25.8766 25.1627 25.9194 25.1627C26.0391 25.1627 26.1529 25.0939 26.2051 24.9777C26.2757 24.8211 26.2051 24.6361 26.0479 24.5658ZM19.2176 30.6489C19.0026 30.858 18.7176 30.9658 18.4147 30.9608C17.2472 30.9336 16.0741 30.813 14.9282 30.6024C13.9985 30.4321 13.0813 30.2046 12.2007 29.9261C11.8991 29.5611 11.7019 29.1524 11.6141 28.7096C11.4694 27.9871 11.6594 27.3746 11.8226 27.0143C12.9176 27.3808 14.0351 27.7146 15.1497 28.0046C16.3257 28.3105 17.5272 28.5768 18.7007 28.7921L18.7266 28.7989C18.9666 28.8624 19.1707 28.9974 19.3191 29.1914C19.4694 29.3843 19.5488 29.6158 19.5488 29.8618C19.5488 30.1614 19.4313 30.4411 19.2176 30.6489ZM19.916 27.6189C19.7719 28.0502 19.3116 28.2996 18.8469 28.1839L18.8326 28.1802C18.8301 28.1796 18.8279 28.1802 18.8254 28.1799C17.6491 27.9633 16.4654 27.7008 15.3066 27.3996C14.1566 27.1005 13.0035 26.7561 11.8763 26.3749C11.7307 26.1036 11.5119 25.563 11.616 24.8993C11.6944 24.3989 11.9238 24.0258 12.1116 23.7933L12.2616 23.8496L19.3929 26.5239C19.836 26.6896 20.0654 27.1708 19.916 27.6189ZM20.7213 25.0539C20.7213 25.1518 20.7054 25.2464 20.6729 25.3446C20.5966 25.5764 20.4322 25.7621 20.2107 25.8683C19.9885 25.9746 19.7388 25.9855 19.5076 25.8983L13.3094 23.5746L12.2707 23.1852C12.1519 22.7905 12.0451 22.1277 12.3144 21.3939C12.5026 20.8783 12.8129 20.513 13.0851 20.2708C13.7338 20.6761 14.3822 21.0811 15.0301 21.4877C15.3094 21.6627 15.6154 21.7743 15.931 21.8261L20.2647 24.2752C20.5463 24.433 20.7213 24.7314 20.7213 25.0539ZM18.0272 19.8577C18.0272 20.0393 17.9754 20.2193 17.8785 20.3761C17.6194 20.7902 17.2147 21.0786 16.7394 21.1886C16.2647 21.2993 15.7751 21.2168 15.3619 20.958C14.6122 20.4877 13.8622 20.0193 13.1113 19.5502L12.2047 18.9836C11.7954 18.7274 11.576 18.2636 11.6457 17.8018C11.6979 17.4536 11.7997 17.1111 11.9426 16.7961C11.9444 16.7927 11.9569 16.7677 11.9585 16.7636C12.1013 16.4549 12.3763 16.2261 12.7122 16.1361C13.0657 16.0408 13.4391 16.1077 13.7363 16.3177L15.241 17.3799C15.2763 17.4983 15.3263 17.6139 15.3944 17.7227L15.6866 18.1905C16.1819 18.983 16.9966 19.5133 17.9216 19.6455L18.0047 19.6574C18.0185 19.7239 18.0272 19.7914 18.0272 19.8577Z" fill="#E08E15"/>
</svg>
