<svg width="40" height="40" viewBox="0 0 40 40" fill="none" xmlns="http://www.w3.org/2000/svg">
<path fill-rule="evenodd" clip-rule="evenodd" d="M34.1335 30.4763C34.1335 29.0974 33.0156 27.9795 31.6366 27.9795C25.7146 27.9795 10.8721 27.9795 4.94998 27.9795C3.57099 27.9795 2.45312 29.0974 2.45312 30.4763V37.0543H34.1335V30.4763Z" fill="#3D8088"/>
<path fill-rule="evenodd" clip-rule="evenodd" d="M31.361 27.9795H4.94998C3.57099 27.9795 2.45312 29.0974 2.45312 30.4763V32.9283H27.1367C29.4698 32.9283 31.361 31.037 31.361 28.704V27.9795Z" fill="#4B9DA7"/>
<path fill-rule="evenodd" clip-rule="evenodd" d="M27.143 31.3311H9.43863C8.78436 31.3311 8.25391 31.8615 8.25391 32.5159V32.5181C8.25391 32.8323 8.37874 33.1338 8.60087 33.3559C8.82312 33.578 9.12447 33.7029 9.43863 33.7029H27.143C27.4572 33.7029 27.7585 33.578 27.9808 33.3559C28.2029 33.1338 28.3277 32.8323 28.3277 32.5181C28.3277 32.5173 28.3277 32.5166 28.3277 32.5159C28.3277 32.2016 28.2029 31.9003 27.9808 31.6781C27.7585 31.4559 27.4572 31.3311 27.143 31.3311Z" fill="#336B71"/>
<path fill-rule="evenodd" clip-rule="evenodd" d="M25.0681 20.6569C25.0681 20.4914 25.0024 20.3326 24.8853 20.2155C24.7682 20.0984 24.6094 20.0327 24.4439 20.0327C22.1785 20.0327 14.4052 20.0327 12.1398 20.0327C11.9743 20.0327 11.8155 20.0984 11.6984 20.2155C11.5814 20.3326 11.5156 20.4914 11.5156 20.6569V33.7032H25.0681V20.6569Z" fill="#86B537"/>
<path fill-rule="evenodd" clip-rule="evenodd" d="M11.5156 30.7328V20.6569C11.5156 20.4914 11.5814 20.3326 11.6984 20.2155C11.8155 20.0984 11.9743 20.0327 12.1398 20.0327H24.4439C24.6094 20.0327 24.7682 20.0984 24.8853 20.2155C25.0024 20.3326 25.0681 20.4914 25.0681 20.6569V22.6844C22.9454 27.4501 18.1651 30.7765 12.6141 30.7765C12.2441 30.7765 11.8774 30.7618 11.5156 30.7328Z" fill="#9AC850"/>
<path fill-rule="evenodd" clip-rule="evenodd" d="M15.6042 21.8853L21.0718 21.9255C21.063 23.1229 22.028 24.1023 23.2255 24.1111L23.1546 33.739L13.3477 33.6668L13.4186 24.0389C14.616 24.0477 15.5954 23.0827 15.6042 21.8853Z" fill="#EEBCB1"/>
<path fill-rule="evenodd" clip-rule="evenodd" d="M13.3672 30.7559L13.4166 24.0389C14.614 24.0477 15.5935 23.0827 15.6022 21.8853L21.0699 21.9255C21.0611 23.1229 22.0261 24.1023 23.2236 24.1111L23.2118 25.7133C20.8608 28.6184 17.3392 30.5394 13.3672 30.7559Z" fill="#F6DDCE"/>
<path fill-rule="evenodd" clip-rule="evenodd" d="M13.6554 10.7299C13.6554 10.7299 13.6496 11.4482 13.6496 11.5661C13.6496 12.1618 14.0235 12.6932 14.584 12.8945C16.3141 13.5156 20.0236 14.8475 22.0402 15.5715C22.9396 15.8945 23.9091 15.9706 24.848 15.7921C26.9886 15.3849 30.7711 14.6655 30.7711 14.6655V5.44098H27.9669C27.9669 5.44098 24.1617 4.15772 21.5056 3.26199C19.884 2.71514 18.118 2.783 16.5431 3.45278C12.8698 5.01491 6.08144 7.90154 3.4929 9.00233C2.86245 9.27042 2.45312 9.8893 2.45312 10.5744V11.0954C2.45312 11.3938 2.58234 11.6777 2.80739 11.8738C3.03245 12.0699 3.33144 12.1588 3.62706 12.1179C6.50065 11.7202 13.6554 10.7299 13.6554 10.7299Z" fill="#F8B17C"/>
<path fill-rule="evenodd" clip-rule="evenodd" d="M20.2492 10.1297C13.4529 9.25772 13.6554 10.7299 13.6554 10.7299C13.6554 10.7299 6.50065 11.7202 3.62706 12.1179C3.33144 12.1588 3.03245 12.0699 2.80739 11.8738C2.58234 11.6777 2.45312 11.3938 2.45312 11.0954C2.45312 10.9229 2.45312 10.7457 2.45312 10.5744C2.45312 9.8893 2.86245 9.27042 3.4929 9.00233C6.08144 7.90154 12.8698 5.01491 16.5431 3.45278C18.118 2.783 19.884 2.71514 21.5056 3.26199L24.9836 4.43491C23.8895 6.69817 22.2554 8.65244 20.2492 10.1297Z" fill="#F9BE92"/>
<path fill-rule="evenodd" clip-rule="evenodd" d="M20.6318 9.58547C20.6318 9.58547 17.192 9.42233 15.1482 9.32536C14.6349 9.30098 14.134 9.48794 13.762 9.84266C13.3901 10.1973 13.1797 10.6888 13.1797 11.2028V11.566C13.1797 12.3592 13.6777 13.0669 14.4241 13.3349C16.1542 13.9561 19.8636 15.2879 21.8803 16.0121C22.8583 16.3632 23.9127 16.446 24.9336 16.2519C27.0744 15.8447 30.8569 15.1252 30.8569 15.1252C31.1107 15.0769 31.2776 14.8317 31.2294 14.5778C31.181 14.324 30.9358 14.1572 30.6819 14.2054C30.6819 14.2054 26.8994 14.9248 24.7587 15.332C23.902 15.4949 23.0174 15.4255 22.1967 15.1308C20.18 14.4067 16.4706 13.0749 14.7405 12.4537C14.3659 12.3192 14.1161 11.964 14.1161 11.566V11.2028C14.1161 10.9448 14.2217 10.6982 14.4083 10.5202C14.5949 10.3422 14.8463 10.2484 15.1038 10.2606C15.104 10.2606 20.5874 10.5208 20.5874 10.5208C20.8455 10.533 21.065 10.3334 21.0772 10.0752C21.0895 9.81716 20.8899 9.59772 20.6318 9.58547Z" fill="#F67F53"/>
<path fill-rule="evenodd" clip-rule="evenodd" d="M30.7704 4.97276H28.043L21.6545 2.81827C19.9241 2.23479 18.0398 2.30715 16.3593 3.02175C12.6858 4.58389 5.89763 7.47063 3.30909 8.57142C2.50584 8.91299 1.98438 9.70142 1.98438 10.5742V11.0952C1.98438 11.5291 2.17213 11.9416 2.49921 12.2267C2.8264 12.5116 3.26089 12.6411 3.69055 12.5815C6.56426 12.1838 13.7189 11.1934 13.7189 11.1934C13.9748 11.158 14.1538 10.9215 14.1184 10.6656C14.083 10.4096 13.8464 10.2305 13.5906 10.266C13.5906 10.266 6.43584 11.2564 3.56224 11.6541C3.40067 11.6765 3.2373 11.6278 3.11426 11.5206C2.99123 11.4134 2.92067 11.2584 2.92067 11.0952V10.5742C2.92067 10.0769 3.21775 9.62771 3.6755 9.43299L16.7257 3.88344C18.1949 3.25861 19.8425 3.19535 21.3553 3.70546C24.0113 4.60119 27.8166 5.88456 27.8166 5.88456C27.8648 5.90074 27.9154 5.90906 27.9663 5.90906H30.7704C31.0289 5.90906 31.2386 5.69928 31.2386 5.44085C31.2386 5.18254 31.0289 4.97276 30.7704 4.97276Z" fill="#F67F53"/>
<path fill-rule="evenodd" clip-rule="evenodd" d="M32.0181 4.0415C31.3285 4.0415 30.7695 4.60049 30.7695 5.28993V14.8162C30.7695 15.5057 31.3285 16.0646 32.0181 16.0646H37.4941V4.0415H32.0181Z" fill="#86B537"/>
<path fill-rule="evenodd" clip-rule="evenodd" d="M37.4941 6.00903C36.5218 8.03926 34.4471 9.44297 32.0469 9.44297C31.6089 9.44297 31.1817 9.39622 30.7695 9.30723V5.28993C30.7695 4.60049 31.3285 4.0415 32.0181 4.0415H37.4941V6.00903Z" fill="#9AC850"/>
<path fill-rule="evenodd" clip-rule="evenodd" d="M30.7773 13.1082H33.4663C33.7248 13.1082 33.9345 12.8984 33.9345 12.64C33.9345 12.3817 33.7248 12.1719 33.4663 12.1719H30.7773V13.1082Z" fill="#629C59"/>
</svg>
