<svg width="40" height="40" viewBox="0 0 40 40" fill="none" xmlns="http://www.w3.org/2000/svg">
<path fill-rule="evenodd" clip-rule="evenodd" d="M5.82916 12.064C5.82916 12.064 5.23343 12.369 4.54646 12.7206C3.29512 13.3612 2.50781 14.6487 2.50781 16.0545V32.4925C2.50781 33.4859 2.90242 34.4385 3.60478 35.1408C4.30714 35.8433 5.25984 36.2379 6.25309 36.2379H33.6995C34.6929 36.2379 35.6455 35.8433 36.3478 35.1408C37.0503 34.4385 37.4449 33.4859 37.4449 32.4925C37.4449 27.7976 37.4449 19.8978 37.4449 16.0325C37.4449 14.6381 36.6703 13.3592 35.4347 12.7133C34.7679 12.3648 34.1925 12.064 34.1925 12.064H5.82916Z" fill="#4B9DA7"/>
<path fill-rule="evenodd" clip-rule="evenodd" d="M4.26562 12.8797V28.2142H35.686V12.8578C35.6044 12.8065 35.5205 12.7585 35.4342 12.7133C34.7674 12.3648 34.192 12.064 34.192 12.064H5.82866C5.82866 12.064 5.23293 12.369 4.54596 12.7206C4.44978 12.7698 4.3563 12.823 4.26562 12.8797Z" fill="#3D8088"/>
<path fill-rule="evenodd" clip-rule="evenodd" d="M34.0251 27.8937V6.20877C34.0251 5.54652 33.7621 4.91146 33.2938 4.44326C32.8256 3.97495 32.1904 3.71191 31.5283 3.71191C26.197 3.71191 13.7539 3.71191 8.42264 3.71191C7.76039 3.71191 7.12533 3.97495 6.65702 4.44326C6.18881 4.91146 5.92578 5.54652 5.92578 6.20877V28.1023L34.0251 27.8937Z" fill="#F6DDCE"/>
<path fill-rule="evenodd" clip-rule="evenodd" d="M14.5681 16.0027C14.477 15.9012 14.3305 15.8704 14.2064 15.9269C14.0822 15.9833 14.0091 16.1139 14.0258 16.2491C14.3895 19.1999 16.9076 21.4874 19.9558 21.4874C23.2537 21.4874 25.9311 18.8101 25.9311 15.5123C25.9311 12.2145 23.2537 9.53711 19.9558 9.53711C19.8336 9.53711 19.7121 9.54082 19.5914 9.54812C19.4551 9.55632 19.3402 9.65205 19.3073 9.78453C19.2745 9.917 19.3314 10.0553 19.4481 10.1263C20.5619 10.804 21.3068 12.0296 21.3068 13.4279C21.3068 15.5592 19.5764 17.2896 17.445 17.2896C16.3026 17.2896 15.2754 16.7924 14.5681 16.0027Z" fill="#86B537"/>
<path fill-rule="evenodd" clip-rule="evenodd" d="M14.9924 18.8381C15.8647 19.3362 16.8739 19.6208 17.949 19.6208C21.2468 19.6208 23.9242 16.9434 23.9242 13.6455C23.9242 12.4149 23.5513 11.2705 22.9126 10.3198C22.0408 9.82183 21.0313 9.53711 19.9558 9.53711C19.8336 9.53711 19.7121 9.54082 19.5914 9.54812C19.4551 9.55632 19.3402 9.65205 19.3073 9.78453C19.2745 9.917 19.3314 10.0553 19.4481 10.1263C20.5619 10.804 21.3068 12.0296 21.3068 13.4279C21.3068 15.5592 19.5764 17.2896 17.445 17.2896C16.3026 17.2896 15.2754 16.7924 14.5681 16.0027C14.477 15.9012 14.3305 15.8704 14.2064 15.9269C14.0822 15.9833 14.0091 16.1139 14.0258 16.2491C14.1429 17.199 14.4832 18.0801 14.9924 18.8381Z" fill="#9AC850"/>
<path fill-rule="evenodd" clip-rule="evenodd" d="M14.6655 11.248L14.1409 11.7726C13.9582 11.9553 13.9582 12.252 14.1409 12.4347C14.3236 12.6174 14.6204 12.6174 14.8031 12.4347L15.3276 11.9101L15.8522 12.4347C16.0349 12.6174 16.3316 12.6174 16.5143 12.4347C16.697 12.252 16.697 11.9553 16.5143 11.7726L15.9897 11.248L16.5143 10.7235C16.697 10.5408 16.697 10.244 16.5143 10.0613C16.3316 9.87864 16.0349 9.87864 15.8522 10.0613L15.3276 10.5859L14.8031 10.0613C14.6204 9.87864 14.3236 9.87864 14.1409 10.0613C13.9582 10.244 13.9582 10.5408 14.1409 10.7235L14.6655 11.248Z" fill="#9AC850"/>
<path fill-rule="evenodd" clip-rule="evenodd" d="M37.4449 18.3667C37.4449 18.3667 27.1484 23.7494 22.4493 26.2059C21.0133 26.9566 19.3025 26.9639 17.8603 26.2256C13.0793 23.7783 2.50781 18.3667 2.50781 18.3667V32.4925C2.50781 33.4859 2.90242 34.4385 3.60478 35.1409C4.30714 35.8433 5.25984 36.2379 6.25309 36.2379H33.6995C34.6929 36.2379 35.6455 35.8433 36.3478 35.1409C37.0503 34.4385 37.4449 33.4859 37.4449 32.4925C37.4449 27.2523 37.4449 18.3667 37.4449 18.3667Z" fill="#86B537"/>
<path fill-rule="evenodd" clip-rule="evenodd" d="M5.92578 18.0142V28.1021L34.0251 27.8936V18.0512L22.4484 24.1033C21.0124 24.8538 19.3016 24.8612 17.8594 24.1229L5.92578 18.0142Z" fill="#EEBCB1"/>
<path fill-rule="evenodd" clip-rule="evenodd" d="M2.58163 33.2327C3.14287 33.5534 3.78276 33.7265 4.44051 33.7265H31.8869C32.8803 33.7265 33.8329 33.332 34.5352 32.6295C35.2376 31.9271 35.6322 30.9746 35.6322 29.9812V19.3142L22.4493 26.2059C21.0133 26.9566 19.3025 26.9639 17.8603 26.2256C13.0793 23.7783 2.50781 18.3667 2.50781 18.3667V32.4925C2.50781 32.743 2.53287 32.9909 2.58163 33.2327Z" fill="#9AC850"/>
</svg>
