<svg width="40" height="40" viewBox="0 0 40 40" fill="none" xmlns="http://www.w3.org/2000/svg">
<path fill-rule="evenodd" clip-rule="evenodd" d="M23.8062 10.1481C23.8084 8.48092 23.8115 6.81553 23.8158 5.15227C23.8175 4.50721 23.5624 3.88789 23.1068 3.43126C22.6513 2.97452 22.0327 2.71777 21.3876 2.71777C17.2295 2.71777 8.80802 2.71777 4.65476 2.71777C4.01072 2.71777 3.39308 2.97362 2.9378 3.4289C2.48241 3.88429 2.22656 4.50193 2.22656 5.14586V34.804C2.22656 35.448 2.48241 36.0655 2.9378 36.5209C3.39308 36.9763 4.01072 37.2322 4.65476 37.2322H21.3913C22.0358 37.2322 22.654 36.9759 23.1094 36.5198C23.5649 36.0636 23.8203 35.4452 23.8194 34.8006C23.814 30.9489 23.8084 27.097 23.8051 23.2495L23.8062 10.1481Z" fill="#3D8088"/>
<path fill-rule="evenodd" clip-rule="evenodd" d="M20.726 2.71777V19.7574C20.726 27.1658 14.7113 33.1805 7.30297 33.1805C5.50724 33.1805 3.7933 32.827 2.22656 32.1858V5.14586C2.22656 4.50193 2.48241 3.88429 2.9378 3.4289C3.39308 2.97362 4.01072 2.71777 4.65476 2.71777H20.726Z" fill="#4B9DA7"/>
<path d="M13.0245 35.2717C13.6486 35.2717 14.1545 34.7658 14.1545 34.1417C14.1545 33.5176 13.6486 33.0117 13.0245 33.0117C12.4004 33.0117 11.8945 33.5176 11.8945 34.1417C11.8945 34.7658 12.4004 35.2717 13.0245 35.2717Z" fill="#F6DDCE"/>
<path fill-rule="evenodd" clip-rule="evenodd" d="M11.0156 2.71777H15.0353C15.0353 3.82699 14.1347 4.72755 13.0254 4.72755C11.9162 4.72755 11.0156 3.82699 11.0156 2.71777Z" fill="#F6DDCE"/>
<path fill-rule="evenodd" clip-rule="evenodd" d="M11.1328 23.4883H15.1525C15.1525 24.5975 14.2519 25.4981 13.1426 25.4981C12.0334 25.4981 11.1328 24.5975 11.1328 23.4883Z" fill="#86B537"/>
<path fill-rule="evenodd" clip-rule="evenodd" d="M16.6375 17.3959C16.6375 16.4762 16.2721 15.594 15.6217 14.9436C14.9714 14.2931 14.0891 13.9277 13.1693 13.9277C13.1687 13.9277 13.168 13.9277 13.1674 13.9277C12.2475 13.9277 11.3654 14.2931 10.7151 14.9436C10.0646 15.594 9.69922 16.4762 9.69922 17.3959V21.1389H16.6375V17.3959Z" fill="#86B537"/>
<path fill-rule="evenodd" clip-rule="evenodd" d="M9.69922 20.1873V17.3959C9.69922 16.4762 10.0646 15.594 10.7151 14.9436C11.3654 14.2931 12.2475 13.9277 13.1674 13.9277H13.1693C14.0891 13.9277 14.9714 14.2931 15.6217 14.9436C15.8881 15.2099 16.1066 15.5152 16.2718 15.8458C15.9953 18.409 13.8224 20.4072 11.1864 20.4072C10.6692 20.4072 10.1698 20.3302 9.69922 20.1873Z" fill="#9AC850"/>
<path fill-rule="evenodd" clip-rule="evenodd" d="M17.8113 22.2889C17.8113 21.6536 17.2964 21.1387 16.6611 21.1387C14.8189 21.1387 11.2268 21.1387 9.3846 21.1387C8.74932 21.1387 8.23438 21.6536 8.23438 22.2889V22.3373C8.23438 22.9726 8.74932 23.4877 9.3846 23.4877H16.6611C17.2964 23.4877 17.8113 22.9726 17.8113 22.3373C17.8113 22.3213 17.8113 22.3051 17.8113 22.2889Z" fill="#F6DDCE"/>
<path fill-rule="evenodd" clip-rule="evenodd" d="M17.8115 22.2889C17.8115 21.6536 17.2966 21.1387 16.6613 21.1387C14.819 21.1387 13.9534 21.1387 12.1112 21.1387C11.4759 21.1387 10.9609 21.6536 10.9609 22.2889V22.3373C10.9609 22.9726 11.4759 23.4877 12.1112 23.4877H16.6613C17.2966 23.4877 17.8115 22.9726 17.8115 22.3373C17.8115 22.3213 17.8115 22.3051 17.8115 22.2889Z" fill="#EEBCB1"/>
<path fill-rule="evenodd" clip-rule="evenodd" d="M29.6773 7.49414C34.1183 7.49414 37.7238 11.0996 37.7238 15.5405C37.7238 19.9814 34.1183 23.587 29.6773 23.587C28.4419 23.587 27.2711 23.308 26.2246 22.8094C25.5159 22.4719 23.3202 23.7392 20.592 22.8909C20.0676 22.7279 23.1221 20.2823 22.6976 19.5444C22.0191 18.3649 21.6309 16.9977 21.6309 15.5405C21.6309 11.0996 25.2364 7.49414 29.6773 7.49414Z" fill="#EEBCB1"/>
<path fill-rule="evenodd" clip-rule="evenodd" d="M22.5365 19.2122C21.7 17.5951 21.4042 15.6872 21.8302 13.7729C22.7947 9.43794 27.0972 6.70154 31.4321 7.66614C33.176 8.05412 34.6612 8.98244 35.751 10.2358C35.8368 11.1575 35.7824 12.1083 35.5707 13.0605C34.4774 17.974 29.6007 21.0755 24.6873 19.9822C23.9237 19.8123 23.2039 19.5511 22.5365 19.2122Z" fill="#F6DDCE"/>
<path fill-rule="evenodd" clip-rule="evenodd" d="M26.7382 17.6455C26.7382 17.6455 25.6092 17.0363 25.5978 15.3664C25.5774 12.4113 28.6314 11.5824 29.5718 10.1784C29.5939 10.1404 29.6345 10.1172 29.6783 10.1172C29.7222 10.1173 29.7627 10.1407 29.7847 10.1785C30.7255 11.5824 33.7794 12.4113 33.7592 15.3664C33.7478 17.0363 32.6187 17.6455 32.6187 17.6455H26.7382Z" fill="#86B537"/>
<path fill-rule="evenodd" clip-rule="evenodd" d="M25.6094 15.6335C25.6024 15.5475 25.5983 15.4585 25.5978 15.3664C25.5774 12.4113 28.6314 11.5824 29.5718 10.1784C29.5939 10.1404 29.6345 10.1172 29.6783 10.1172C29.7222 10.1173 29.7627 10.1407 29.7847 10.1785C30.2618 10.8904 31.2823 11.4545 32.1698 12.223C31.7519 14.3991 29.8361 16.0455 27.5387 16.0455C26.8516 16.0455 26.1985 15.8982 25.6094 15.6335Z" fill="#9AC850"/>
<path fill-rule="evenodd" clip-rule="evenodd" d="M26.4961 17.4547V22.9943C27.4673 23.4103 28.5362 23.6405 29.6585 23.6405C30.7964 23.6405 31.8796 23.4037 32.861 22.977V17.4547C32.1388 17.2767 31.0244 17.0752 29.6786 17.0752C28.3327 17.0752 27.2183 17.2767 26.4961 17.4547Z" fill="#4B9DA7"/>
<path fill-rule="evenodd" clip-rule="evenodd" d="M31.5352 17.2026V23.4199C31.9932 23.3103 32.4362 23.1614 32.8602 22.977V17.4548C32.5064 17.3676 32.0584 17.2747 31.5352 17.2026Z" fill="#3D8088"/>
<path fill-rule="evenodd" clip-rule="evenodd" d="M25.7665 18.1588C25.7665 18.1588 27.3661 17.5433 29.678 17.5433C31.9899 17.5433 33.5896 18.1588 33.5896 18.1588C33.8305 18.2522 34.1018 18.1326 34.1953 17.8917C34.2888 17.6508 34.169 17.3793 33.9281 17.2858C33.9281 17.2858 32.1909 16.6069 29.678 16.6069C27.1651 16.6069 25.4279 17.2858 25.4279 17.2858C25.187 17.3793 25.0672 17.6508 25.1607 17.8917C25.2542 18.1326 25.5256 18.2522 25.7665 18.1588Z" fill="#3D8088"/>
</svg>
