<svg width="40" height="40" viewBox="0 0 40 40" fill="none" xmlns="http://www.w3.org/2000/svg">
<path fill-rule="evenodd" clip-rule="evenodd" d="M30.7121 10.8933C30.7121 10.1025 30.071 9.46143 29.2801 9.46143C25.376 9.46143 14.5781 9.46143 10.6741 9.46143C9.88331 9.46143 9.24219 10.1025 9.24219 10.8933V10.8947C9.24219 11.6855 9.88331 12.3266 10.6741 12.3266H29.2801C30.071 12.3266 30.7121 11.6855 30.7121 10.8947C30.7121 10.8942 30.7121 10.8938 30.7121 10.8933Z" fill="#EEBCB1"/>
<path fill-rule="evenodd" clip-rule="evenodd" d="M27.8706 31.9916C27.8706 31.2007 27.2294 30.5596 26.4385 30.5596C23.4369 30.5596 16.5156 30.5596 13.5139 30.5596C12.7232 30.5596 12.082 31.2007 12.082 31.9916V31.9928C12.082 32.7836 12.7232 33.4247 13.5139 33.4247H26.4385C27.2294 33.4247 27.8706 32.7836 27.8706 31.9928C27.8706 31.9924 27.8706 31.9919 27.8706 31.9916Z" fill="#EEBCB1"/>
<path fill-rule="evenodd" clip-rule="evenodd" d="M11.0117 9.42174C11.0117 5.49634 13.2807 4.28264 19.9781 1.29443C26.6754 4.28264 28.9445 5.49634 28.9445 9.42174H11.0117Z" fill="#3D8088"/>
<path fill-rule="evenodd" clip-rule="evenodd" d="M11.2773 7.42028C12.0486 4.96207 14.5694 3.70623 19.9749 1.29443C21.826 2.12039 23.3388 2.81073 24.5587 3.46016C22.5118 6.32219 19.1603 8.18915 15.3762 8.18915C13.9303 8.18915 12.5476 7.91657 11.2773 7.42028Z" fill="#4B9DA7"/>
<path fill-rule="evenodd" clip-rule="evenodd" d="M14.1797 33.5063C14.1944 36.0093 15.6207 36.7749 19.8283 38.6556C24.0135 36.7253 25.4306 35.943 25.4159 33.4399L14.1797 33.5063Z" fill="#3D8088"/>
<path fill-rule="evenodd" clip-rule="evenodd" d="M12.8404 30.727C10.5477 28.2204 9.09766 24.5282 9.09766 20.4141C9.09766 17.389 9.88159 14.5921 11.2081 12.3267H28.7431C30.0696 14.5921 30.8535 17.3889 30.8535 20.4141C30.8535 24.5283 29.4035 28.2204 27.1109 30.727C26.9102 30.62 26.6811 30.5594 26.4379 30.5594C23.4362 30.5594 16.515 30.5594 13.5133 30.5594C13.27 30.5594 13.0409 30.62 12.8404 30.727Z" fill="#86B537"/>
<path fill-rule="evenodd" clip-rule="evenodd" d="M10.1055 26.1553C12.8691 27.6208 16.3305 28.4927 20.0852 28.4927C23.7205 28.4927 27.081 27.6753 29.7996 26.293C29.1529 27.9943 28.2338 29.502 27.1137 30.7267C26.913 30.6198 26.6839 30.5591 26.4406 30.5591C23.439 30.5591 16.5177 30.5591 13.516 30.5591C13.2728 30.5591 13.0437 30.6198 12.8431 30.7267C11.6929 29.4692 10.7548 27.9131 10.1055 26.1553Z" fill="#629C59"/>
<path fill-rule="evenodd" clip-rule="evenodd" d="M9.46094 16.9003C9.81431 15.2287 10.4139 13.6825 11.2078 12.3267H28.7427C29.4054 13.4585 29.9327 14.723 30.2945 16.0823C27.5778 14.7044 24.2235 13.8904 20.5953 13.8904C16.2972 13.8904 12.3836 15.0328 9.46094 16.9003Z" fill="#629C59"/>
<path fill-rule="evenodd" clip-rule="evenodd" d="M29.6235 14.1025C30.4082 15.991 30.8519 18.1377 30.8519 20.4137C30.8519 22.9952 30.281 25.4105 29.2894 27.471C28.7063 25.6114 27.4145 22.6982 24.8203 21.4098C28.1331 19.7644 29.3222 15.4694 29.6235 14.1025Z" fill="#F6DDCE"/>
<path fill-rule="evenodd" clip-rule="evenodd" d="M15.0469 21.41C19.0109 23.3788 19.9343 29.1417 19.9343 29.1417C19.9343 29.1417 20.8576 23.3788 24.8216 21.41C20.8576 19.4411 19.9343 13.6782 19.9343 13.6782C19.9343 13.6782 19.0109 19.4411 15.0469 21.41Z" fill="#F6DDCE"/>
<path fill-rule="evenodd" clip-rule="evenodd" d="M10.2732 14.2319C10.6178 15.7224 11.8327 19.8137 15.0472 21.4102C12.5007 22.675 11.209 25.5055 10.6109 27.368C9.64968 25.3304 9.09766 22.9526 9.09766 20.4141C9.09766 18.1899 9.52148 16.0891 10.2732 14.2319Z" fill="#F6DDCE"/>
<path fill-rule="evenodd" clip-rule="evenodd" d="M33.8078 28.0729L36.4281 29.5857C36.6519 29.715 36.9384 29.6382 37.0676 29.4144C37.1968 29.1906 37.1201 28.9041 36.8963 28.7748L34.276 27.262C34.0522 27.1328 33.7657 27.2097 33.6365 27.4334C33.5073 27.6572 33.584 27.9437 33.8078 28.0729ZM33.8392 22.0459H36.8649C37.1232 22.0459 37.333 21.8361 37.333 21.5777C37.333 21.3192 37.1232 21.1095 36.8649 21.1095H33.8392C33.5809 21.1095 33.3711 21.3192 33.3711 21.5777C33.3711 21.8361 33.5809 22.0459 33.8392 22.0459ZM34.276 15.8933L36.8963 14.3805C37.1201 14.2512 37.1968 13.9647 37.0676 13.7409C36.9384 13.5172 36.6519 13.4403 36.4281 13.5696L33.8078 15.0824C33.584 15.2116 33.5073 15.4981 33.6365 15.7219C33.7657 15.9456 34.0522 16.0225 34.276 15.8933Z" fill="#EEBCB1"/>
<path fill-rule="evenodd" clip-rule="evenodd" d="M5.67817 27.2615L3.05795 28.7744C2.83413 28.9036 2.75739 29.1901 2.88649 29.4139C3.0157 29.6377 3.30233 29.7145 3.52604 29.5853L6.14637 28.0724C6.37008 27.9432 6.44694 27.6567 6.31772 27.4329C6.18851 27.2092 5.90199 27.1323 5.67817 27.2615ZM6.11491 21.109H3.0893C2.83087 21.109 2.62109 21.3187 2.62109 21.5772C2.62109 21.8356 2.83087 22.0454 3.0893 22.0454H6.11491C6.37334 22.0454 6.58312 21.8356 6.58312 21.5772C6.58312 21.3187 6.37334 21.109 6.11491 21.109ZM6.14637 15.0819L3.52604 13.5691C3.30233 13.4399 3.0157 13.5167 2.88649 13.7404C2.75739 13.9642 2.83413 14.2508 3.05795 14.38L5.67817 15.8928C5.90199 16.022 6.18851 15.9451 6.31772 15.7214C6.44694 15.4976 6.37008 15.2111 6.14637 15.0819Z" fill="#EEBCB1"/>
</svg>
