<svg width="20" height="20" viewBox="0 0 20 20" fill="none" xmlns="http://www.w3.org/2000/svg">
<path d="M19.9998 9.9999C19.9998 15.5227 15.5229 19.9998 10.0001 19.9998C9.6729 19.9998 9.34948 19.9841 9.03026 19.9534C8.36221 19.8892 7.71305 19.7593 7.09013 19.5697C6.01954 19.2446 5.02471 18.7447 4.13923 18.1031C3.47455 17.6219 2.87177 17.0606 2.34414 16.4337C1.64839 15.6064 1.08424 14.6645 0.683786 13.6407C0.643069 13.537 0.604242 13.4327 0.567303 13.3273C0.500352 13.1386 0.439487 12.9472 0.384288 12.7535C0.369807 12.7027 0.355745 12.6517 0.341893 12.6007C0.119001 11.7715 0 10.8996 0 9.9999C0 4.47735 4.47693 0 9.9999 0C10.0144 0 10.0284 0 10.0429 0.000209879C10.0983 0.000209879 10.1537 0.0010494 10.2089 0.00230867C10.3852 0.00566673 10.5609 0.013852 10.7349 0.0266546C10.7578 0.0283337 10.7802 0.0300127 10.8031 0.0319016C10.9139 0.0407165 11.0243 0.0512105 11.1341 0.0638032C11.3129 0.0839516 11.49 0.108717 11.6657 0.13852C12.5795 0.291732 13.4516 0.568982 14.2634 0.952431C15.0091 1.3044 15.7042 1.74556 16.3347 2.26292C17.1876 2.96223 17.923 3.79965 18.5063 4.74117C18.852 5.29861 19.1439 5.89277 19.3756 6.5159C19.779 7.60077 19.9996 8.77483 19.9996 10.0001L19.9998 9.9999Z" fill="#FFD93E"/>
<path d="M9.54726 1.68764L10.8057 0.0316917C10.7828 0.0300127 10.7604 0.0283337 10.7375 0.0264448C10.5635 0.013852 10.388 0.00566673 10.2115 0.00209879C10.1563 0.000839516 10.1009 0 10.0455 0L8.63281 1.79489C8.90272 1.76487 9.2698 1.68953 9.54726 1.68764Z" fill="#FFBE17"/>
<path d="M1.92204 10.5698L0.34375 12.6006C0.357602 12.6516 0.371664 12.7026 0.386146 12.7534C0.441344 12.9471 0.502209 13.1385 0.56916 13.3272L2.06056 11.4524C2.00809 11.2368 1.96234 10.8443 1.92204 10.57V10.5698Z" fill="#FFBE17"/>
<path d="M8.42312 17.8647L7.09375 19.5698C7.71688 19.7593 8.36583 19.8892 9.03387 19.9535L10.4837 18.0333C9.73088 18.0333 9.12874 17.9903 8.42291 17.8647H8.42312Z" fill="#FFBE17"/>
<path d="M18.4223 7.64867L19.3804 6.51595C19.1487 5.89261 18.8567 5.29865 18.5111 4.74121L17.6367 5.76521C17.9723 6.35161 18.2378 6.98335 18.4225 7.64867H18.4223Z" fill="#FFBE17"/>
<path d="M3.57742 14.8313L2.34375 16.4337C2.87139 17.0606 3.47416 17.6218 4.13885 18.1031L5.3404 16.5422C4.67005 16.0637 4.07546 15.4863 3.57742 14.8311V14.8313Z" fill="#FFBE17"/>
<path d="M15.4297 3.33176L16.3341 2.26263C15.7034 1.74528 15.0083 1.30412 14.2628 0.952148L13.3047 2.10627C14.0718 2.42256 14.8013 2.80937 15.4297 3.33197V3.33176Z" fill="#FFBE17"/>
<path d="M2.16236 11.7765C3.02874 15.3595 6.25605 18.0206 10.1052 18.0206C14.6183 18.0206 18.2767 14.3622 18.2767 9.84916C18.2767 5.33614 14.6181 1.67773 10.105 1.67773C5.59199 1.67773 1.93359 5.33614 1.93359 9.84916C1.93359 10.4234 2.02279 10.9962 2.12353 11.5603C2.13634 11.6323 2.14935 11.7045 2.16215 11.7765H2.16236Z" fill="#F39B16"/>
<path d="M10.5816 1.67783C10.425 1.67783 10.2053 1.65706 10.0508 1.66566C14.3466 1.90744 17.8197 5.49281 17.8197 9.84905C17.8197 14.2053 14.4108 17.7653 10.115 18.0073C10.2695 18.0159 10.425 18.0205 10.5816 18.0205C15.0946 18.0205 18.753 14.3621 18.753 9.84905C18.753 5.33603 15.0944 1.67783 10.5816 1.67783Z" fill="#F49806"/>
<path d="M2.40981 9.84916C2.40981 5.64487 5.58507 2.18207 9.66826 1.72832L10.529 1.68865C10.3886 1.68151 10.2473 1.67773 10.105 1.67773C5.59199 1.67773 1.93359 5.33614 1.93359 9.84916C1.93359 10.4234 2.02279 10.9962 2.12353 11.5603C2.13634 11.6323 2.14935 11.7045 2.16215 11.7765C3.02853 15.3595 6.25584 18.0206 10.105 18.0206C10.1846 18.0206 10.2641 18.0193 10.343 18.017C5.94018 17.8911 2.40981 14.2824 2.40981 9.84916Z" fill="#F49806"/>
<path d="M11.9636 10.4513C12.0198 10.2169 12.0477 9.95998 12.0477 9.68084C12.0477 8.87911 11.8219 8.25954 11.3705 7.82174C10.919 7.38414 10.2969 7.16524 9.50463 7.16524H8.56459V12.1687H8.69303L5.85547 13.6587V4.81543H9.71179C10.7347 4.81543 11.6307 5.02069 12.4003 5.43059C13.1695 5.84069 13.7618 6.41429 14.1763 7.15138C14.4865 7.70294 14.6807 8.31369 14.759 8.98363L11.9636 10.4513Z" fill="#C07F18"/>
<path d="M14.7984 9.68062C14.7984 10.6205 14.5887 11.4591 14.1694 12.1962C13.7501 12.9335 13.1557 13.5117 12.3865 13.9309C11.6169 14.3504 10.7255 14.5599 9.71179 14.5599H5.85547V13.6585L8.69303 12.1685H9.50463C10.2969 12.1685 10.919 11.9521 11.3705 11.5189C11.6628 11.2385 11.8607 10.8826 11.9636 10.4511L14.759 8.9834C14.7852 9.20902 14.7984 9.44156 14.7984 9.68062Z" fill="#C07F18"/>
<path d="M12.7644 10.4513C12.8206 10.2169 12.8485 9.95998 12.8485 9.68084C12.8485 8.87911 12.6227 8.25954 12.1712 7.82174C11.7198 7.38414 11.0977 7.16524 10.3054 7.16524H9.36537V12.1687H9.49381L6.65625 13.6587V4.81543H10.5126C11.5355 4.81543 12.4315 5.02069 13.2011 5.43059C13.9703 5.84069 14.5626 6.41429 14.9771 7.15138C15.2873 7.70294 15.4815 8.31369 15.5597 8.98363L12.7644 10.4513Z" fill="#FDE782"/>
<path d="M15.5992 9.68062C15.5992 10.6205 15.3895 11.4591 14.9702 12.1962C14.5508 12.9335 13.9565 13.5117 13.1873 13.9309C12.4176 14.3504 11.5263 14.5599 10.5126 14.5599H6.65625V13.6585L9.49381 12.1685H10.3054C11.0977 12.1685 11.7198 11.9521 12.1712 11.5189C12.4636 11.2385 12.6615 10.8826 12.7644 10.4511L15.5597 8.9834C15.586 9.20902 15.5992 9.44156 15.5992 9.68062Z" fill="#FDE782"/>
<path d="M12.4362 10.4513C12.4925 10.2169 12.5204 9.95998 12.5204 9.68084C12.5204 8.87911 12.2946 8.25954 11.8431 7.82174C11.3917 7.38414 10.7696 7.16524 9.97729 7.16524H9.03724V12.1687H9.16569L6.32812 13.6587V4.81543H10.1844C11.2074 4.81543 12.1034 5.02069 12.873 5.43059C13.6422 5.84069 14.2345 6.41429 14.649 7.15138C14.9592 7.70294 15.1533 8.31369 15.2316 8.98363L12.4362 10.4513Z" fill="#FFD93E"/>
<path d="M15.2711 9.68062C15.2711 10.6205 15.0614 11.4591 14.6421 12.1962C14.2227 12.9335 13.6283 13.5117 12.8591 13.9309C12.0895 14.3504 11.1982 14.5599 10.1844 14.5599H6.32812V13.6585L9.16569 12.1685H9.97729C10.7696 12.1685 11.3917 11.9521 11.8431 11.5189C12.1355 11.2385 12.3334 10.8826 12.4362 10.4511L15.2316 8.9834C15.2578 9.20902 15.2711 9.44156 15.2711 9.68062Z" fill="#FFBE17"/>
</svg>
