<svg width="40" height="40" viewBox="0 0 40 40" fill="none" xmlns="http://www.w3.org/2000/svg">
<path d="M38.75 34.0625H1.25V36.5625H38.75V34.0625Z" fill="white"/>
<path d="M20 3.4375V34.0625H2.8125V7.08406C2.8125 6.78188 3.02844 6.52313 3.32563 6.46906L20 3.4375Z" fill="#2C3E50"/>
<path d="M12.8125 24.1251V34.0626H5.625V24.8788C5.625 24.5642 5.85906 24.2985 6.17125 24.2588L12.1088 23.5051C12.4822 23.4576 12.8125 23.7485 12.8125 24.1251Z" fill="#1A242D"/>
<path d="M37.1875 7.08406V34.0625H20V3.4375L36.6744 6.46906C36.9716 6.52313 37.1875 6.78219 37.1875 7.08406Z" fill="#3F5C6C"/>
<path d="M34.3749 30.5748C34.373 30.5748 34.3708 30.5748 34.369 30.5748L31.5565 30.5217C31.3836 30.5182 31.2468 30.3757 31.2499 30.2032C31.2533 30.0311 31.399 29.8964 31.5683 29.8967L34.3808 29.9498C34.5536 29.9532 34.6905 30.0957 34.6874 30.2682C34.684 30.4386 34.5449 30.5748 34.3749 30.5748ZM31.5627 26.9842C31.5586 26.9842 31.5549 26.9842 31.5508 26.9842L28.7383 26.8811C28.5658 26.8745 28.4315 26.7298 28.4377 26.5573C28.4443 26.3848 28.5936 26.2464 28.7615 26.2564L31.574 26.3595C31.7465 26.3661 31.8808 26.5107 31.8746 26.6832C31.8683 26.8517 31.7299 26.9842 31.5627 26.9842ZM28.7499 30.4717C28.748 30.4717 28.7461 30.4717 28.7443 30.4717L25.9318 30.4217C25.7593 30.4186 25.6218 30.2764 25.6249 30.1039C25.628 29.9311 25.7577 29.7961 25.943 29.797L28.7555 29.847C28.9283 29.8501 29.0655 29.9923 29.0624 30.1651C29.0593 30.3354 28.9199 30.4717 28.7499 30.4717ZM25.9377 26.7779C25.9336 26.7779 25.9299 26.7779 25.9258 26.7779L23.1133 26.6748C22.9408 26.6682 22.8065 26.5236 22.8127 26.3511C22.819 26.1786 22.9705 26.0423 23.1365 26.0501L25.949 26.1533C26.1215 26.1598 26.2558 26.3045 26.2496 26.477C26.2433 26.6454 26.1049 26.7779 25.9377 26.7779Z" fill="#2C3E50"/>
<path d="M20 6.5625V10.625L2.8125 12.8125V9.375L20 6.5625Z" fill="#E57E25"/>
<path d="M37.1875 9.375V12.8125L20 10.625V6.5625L37.1875 9.375Z" fill="#F0C419"/>
<path d="M2.8125 16.5626L6.875 15.897V18.8595L2.8125 19.3751V16.5626Z" fill="#E57E25"/>
<path d="M10.3125 15.3344L14.375 14.6719V17.9031L10.3125 18.4219V15.3344Z" fill="#E57E25"/>
<path d="M37.1875 16.5626L33.125 15.897V18.8595L37.1875 19.3751V16.5626Z" fill="#F0C419"/>
<path d="M29.6875 15.3344L25.625 14.6719V17.9031L29.6875 18.4219V15.3344Z" fill="#F0C419"/>
<path d="M20 13.75V17.1875L17.8125 17.4656V14.1094L20 13.75Z" fill="#E57E25"/>
<path d="M22.1875 14.1094V17.4656L20 17.1875V13.75L22.1875 14.1094Z" fill="#F0C419"/>
</svg>
