<svg width="40" height="40" viewBox="0 0 40 40" fill="none" xmlns="http://www.w3.org/2000/svg">
<g clip-path="url(#clip0_54759_1494)">
<path d="M36.5687 29.7375C33.1281 35.5875 26.7813 39.2188 20 39.2188C9.40313 39.2188 0.78125 30.5969 0.78125 20C0.78125 9.40313 9.40313 0.78125 20 0.78125C21.6125 0.78125 23.2125 0.98125 24.7563 1.375C24.9688 1.42813 25.1156 1.62188 25.1094 1.84375C25.1031 2.0625 24.9437 2.24688 24.7281 2.2875C17.7344 3.6125 12.6562 9.74688 12.6562 16.875C12.6562 25.0594 19.3156 31.7188 27.5 31.7188C30.5187 31.7188 33.425 30.8187 35.9 29.1156C36.0812 28.9875 36.325 29.0063 36.4844 29.1563C36.6469 29.3063 36.6812 29.5469 36.5687 29.7375Z" fill="#3F5C6C"/>
<path d="M25 37.3435C14.4031 37.3435 5.78125 28.7216 5.78125 18.1248C5.78125 10.8501 9.84469 4.50695 15.8209 1.24414C7.2275 3.1582 0.78125 10.8382 0.78125 19.9998C0.78125 30.5966 9.40313 39.2185 20 39.2185C23.2412 39.2185 26.3825 38.387 29.1553 36.882C27.8037 37.1838 26.4116 37.3435 25 37.3435Z" fill="#2C3E50"/>
<path d="M39.2188 5.9375C39.2188 6.15312 39.0719 6.34062 38.8594 6.39375C37.2125 6.79375 35.9281 8.125 35.5875 9.78437L35.4594 10.4062C35.4156 10.625 35.2219 10.7812 35 10.7812C34.7781 10.7812 34.5844 10.625 34.5406 10.4062L34.4125 9.78437C34.0719 8.125 32.7875 6.79375 31.1406 6.39375C30.9281 6.34062 30.7812 6.15312 30.7812 5.9375C30.7812 5.72188 30.9281 5.53438 31.1406 5.48125C32.7875 5.08125 34.0719 3.75 34.4125 2.09063L34.5406 1.46875C34.5844 1.25 34.7781 1.09375 35 1.09375C35.2219 1.09375 35.4156 1.25 35.4594 1.46875L35.5875 2.09063C35.9281 3.75 37.2125 5.08125 38.8594 5.48125C39.0719 5.53438 39.2188 5.72188 39.2188 5.9375ZM12.6562 34.375C12.6562 34.5906 12.5094 34.7781 12.2969 34.8312C10.65 35.2312 9.36562 36.5625 9.025 38.2219L8.89687 38.8438C8.85312 39.0625 8.65937 39.2188 8.4375 39.2188C8.21563 39.2188 8.02188 39.0625 7.97813 38.8438L7.85 38.2219C7.50938 36.5625 6.225 35.2312 4.57812 34.8312C4.36562 34.7781 4.21875 34.5906 4.21875 34.375C4.21875 34.1594 4.36562 33.9719 4.57812 33.9188C6.225 33.5188 7.50938 32.1875 7.85 30.5281L7.97813 29.9062C8.02188 29.6875 8.21563 29.5312 8.4375 29.5312C8.65937 29.5312 8.85312 29.6875 8.89687 29.9062L9.025 30.5281C9.36562 32.1875 10.65 33.5188 12.2969 33.9188C12.5094 33.9719 12.6562 34.1594 12.6562 34.375Z" fill="#F0C419"/>
<path d="M31.875 27.8125V29.375H17.5V27.8125C17.5 27.4687 17.7812 27.1875 18.125 27.1875H31.25C31.5938 27.1875 31.875 27.4687 31.875 27.8125Z" fill="#26B99A"/>
<path d="M32.1875 29.8438H17.1875C16.9284 29.8438 16.7188 29.6338 16.7188 29.375C16.7188 29.1162 16.9284 28.9062 17.1875 28.9062H32.1875C32.4463 28.9062 32.6562 29.1162 32.6562 29.375C32.6562 29.6338 32.4463 29.8438 32.1875 29.8438Z" fill="#ED9D3E"/>
<path d="M30.9375 14.375H18.4375V27.1875H30.9375V14.375Z" fill="#33907C"/>
<path d="M30.9375 14.375V17.5719C30.9375 17.5719 18.4375 18.1094 18.4375 23.8844V14.375H30.9375Z" fill="#3F5C6C"/>
<path d="M23.4375 27.1875H18.4375V23.8856C18.4375 22.0516 19.3822 20.3469 20.9375 19.375C22.4928 20.3469 23.4375 22.0516 23.4375 23.8856V27.1875Z" fill="#FFD066"/>
<path d="M20.9375 19.375C20.7738 19.4772 20.6184 19.5894 20.4688 19.7072C21.7419 20.7087 22.5 22.2447 22.5 23.8856V27.1875H23.4375V23.8856C23.4375 22.0516 22.4928 20.3469 20.9375 19.375Z" fill="#ED9D3E"/>
<path d="M30.9375 27.1875H25.9375V23.8856C25.9375 22.0516 26.8822 20.3469 28.4375 19.375C29.9928 20.3469 30.9375 22.0516 30.9375 23.8856V27.1875Z" fill="#FFD066"/>
<path d="M28.4375 19.375C28.2738 19.4772 28.1184 19.5894 27.9688 19.7072C29.2419 20.7087 30 22.2447 30 23.8856V27.1875H30.9375V23.8856C30.9375 22.0516 29.9928 20.3469 28.4375 19.375Z" fill="#ED9D3E"/>
<path d="M32.2751 16.875H17.1001C16.8626 16.875 16.7095 16.6156 16.8282 16.4062L17.8126 14.6875H31.5626L32.547 16.4062C32.6657 16.6156 32.5126 16.875 32.2751 16.875Z" fill="#FFD066"/>
<path d="M30.9376 16.875H17.1001C16.8626 16.875 16.7095 16.6156 16.8282 16.4062L17.8126 14.6875H27.5001C27.5001 14.6875 27.8657 16.875 30.9376 16.875Z" fill="#ED9D3E"/>
<path d="M31.5625 14.6875H17.8125C17.8125 12.2437 19.3284 10.0566 21.6162 9.19844L22.8125 8.75H26.5625L27.7588 9.19844C30.0466 10.0566 31.5625 12.2437 31.5625 14.6875Z" fill="#26B99A"/>
<path d="M27.5 14.5719V14.6875H17.8125C17.8125 13.4656 18.1906 12.3062 18.8563 11.35C19.5219 10.3875 20.4719 9.62813 21.6156 9.2L22.8125 8.75H25.3125C26.0187 9.55625 26.5625 10.475 26.9344 11.4625C27.3063 12.45 27.5 13.5 27.5 14.5719Z" fill="#3F5C6C"/>
<path d="M24.3281 14.6875H17.8125C17.8125 13.4656 18.1906 12.3062 18.8563 11.35C19.5219 10.3875 20.4719 9.62813 21.6156 9.2L22.8125 8.75H24.9813C24.9813 8.75 20.4844 9.775 20.6844 12.3063C20.85 14.3875 22.7594 14.6875 24.3281 14.6875Z" fill="#2C3E50"/>
<path d="M27.5 14.5719V14.6875H21.875V14.5719C21.875 14.4563 21.8781 14.3406 21.8844 14.2281C21.9531 12.3781 22.6063 10.5969 23.7438 9.1375C23.8438 9.00625 23.9531 8.875 24.0625 8.75H25.3125C26.0187 9.55625 26.5625 10.475 26.9344 11.4625C27.3063 12.45 27.5 13.5 27.5 14.5719Z" fill="#33907C"/>
<path d="M21.8844 14.2281C22.5906 14.6062 23.5062 14.6875 24.3281 14.6875H21.875V14.5719C21.875 14.4563 21.8781 14.3406 21.8844 14.2281ZM24.9813 8.75C24.9813 8.75 24.4406 8.87187 23.7438 9.1375C23.8438 9.00625 23.9531 8.875 24.0625 8.75H24.9813Z" fill="#3F5C6C"/>
<path d="M27.5 7.2125C27.5 7.78437 27.2156 8.31563 26.7406 8.63125L26.5625 8.75H22.8125L22.6344 8.63125C22.1594 8.31563 21.875 7.78437 21.875 7.2125C21.875 6.9125 21.9531 6.625 22.0937 6.375C22.2375 6.125 22.4437 5.90625 22.7 5.75312C23.1875 5.4625 23.6188 5.08437 23.975 4.64375L24.6031 3.85312L24.6875 3.75L24.975 4.1125L24.9813 4.11563L24.9875 4.125V4.12813L25.4 4.64375C25.7562 5.08437 26.1875 5.4625 26.675 5.75312C26.9313 5.90625 27.1375 6.125 27.2813 6.375C27.4219 6.625 27.5 6.9125 27.5 7.2125Z" fill="#FFD066"/>
<path d="M24.9813 8.7499H22.8125L22.6344 8.63115C22.1594 8.31553 21.875 7.78428 21.875 7.2124C21.875 6.9124 21.9531 6.6249 22.0937 6.3749C22.2375 6.1249 22.4437 5.90615 22.7 5.75303C23.1875 5.4624 23.6188 5.08428 23.975 4.64365L24.6031 3.85303L24.975 4.1124L24.9813 4.11553L24.9875 4.1249V4.12803C25.0062 4.16865 25.0219 4.28115 24.7594 4.43115C24.5281 4.56553 23.9031 5.58115 23.1969 6.14365C22 7.09365 22.8844 8.7499 24.9813 8.7499Z" fill="#ED9D3E"/>
<path d="M25.3859 5.62353C25.3962 5.56947 25.4606 5.54447 25.5037 5.57853C25.6943 5.7301 26.1687 6.09385 26.4734 6.21541C26.8443 6.36322 26.6768 6.75041 26.5946 6.89978C26.5755 6.93447 26.533 6.94728 26.498 6.92853C26.2421 6.79353 25.2677 6.23541 25.3859 5.62353Z" fill="#FFF7E1"/>
<path d="M24.6875 4.21875C24.4287 4.21875 24.2188 4.00875 24.2188 3.75V1.875C24.2188 1.61625 24.4287 1.40625 24.6875 1.40625C24.9463 1.40625 25.1562 1.61625 25.1562 1.875V3.75C25.1562 4.00875 24.9463 4.21875 24.6875 4.21875Z" fill="#789AF9"/>
</g>
<defs>
<clipPath id="clip0_54759_1494">
<rect width="40" height="40" fill="white"/>
</clipPath>
</defs>
</svg>
