<svg width="40" height="40" viewBox="0 0 40 40" fill="none" xmlns="http://www.w3.org/2000/svg">
<path d="M39.2156 9.1125L37.0312 30.0281C37.0031 30.9 35.7344 31.4719 34.0656 31.7719H34.0625C33.1 31.9469 32.0031 32.0312 30.9375 32.0312C28.0219 32.0312 24.8875 31.4031 24.8437 30.0281L24.825 29.8375L23.5781 17.9031L22.6594 9.1125C22.6437 8.97812 22.6875 8.84688 22.7781 8.75C22.8656 8.65 22.9937 8.59375 23.125 8.59375H38.75C38.8812 8.59375 39.0094 8.65 39.0969 8.75C39.1875 8.84688 39.2312 8.97812 39.2156 9.1125Z" fill="white"/>
<path d="M36.094 16.6L35.1565 28.775C35.1221 29.4844 33.7033 29.8438 30.9377 29.8438C30.1096 29.8438 29.4002 29.8125 28.8158 29.7469C27.9815 29.6563 27.3971 29.5 27.0596 29.2812C26.844 29.1375 26.7283 28.9719 26.719 28.775L25.9002 18.1313L25.7815 16.6C25.7721 16.4687 25.819 16.3406 25.9065 16.2437C25.994 16.1469 26.119 16.0938 26.2502 16.0938H35.6252C35.7565 16.0938 35.8815 16.1469 35.969 16.2437C36.0565 16.3406 36.1033 16.4687 36.094 16.6Z" fill="#E57E25"/>
<path d="M36.0938 16.5625C36.0938 17.9594 33.4219 18.5938 30.9375 18.5938C29.3156 18.5938 27.6125 18.3219 26.6281 17.7469C26.1031 17.4406 25.7812 17.0469 25.7812 16.5625C25.7812 15.8531 26.4687 15.3406 27.475 15.0063C28.4469 14.6844 29.7125 14.5312 30.9375 14.5312C33.4219 14.5313 36.0938 15.1656 36.0938 16.5625Z" fill="#F0C419"/>
<path d="M30.9375 11.5625C35.2522 11.5625 38.75 10.4782 38.75 9.14062C38.75 7.80306 35.2522 6.71875 30.9375 6.71875C26.6228 6.71875 23.125 7.80306 23.125 9.14062C23.125 10.4782 26.6228 11.5625 30.9375 11.5625Z" fill="#E9DDC3"/>
<path d="M24.1729 10.3516C25.5238 11.0753 28.0463 11.5625 30.9375 11.5625C33.8288 11.5625 36.3513 11.0753 37.7022 10.3516C36.3513 9.62781 33.8288 9.14062 30.9375 9.14062C28.0463 9.14062 25.5238 9.62781 24.1729 10.3516Z" fill="#F9F3E6"/>
<path d="M30.9375 12.0312C26.8222 12.0312 22.6562 11.0381 22.6562 9.14062C22.6562 7.24312 26.8222 6.25 30.9375 6.25C35.0528 6.25 39.2188 7.24312 39.2188 9.14062C39.2188 11.0381 35.0528 12.0312 30.9375 12.0312ZM30.9375 7.1875C26.4544 7.1875 23.5938 8.34437 23.5938 9.14062C23.5938 9.93688 26.4544 11.0938 30.9375 11.0938C35.4206 11.0938 38.2812 9.93688 38.2812 9.14062C38.2812 8.34437 35.4206 7.1875 30.9375 7.1875Z" fill="#E0CFAB"/>
<path d="M16.3346 24.7966C15.769 25.4154 15.0659 25.8623 14.3065 26.1248C12.9721 26.5873 11.4596 26.4842 10.1846 25.7529C8.83151 24.9779 7.99714 23.6998 7.74401 22.3185C7.62526 21.6685 7.39089 21.0498 7.05339 20.4966C6.71276 19.9435 6.27214 19.456 5.73776 19.0685C5.64089 18.9966 5.61901 18.8591 5.69089 18.7591L8.00964 15.581C8.08151 15.4841 8.21901 15.4623 8.31589 15.5341C9.39401 16.3185 10.7346 16.6091 12.0596 16.4466C13.2721 16.2966 14.5378 16.5904 15.6034 17.3654C16.2253 17.8185 16.7128 18.3904 17.0534 19.0279C18.0253 20.8248 17.8471 23.1404 16.3346 24.7966Z" fill="#ED9D3E"/>
<path d="M16.3344 24.7971C15.7688 25.4158 15.0656 25.8627 14.3062 26.1252C14.0094 26.0596 13.6219 25.9783 13.2219 25.8939C12.8625 25.3189 12.6562 24.6377 12.6562 23.9064C12.6562 21.8596 14.2937 20.2002 16.3312 20.1596C16.4937 19.7346 16.7438 19.3502 17.0531 19.0283C18.025 20.8252 17.8469 23.1408 16.3344 24.7971Z" fill="#C47B2C"/>
<path d="M9.84375 23.9062C9.84375 24.8938 9.26875 25.75 8.4375 26.1531C8.10625 26.3156 7.7375 26.4062 7.34375 26.4062C5.9625 26.4062 4.84375 25.2875 4.84375 23.9062C4.84375 22.525 5.9625 21.4062 7.34375 21.4062C7.7375 21.4062 8.10625 21.4969 8.4375 21.6594C9.26875 22.0625 9.84375 22.9187 9.84375 23.9062Z" fill="#A9DB89"/>
<path d="M9.84375 23.9061C9.84375 24.8936 9.26875 25.7498 8.4375 26.1529C7.60625 25.7498 7.03125 24.8936 7.03125 23.9061C7.03125 22.9186 7.60625 22.0623 8.4375 21.6592C9.26875 22.0623 9.84375 22.9186 9.84375 23.9061Z" fill="#719B56"/>
<path d="M10.4688 26.4062C11.8495 26.4062 12.9688 25.287 12.9688 23.9062C12.9688 22.5255 11.8495 21.4062 10.4688 21.4062C9.08804 21.4062 7.96875 22.5255 7.96875 23.9062C7.96875 25.287 9.08804 26.4062 10.4688 26.4062Z" fill="#A9DB89"/>
<path d="M29.2188 23.9062C29.2188 26.4937 27.1187 28.5938 24.5312 28.5938C22.7938 28.5938 21.2812 27.65 20.4781 26.25C20.4437 26.2 20.4156 26.1469 20.3875 26.0938C20.35 26.1469 20.3094 26.2 20.2688 26.25C19.5813 27.1063 18.525 27.6562 17.3438 27.6562C16.0031 27.6562 14.825 26.9531 14.1594 25.8938C13.8 25.3188 13.5938 24.6375 13.5938 23.9062C13.5938 21.8594 15.2312 20.2 17.2687 20.1594C17.6094 19.2844 18.2969 18.5844 19.1594 18.2281C19.5625 18.0594 20.0031 17.9688 20.4688 17.9688C21.6156 17.9688 22.6312 18.5344 23.2562 19.4C23.6625 19.2844 24.0875 19.2188 24.5312 19.2188C27.1187 19.2187 29.2188 21.3188 29.2188 23.9062Z" fill="#EEEDF4"/>
<path d="M22.9875 23.9062L21.6156 26.2437C21.6156 26.2437 21.1469 26.2468 20.4781 26.2499H20.2688C18.5844 26.253 15.9094 26.2593 15.8187 26.2437C15.7562 26.2312 14.9844 26.0687 14.1594 25.8937C13.8 25.3187 13.5938 24.6374 13.5938 23.9062C13.5938 21.8593 15.2312 20.1999 17.2687 20.1593C17.6094 19.2843 18.2969 18.5843 19.1594 18.228C19.1594 18.228 17.7094 23.9062 22.9875 23.9062Z" fill="#C0C0CE"/>
<path d="M32.5688 24.65L32.3469 24.9531C30.7532 27.1594 28.5281 28.7969 26.0188 29.6906C26.0094 29.6969 25.9969 29.7 25.9844 29.7C25.9688 29.7063 25.9531 29.7125 25.9375 29.7187V31.5625C25.9375 32.5094 25.1656 33.2812 24.2188 33.2812H10.7813C9.8344 33.2812 9.06252 32.5094 9.06252 31.5625V29.7187C8.78752 29.6219 8.51565 29.5188 8.2469 29.4C8.24065 29.3969 8.2344 29.3937 8.22815 29.3937C6.02815 28.4594 4.08752 26.9375 2.65315 24.9531L2.43127 24.65C2.32815 24.5062 2.31565 24.3187 2.39377 24.1625C2.47502 24.0062 2.63752 23.9062 2.81252 23.9062H32.1875C32.3625 23.9062 32.525 24.0062 32.6063 24.1625C32.6844 24.3187 32.6719 24.5062 32.5688 24.65Z" fill="#3F5C6C"/>
<path d="M25.9845 29.7002C25.9688 29.7064 25.9532 29.7127 25.9376 29.7189V30.3721C24.7188 30.7346 23.447 30.9221 22.1782 30.9221H20.3032C20.1313 30.9221 19.9907 30.7846 19.9907 30.6096C19.9907 30.4377 20.1313 30.2971 20.3032 30.2971H22.1782C23.4657 30.2971 24.7563 30.0939 25.9845 29.7002Z" fill="#2C3E50"/>
<path d="M20.7813 21.4063C20.7013 21.4063 20.6213 21.3757 20.5604 21.3148L20.0916 20.846C19.9695 20.7238 19.9695 20.5263 20.0916 20.4041C20.2138 20.282 20.4113 20.282 20.5335 20.4041L21.0023 20.8729C21.1245 20.9951 21.1245 21.1926 21.0023 21.3148C20.9413 21.3757 20.8613 21.4063 20.7813 21.4063ZM24.8438 22.0313C24.7638 22.0313 24.6838 22.0007 24.6229 21.9398C24.5007 21.8176 24.5007 21.6201 24.6229 21.4979L24.9354 21.1854C25.0576 21.0632 25.2551 21.0632 25.3773 21.1854C25.4995 21.3076 25.4995 21.5051 25.3773 21.6273L25.0648 21.9398C25.0038 22.0007 24.9238 22.0313 24.8438 22.0313Z" fill="white"/>
<path d="M17.6562 22.6562H17.0312C16.8588 22.6562 16.7188 22.5166 16.7188 22.3438C16.7188 22.1709 16.8588 22.0312 17.0312 22.0312H17.6562C17.8287 22.0312 17.9688 22.1709 17.9688 22.3438C17.9688 22.5166 17.8287 22.6562 17.6562 22.6562Z" fill="#EEEDF4"/>
<path d="M7.58445 16.1623L6.59382 17.5217L6.11257 18.181L5.4532 17.6998L3.58757 16.3404C3.0782 17.0373 2.1032 17.1904 1.4032 16.681C0.706322 16.1717 0.553197 15.1967 1.06257 14.4998C1.25945 14.2279 1.5282 14.0404 1.82507 13.9467C1.82507 13.9435 1.82507 13.9435 1.82507 13.9435C1.98132 13.8904 2.14695 13.8623 2.31257 13.8623C2.16882 13.406 2.23445 12.8935 2.53445 12.4779C3.04382 11.781 4.02195 11.6279 4.71882 12.1373C5.4157 12.6435 5.56882 13.6217 5.05945 14.3185L6.91882 15.6748L7.58445 16.1623Z" fill="#FFC362"/>
<path d="M12.0425 31.9159C11.8097 31.4931 12.1491 30.9866 12.6313 31.0056C12.7953 31.0122 12.96 31.0156 13.125 31.0156C13.2969 31.0156 13.4375 30.875 13.4375 30.7031C13.4375 30.5281 13.2969 30.3906 13.125 30.3906C12.3519 30.3894 11.5922 30.1625 10.9541 29.7263C5.12502 25.7397 9.07502 23.9062 9.07502 23.9062H2.81252C2.63752 23.9062 2.47502 24.0062 2.39377 24.1625C2.31565 24.3187 2.32815 24.5062 2.43127 24.65L2.65315 24.9531C4.08752 26.9375 6.02815 28.4594 8.22815 29.3937C8.2344 29.3937 8.24065 29.3969 8.2469 29.4C8.51565 29.5188 8.78752 29.6219 9.06252 29.7187V30.3688V31.5625C9.06252 32.5078 9.83596 33.2812 10.7813 33.2812H15.6188C13.3813 33.2812 12.4275 32.6153 12.0425 31.9159Z" fill="#2C3E50"/>
<path d="M6.91882 15.6749L6.27882 16.5593C6.08476 16.8274 5.71601 16.8987 5.43757 16.7199C4.70507 16.2499 3.8132 15.7562 3.35788 15.8043C1.72226 15.9771 1.3632 14.5012 1.82507 13.9468C1.5282 14.0405 1.25945 14.228 1.06257 14.4999C0.553197 15.1968 0.706322 16.1718 1.4032 16.6812C2.1032 17.1905 3.0782 17.0374 3.58757 16.3405L6.11257 18.1812L6.59382 17.5218L7.58445 16.1624L6.91882 15.6749Z" fill="#C47B2C"/>
<path d="M12.3472 17.2672C12.3472 17.2672 14.435 16.8416 15.379 18.331C16.3231 19.8207 12.3575 18.1141 12.3472 17.2672Z" fill="#FFC362"/>
</svg>
