<svg width="40" height="40" viewBox="0 0 40 40" fill="none" xmlns="http://www.w3.org/2000/svg">
<path d="M7.8125 7.8125H4.6875V10.3125H7.8125V7.8125Z" fill="#ED9D3E"/>
<path d="M7.8125 7.96875C7.8125 7.96875 4.6875 8.5 4.6875 10.1562V7.8125H7.79375L7.8125 7.96875Z" fill="#D66729"/>
<path d="M8.64189 7.23281C8.55314 7.47781 8.39939 7.69438 8.21532 7.87844C8.15751 7.93625 8.07907 7.96875 7.99751 7.96875H4.50251C4.42095 7.96875 4.34251 7.93625 4.2847 7.87844C4.10064 7.69438 3.94689 7.4775 3.85814 7.2325C3.5922 6.49812 3.83251 5.71344 4.40626 5.25594C5.00626 4.77469 5.54689 4.21844 6.00939 3.60281L6.25001 3.28125L6.49064 3.60312C6.95314 4.21875 7.49376 4.775 8.09376 5.25625C8.66751 5.71344 8.90782 6.49844 8.64189 7.23281Z" fill="#ED9D3E"/>
<path d="M5.70939 7.96875H4.50251C4.42095 7.96875 4.34251 7.93625 4.2847 7.87844C4.10064 7.69438 3.94689 7.4775 3.85814 7.2325C3.5922 6.49812 3.83251 5.71344 4.40626 5.25594C5.00626 4.77469 5.54689 4.21844 6.00939 3.60281L6.25001 3.28125L6.49064 3.60312C6.49064 3.60312 5.95001 4.75719 5.40939 5.05938C4.02939 5.83125 4.11251 7.625 5.70939 7.96875Z" fill="#D66729"/>
<path d="M27.1875 13.7812V15.625H12.8125V13.7812C12.8125 10.7187 14.6094 7.94062 17.4 6.68437C17.9406 6.44062 18.4375 6.11875 18.8781 5.72812C19.3156 5.34062 19.6937 4.88437 20 4.375C20.1844 4.68438 20.3969 4.97188 20.6344 5.2375C20.7844 5.4125 20.95 5.575 21.1219 5.72812C21.5625 6.11875 22.0594 6.44062 22.6 6.68437C23.9937 7.3125 25.1438 8.32187 25.9406 9.55625C26.7375 10.7906 27.1875 12.25 27.1875 13.7812Z" fill="#FFD066"/>
<path d="M20.8719 15.625H12.8125V13.7812C12.8125 10.7187 14.6094 7.94062 17.4 6.68437C17.9406 6.44062 18.4375 6.11875 18.8781 5.72812C19.3156 5.34062 19.6938 4.88437 20 4.375C20.1844 4.68438 20.3969 4.97188 20.6344 5.2375C20.5313 5.31875 20.3425 5.52375 19.7156 5.71875C19.1388 5.89844 19.3353 6.76687 17.2938 7.67937C14.375 8.98437 13.1313 15.625 20.8719 15.625Z" fill="#ED9D3E"/>
<path d="M20 5.3125C18.7075 5.3125 17.6562 4.26125 17.6562 2.96875C17.6562 1.67625 18.7075 0.625 20 0.625C20.2591 0.625 20.4688 0.834688 20.4688 1.09375C20.4688 1.35281 20.2591 1.5625 20 1.5625C19.2247 1.5625 18.5938 2.19344 18.5938 2.96875C18.5938 3.74406 19.2247 4.375 20 4.375C20.7753 4.375 21.4062 3.74406 21.4062 2.96875C21.4062 2.70969 21.6159 2.5 21.875 2.5C22.1341 2.5 22.3438 2.70969 22.3438 2.96875C22.3438 4.26125 21.2925 5.3125 20 5.3125Z" fill="#FFD066"/>
<path d="M28.125 15.625H11.875V23.75H28.125V15.625Z" fill="#3F5C6C"/>
<path d="M18.5938 21.0938H16.4062V18.75C16.4062 18.1459 16.8959 17.6562 17.5 17.6562C18.1041 17.6562 18.5938 18.1459 18.5938 18.75V21.0938Z" fill="#33907C"/>
<path d="M8.70771 10.1562H3.79209C3.52709 10.1562 3.3824 10.4653 3.55209 10.6687L4.6874 12.0312V15H7.8124V12.0312L8.94771 10.6687C9.1174 10.4653 8.97271 10.1562 8.70771 10.1562Z" fill="#3F5C6C"/>
<path d="M9.68763 14.6875L9.66576 14.7344L8.75013 16.875H3.95638C3.83138 16.875 3.71888 16.8 3.66888 16.6844L3.00013 15.1219C2.90951 14.9156 3.06263 14.6875 3.28763 14.6875H9.68763Z" fill="#ED9D3E"/>
<path d="M9.6876 14.6875L9.66572 14.7344L8.7501 16.875H6.61572C6.6751 16.5563 6.78135 16.2469 6.92822 15.9563C7.16572 15.4938 7.51572 15.0906 7.94072 14.7844C7.98447 14.7531 8.02822 14.7188 8.07197 14.6875H9.6876Z" fill="#D66729"/>
<path d="M8.125 16.875H4.375V30.625H8.125V16.875Z" fill="#3F5C6C"/>
<path d="M7.575 16.875H6.61563H4.375V19.6812C4.375 18.2778 5.44219 17.6162 6.57094 17.2375C6.56188 17.3353 6.5625 17.3644 6.5625 17.4625C6.5625 18.0063 6.69375 18.5281 6.94062 18.9937C6.70937 19.2656 6.5625 19.6156 6.5625 20V25H8.125V16.875H7.575Z" fill="#2C3E50"/>
<path d="M14.375 20V24.0625H7.5V20C7.5 19.6562 7.78125 19.375 8.125 19.375H13.75C14.0938 19.375 14.375 19.6562 14.375 20Z" fill="#33907C"/>
<path d="M8.98094 21.0609C8.53406 20.145 8.46563 19.375 8.46563 19.375H8.125C7.78125 19.375 7.5 19.6562 7.5 20V22.7437V24.0625H14.375V20.3437L10.5166 21.6906C9.91969 21.8991 9.25813 21.6291 8.98094 21.0609Z" fill="#3F5C6C"/>
<path d="M14.375 17.4625C14.375 18.0875 14.1281 18.6844 13.6844 19.1281L13.4375 19.375H8.4375L8.19062 19.1281C7.74687 18.6844 7.5 18.0875 7.5 17.4625C7.5 17.0813 7.59375 16.7125 7.7625 16.3844C7.93125 16.0563 8.17812 15.7687 8.4875 15.5469C9.28437 14.975 9.99688 14.3 10.6094 13.5344L10.9375 13.125L11.2656 13.5344C11.8781 14.3 12.5906 14.975 13.3875 15.5469C13.6969 15.7687 13.9437 16.0563 14.1125 16.3844C14.2812 16.7125 14.375 17.0813 14.375 17.4625Z" fill="#FFD066"/>
<path d="M11.0375 19.375H8.4375L8.19062 19.1281C7.74687 18.6844 7.5 18.0875 7.5 17.4625C7.5 17.0813 7.59375 16.7125 7.7625 16.3844C7.93125 16.0563 8.17813 15.7687 8.4875 15.5469C9.28438 14.975 9.99688 14.3 10.6094 13.5344L10.9375 13.125C10.9375 13.125 11.0188 14.675 9.58125 15.7125C8.14375 16.75 8.74375 19.375 11.0375 19.375Z" fill="#ED9D3E"/>
<path d="M21.4062 21.0938H23.5938V18.75C23.5938 18.1459 23.1041 17.6562 22.5 17.6562C21.8959 17.6562 21.4062 18.1459 21.4062 18.75V21.0938Z" fill="#33907C"/>
<path d="M35.3125 7.8125H32.1875V10.3125H35.3125V7.8125Z" fill="#ED9D3E"/>
<path d="M35.3125 7.96875C35.3125 7.96875 32.1875 8.5 32.1875 10.1562V7.8125H35.2938L35.3125 7.96875Z" fill="#D66729"/>
<path d="M36.2077 10.1562H31.2921C31.0271 10.1562 30.8824 10.4653 31.0521 10.6687L32.1874 12.0312V15H35.3124V12.0312L36.4477 10.6687C36.6174 10.4653 36.4727 10.1562 36.2077 10.1562Z" fill="#3F5C6C"/>
<path d="M37 15.1219L36.3313 16.6844C36.2813 16.8 36.1687 16.875 36.0437 16.875H31.25L30.3125 14.6875H36.7125C36.9375 14.6875 37.0906 14.9156 37 15.1219Z" fill="#ED9D3E"/>
<path d="M33.3844 16.875H31.25L30.3125 14.6875H31.9344C31.975 14.7219 32.0156 14.75 32.0594 14.7812C32.7594 15.2844 33.2313 16.0375 33.3844 16.875Z" fill="#D66729"/>
<path d="M35.625 16.875H31.875V30.625H35.625V16.875Z" fill="#3F5C6C"/>
<path d="M35.625 16.875H33.3844H33.0784H31.875V25H33.4375V20C33.4375 19.6156 33.2906 19.2656 33.0594 18.9937C33.0959 18.9244 33.125 18.8516 33.1566 18.7797C33.8947 17.2797 35.625 16.875 35.625 16.875Z" fill="#2C3E50"/>
<path d="M32.5 20V24.0625H25.625V20C25.625 19.6562 25.9062 19.375 26.25 19.375H31.875C32.2188 19.375 32.5 19.6562 32.5 20Z" fill="#33907C"/>
<path d="M26.7441 20.1159C26.6172 19.6719 26.5906 19.375 26.5906 19.375H26.25C25.9062 19.375 25.625 19.6562 25.625 20V20.3V24.0625H32.5V22.6437L27.5425 20.9538C27.1559 20.8219 26.8559 20.5088 26.7441 20.1159Z" fill="#3F5C6C"/>
<path d="M25.625 17.4619C25.625 18.0866 25.8731 18.6856 26.3147 19.1272L26.5625 19.375H31.5625L31.8103 19.1272C32.2519 18.6856 32.5 18.0866 32.5 17.4619C32.5 16.7012 32.1328 15.9875 31.5138 15.5453C30.7169 14.9759 30.0022 14.2994 29.3903 13.5344L29.0625 13.125L28.7347 13.5347C28.1228 14.2994 27.4081 14.9762 26.6112 15.5456C25.9922 15.9875 25.625 16.7012 25.625 17.4619Z" fill="#FFD066"/>
<path d="M30.0168 15.2986C30.0428 15.2301 30.1325 15.2117 30.1812 15.2664C30.3968 15.5079 30.9362 16.0914 31.3081 16.3192C31.7609 16.5964 31.454 17.0658 31.3128 17.2429C31.2799 17.2842 31.2215 17.2914 31.1796 17.2592C30.875 17.0239 29.7243 16.0736 30.0168 15.2986ZM12.0709 15.3004C12.0968 15.232 12.1865 15.2133 12.2353 15.2679C12.4512 15.5092 12.9912 16.092 13.3634 16.3195C13.8165 16.5964 13.5103 17.0661 13.3693 17.2433C13.3365 17.2845 13.2781 17.2917 13.2365 17.2595C12.9309 17.0248 11.779 16.0758 12.0709 15.3004Z" fill="#FFF7E1"/>
<path d="M29.1625 19.375H26.5625L26.3156 19.1281C25.8719 18.6844 25.625 18.0875 25.625 17.4625C25.625 17.0813 25.7187 16.7125 25.8875 16.3844C26.0562 16.0563 26.3031 15.7687 26.6125 15.5469C27.4094 14.975 28.1219 14.3 28.7344 13.5344L29.0625 13.125C29.0625 13.125 29.1438 14.675 27.7063 15.7125C26.2688 16.75 26.8687 19.375 29.1625 19.375ZM36.1419 7.23281C36.0531 7.47781 35.8994 7.69438 35.7153 7.87844C35.6575 7.93625 35.5791 7.96875 35.4975 7.96875H32.0028C31.9212 7.96875 31.8428 7.93625 31.785 7.87844C31.6009 7.69438 31.4472 7.4775 31.3584 7.2325C31.0925 6.49812 31.3328 5.71344 31.9066 5.25594C32.5066 4.77469 33.0472 4.21844 33.5097 3.60281L33.75 3.28125L33.9906 3.60312C34.4531 4.21875 34.9938 4.775 35.5938 5.25625C36.1675 5.71344 36.4078 6.49844 36.1419 7.23281Z" fill="#ED9D3E"/>
<path d="M33.2094 7.96875H32.0025C31.9209 7.96875 31.8425 7.93625 31.7847 7.87844C31.6006 7.69438 31.4469 7.4775 31.3581 7.2325C31.0922 6.49812 31.3325 5.71344 31.9063 5.25594C32.5063 4.77469 33.0469 4.21844 33.5094 3.60281L33.75 3.28125L33.9906 3.60312C33.9906 3.60312 33.45 4.75719 32.9094 5.05938C31.5294 5.83125 31.6125 7.625 33.2094 7.96875Z" fill="#D66729"/>
<path d="M33.8755 3.59375C33.1861 3.59375 32.6255 3.03313 32.6255 2.34375C32.6255 1.65437 33.1861 1.09375 33.8755 1.09375C34.048 1.09375 34.188 1.23375 34.188 1.40625C34.188 1.57875 34.048 1.71875 33.8755 1.71875C33.5308 1.71875 33.2505 1.99906 33.2505 2.34375C33.2505 2.68844 33.5308 2.96875 33.8755 2.96875C34.098 2.96875 34.3055 2.84906 34.4171 2.65625C34.5036 2.50656 34.6949 2.45563 34.8439 2.54219C34.9936 2.62875 35.0446 2.81969 34.958 2.96906C34.7352 3.35438 34.3205 3.59375 33.8755 3.59375Z" fill="#ED9D3E"/>
<path d="M6.5625 37.5V24.0625L20 19.375V37.5H6.5625Z" fill="#33907C"/>
<path d="M6.5625 26.875C6.5625 26.875 7.10781 27.9988 9.74375 27.8284L6.5625 28.8762V26.875Z" fill="#3F5C6C"/>
<path d="M20 19.375V22.1875L6.5625 26.875V24.0625L20 19.375Z" fill="#ED9D3E"/>
<path d="M33.4375 37.5V24.0625L20 19.375V37.5H33.4375Z" fill="#26B99A"/>
<path d="M33.4376 26.875C33.4376 26.875 32.8923 27.9988 30.2563 27.8284L33.4376 28.8762V26.875Z" fill="#33907C"/>
<path d="M20 19.375V22.1875L33.4375 26.875V24.0625L20 19.375Z" fill="#FFD066"/>
<path d="M9.6875 27.8125L11.875 28.4375V36.875H9.6875V27.8125Z" fill="#3F5C6C"/>
<path d="M2.1875 37.5V29.6875L9.6875 27.8125V37.3438L2.1875 37.5Z" fill="#33907C"/>
<path d="M8.125 34.4686V37.3436C8.125 37.6029 7.91562 37.8123 7.65625 37.8123H4.21875C3.95938 37.8123 3.75 37.6029 3.75 37.3436V34.4686C3.75 32.9873 4.46563 31.5842 5.6625 30.7154C5.825 30.5936 6.05 30.5936 6.2125 30.7154C7.40937 31.5842 8.125 32.9873 8.125 34.4686Z" fill="#ED9D3E"/>
<path d="M4.6875 37.3436V34.4686C4.6875 33.0717 5.32969 31.7498 6.40625 30.8748C6.34125 30.822 6.28062 30.7651 6.2125 30.7154C6.05 30.5936 5.825 30.5936 5.6625 30.7154C4.46563 31.5842 3.75 32.9873 3.75 34.4686V37.3436C3.75 37.6029 3.95938 37.8123 4.21875 37.8123H5.15625C4.89688 37.8123 4.6875 37.6029 4.6875 37.3436Z" fill="#D66729"/>
<path d="M18.4375 31.2908V37.0314C18.4375 37.2908 18.2281 37.5002 17.9688 37.5002H13.9062C13.6469 37.5002 13.4375 37.2908 13.4375 37.0314V31.2908C13.4375 29.6596 14.3 28.1127 15.6906 27.2564C15.8437 27.1658 16.0313 27.1658 16.1844 27.2564C17.575 28.1127 18.4375 29.6596 18.4375 31.2908Z" fill="#ED9D3E"/>
<path d="M14.375 37.0314V31.2908C14.375 29.7483 15.1469 28.2824 16.4062 27.4033C16.3338 27.3527 16.26 27.303 16.1844 27.2564C16.0313 27.1658 15.8437 27.1658 15.6906 27.2564C14.3 28.1127 13.4375 29.6596 13.4375 31.2908V37.0314C13.4375 37.2908 13.6469 37.5002 13.9062 37.5002H14.8438C14.5844 37.5002 14.375 37.2908 14.375 37.0314Z" fill="#D66729"/>
<path d="M30.3125 27.8125L28.125 28.4375V36.875H30.3125V27.8125Z" fill="#33907C"/>
<path d="M37.8125 37.5V29.6875L30.3125 27.8125V37.3438L37.8125 37.5Z" fill="#26B99A"/>
<path d="M36.25 34.4686V37.3436C36.25 37.6029 36.0406 37.8123 35.7812 37.8123H32.3438C32.0844 37.8123 31.875 37.6029 31.875 37.3436V34.4686C31.875 32.9873 32.5906 31.5842 33.7875 30.7154C33.95 30.5936 34.175 30.5936 34.3375 30.7154C35.5344 31.5842 36.25 32.9873 36.25 34.4686Z" fill="#FFD066"/>
<path d="M34.3375 30.7154C34.175 30.5936 33.95 30.5936 33.7875 30.7154C33.7194 30.7648 33.6588 30.822 33.5938 30.8748C34.6703 31.7501 35.3125 33.0717 35.3125 34.4686V37.3436C35.3125 37.6029 35.1031 37.8123 34.8438 37.8123H35.7812C36.0406 37.8123 36.25 37.6029 36.25 37.3436V34.4686C36.25 32.9873 35.5344 31.5842 34.3375 30.7154Z" fill="#ED9D3E"/>
<path d="M26.5625 31.2908V37.0314C26.5625 37.2908 26.3531 37.5002 26.0938 37.5002H22.0312C21.7719 37.5002 21.5625 37.2908 21.5625 37.0314V31.2908C21.5625 29.6596 22.425 28.1127 23.8156 27.2564C23.9687 27.1658 24.1563 27.1658 24.3094 27.2564C25.7 28.1127 26.5625 29.6596 26.5625 31.2908Z" fill="#FFD066"/>
<path d="M24.3094 27.2564C24.1563 27.1658 23.9687 27.1658 23.8156 27.2564C23.74 27.303 23.6662 27.3527 23.5938 27.4033C24.8531 28.2824 25.625 29.7483 25.625 31.2908V37.0314C25.625 37.2908 25.4156 37.5002 25.1562 37.5002H26.0938C26.3531 37.5002 26.5625 37.2908 26.5625 37.0314V31.2908C26.5625 29.6596 25.7 28.1127 24.3094 27.2564Z" fill="#ED9D3E"/>
<path d="M37.8125 37.1875V38.75H2.1875V37.1875L20 35.4688L37.8125 37.1875Z" fill="white"/>
<path d="M6.25 3.59375C5.56063 3.59375 5 3.03313 5 2.34375C5 1.65437 5.56063 1.09375 6.25 1.09375C6.4225 1.09375 6.5625 1.23375 6.5625 1.40625C6.5625 1.57875 6.4225 1.71875 6.25 1.71875C5.90531 1.71875 5.625 1.99906 5.625 2.34375C5.625 2.68844 5.90531 2.96875 6.25 2.96875C6.4725 2.96875 6.68 2.84906 6.79156 2.65625C6.87813 2.50656 7.06969 2.45563 7.21844 2.54219C7.36813 2.62875 7.41906 2.81969 7.3325 2.96906C7.10969 3.35438 6.69469 3.59375 6.25 3.59375Z" fill="#ED9D3E"/>
<path d="M7.8125 12.0312C7.8125 12.0312 4.6875 12.3738 4.6875 14.6875V12.0312H7.74594M35.3753 12.0312C35.3753 12.0312 32.2503 12.3738 32.2503 14.6875V12.0312H35.3087" fill="#2C3E50"/>
<path d="M22.9558 8.03721C23.5746 8.31909 25.0465 9.15784 25.5018 10.9166C25.5411 11.0688 25.3996 11.2081 25.2502 11.1594C24.5118 10.9181 22.7586 10.146 22.6765 8.23159C22.6702 8.08315 22.8205 7.97565 22.9558 8.03721Z" fill="#FFF7E1"/>
<path d="M34.5636 5.15732C34.5814 5.10982 34.6436 5.09701 34.6774 5.13513C34.8268 5.30232 35.2002 5.70638 35.458 5.8642C35.7718 6.05638 35.5593 6.38138 35.4614 6.50388C35.4386 6.53232 35.3983 6.53732 35.3693 6.51513C35.158 6.35263 34.3608 5.6942 34.5636 5.15732ZM6.98676 5.15732C7.00457 5.10982 7.06676 5.09701 7.10051 5.13513C7.24989 5.30232 7.62332 5.70638 7.88114 5.8642C8.19489 6.05638 7.98239 6.38138 7.88457 6.50388C7.86176 6.53232 7.82145 6.53732 7.79239 6.51513C7.58114 6.35263 6.78426 5.6942 6.98676 5.15732Z" fill="#FFD066"/>
</svg>
