<svg width="40" height="40" viewBox="0 0 40 40" fill="none" xmlns="http://www.w3.org/2000/svg">
<path d="M35 29.3251V33.4376C35 33.7813 34.7187 34.0626 34.375 34.0626H30.6156C28.4469 34.0626 26.4125 32.9345 25.3406 31.0688C25.2937 30.9876 25.25 30.9063 25.2063 30.822C25.1969 30.8063 25.1875 30.7876 25.1781 30.7688C25.1031 30.6188 25.0313 30.4688 24.9719 30.3188C24.8719 30.0907 24.7906 29.8657 24.7187 29.6407C24.7187 29.6438 24.7187 29.6438 24.7156 29.647C24.3406 30.6126 23.5937 31.4313 22.5781 31.8782L18.3312 33.7751C17.9906 33.9282 17.5906 33.747 17.4812 33.3876L16.5906 30.5001C16.5031 30.2095 16.6344 29.9001 16.9031 29.7595L20.0687 28.1251C20.0219 27.9876 20.0188 27.9782 19.9969 27.9063C19.9969 27.9032 19.9969 27.9001 19.9937 27.897C19.9906 27.8688 19.9812 27.8376 19.9656 27.8095C19.9656 27.8063 19.9625 27.8032 19.9625 27.8001H19.9594C19.8031 27.8282 19.6469 27.8532 19.4906 27.8751C19.4281 27.8876 19.3625 27.897 19.3 27.9063C17.2219 28.2438 15.1437 28.5813 13.0687 28.9188L10.8781 27.3813L10.5938 27.1813V23.2657C11.0375 22.1126 11.725 20.7345 12.8125 19.3751C17.2156 13.8595 26.7406 10.4001 30.9375 14.3751C33.8 17.0845 33.8156 22.9063 31.25 28.4376C32.3094 28.5251 33.3687 28.6157 34.4281 28.7032C34.75 28.7282 35 29.0001 35 29.3251Z" fill="white"/>
<path d="M25.9219 29.2998L25.9209 29.3008C25.9331 28.8655 25.8856 28.4311 25.775 28.0155C25.7012 27.7395 25.5809 27.4289 25.4453 27.112C25.2712 26.7055 25.2212 26.2583 25.3069 25.8245C25.4731 24.9814 25.7728 23.5548 26.1144 22.7983C26.2225 22.5733 25.8934 22.3905 25.7587 22.6008C25.394 23.1777 25.084 23.787 24.8337 24.4211C24.7315 24.6798 24.3712 24.6902 24.2587 24.4355L22.9094 21.3842C22.8719 21.303 22.7781 21.2592 22.6906 21.2873C22.5969 21.3186 22.5469 21.4186 22.5781 21.5123L24.0875 26.0342L24.4656 27.1655C24.7844 27.9498 24.9156 28.8248 24.7187 29.6405C24.79 29.8655 24.8772 30.0914 24.9728 30.3177L24.9719 30.3186C25.0312 30.4686 25.1031 30.6186 25.1781 30.7686C25.1875 30.7873 25.1969 30.8061 25.2062 30.8217C25.25 30.9061 25.2937 30.9873 25.3406 31.0686C26.4125 32.9342 28.4469 34.0623 30.6156 34.0623H34.375C34.7187 34.0623 35 33.7811 35 33.4373C26.9219 33.4373 25.9219 29.2998 25.9219 29.2998ZM19.9606 27.797C18.8125 26.0548 17.8212 24.1995 17 22.2686C16.9281 22.1061 16.6812 22.2092 16.7406 22.3717C17.18 23.5811 17.685 24.7683 18.2528 25.9258C18.4372 26.3014 18.2003 26.748 17.7869 26.813L14.4053 27.3455C14.084 27.3961 13.7856 27.1892 13.7015 26.8752C13.1872 24.9552 11.9347 24.5561 11.9347 24.5561L10.8784 27.3811L13.069 28.9186C15.144 28.5811 17.2222 28.2436 19.3003 27.9061C19.519 27.8717 19.7409 27.8373 19.9597 27.7998C19.96 27.7986 19.96 27.7986 19.9606 27.797Z" fill="#DFE7EB"/>
<path d="M7.1875 34.0625C10.4667 34.0625 13.125 31.4042 13.125 28.125C13.125 24.8458 10.4667 22.1875 7.1875 22.1875C3.90831 22.1875 1.25 24.8458 1.25 28.125C1.25 31.4042 3.90831 34.0625 7.1875 34.0625Z" fill="#F9C87F"/>
<path d="M9.65625 33.5216C8.90312 33.8685 8.06875 34.0622 7.1875 34.0622C3.90938 34.0622 1.25 31.4028 1.25 28.1247C1.25 26.981 1.575 25.9122 2.1375 25.006C2.1375 25.0028 2.1375 24.9997 2.1375 24.9997C2.5875 24.2778 3.19063 23.656 3.89688 23.1841C4.96875 24.8247 6.3875 27.0372 7.09687 28.2778C7.12812 28.3341 7.15937 28.3872 7.1875 28.4372C7.84062 29.5966 8.73437 31.3122 9.65625 33.5216Z" fill="white"/>
<path d="M9.65625 33.522C8.90312 33.8688 8.06875 34.0626 7.1875 34.0626C3.90938 34.0626 1.25 31.4032 1.25 28.1251C1.25 26.9813 1.575 25.9126 2.1375 25.0063C1.77531 25.951 -0.565313 32.4142 9.65625 33.522Z" fill="#DFE7EB"/>
<path d="M10.547 23.2312C10.3642 23.4734 10.1829 23.7159 10.001 23.9581C9.83791 24.1756 9.54947 24.2681 9.2951 24.1709C8.70635 23.9456 8.10322 24.0513 7.8126 24.375C7.4551 24.7741 7.47354 25.6091 8.02604 26.2194C8.23385 26.4491 8.2576 26.7894 8.06729 27.0338C7.74166 27.4519 7.3951 27.9038 7.09697 28.2781C6.3876 27.0375 4.96885 24.825 3.89697 23.1844C4.8376 22.5531 5.97197 22.1875 7.1876 22.1875C8.43447 22.1875 9.59385 22.5719 10.547 23.2312Z" fill="#232437"/>
<path d="M17.503 33.4656C16.8499 33.7375 16.0155 34.0625 15.8374 34.0625H13.8155C13.5187 34.0625 13.3218 33.7312 13.3218 33.3875C13.3218 33.2219 13.3655 33.0562 13.4655 32.9187C13.9687 32.2312 14.5812 31.7156 15.2562 31.4094L16.6718 30.7656L17.503 33.4656Z" fill="#F9C87F"/>
<path d="M17.503 33.4656C16.8499 33.7375 16.0155 34.0625 15.8374 34.0625C16.9468 33.3438 16.6718 30.7656 16.6718 30.7656L17.503 33.4656Z" fill="#E08E15"/>
<path d="M38.75 30.7406V34.0625H37.2375C37.2281 33.9906 36.9563 32.6156 35.7281 32.175C35.4688 32.0781 35.2187 32.0469 35 32.0469V29.0625C35.725 29.1312 36.4469 29.1969 37.1719 29.2656C38.0937 29.4188 38.75 30.0313 38.75 30.7406Z" fill="#F9C87F"/>
<path d="M37.2375 34.0623C37.2281 33.9904 36.9563 32.6154 35.7281 32.1748C35.4688 32.0779 35.2188 32.0467 35 32.0467V30.9248C35 30.9248 37.6469 31.5342 37.2375 34.0623Z" fill="#E08E15"/>
<path d="M38.125 38.75H1.875C1.52969 38.75 1.25 38.4703 1.25 38.125V34.6875C1.25 34.3422 1.52969 34.0625 1.875 34.0625H38.75V38.125C38.75 38.4703 38.4703 38.75 38.125 38.75Z" fill="#E08E15"/>
<path d="M34.0625 37.5H25.3125C25.1397 37.5 25 37.36 25 37.1875C25 37.015 25.1397 36.875 25.3125 36.875H34.0625C34.2353 36.875 34.375 37.015 34.375 37.1875C34.375 37.36 34.2353 37.5 34.0625 37.5Z" fill="white"/>
<path d="M38.75 35.9375H1.25V34.6875C1.25 34.3422 1.52969 34.0625 1.875 34.0625H38.75V35.9375Z" fill="#F0C419"/>
<path d="M13.7406 8.89044C12.9938 11.7529 10.4062 13.7498 7.44375 13.7498C3.85625 13.7498 0.9375 10.8311 0.9375 7.24356C0.9375 4.28106 2.93437 1.69356 5.79687 0.946688C5.90312 0.918563 6.01875 0.949813 6.09688 1.02794C6.175 1.10606 6.20625 1.22169 6.17813 1.32794C6.05 1.81544 5.9875 2.31856 5.9875 2.81856C5.9875 6.06231 8.625 8.69981 11.8687 8.69981C12.3687 8.69981 12.8719 8.63731 13.3594 8.50919C13.4656 8.48106 13.5812 8.51231 13.6594 8.59044C13.7375 8.66856 13.7688 8.78419 13.7406 8.89044Z" fill="#F0C419"/>
<path d="M8.69375 12.8124C5.10625 12.8124 2.1875 9.89367 2.1875 6.30617C2.1875 4.48367 2.94531 2.80492 4.19344 1.60742C2.21719 2.74711 0.9375 4.87398 0.9375 7.24367C0.9375 10.8312 3.85625 13.7499 7.44375 13.7499C9.16937 13.7499 10.7647 13.069 11.9463 11.9374C10.9809 12.4946 9.86812 12.8124 8.69375 12.8124Z" fill="#E08E15"/>
<path d="M14.258 3.12549L13.0727 3.98611C12.9633 4.06549 12.9174 4.20643 12.9589 4.33518L13.4111 5.73174C13.4549 5.85986 13.408 6.00049 13.2986 6.07861C13.1893 6.15986 13.0424 6.15986 12.9299 6.07861L11.7449 5.2183C11.6355 5.13893 11.4871 5.13893 11.3777 5.2183L10.1927 6.07861C10.1396 6.11924 10.0739 6.13799 10.0083 6.13799C9.94582 6.13799 9.8802 6.11924 9.82395 6.07861C9.71457 6.00049 9.67082 5.85986 9.71145 5.73174L10.1633 4.33518C10.2049 4.20643 10.1589 4.06549 10.0496 3.98611L8.86426 3.12549C8.75488 3.04424 8.71113 2.90361 8.75176 2.77549C8.79238 2.64736 8.91426 2.55986 9.04863 2.55986H10.5152C10.6505 2.55986 10.7708 2.47268 10.8124 2.34361L11.2643 0.950488C11.3049 0.822363 11.4268 0.734863 11.5611 0.734863C11.6986 0.734863 11.8174 0.822363 11.858 0.950488L12.3127 2.34424C12.3546 2.47268 12.4746 2.55986 12.6099 2.55986H14.0736C14.2111 2.55986 14.3299 2.64736 14.3736 2.77549C14.4143 2.90393 14.3674 3.04424 14.258 3.12549Z" fill="#F0C419"/>
</svg>
