<svg width="40" height="40" viewBox="0 0 40 40" fill="none" xmlns="http://www.w3.org/2000/svg">
<path d="M20 27.8125V30.9094C20 31.55 19.9343 32.1906 19.8031 32.8219L18.6343 38.4281C18.6125 38.5344 18.5906 38.6437 18.575 38.75H7.19996L7.25933 38.325C7.41246 37.1937 7.12183 36.05 6.44371 35.1344C5.55308 33.9313 4.28121 32.2094 3.36246 30.9625C2.59996 29.9344 2.26246 28.65 2.41871 27.3781C2.62808 25.6875 2.93746 23.2719 3.15933 21.5375C3.29683 20.4625 4.21558 19.6812 5.26871 19.6812C5.37496 19.6812 5.48433 19.6906 5.59371 19.7063C5.91246 19.7563 6.20621 19.875 6.45933 20.0469L8.75933 12C8.84996 11.6875 9.03746 11.4188 9.28433 11.2344C9.53121 11.0469 9.83746 10.9375 10.1656 10.9375C11.0625 10.9375 11.75 11.7375 11.6125 12.625L10.3125 20.9375L11.9968 10.5594C12.05 10.2188 12.225 9.92187 12.475 9.70937C12.7218 9.5 13.0437 9.375 13.3875 9.375C14.2406 9.375 14.8968 10.1281 14.7843 10.975L13.6718 19.2L13.4375 20.9375L13.6937 19.1906L14.8125 11.5875C14.9062 10.9344 15.4718 10.4625 16.1156 10.4625C16.1687 10.4625 16.2218 10.4656 16.2781 10.4719C16.9656 10.5594 17.4687 11.1625 17.4312 11.8531L17.0343 18.9969L16.875 21.875L17.1375 18.9937L17.3718 16.4094C17.4375 15.6781 18.1531 15.1875 18.8593 15.3875C19.1062 15.4563 19.3156 15.6031 19.4656 15.7969C19.6125 15.9875 19.7031 16.2281 19.7093 16.4844L19.7718 18.8875L20 27.8125Z" fill="#F9C87F"/>
<path d="M16.8751 22.1875C16.8691 22.1875 16.8635 22.1872 16.8572 22.1869C16.6851 22.1775 16.5529 22.03 16.5629 21.8575L17.1194 11.8357C17.1485 11.3104 16.7622 10.8479 16.2407 10.7825C15.701 10.7147 15.2004 11.0969 15.1213 11.6338L14.0788 18.7235C14.0538 18.8941 13.8985 19.0147 13.7241 18.9872C13.5535 18.9622 13.4354 18.8035 13.4604 18.6325L14.5029 11.5429C14.631 10.6729 15.4472 10.0525 16.3182 10.1625C17.1647 10.2685 17.791 11.0188 17.7435 11.8707L17.1869 21.8925C17.1776 22.0588 17.0394 22.1875 16.8751 22.1875Z" fill="#E08E15"/>
<path d="M19.9999 27.8127V30.5096C19.3405 30.3439 18.7499 30.0502 18.3374 29.7377C16.0061 27.9814 12.5624 28.6877 11.3905 26.5783C10.0499 24.1721 11.8499 23.1252 12.3592 20.7408C12.5342 19.9064 13.0624 19.4471 13.6717 19.2002C13.678 19.1971 13.6874 19.1939 13.6936 19.1908C14.8249 18.7471 16.2311 19.0283 16.2311 19.0283L17.0342 18.9971L17.1374 18.9939L19.7717 18.8877L19.9999 27.8127Z" fill="#E08E15"/>
<path d="M20.022 16.4766C20.0142 16.1637 19.9045 15.8547 19.7126 15.6053C19.5154 15.3513 19.2495 15.1716 18.9445 15.0869C18.5176 14.9659 18.0633 15.0409 17.6973 15.2925C17.3323 15.5438 17.1004 15.9406 17.0608 16.3809L16.5639 21.8466C16.5483 22.0184 16.6748 22.1703 16.8467 22.1859C17.0208 22.1994 17.1704 22.075 17.1864 21.9028L17.6833 16.4369C17.7061 16.1819 17.8404 15.9525 18.0517 15.8069C18.2636 15.6613 18.5264 15.6181 18.7758 15.6881C18.9514 15.7372 19.1048 15.8406 19.2179 15.9869C19.3289 16.1309 19.3926 16.3103 19.397 16.4919L19.6876 27.8125V30.9094C19.6876 31.5288 19.6236 32.1506 19.4976 32.7581L18.9783 35.2487C18.9429 35.4178 19.0511 35.5831 19.2201 35.6184C19.2414 35.6228 19.2633 35.625 19.2842 35.625C19.4292 35.625 19.5592 35.5238 19.5898 35.3763L20.1095 32.8853C20.2445 32.2359 20.3126 31.5713 20.3126 30.9094V27.8044L20.022 16.4766ZM7.32825 17.0075C7.49232 17.0547 7.667 16.9591 7.7145 16.7928L9.06013 12.0844C9.20013 11.5931 9.65513 11.25 10.1661 11.25C10.5026 11.25 10.8211 11.3966 11.0401 11.6525C11.2586 11.9081 11.3545 12.2456 11.3023 12.5781L10.0039 20.8894C9.97732 21.0597 10.0939 21.2197 10.2645 21.2462C10.2808 21.2487 10.297 21.25 10.3129 21.25C10.4642 21.25 10.5973 21.14 10.6214 20.9856L10.8117 19.7666C10.8151 19.7547 10.8223 19.745 10.8245 19.7325L12.3039 10.6091C12.3908 10.075 12.8461 9.6875 13.3873 9.6875C13.7039 9.6875 14.0051 9.82438 14.2136 10.0628C14.422 10.3013 14.517 10.6178 14.4745 10.9319L13.1279 20.8959C13.1048 21.0669 13.2248 21.2244 13.3958 21.2475C13.4098 21.2491 13.4242 21.25 13.4379 21.25C13.592 21.25 13.7261 21.1363 13.7473 20.9794L15.0939 11.0156C15.1604 10.5231 15.0111 10.0259 14.6839 9.65156C14.3567 9.27719 13.8842 9.0625 13.3873 9.0625C12.5383 9.0625 11.8233 9.67094 11.6873 10.5091L11.5586 11.3028C11.5439 11.2841 11.5308 11.2644 11.5151 11.2459C11.1773 10.8516 10.6854 10.625 10.1661 10.625C9.37763 10.625 8.67544 11.1544 8.45888 11.9125L7.11325 16.6209C7.06606 16.7872 7.16232 16.96 7.32825 17.0075ZM12.0514 29.3416C11.122 27.4825 9.477 26.0575 7.51325 25.4006L7.70575 21.9453C7.77419 20.6834 6.88669 19.5884 5.63825 19.3972C5.50794 19.3784 5.38388 19.3691 5.26888 19.3691C4.91232 19.3691 4.56732 19.4453 4.24357 19.5959C4.087 19.6684 4.01888 19.8544 4.09169 20.0109C4.1645 20.1672 4.35075 20.2359 4.50669 20.1625C4.74763 20.0509 5.00419 19.9941 5.26888 19.9941C5.35388 19.9941 5.44825 20.0013 5.54669 20.0153C6.47263 20.1572 7.13263 20.9722 7.082 21.9109L6.87575 25.6078C6.86763 25.7522 6.95981 25.8831 7.09794 25.9247C9.00138 26.4944 10.6029 27.8419 11.4923 29.6213L11.5954 29.8275C11.6504 29.9369 11.7608 30 11.8754 30C11.9223 30 11.9701 29.9894 12.0148 29.9672C12.1692 29.89 12.2317 29.7022 12.1545 29.5478L12.0514 29.3416Z" fill="#E08E15"/>
<path d="M9.57704 23.335C9.40642 23.3609 9.28892 23.52 9.31454 23.6906C9.34048 23.8612 9.49954 23.9794 9.67048 23.9528C11.6336 23.6562 14.4433 23.6928 16.6745 25.5525C16.7333 25.6012 16.8039 25.625 16.8745 25.625C16.9642 25.625 17.053 25.5865 17.1152 25.5125C17.2258 25.38 17.2077 25.1828 17.0752 25.0725C14.6649 23.0644 11.6674 23.0187 9.57704 23.335Z" fill="#E08E15"/>
<path d="M36.8314 30.65C35.9126 31.8969 34.6407 33.6188 33.7501 34.8219C33.072 35.7375 32.7813 36.8812 32.9345 38.0125L32.9938 38.4375H21.6188C21.6032 38.3312 21.5813 38.2219 21.5595 38.1156L20.3907 32.5094C20.2595 31.8781 20.1938 31.2375 20.1938 30.5969V27.5L20.3688 20.6188L20.3782 20.3094L20.4157 18.8625L20.4845 16.1719C20.4907 15.9156 20.5813 15.675 20.7282 15.4844C20.8782 15.2906 21.0876 15.1438 21.3345 15.075C22.0407 14.875 22.7563 15.3656 22.822 16.0969L23.0657 18.7594L23.1657 19.875L23.1876 20.1156L23.3188 21.5625L23.2376 20.1L23.2251 19.8563L23.1626 18.7563L22.7626 11.5406C22.7251 10.85 23.2282 10.2469 23.9157 10.1594C23.972 10.1531 24.0251 10.15 24.0782 10.15C24.722 10.15 25.2876 10.6219 25.3813 11.275L26.3938 18.1687L26.4032 18.2281L26.7563 20.625L26.4313 18.2062L26.422 18.1438L25.4095 10.6625C25.297 9.81562 25.9532 9.0625 26.8063 9.0625C27.1501 9.0625 27.472 9.1875 27.7188 9.39687C27.9688 9.60937 28.1438 9.90625 28.197 10.2469L28.8501 14.2625L29.022 15.3219L29.8813 20.625L29.0438 15.2844L28.872 14.1781L28.5813 12.3125C28.4907 11.7188 28.7657 11.1656 29.2251 10.8625C29.4563 10.7125 29.7313 10.625 30.0282 10.625C30.1845 10.625 30.3376 10.65 30.4813 10.6969C30.6376 10.7469 30.7813 10.825 30.9095 10.9219C31.1564 11.1063 31.3438 11.375 31.4345 11.6875L33.7345 19.7344C33.9876 19.5625 34.2813 19.4438 34.6001 19.3938C34.7095 19.3781 34.8189 19.3687 34.9251 19.3687C35.9782 19.3687 36.897 20.15 37.0345 21.225C37.2564 22.9594 37.5657 25.375 37.7751 27.0656C37.9313 28.3375 37.5939 29.6219 36.8314 30.65Z" fill="#F9C87F"/>
<path d="M23.1249 22.1875C23.1308 22.1875 23.1364 22.1872 23.1427 22.1869C23.3149 22.1775 23.4471 22.03 23.4371 21.8575L22.8805 11.8357C22.8514 11.3104 23.2377 10.8479 23.7592 10.7825C24.2989 10.7147 24.7996 11.0969 24.8786 11.6338L25.9211 18.7235C25.9461 18.8941 26.1014 19.0147 26.2758 18.9872C26.4464 18.9622 26.5646 18.8035 26.5396 18.6325L25.4971 11.5429C25.3689 10.6729 24.5527 10.0525 23.6817 10.1625C22.8352 10.2685 22.2089 11.0188 22.2564 11.8707L22.813 21.8925C22.8224 22.0588 22.9605 22.1875 23.1249 22.1875ZM28.3174 16.4441C28.3017 15.3754 29.4508 14.7275 30.363 15.2841C30.943 15.6382 31.4958 16.2175 31.1355 17.0579C30.4727 18.6047 28.7049 19.4885 28.4839 17.9416C28.4039 17.381 28.3236 16.8782 28.3174 16.4441Z" fill="#E08E15"/>
<path d="M28.7032 27.1437C27.3876 29.6344 25.1032 27.9594 23.5095 29.6344C22.5532 30.6375 21.2938 30.7844 20.1938 30.5562V27.5L20.3688 20.6188L20.3782 20.3094L20.4157 18.8625L23.0657 18.7594L23.1626 18.7563L23.3063 18.75C26.9032 18.8344 25.9626 21.2875 27.2032 22.1625C29.4876 23.775 29.3063 26.0031 28.7032 27.1437Z" fill="#E08E15"/>
<path d="M19.9781 16.4766C19.9859 16.1637 20.0956 15.8547 20.2875 15.6053C20.4847 15.3513 20.7506 15.1716 21.0556 15.0869C21.4825 14.9659 21.9369 15.0409 22.3028 15.2925C22.6678 15.5438 22.8997 15.9406 22.9394 16.3809L23.4363 21.8466C23.4519 22.0184 23.3253 22.1703 23.1534 22.1859C22.9794 22.1994 22.8297 22.075 22.8137 21.9028L22.3169 16.4369C22.2941 16.1819 22.1597 15.9525 21.9484 15.8069C21.7366 15.6613 21.4737 15.6181 21.2244 15.6881C21.0487 15.7372 20.8953 15.8406 20.7822 15.9869C20.6712 16.1309 20.6075 16.3103 20.6031 16.4919L20.3125 27.8125V30.9094C20.3125 31.5288 20.3766 32.1506 20.5025 32.7581L21.0219 35.2487C21.0572 35.4178 20.9491 35.5831 20.78 35.6184C20.7588 35.6228 20.7369 35.625 20.7159 35.625C20.5709 35.625 20.4409 35.5238 20.4103 35.3763L19.8906 32.8853C19.7556 32.2359 19.6875 31.5713 19.6875 30.9094V27.8044L19.9781 16.4766ZM32.6719 17.0075C32.5078 17.0547 32.3331 16.9591 32.2856 16.7928L30.94 12.0844C30.8 11.5931 30.345 11.25 29.8341 11.25C29.4975 11.25 29.1791 11.3966 28.96 11.6525C28.7416 11.9081 28.6456 12.2456 28.6978 12.5781L29.9962 20.8894C30.0228 21.0597 29.9062 21.2197 29.7356 21.2462C29.7194 21.2487 29.7031 21.25 29.6872 21.25C29.5359 21.25 29.4028 21.14 29.3788 20.9856L29.1884 19.7666C29.185 19.7547 29.1778 19.745 29.1756 19.7325L27.6962 10.6091C27.6094 10.075 27.1541 9.6875 26.6128 9.6875C26.2963 9.6875 25.995 9.82438 25.7866 10.0628C25.5781 10.3013 25.4831 10.6178 25.5256 10.9319L26.8722 20.8959C26.8953 21.0669 26.7753 21.2244 26.6044 21.2475C26.5903 21.2491 26.5759 21.25 26.5622 21.25C26.4081 21.25 26.2741 21.1363 26.2528 20.9794L24.9062 11.0156C24.8397 10.5231 24.9891 10.0259 25.3163 9.65156C25.6434 9.27719 26.1159 9.0625 26.6128 9.0625C27.4619 9.0625 28.1769 9.67094 28.3128 10.5091L28.4416 11.3028C28.4563 11.2841 28.4694 11.2644 28.485 11.2459C28.8228 10.8516 29.3147 10.625 29.8341 10.625C30.6225 10.625 31.3247 11.1544 31.5412 11.9125L32.8869 16.6209C32.9341 16.7872 32.8378 16.96 32.6719 17.0075ZM27.9487 29.3416C28.8781 27.4825 30.5231 26.0575 32.4869 25.4006L32.2944 21.9453C32.2259 20.6834 33.1134 19.5884 34.3619 19.3972C34.4922 19.3784 34.6162 19.3691 34.7312 19.3691C35.0878 19.3691 35.4328 19.4453 35.7566 19.5959C35.9131 19.6684 35.9812 19.8544 35.9084 20.0109C35.8356 20.1672 35.6494 20.2359 35.4934 20.1625C35.2525 20.0509 34.9959 19.9941 34.7312 19.9941C34.6462 19.9941 34.5519 20.0013 34.4534 20.0153C33.5275 20.1572 32.8675 20.9722 32.9181 21.9109L33.1244 25.6078C33.1325 25.7522 33.0403 25.8831 32.9022 25.9247C30.9988 26.4944 29.3972 27.8419 28.5078 29.6213L28.4047 29.8275C28.3497 29.9369 28.2394 30 28.1247 30C28.0778 30 28.03 29.9894 27.9853 29.9672C27.8309 29.89 27.7684 29.7022 27.8456 29.5478L27.9487 29.3416Z" fill="#E08E15"/>
<path d="M30.4226 23.335C30.5932 23.3609 30.7107 23.52 30.6851 23.6906C30.6592 23.8612 30.5001 23.9794 30.3292 23.9528C28.366 23.6562 25.5564 23.6928 23.3251 25.5525C23.2664 25.6012 23.1957 25.625 23.1251 25.625C23.0354 25.625 22.9467 25.5865 22.8845 25.5125C22.7739 25.38 22.792 25.1828 22.9245 25.0725C25.3348 23.0644 28.3323 23.0187 30.4226 23.335Z" fill="#E08E15"/>
<path d="M28.703 25.8938C27.3874 28.3844 25.103 26.7094 23.5092 28.3844C21.9155 30.0594 19.4717 29.3438 18.3374 28.4875C18.2092 28.3906 18.0811 28.3031 17.9467 28.2219C17.9342 28.2156 17.9186 28.2063 17.903 28.1969C17.8749 28.1781 17.8467 28.1625 17.8186 28.1469C17.7811 28.125 17.7405 28.1031 17.6999 28.0781C17.6842 28.0687 17.6717 28.0594 17.6561 28.0531C15.3811 26.8375 12.453 27.2406 11.3905 25.3281C10.0499 22.9219 11.8499 21.875 12.3592 19.4906C12.8655 17.1031 16.2311 17.7781 16.2311 17.7781L16.3874 17.7719C16.878 15.8437 17.3436 13.3562 17.5155 10.4125C17.728 6.73125 17.3999 3.6625 17.053 1.5625H22.9374C22.5905 3.6625 22.2624 6.73125 22.4749 10.4125C22.6374 13.225 23.0717 15.6187 23.5374 17.5094C26.8592 17.6969 25.9905 20.0562 27.203 20.9125C29.4874 22.525 29.3061 24.7531 28.703 25.8938Z" fill="#89A8FF"/>
<path d="M21.097 27.3822C20.817 27.3822 20.573 27.3637 20.432 27.35C20.2602 27.3334 20.1345 27.1809 20.1511 27.0094C20.1674 26.8372 20.3224 26.7119 20.4917 26.7281C21.278 26.8019 22.1199 26.7138 22.2242 26.5444C22.3152 26.3975 22.5077 26.3525 22.6545 26.4431C22.8014 26.5341 22.8464 26.7266 22.7558 26.8734C22.4952 27.2941 21.7095 27.3822 21.097 27.3822ZM22.837 21.9C22.7217 21.9 22.6108 21.8363 22.5567 21.7256C22.4802 21.5709 22.5436 21.3834 22.6986 21.3072C22.9483 21.1837 23.1917 21.0416 23.4224 20.8847C23.5658 20.7872 23.7599 20.825 23.8567 20.9675C23.9539 21.1103 23.9164 21.3047 23.7739 21.4019C23.5195 21.575 23.2505 21.7316 22.9749 21.8675C22.9308 21.8897 22.8836 21.9 22.837 21.9ZM21.042 21.8469C20.6933 21.9081 20.3414 21.9394 19.9961 21.9394C19.3333 21.9388 18.7245 21.5553 18.4574 20.9488C18.0639 20.055 17.7949 18.5681 18.437 16.2906C19.6467 12.0031 18.4374 1.5625 18.4374 1.5625H17.053C17.3999 3.6625 17.728 6.73125 17.5155 10.4125C17.3436 13.3562 16.878 15.8437 16.3874 17.7719L16.2311 17.7781C16.2311 17.7781 12.8655 17.1031 12.3592 19.4906C11.8499 21.875 10.0499 22.9219 11.3905 25.3281C12.453 27.2406 15.3811 26.8375 17.6561 28.0531C16.3064 27.2319 17.2139 26.0503 16.2917 25.2072C16.3161 25.2075 16.3392 25.2097 16.3639 25.2097C16.7002 25.2097 17.0592 25.1772 17.4392 25.1122C17.6095 25.0831 17.7239 24.9219 17.6945 24.7519C17.6658 24.5816 17.5052 24.4678 17.3342 24.4966C17.0549 24.5441 16.7899 24.5725 16.5402 24.5816C14.9452 24.6397 13.7642 23.0166 14.4495 21.575C14.7199 21.0066 15.1674 20.7053 15.6061 21.0844C15.8783 21.3194 17.1874 22.7991 19.9961 22.5644C20.3761 22.5325 20.7658 22.5303 21.1499 22.4628C21.3199 22.4328 21.4333 22.2709 21.4036 22.1009C21.3736 21.9306 21.2114 21.8184 21.042 21.8469ZM25.703 25.4178C25.5758 25.4178 25.4561 25.3394 25.4099 25.2128C25.3508 25.0516 25.4327 24.8728 25.5936 24.8128C25.6345 24.7969 26.4758 24.4547 26.5949 23.2184C26.6114 23.0463 26.7661 22.9219 26.9358 22.9375C27.1077 22.9541 27.2333 23.1066 27.2167 23.2784C27.0586 24.9234 25.8614 25.3803 25.8105 25.3988C25.7749 25.4116 25.7386 25.4178 25.703 25.4178Z" fill="#6889FF"/>
<path d="M11.4841 7.58773C10.4244 7.4496 9.94818 6.21929 10.6304 5.39648C11.0641 4.87335 11.7169 4.4096 12.4966 4.88679C13.9319 5.76523 14.5526 7.64179 12.9901 7.63804C12.4235 7.63679 11.9147 7.64398 11.4841 7.58773Z" fill="#89A8FF"/>
<path d="M15.3571 35.2052C15.1177 36.2468 13.8474 36.6024 13.094 35.8443C12.6149 35.3621 12.2161 34.6677 12.7661 33.9377C13.7783 32.5934 15.7058 32.1562 15.5521 33.7112C15.4965 34.2749 15.4543 34.7821 15.3571 35.2052Z" fill="#E08E15"/>
<path d="M15.3571 34.5799C15.1177 35.6214 13.8474 35.9771 13.094 35.2189C12.6149 34.7367 12.2161 34.0424 12.7661 33.3124C13.7783 31.968 15.7058 31.5308 15.5521 33.0858C15.4964 33.6496 15.4543 34.1567 15.3571 34.5799ZM28.0049 15.8189C27.9893 14.7502 29.1383 14.1024 30.0505 14.6589C30.6305 15.013 31.1833 15.5924 30.823 16.4327C30.1602 17.9796 28.3924 18.8633 28.1715 17.3164C28.0915 16.7558 28.0111 16.253 28.0049 15.8189Z" fill="#89A8FF"/>
</svg>
