<svg width="18" height="18" viewBox="0 0 18 18" fill="none" xmlns="http://www.w3.org/2000/svg">
<path d="M8.25 14.925V3.075C8.25 1.95 7.77 1.5 6.5775 1.5H3.5475C2.355 1.5 1.875 1.95 1.875 3.075V14.925C1.875 16.05 2.355 16.5 3.5475 16.5H6.5775C7.77 16.5 8.25 16.05 8.25 14.925Z" fill="#895737"/>
<path opacity="0.4" d="M16.125 8.175V3.075C16.125 1.95 15.645 1.5 14.4525 1.5H11.4225C10.23 1.5 9.75 1.95 9.75 3.075V8.175C9.75 9.3 10.23 9.75 11.4225 9.75H14.4525C15.645 9.75 16.125 9.3 16.125 8.175Z" fill="#895737"/>
<path opacity="0.4" d="M16.125 14.925V12.825C16.125 11.7 15.645 11.25 14.4525 11.25H11.4225C10.23 11.25 9.75 11.7 9.75 12.825V14.925C9.75 16.05 10.23 16.5 11.4225 16.5H14.4525C15.645 16.5 16.125 16.05 16.125 14.925Z" fill="#895737"/>
</svg>
