<svg width="25" height="24" viewBox="0 0 25 24" fill="none" xmlns="http://www.w3.org/2000/svg">
<path d="M9.79982 14.7805L12.3798 17.0405C12.4998 17.1505 12.6898 17.1505 12.8098 17.0405L15.3898 14.7805C16.0598 14.1905 16.1498 13.1905 15.5898 12.4905C15.0298 11.7905 14.0098 11.6605 13.2998 12.2005L12.5998 12.7405L11.8898 12.2105C11.1698 11.6705 10.1598 11.8005 9.59982 12.5005C9.03982 13.1905 9.12982 14.2005 9.79982 14.7805Z" stroke="#636567" stroke-width="1.5" stroke-linecap="round" stroke-linejoin="round"/>
<path d="M22.5999 11V17C22.5999 21 21.5999 22 17.5999 22H7.59985C3.59985 22 2.59985 21 2.59985 17V7C2.59985 3 3.59985 2 7.59985 2H9.09985C10.5999 2 10.9299 2.44 11.4999 3.2L12.9999 5.2C13.3799 5.7 13.5999 6 14.5999 6H17.5999C21.5999 6 22.5999 7 22.5999 11Z" stroke="#636567" stroke-width="1.5" stroke-miterlimit="10"/>
</svg>
