<svg width="22" height="22" viewBox="0 0 22 22" fill="none" xmlns="http://www.w3.org/2000/svg">
<path opacity="0.4" d="M18.2051 7.41571C18.2051 7.55321 18.2052 7.69071 18.196 7.81905C16.7935 7.29655 15.1435 7.61738 14.0435 8.60738C13.301 7.93821 12.3385 7.56238 11.3118 7.56238C9.05683 7.56238 7.2235 9.40489 7.2235 11.6782C7.2235 14.2724 8.52517 16.1699 9.77183 17.3982C9.671 17.389 9.5885 17.3707 9.51517 17.3432C7.141 16.5274 1.8335 13.154 1.8335 7.41571C1.8335 4.88571 3.86849 2.84155 6.38015 2.84155C7.87432 2.84155 9.19432 3.55654 10.0193 4.66571C10.8535 3.55654 12.1735 2.84155 13.6585 2.84155C16.1702 2.84155 18.2051 4.88571 18.2051 7.41571Z" fill="#FBFFFB"/>
<path d="M16.5002 8.79077C15.5194 8.79077 14.6302 9.26744 14.0802 10.0008C13.5302 9.26744 12.6502 8.79077 11.6602 8.79077C9.99191 8.79077 8.63525 10.1474 8.63525 11.8341C8.63525 12.4849 8.73608 13.0808 8.91942 13.6308C9.78108 16.3533 12.4302 17.9758 13.7411 18.4249C13.9244 18.4891 14.2269 18.4891 14.4194 18.4249C15.7303 17.9758 18.3794 16.3533 19.2411 13.6308C19.4244 13.0716 19.5252 12.4758 19.5252 11.8341C19.5252 10.1474 18.1686 8.79077 16.5002 8.79077Z" fill="#FBFFFB"/>
</svg>
