<svg width="18" height="18" viewBox="0 0 18 18" fill="none" xmlns="http://www.w3.org/2000/svg">
<path opacity="0.4" d="M16.4925 4.51501C16.5075 4.69501 16.4926 4.88251 16.4476 5.07001L13.9201 15.2175C13.7401 15.975 13.0651 16.5 12.2851 16.5H2.43005C1.29755 16.5 0.495061 15.39 0.825061 14.3025L3.98255 4.15498C4.20005 3.44998 4.85257 2.97002 5.58757 2.97002H14.8126C15.5326 2.97002 16.1176 3.39751 16.3651 3.99751C16.4401 4.15501 16.4775 4.33501 16.4925 4.51501Z" fill="#895737"/>
<path d="M17.2425 14.715C17.3175 15.6825 16.5525 16.5 15.585 16.5H12.285C13.065 16.5 13.74 15.975 13.92 15.2175L16.4475 5.07001C16.4925 4.88251 16.5075 4.69501 16.4925 4.51501L16.5 4.5L17.2425 14.715Z" fill="#895737"/>
<path d="M7.25995 5.34751C7.21495 5.34751 7.16995 5.33999 7.12495 5.33249C6.82495 5.25749 6.63746 4.95751 6.71246 4.65001L7.49244 1.41001C7.56744 1.11001 7.86745 0.930017 8.17495 0.997517C8.47495 1.07252 8.66246 1.3725 8.58746 1.68L7.80745 4.92C7.74745 5.175 7.51495 5.34751 7.25995 5.34751Z" fill="#895737"/>
<path d="M12.285 5.35499C12.2475 5.35499 12.2025 5.35497 12.165 5.33997C11.865 5.27247 11.67 4.97246 11.73 4.67246L12.4349 1.41749C12.5024 1.10999 12.8025 0.922476 13.1025 0.982476C13.4025 1.04998 13.5974 1.34999 13.5374 1.64999L12.8324 4.90496C12.7799 5.17496 12.5475 5.35499 12.285 5.35499Z" fill="#895737"/>
<path d="M11.775 9.5625H5.77502C5.46752 9.5625 5.21252 9.3075 5.21252 9C5.21252 8.6925 5.46752 8.4375 5.77502 8.4375H11.775C12.0825 8.4375 12.3375 8.6925 12.3375 9C12.3375 9.3075 12.0825 9.5625 11.775 9.5625Z" fill="#895737"/>
<path d="M11.025 12.5625H5.02502C4.71752 12.5625 4.46252 12.3075 4.46252 12C4.46252 11.6925 4.71752 11.4375 5.02502 11.4375H11.025C11.3325 11.4375 11.5875 11.6925 11.5875 12C11.5875 12.3075 11.3325 12.5625 11.025 12.5625Z" fill="#895737"/>
</svg>
