<svg width="18" height="18" viewBox="0 0 18 18" fill="none" xmlns="http://www.w3.org/2000/svg">
<path opacity="0.4" d="M15.3 12.2475C15.09 12.81 14.6475 13.2375 14.07 13.4325C13.26 13.7025 12.4275 13.905 11.5875 14.0475C11.505 14.0625 11.4225 14.0775 11.34 14.085C11.205 14.1075 11.07 14.1225 10.935 14.1375C10.77 14.16 10.5975 14.175 10.425 14.19C9.95253 14.2275 9.48753 14.25 9.01503 14.25C8.53503 14.25 8.05503 14.2275 7.58253 14.1825C7.38003 14.1675 7.18503 14.145 6.99003 14.115C6.87753 14.1 6.76503 14.085 6.66003 14.07C6.57753 14.055 6.49503 14.0475 6.41253 14.0325C5.58003 13.8975 4.75503 13.695 3.95253 13.425C3.35253 13.2225 2.89503 12.795 2.69253 12.2475C2.49003 11.7075 2.56503 11.0775 2.88753 10.5375L3.73503 9.12751C3.91503 8.82001 4.08003 8.22751 4.08003 7.86751V6.47251C4.08003 3.75001 6.29253 1.53751 9.01503 1.53751C11.73 1.53751 13.9425 3.75001 13.9425 6.47251V7.86751C13.9425 8.22751 14.1075 8.82001 14.295 9.12751L15.1425 10.5375C15.45 11.0625 15.51 11.6775 15.3 12.2475Z" fill="#895737"/>
<path d="M9.00005 8.07C8.68505 8.07 8.43005 7.815 8.43005 7.5V5.175C8.43005 4.86 8.68505 4.605 9.00005 4.605C9.31505 4.605 9.57005 4.86 9.57005 5.175V7.5C9.56255 7.815 9.30755 8.07 9.00005 8.07Z" fill="#895737"/>
<path d="M11.1225 15.0075C10.8075 15.8775 9.97501 16.5 9.00001 16.5C8.40751 16.5 7.82251 16.26 7.41001 15.8325C7.17001 15.6075 6.99001 15.3075 6.88501 15C6.98251 15.015 7.08001 15.0225 7.18501 15.0375C7.35751 15.06 7.53751 15.0825 7.71751 15.0975C8.14501 15.135 8.58001 15.1575 9.01501 15.1575C9.44251 15.1575 9.87001 15.135 10.29 15.0975C10.4475 15.0825 10.605 15.075 10.755 15.0525C10.875 15.0375 10.995 15.0225 11.1225 15.0075Z" fill="#895737"/>
</svg>
