<svg width="18" height="18" viewBox="0 0 18 18" fill="none" xmlns="http://www.w3.org/2000/svg">
<path d="M14.2051 4.06496L10.3276 1.82246C9.58506 1.39496 8.42256 1.39496 7.68006 1.82246L3.76506 4.07996C2.21256 5.12996 2.12256 5.28746 2.12256 6.95996V11.0325C2.12256 12.705 2.21256 12.87 3.79506 13.935L7.67256 16.1775C8.04756 16.395 8.52756 16.5 9.00006 16.5C9.47256 16.5 9.95256 16.395 10.3201 16.1775L14.2351 13.92C15.7876 12.87 15.8776 12.7125 15.8776 11.04V6.95996C15.8776 5.28746 15.7876 5.12996 14.2051 4.06496Z" fill="#895737"/>
<path d="M9 11.4375C10.3462 11.4375 11.4375 10.3462 11.4375 9C11.4375 7.65381 10.3462 6.5625 9 6.5625C7.65381 6.5625 6.5625 7.65381 6.5625 9C6.5625 10.3462 7.65381 11.4375 9 11.4375Z" fill="#FDFAF3"/>
</svg>
