<svg width="18" height="18" viewBox="0 0 18 18" fill="none" xmlns="http://www.w3.org/2000/svg">
<path d="M10.0725 11.25H3.30001C1.93501 11.25 1.06501 9.78753 1.72501 8.58753L3.47251 5.40752L5.10751 2.43002C5.79001 1.19252 7.57501 1.19252 8.25751 2.43002L9.90001 5.40752L10.6875 6.84002L11.6475 8.58753C12.3075 9.78753 11.4375 11.25 10.0725 11.25Z" fill="#895737"/>
<path opacity="0.4" d="M16.5 11.625C16.5 14.3175 14.3175 16.5 11.625 16.5C8.9325 16.5 6.75 14.3175 6.75 11.625C6.75 11.4975 6.7575 11.3775 6.765 11.25H10.0725C11.4375 11.25 12.3075 9.78751 11.6475 8.58751L10.6875 6.84C10.9875 6.78 11.3025 6.75 11.625 6.75C14.3175 6.75 16.5 8.9325 16.5 11.625Z" fill="#895737"/>
</svg>
