<svg width="25" height="24" viewBox="0 0 25 24" fill="none" xmlns="http://www.w3.org/2000/svg">
<path d="M3.40991 11.2197V15.7097C3.40991 20.1997 5.20991 21.9997 9.69991 21.9997H15.0899C19.5799 21.9997 21.3799 20.1997 21.3799 15.7097V11.2197" stroke="#636567" stroke-width="1.5" stroke-linecap="round" stroke-linejoin="round"/>
<path d="M12.3999 12C14.2299 12 15.5799 10.51 15.3999 8.68L14.7399 2H10.0699L9.39989 8.68C9.21989 10.51 10.5699 12 12.3999 12Z" stroke="#636567" stroke-width="1.5" stroke-linecap="round" stroke-linejoin="round"/>
<path d="M18.71 12C20.73 12 22.21 10.36 22.01 8.35L21.73 5.6C21.37 3 20.37 2 17.75 2H14.7L15.4 9.01C15.57 10.66 17.06 12 18.71 12Z" stroke="#636567" stroke-width="1.5" stroke-linecap="round" stroke-linejoin="round"/>
<path d="M6.03978 12C7.68978 12 9.17978 10.66 9.33978 9.01L9.55978 6.8L10.0398 2H6.98979C4.36979 2 3.36978 3 3.00978 5.6L2.73978 8.35C2.53978 10.36 4.01978 12 6.03978 12Z" stroke="#636567" stroke-width="1.5" stroke-linecap="round" stroke-linejoin="round"/>
<path d="M12.3999 17C10.7299 17 9.8999 17.83 9.8999 19.5V22H14.8999V19.5C14.8999 17.83 14.0699 17 12.3999 17Z" stroke="#636567" stroke-width="1.5" stroke-linecap="round" stroke-linejoin="round"/>
</svg>
