<svg width="26" height="24" viewBox="0 0 26 24" fill="none" xmlns="http://www.w3.org/2000/svg">
<path opacity="0.4" fill-rule="evenodd" clip-rule="evenodd" d="M14.4017 4.56648L14.3314 4.56645C14.2724 4.5664 14.2146 4.56635 14.1578 4.56662C14.0396 4.56516 13.9448 4.56226 13.8636 4.55647C13.6982 4.5495 13.5828 4.4302 13.5457 4.37142C13.5084 4.31419 13.4674 4.24781 13.4152 4.16277C13.2585 3.85181 13.1689 3.67016 13.1175 3.52903C13.055 3.37987 13.1556 3.27163 13.2137 3.23615C13.3238 3.17858 13.4816 3.1196 13.7833 3.00991C14.7118 2.67234 15.4188 2.66895 16.2395 2.96859C16.5563 3.08423 16.7142 3.14406 16.8221 3.20373C16.8775 3.22791 16.9717 3.31687 16.9052 3.47926C16.853 3.63006 16.7573 3.82462 16.5869 4.16277C16.5347 4.24781 16.4937 4.31419 16.4564 4.37142C16.4266 4.4331 16.3212 4.55647 16.1386 4.55647C16.0573 4.56226 15.9624 4.56517 15.844 4.56662C15.787 4.56635 15.7289 4.5664 15.6695 4.56645L15.5992 4.56648H14.4017ZM12.2762 5.15651C12.1968 5.22218 12.1196 5.29135 12.0386 5.36405L12.0182 5.38229C10.9404 6.3484 9.6955 7.99468 9.29419 10.2204C9.10274 11.2822 9.55464 12.1974 10.2705 12.81C10.9735 13.4116 11.949 13.7484 12.9495 13.7484H17.0514C18.0519 13.7484 19.0275 13.4116 19.7305 12.81C20.4463 12.1974 20.8982 11.2822 20.7068 10.2204C20.3055 7.99468 19.0605 6.3484 17.9827 5.38229L17.9624 5.36405C17.8811 5.29112 17.8037 5.22175 17.724 5.1559C17.7998 5.0437 17.8649 4.93639 17.9195 4.84651L17.9296 4.82978C18.0839 4.52376 18.2312 4.23157 18.3218 3.96984C18.425 3.67165 18.4814 3.34281 18.3905 2.97703C18.3553 2.83557 18.2895 2.66979 18.2181 2.54274C17.8972 1.97165 17.3425 1.77196 16.8575 1.59735C16.8223 1.58467 16.7874 1.57212 16.7531 1.55957C15.5715 1.12818 14.4996 1.15313 13.2699 1.6002C13.2355 1.61271 13.2006 1.62521 13.1654 1.63784C12.7063 1.80249 12.1904 1.98755 11.8674 2.4772C11.7427 2.66618 11.6442 2.91391 11.605 3.13695C11.5458 3.47431 11.6094 3.7734 11.7069 4.04161C11.7939 4.28072 11.9293 4.54936 12.0726 4.83357L12.0822 4.8493C12.1364 4.93871 12.2011 5.0452 12.2762 5.15651Z" fill="white"/>
<path d="M6.9555 13.25C6.52269 13.25 6.12586 13.2499 5.80304 13.2933C5.44756 13.3411 5.07184 13.4535 4.76281 13.7626C4.45379 14.0716 4.34134 14.4473 4.29355 14.8028C4.25015 15.1256 4.2502 15.5224 4.25025 15.9553V18.5635C4.25021 18.8917 4.25017 19.1992 4.28012 19.4561C4.31345 19.7421 4.39063 20.0427 4.59781 20.3203C4.80499 20.5979 5.07127 20.7574 5.33593 20.8707C5.57375 20.9725 5.86854 21.06 6.18315 21.1533L11.1821 22.6366C11.9065 22.8516 12.683 22.7581 13.338 22.3802L20.8535 18.0438C21.7867 17.5054 22.0269 16.2638 21.4054 15.4032C20.7125 14.4437 19.5019 14.0209 18.3714 14.3724L18.3699 14.3729L16.2445 15.0259C15.9958 15.1023 15.8715 15.1405 15.8325 15.2122C15.7935 15.2839 15.84 15.4474 15.933 15.7743C16.0039 16.0236 16.0123 16.2627 16.0002 16.3973C16.0002 17.3786 15.3312 18.171 14.467 18.4099L11.926 19.1124C11.0044 19.3673 10.0171 19.2796 9.15413 18.8621L7.53384 18.0781C7.22312 17.9278 7.09311 17.554 7.24345 17.2433C7.39378 16.9326 7.76754 16.8026 8.07826 16.9529L9.69855 17.7369C10.2872 18.0217 10.9624 18.082 11.5929 17.9076L14.1339 17.2051C14.484 17.1083 14.7502 16.7884 14.7502 16.3973C14.7502 14.9842 13.5735 14.6252 12.1743 14.6252L11.1317 14.6251C10.95 14.6251 10.7716 14.5841 10.6111 14.5064L8.56908 13.5184C8.20346 13.3415 7.8016 13.25 7.39507 13.25H6.9555Z" fill="white"/>
</svg>
