<svg width="112" height="112" viewBox="0 0 112 112" fill="none" xmlns="http://www.w3.org/2000/svg">
<path d="M27.9393 13.2967C29.1041 12.2692 29.2156 10.492 28.1879 9.32711C27.1606 8.16217 25.3831 8.0508 24.2182 9.0783C13.9113 18.1696 8 31.2399 8 44.9375C8 46.4907 9.25925 47.75 10.8125 47.75C12.3658 47.75 13.625 46.4907 13.625 44.9375C13.625 32.8533 18.8424 21.3207 27.9393 13.2967ZM87.4068 9.0783C86.2417 8.0508 84.4644 8.16236 83.4371 9.32711C82.4096 10.492 82.5209 12.2692 83.6857 13.2967C92.7826 21.3207 98 32.8533 98 44.9375C98 46.4907 99.2592 47.75 100.812 47.75C102.366 47.75 103.625 46.4907 103.625 44.9375C103.625 31.2399 97.7137 18.1696 87.4068 9.0783ZM32.0259 17.1894C23.9066 24.1586 19.25 34.2723 19.25 44.9375C19.25 46.4907 20.5092 47.75 22.0625 47.75C23.6158 47.75 24.875 46.4907 24.875 44.9375C24.875 35.915 28.8166 27.3569 35.6894 21.4576C36.8681 20.4459 37.0034 18.6702 35.9917 17.4916C34.9799 16.3128 33.2041 16.1776 32.0259 17.1894ZM79.5991 17.1894C78.4205 16.1776 76.6449 16.313 75.6333 17.4916C74.6216 18.6702 74.7569 20.4459 75.9356 21.4576C82.8084 27.3569 86.75 35.915 86.75 44.9375C86.75 46.4907 88.0092 47.75 89.5625 47.75C91.1158 47.75 92.375 46.4907 92.375 44.9375C92.375 34.2723 87.7184 24.1586 79.5991 17.1894ZM61.4375 87.125H50.1875C48.6343 87.125 47.375 88.3843 47.375 89.9375V95.5625C47.375 100.215 51.1601 104 55.8125 104C60.4649 104 64.25 100.215 64.25 95.5625V89.9375C64.25 88.3843 62.9907 87.125 61.4375 87.125Z" fill="#C1DBFA"/>
<path d="M91.551 87.9485C84.8278 81.2249 81.1252 72.2857 81.1252 62.7776V44.9375C81.1252 31.9308 71.2639 21.1858 58.6252 19.7821V10.8125C58.6252 9.25925 57.366 8 55.8127 8C54.2595 8 53.0002 9.25925 53.0002 10.8125V19.7821C40.3616 21.1858 30.5002 31.9308 30.5002 44.9375V62.7776C30.5002 72.2857 26.7977 81.2248 20.0745 87.9483C18.3339 89.6876 19.5225 92.75 22.0627 92.75H89.5627C92.0959 92.75 93.2961 89.6923 91.551 87.9485Z" fill="url(#paint0_linear_1_5634)"/>
<defs>
<linearGradient id="paint0_linear_1_5634" x1="55.8129" y1="92.75" x2="55.8129" y2="8" gradientUnits="userSpaceOnUse">
<stop stop-color="#6FACF2"/>
<stop offset="1" stop-color="#3288ED"/>
</linearGradient>
</defs>
</svg>
