<svg width="112" height="112" viewBox="0 0 112 112" fill="none" xmlns="http://www.w3.org/2000/svg">
<g clip-path="url(#clip0_1_5568)">
<path d="M56 0C74.6959 0 89.9062 15.2103 89.9062 33.9062C89.9062 56.8763 59.6101 87.437 58.3203 88.7266C57.0389 90.008 54.9611 90.0079 53.6797 88.7266C52.3902 87.437 22.0938 56.8763 22.0938 33.9062C22.0938 15.2103 37.3041 0 56 0ZM56 17.5C46.9536 17.5 39.5938 24.8598 39.5938 33.9062C39.5938 42.9527 46.9536 50.3125 56 50.3125C65.0464 50.3125 72.4062 42.9527 72.4062 33.9062C72.4062 24.8598 65.0466 17.5 56 17.5Z" fill="url(#paint0_linear_1_5568)"/>
<path d="M88.0568 96.4082L60.5846 110.867C57.7148 112.378 54.2851 112.378 51.4153 110.867L23.9431 96.4082C16.9311 92.7176 16.9311 82.6768 23.9431 78.9862L38.7061 71.2162C46.0021 80.9887 53.0712 88.1178 53.6798 88.7263C54.9612 90.0078 57.0387 90.0078 58.3201 88.7263C58.9287 88.1178 65.9978 80.9887 73.2938 71.2162L88.0568 78.9862C95.0688 82.6768 95.0688 92.7176 88.0568 96.4082Z" fill="#C1DBFA"/>
</g>
<defs>
<linearGradient id="paint0_linear_1_5568" x1="56" y1="89.6875" x2="56" y2="0" gradientUnits="userSpaceOnUse">
<stop stop-color="#6FACF2"/>
<stop offset="1" stop-color="#3288ED"/>
</linearGradient>
<clipPath id="clip0_1_5568">
<rect width="112" height="112" fill="white"/>
</clipPath>
</defs>
</svg>
