<svg width="154" height="160" viewBox="0 0 154 160" fill="none" xmlns="http://www.w3.org/2000/svg">
<path fill-rule="evenodd" clip-rule="evenodd" d="M73.5917 64.0961C72.8479 64.9937 72.0689 65.8996 71.2532 66.8132C64.9063 73.9223 56.3371 81.5003 44.8146 89.2911C23.8174 103.523 21.6208 107.534 21.5562 127.977H16V148.355C17.0398 148.247 18.4338 148.115 20.1193 147.99C22.9837 147.776 26.6899 147.578 30.9304 147.532C34.5818 147.492 38.6293 147.565 42.8764 147.838C44.6457 147.954 46.3784 148.099 48.0745 148.272C59.5538 149.447 69.3547 151.942 77.4371 155.736C80.1525 157.011 82.674 158.433 85 160C87.2821 158.452 89.7611 157.047 92.4328 155.785C99.898 152.258 108.867 149.847 119.246 148.569C119.25 148.568 119.254 148.568 119.259 148.567C120.071 148.467 120.892 148.374 121.722 148.288C121.726 148.288 121.73 148.287 121.734 148.287C123.471 148.107 125.247 147.957 127.059 147.838C131.336 147.564 135.404 147.492 139.07 147.532C143.22 147.577 146.854 147.767 149.689 147.976C151.461 148.106 152.921 148.243 154 148.355V127.977H148.379C148.25 107.534 146.053 103.523 125.056 89.2911C113.534 81.5003 104.986 73.9223 98.6691 66.8132C97.8573 65.8996 97.0824 64.9937 96.3428 64.0961C95.5044 63.0787 94.7113 62.0719 93.9612 61.0766C93.8265 60.8978 93.6931 60.7193 93.5611 60.5412C93.3126 60.206 93.0689 59.872 92.8301 59.5394C92.1547 58.5988 91.5175 57.6691 90.9166 56.7509C90.4283 56.0048 89.964 55.2662 89.5225 54.5357C89.3034 54.1731 89.0899 53.8126 88.8819 53.454C88.8536 53.405 88.8253 53.3561 88.7971 53.3073C88.6982 53.1358 88.6006 52.9649 88.5043 52.7944C88.3224 52.4726 88.145 52.1526 87.9719 51.8342H89.5225V49.1171H87.9719V48.2761H86.4859V45.9472C87.0265 45.7868 87.5237 45.558 87.9524 45.2706C87.9589 45.2662 87.9654 45.2618 87.9719 45.2574C87.9859 45.248 87.9998 45.2384 88.0136 45.2288C88.6309 44.8003 89.0993 44.2471 89.3406 43.5995C89.3739 43.51 89.4029 43.4187 89.4274 43.3257C89.4896 43.0889 89.5225 42.841 89.5225 42.5831C89.5225 41.4747 88.9155 40.4877 87.9719 39.8515C87.7609 39.7092 87.533 39.5844 87.2914 39.4798C87.037 39.3696 86.7674 39.2818 86.4859 39.2191V37.8606C86.6053 37.8008 86.7201 37.7355 86.8295 37.6649C87.1753 37.442 87.4672 37.1674 87.6773 36.8551C87.8111 36.6563 87.9117 36.4423 87.9719 36.2166C88.0141 36.0583 88.0365 35.8943 88.0365 35.7257C88.0365 35.5572 88.0141 35.3909 87.9719 35.2298C87.8938 34.9319 87.7478 34.6517 87.5497 34.4075C87.4919 34.3362 87.4296 34.2681 87.3633 34.2034C87.1192 33.9654 86.8202 33.7751 86.4859 33.6556V30.1622L86.6407 30.1817C86.9944 30.2266 87.3227 30.2682 87.6702 30.2844C87.6746 30.2846 87.6791 30.2848 87.6835 30.285C87.7779 30.2892 87.8737 30.2916 87.9719 30.2916C88.1366 30.2916 88.3 30.2878 88.462 30.2805C88.8604 30.2624 89.2506 30.2225 89.6311 30.1622C89.7029 30.1508 89.7744 30.1387 89.8455 30.1259C90.3534 30.0344 90.843 29.9066 91.3106 29.7462C91.4121 29.7114 91.5126 29.6751 91.612 29.6372C91.7147 29.5982 91.8162 29.5575 91.9166 29.5153C92.9448 29.0826 93.8473 28.4873 94.577 27.7766C94.8695 27.4916 95.1343 27.1881 95.3683 26.8691C95.3698 26.8671 95.3712 26.8651 95.3727 26.8631C95.4504 26.7569 95.5247 26.6489 95.5955 26.5394C95.4822 26.6282 95.3656 26.7139 95.2457 26.7966C95.2449 26.7972 95.2441 26.7977 95.2433 26.7983C94.9316 27.0133 94.5983 27.2075 94.2471 27.38C93.8678 27.5663 93.4675 27.7272 93.0507 27.8615C92.169 28.1456 91.2134 28.3106 90.2259 28.3443C90.0996 28.3486 89.9728 28.3508 89.8455 28.3508C89.5256 28.3508 89.2096 28.3359 88.8983 28.307C88.8205 28.2997 88.7431 28.2916 88.6659 28.2827C88.5791 28.2726 88.4928 28.2614 88.4068 28.2491C88.2606 28.2283 88.1156 28.2043 87.9719 28.1773C87.5598 28.0999 87.1586 27.9977 86.7707 27.8727C86.1393 27.6693 85.5431 27.4057 84.9926 27.0912C83.378 26.1687 82.1567 24.8076 81.5943 23.2401C81.3721 22.6206 81.2528 21.9689 81.2528 21.2993C81.2528 20.0702 81.5758 19.0351 82.2219 18C81.039 18.9213 80.1532 20.021 79.7055 21.2993C79.6724 21.3939 79.6416 21.4894 79.6134 21.5859C79.4603 22.1087 79.3792 22.66 79.3792 23.2401C79.3792 23.7022 79.4341 24.1564 79.5391 24.598C79.5396 24.5999 79.5401 24.6019 79.5405 24.6038C79.5615 24.6918 79.5846 24.7793 79.6095 24.8663C79.92 25.9477 80.5325 26.9455 81.3743 27.7866C81.4376 27.8498 81.5022 27.9122 81.5681 27.9737C81.7136 28.1094 81.8652 28.2407 82.0227 28.3672C82.5807 28.8152 83.212 29.2028 83.9017 29.5153V33.6556C83.858 33.6712 83.8149 33.688 83.7725 33.706C83.4902 33.8257 83.2365 33.9965 83.0243 34.2034C82.958 34.2681 82.8958 34.3362 82.838 34.4075C82.6398 34.6517 82.4938 34.9319 82.4157 35.2298C82.3735 35.3909 82.3511 35.5572 82.3511 35.7257C82.3511 35.8943 82.3735 36.0583 82.4157 36.2166C82.4759 36.4423 82.5765 36.6563 82.7103 36.8551C82.9204 37.1674 83.2124 37.442 83.5581 37.6649C83.6275 37.7096 83.699 37.7523 83.7725 37.7927C83.8149 37.8161 83.858 37.8387 83.9017 37.8606V39.2191C83.8583 39.2288 83.8152 39.2391 83.7725 39.25C83.5366 39.3102 83.3095 39.3893 83.0936 39.4852C82.8529 39.592 82.626 39.7196 82.4157 39.8646C82.2792 39.9588 82.1497 40.0604 82.0281 40.1685C81.5656 40.5794 81.2169 41.0842 81.027 41.6344C80.9217 41.9395 80.8652 42.2585 80.8652 42.5831C80.8652 42.9333 80.9309 43.2703 81.0527 43.5882C81.2475 44.0966 81.5858 44.5562 82.0281 44.9426C82.1384 45.039 82.2552 45.1309 82.3779 45.2178C82.3905 45.2267 82.4031 45.2355 82.4157 45.2443C82.8146 45.5209 83.2737 45.7461 83.7725 45.9071C83.8152 45.9209 83.8583 45.9343 83.9017 45.9472V48.082L83.7725 48.2761H82.4157V49.1171H80.8652V51.8342H82.0281C81.7865 52.2738 81.5366 52.7167 81.2782 53.1628C81.2371 53.2337 81.1958 53.3047 81.1543 53.3758C81.0591 53.5389 80.9627 53.7024 80.8652 53.8663C80.3124 54.7952 79.7227 55.7375 79.0939 56.6923C78.5079 57.582 77.8879 58.4826 77.2321 59.3935C76.8382 59.9406 76.4313 60.4915 76.0111 61.0459C75.4576 61.7762 74.881 62.5128 74.2803 63.2551C74.0542 63.5346 73.8247 63.815 73.5917 64.0961ZM84.9669 73.8C77.407 82.8939 67.0829 92.297 53.1666 101.707C42.2199 109.128 39.354 111.973 38.149 113.994C37.3082 115.404 36.5194 117.606 36.4865 128.025L36.4721 132.58C38.8351 132.629 41.299 132.727 43.8307 132.889L43.8402 132.89L43.8497 132.891C59.3172 133.904 73.2636 136.996 84.9874 142.756C96.7096 136.988 110.695 133.903 126.082 132.891L126.11 132.889C128.646 132.727 131.113 132.629 133.478 132.581L133.449 128.072C133.383 117.654 132.592 115.437 131.738 114.008C130.523 111.975 127.647 109.125 116.706 101.708C102.795 92.3022 92.4951 82.8994 84.9669 73.8Z" fill="url(#paint0_linear_1_5550)"/>
<mask id="mask0_1_5550" style="mask-type:alpha" maskUnits="userSpaceOnUse" x="0" y="0" width="127" height="126">
<ellipse cx="63.5" cy="63" rx="63.5" ry="63" fill="#D9D9D9"/>
</mask>
<g mask="url(#mask0_1_5550)">
<g opacity="0.5">
<mask id="path-3-inside-1_1_5550" fill="white">
<path fill-rule="evenodd" clip-rule="evenodd" d="M73.5917 64.0961C72.8479 64.9937 72.0689 65.8996 71.2532 66.8132C64.9063 73.9223 56.3371 81.5003 44.8146 89.2911C23.8174 103.523 21.6208 107.534 21.5562 127.977H16V148.355C17.0398 148.247 18.4338 148.115 20.1193 147.99C22.9837 147.776 26.6899 147.578 30.9304 147.532C34.5818 147.492 38.6293 147.565 42.8764 147.838C44.6457 147.954 46.3784 148.099 48.0745 148.272C59.5538 149.447 69.3547 151.942 77.4371 155.736C80.1525 157.011 82.674 158.433 85 160C87.2821 158.452 89.7611 157.047 92.4328 155.785C99.898 152.258 108.867 149.847 119.246 148.569C119.25 148.568 119.254 148.568 119.259 148.567C120.071 148.467 120.892 148.374 121.722 148.288C121.726 148.288 121.73 148.287 121.734 148.287C123.471 148.107 125.247 147.957 127.059 147.838C131.336 147.564 135.404 147.492 139.07 147.532C143.22 147.577 146.854 147.767 149.689 147.976C151.461 148.106 152.921 148.243 154 148.355V127.977H148.379C148.25 107.534 146.053 103.523 125.056 89.2911C113.534 81.5003 104.986 73.9223 98.6691 66.8132C97.8573 65.8996 97.0824 64.9937 96.3428 64.0961C95.5044 63.0787 94.7113 62.0719 93.9612 61.0766C93.8265 60.8978 93.6931 60.7193 93.5611 60.5412C93.3126 60.206 93.0689 59.872 92.8301 59.5394C92.1547 58.5988 91.5175 57.6691 90.9166 56.7509C90.4283 56.0048 89.964 55.2662 89.5225 54.5357C89.3034 54.1731 89.0899 53.8126 88.8819 53.454C88.8536 53.405 88.8253 53.3561 88.7971 53.3073C88.6982 53.1358 88.6006 52.9649 88.5043 52.7944C88.3224 52.4726 88.145 52.1526 87.9719 51.8342H89.5225V49.1171H87.9719V48.2761H86.4859V45.9472C87.0265 45.7868 87.5237 45.558 87.9524 45.2706C87.9589 45.2662 87.9654 45.2618 87.9719 45.2574C87.9859 45.248 87.9998 45.2384 88.0136 45.2288C88.6309 44.8003 89.0993 44.2471 89.3406 43.5995C89.3739 43.51 89.4029 43.4187 89.4274 43.3257C89.4896 43.0889 89.5225 42.841 89.5225 42.5831C89.5225 41.4747 88.9155 40.4877 87.9719 39.8515C87.7609 39.7092 87.533 39.5844 87.2914 39.4798C87.037 39.3696 86.7674 39.2818 86.4859 39.2191V37.8606C86.6053 37.8008 86.7201 37.7355 86.8295 37.6649C87.1753 37.442 87.4672 37.1674 87.6773 36.8551C87.8111 36.6563 87.9117 36.4423 87.9719 36.2166C88.0141 36.0583 88.0365 35.8943 88.0365 35.7257C88.0365 35.5572 88.0141 35.3909 87.9719 35.2298C87.8938 34.9319 87.7478 34.6517 87.5497 34.4075C87.4919 34.3362 87.4296 34.2681 87.3633 34.2034C87.1192 33.9654 86.8202 33.7751 86.4859 33.6556V30.1622L86.6407 30.1817C86.9944 30.2266 87.3227 30.2682 87.6702 30.2844C87.6746 30.2846 87.6791 30.2848 87.6835 30.285C87.7779 30.2892 87.8737 30.2916 87.9719 30.2916C88.1366 30.2916 88.3 30.2878 88.462 30.2805C88.8604 30.2624 89.2506 30.2225 89.6311 30.1622C89.7029 30.1508 89.7744 30.1387 89.8455 30.1259C90.3534 30.0344 90.843 29.9066 91.3106 29.7462C91.4121 29.7114 91.5126 29.6751 91.612 29.6372C91.7147 29.5982 91.8162 29.5575 91.9166 29.5153C92.9448 29.0826 93.8473 28.4873 94.577 27.7766C94.8695 27.4916 95.1343 27.1881 95.3683 26.8691C95.3698 26.8671 95.3712 26.8651 95.3727 26.8631C95.4504 26.7569 95.5247 26.6489 95.5955 26.5394C95.4822 26.6282 95.3656 26.7139 95.2457 26.7966C95.2449 26.7972 95.2441 26.7977 95.2433 26.7983C94.9316 27.0133 94.5983 27.2075 94.2471 27.38C93.8678 27.5663 93.4675 27.7272 93.0507 27.8615C92.169 28.1456 91.2134 28.3106 90.2259 28.3443C90.0996 28.3486 89.9728 28.3508 89.8455 28.3508C89.5256 28.3508 89.2096 28.3359 88.8983 28.307C88.8205 28.2997 88.7431 28.2916 88.6659 28.2827C88.5791 28.2726 88.4928 28.2614 88.4068 28.2491C88.2606 28.2283 88.1156 28.2043 87.9719 28.1773C87.5598 28.0999 87.1586 27.9977 86.7707 27.8727C86.1393 27.6693 85.5431 27.4057 84.9926 27.0912C83.378 26.1687 82.1567 24.8076 81.5943 23.2401C81.3721 22.6206 81.2528 21.9689 81.2528 21.2993C81.2528 20.0702 81.5758 19.0351 82.2219 18C81.039 18.9213 80.1532 20.021 79.7055 21.2993C79.6724 21.3939 79.6416 21.4894 79.6134 21.5859C79.4603 22.1087 79.3792 22.66 79.3792 23.2401C79.3792 23.7022 79.4341 24.1564 79.5391 24.598C79.5396 24.5999 79.5401 24.6019 79.5405 24.6038C79.5615 24.6918 79.5846 24.7793 79.6095 24.8663C79.92 25.9477 80.5325 26.9455 81.3743 27.7866C81.4376 27.8498 81.5022 27.9122 81.5681 27.9737C81.7136 28.1094 81.8652 28.2407 82.0227 28.3672C82.5807 28.8152 83.212 29.2028 83.9017 29.5153V33.6556C83.858 33.6712 83.8149 33.688 83.7725 33.706C83.4902 33.8257 83.2365 33.9965 83.0243 34.2034C82.958 34.2681 82.8958 34.3362 82.838 34.4075C82.6398 34.6517 82.4938 34.9319 82.4157 35.2298C82.3735 35.3909 82.3511 35.5572 82.3511 35.7257C82.3511 35.8943 82.3735 36.0583 82.4157 36.2166C82.4759 36.4423 82.5765 36.6563 82.7103 36.8551C82.9204 37.1674 83.2124 37.442 83.5581 37.6649C83.6275 37.7096 83.699 37.7523 83.7725 37.7927C83.8149 37.8161 83.858 37.8387 83.9017 37.8606V39.2191C83.8583 39.2288 83.8152 39.2391 83.7725 39.25C83.5366 39.3102 83.3095 39.3893 83.0936 39.4852C82.8529 39.592 82.626 39.7196 82.4157 39.8646C82.2792 39.9588 82.1497 40.0604 82.0281 40.1685C81.5656 40.5794 81.2169 41.0842 81.027 41.6344C80.9217 41.9395 80.8652 42.2585 80.8652 42.5831C80.8652 42.9333 80.9309 43.2703 81.0527 43.5882C81.2475 44.0966 81.5858 44.5562 82.0281 44.9426C82.1384 45.039 82.2552 45.1309 82.3779 45.2178C82.3905 45.2267 82.4031 45.2355 82.4157 45.2443C82.8146 45.5209 83.2737 45.7461 83.7725 45.9071C83.8152 45.9209 83.8583 45.9343 83.9017 45.9472V48.082L83.7725 48.2761H82.4157V49.1171H80.8652V51.8342H82.0281C81.7865 52.2738 81.5366 52.7167 81.2782 53.1628C81.2371 53.2337 81.1958 53.3047 81.1543 53.3758C81.0591 53.5389 80.9627 53.7024 80.8652 53.8663C80.3124 54.7952 79.7227 55.7375 79.0939 56.6923C78.5079 57.582 77.8879 58.4826 77.2321 59.3935C76.8382 59.9406 76.4313 60.4915 76.0111 61.0459C75.4576 61.7762 74.881 62.5128 74.2803 63.2551C74.0542 63.5346 73.8247 63.815 73.5917 64.0961ZM84.9669 73.8C77.407 82.8939 67.0829 92.297 53.1666 101.707C42.2199 109.128 39.354 111.973 38.149 113.994C37.3082 115.404 36.5194 117.606 36.4865 128.025L36.4721 132.58C38.8351 132.629 41.299 132.727 43.8307 132.889L43.8402 132.89L43.8497 132.891C59.3172 133.904 73.2636 136.996 84.9874 142.756C96.7096 136.988 110.695 133.903 126.082 132.891L126.11 132.889C128.646 132.727 131.113 132.629 133.478 132.581L133.449 128.072C133.383 117.654 132.592 115.437 131.738 114.008C130.523 111.975 127.647 109.125 116.706 101.708C102.795 92.3022 92.4951 82.8994 84.9669 73.8Z"/>
</mask>
<path fill-rule="evenodd" clip-rule="evenodd" d="M73.5917 64.0961C72.8479 64.9937 72.0689 65.8996 71.2532 66.8132C64.9063 73.9223 56.3371 81.5003 44.8146 89.2911C23.8174 103.523 21.6208 107.534 21.5562 127.977H16V148.355C17.0398 148.247 18.4338 148.115 20.1193 147.99C22.9837 147.776 26.6899 147.578 30.9304 147.532C34.5818 147.492 38.6293 147.565 42.8764 147.838C44.6457 147.954 46.3784 148.099 48.0745 148.272C59.5538 149.447 69.3547 151.942 77.4371 155.736C80.1525 157.011 82.674 158.433 85 160C87.2821 158.452 89.7611 157.047 92.4328 155.785C99.898 152.258 108.867 149.847 119.246 148.569C119.25 148.568 119.254 148.568 119.259 148.567C120.071 148.467 120.892 148.374 121.722 148.288C121.726 148.288 121.73 148.287 121.734 148.287C123.471 148.107 125.247 147.957 127.059 147.838C131.336 147.564 135.404 147.492 139.07 147.532C143.22 147.577 146.854 147.767 149.689 147.976C151.461 148.106 152.921 148.243 154 148.355V127.977H148.379C148.25 107.534 146.053 103.523 125.056 89.2911C113.534 81.5003 104.986 73.9223 98.6691 66.8132C97.8573 65.8996 97.0824 64.9937 96.3428 64.0961C95.5044 63.0787 94.7113 62.0719 93.9612 61.0766C93.8265 60.8978 93.6931 60.7193 93.5611 60.5412C93.3126 60.206 93.0689 59.872 92.8301 59.5394C92.1547 58.5988 91.5175 57.6691 90.9166 56.7509C90.4283 56.0048 89.964 55.2662 89.5225 54.5357C89.3034 54.1731 89.0899 53.8126 88.8819 53.454C88.8536 53.405 88.8253 53.3561 88.7971 53.3073C88.6982 53.1358 88.6006 52.9649 88.5043 52.7944C88.3224 52.4726 88.145 52.1526 87.9719 51.8342H89.5225V49.1171H87.9719V48.2761H86.4859V45.9472C87.0265 45.7868 87.5237 45.558 87.9524 45.2706C87.9589 45.2662 87.9654 45.2618 87.9719 45.2574C87.9859 45.248 87.9998 45.2384 88.0136 45.2288C88.6309 44.8003 89.0993 44.2471 89.3406 43.5995C89.3739 43.51 89.4029 43.4187 89.4274 43.3257C89.4896 43.0889 89.5225 42.841 89.5225 42.5831C89.5225 41.4747 88.9155 40.4877 87.9719 39.8515C87.7609 39.7092 87.533 39.5844 87.2914 39.4798C87.037 39.3696 86.7674 39.2818 86.4859 39.2191V37.8606C86.6053 37.8008 86.7201 37.7355 86.8295 37.6649C87.1753 37.442 87.4672 37.1674 87.6773 36.8551C87.8111 36.6563 87.9117 36.4423 87.9719 36.2166C88.0141 36.0583 88.0365 35.8943 88.0365 35.7257C88.0365 35.5572 88.0141 35.3909 87.9719 35.2298C87.8938 34.9319 87.7478 34.6517 87.5497 34.4075C87.4919 34.3362 87.4296 34.2681 87.3633 34.2034C87.1192 33.9654 86.8202 33.7751 86.4859 33.6556V30.1622L86.6407 30.1817C86.9944 30.2266 87.3227 30.2682 87.6702 30.2844C87.6746 30.2846 87.6791 30.2848 87.6835 30.285C87.7779 30.2892 87.8737 30.2916 87.9719 30.2916C88.1366 30.2916 88.3 30.2878 88.462 30.2805C88.8604 30.2624 89.2506 30.2225 89.6311 30.1622C89.7029 30.1508 89.7744 30.1387 89.8455 30.1259C90.3534 30.0344 90.843 29.9066 91.3106 29.7462C91.4121 29.7114 91.5126 29.6751 91.612 29.6372C91.7147 29.5982 91.8162 29.5575 91.9166 29.5153C92.9448 29.0826 93.8473 28.4873 94.577 27.7766C94.8695 27.4916 95.1343 27.1881 95.3683 26.8691C95.3698 26.8671 95.3712 26.8651 95.3727 26.8631C95.4504 26.7569 95.5247 26.6489 95.5955 26.5394C95.4822 26.6282 95.3656 26.7139 95.2457 26.7966C95.2449 26.7972 95.2441 26.7977 95.2433 26.7983C94.9316 27.0133 94.5983 27.2075 94.2471 27.38C93.8678 27.5663 93.4675 27.7272 93.0507 27.8615C92.169 28.1456 91.2134 28.3106 90.2259 28.3443C90.0996 28.3486 89.9728 28.3508 89.8455 28.3508C89.5256 28.3508 89.2096 28.3359 88.8983 28.307C88.8205 28.2997 88.7431 28.2916 88.6659 28.2827C88.5791 28.2726 88.4928 28.2614 88.4068 28.2491C88.2606 28.2283 88.1156 28.2043 87.9719 28.1773C87.5598 28.0999 87.1586 27.9977 86.7707 27.8727C86.1393 27.6693 85.5431 27.4057 84.9926 27.0912C83.378 26.1687 82.1567 24.8076 81.5943 23.2401C81.3721 22.6206 81.2528 21.9689 81.2528 21.2993C81.2528 20.0702 81.5758 19.0351 82.2219 18C81.039 18.9213 80.1532 20.021 79.7055 21.2993C79.6724 21.3939 79.6416 21.4894 79.6134 21.5859C79.4603 22.1087 79.3792 22.66 79.3792 23.2401C79.3792 23.7022 79.4341 24.1564 79.5391 24.598C79.5396 24.5999 79.5401 24.6019 79.5405 24.6038C79.5615 24.6918 79.5846 24.7793 79.6095 24.8663C79.92 25.9477 80.5325 26.9455 81.3743 27.7866C81.4376 27.8498 81.5022 27.9122 81.5681 27.9737C81.7136 28.1094 81.8652 28.2407 82.0227 28.3672C82.5807 28.8152 83.212 29.2028 83.9017 29.5153V33.6556C83.858 33.6712 83.8149 33.688 83.7725 33.706C83.4902 33.8257 83.2365 33.9965 83.0243 34.2034C82.958 34.2681 82.8958 34.3362 82.838 34.4075C82.6398 34.6517 82.4938 34.9319 82.4157 35.2298C82.3735 35.3909 82.3511 35.5572 82.3511 35.7257C82.3511 35.8943 82.3735 36.0583 82.4157 36.2166C82.4759 36.4423 82.5765 36.6563 82.7103 36.8551C82.9204 37.1674 83.2124 37.442 83.5581 37.6649C83.6275 37.7096 83.699 37.7523 83.7725 37.7927C83.8149 37.8161 83.858 37.8387 83.9017 37.8606V39.2191C83.8583 39.2288 83.8152 39.2391 83.7725 39.25C83.5366 39.3102 83.3095 39.3893 83.0936 39.4852C82.8529 39.592 82.626 39.7196 82.4157 39.8646C82.2792 39.9588 82.1497 40.0604 82.0281 40.1685C81.5656 40.5794 81.2169 41.0842 81.027 41.6344C80.9217 41.9395 80.8652 42.2585 80.8652 42.5831C80.8652 42.9333 80.9309 43.2703 81.0527 43.5882C81.2475 44.0966 81.5858 44.5562 82.0281 44.9426C82.1384 45.039 82.2552 45.1309 82.3779 45.2178C82.3905 45.2267 82.4031 45.2355 82.4157 45.2443C82.8146 45.5209 83.2737 45.7461 83.7725 45.9071C83.8152 45.9209 83.8583 45.9343 83.9017 45.9472V48.082L83.7725 48.2761H82.4157V49.1171H80.8652V51.8342H82.0281C81.7865 52.2738 81.5366 52.7167 81.2782 53.1628C81.2371 53.2337 81.1958 53.3047 81.1543 53.3758C81.0591 53.5389 80.9627 53.7024 80.8652 53.8663C80.3124 54.7952 79.7227 55.7375 79.0939 56.6923C78.5079 57.582 77.8879 58.4826 77.2321 59.3935C76.8382 59.9406 76.4313 60.4915 76.0111 61.0459C75.4576 61.7762 74.881 62.5128 74.2803 63.2551C74.0542 63.5346 73.8247 63.815 73.5917 64.0961ZM84.9669 73.8C77.407 82.8939 67.0829 92.297 53.1666 101.707C42.2199 109.128 39.354 111.973 38.149 113.994C37.3082 115.404 36.5194 117.606 36.4865 128.025L36.4721 132.58C38.8351 132.629 41.299 132.727 43.8307 132.889L43.8402 132.89L43.8497 132.891C59.3172 133.904 73.2636 136.996 84.9874 142.756C96.7096 136.988 110.695 133.903 126.082 132.891L126.11 132.889C128.646 132.727 131.113 132.629 133.478 132.581L133.449 128.072C133.383 117.654 132.592 115.437 131.738 114.008C130.523 111.975 127.647 109.125 116.706 101.708C102.795 92.3022 92.4951 82.8994 84.9669 73.8Z" stroke="#A3CDFF" mask="url(#path-3-inside-1_1_5550)"/>
</g>
</g>
<defs>
<linearGradient id="paint0_linear_1_5550" x1="85" y1="18" x2="85" y2="160" gradientUnits="userSpaceOnUse">
<stop stop-color="#6FACF2"/>
<stop offset="1" stop-color="#3288ED"/>
</linearGradient>
</defs>
</svg>
