<svg width="112" height="112" viewBox="0 0 112 112" fill="none" xmlns="http://www.w3.org/2000/svg">
<path d="M53.2705 24.2651H58.7299V35.8481H53.2705V24.2651Z" fill="#3288ED"/>
<path d="M75.7711 43.5969C71.8473 36.7435 64.4629 32.1256 55.9998 32.1256C43.426 32.1256 33.2329 42.3187 33.2329 54.8925V61.6957H36.7436L77.0334 60.2611L77.7429 54.5147C77.7429 52.0757 76.1734 49.0054 75.7565 46.9107L75.7711 43.5969Z" fill="url(#paint0_linear_1_5595)"/>
<path d="M7.04395 76.6041V105.784C7.04395 107.284 8.2601 108.5 9.76029 108.5H37.3474V76.6041H7.04395Z" fill="#6FACF2"/>
<path d="M104.956 76.6041V105.784C104.956 107.284 103.74 108.5 102.24 108.5H74.6528V76.6041H104.956Z" fill="#6FACF2"/>
<path d="M25.4366 101.502H15.5527C14.8973 101.502 14.3653 100.97 14.3653 100.315V91.919C14.3653 88.5361 17.1117 85.7896 20.4946 85.7896C23.8775 85.7896 26.624 88.5361 26.624 91.919V100.315C26.624 100.97 26.092 101.502 25.4366 101.502Z" fill="url(#paint1_linear_1_5595)"/>
<path d="M3.5 73.998V76.9898C3.5 77.9849 4.30667 78.7916 5.30176 78.7916H37.3472V72.1963H5.30176C4.30667 72.1963 3.5 73.003 3.5 73.998Z" fill="#3288ED"/>
<path d="M108.5 73.998V76.9898C108.5 77.9849 107.693 78.7916 106.698 78.7916H74.6528V72.1963H106.698C107.693 72.1963 108.5 73.003 108.5 73.998Z" fill="#3288ED"/>
<path d="M78.0551 108.5H33.9453V75.4939L35.4631 67.4972H76.5373L78.0551 75.4939V108.5Z" fill="url(#paint2_linear_1_5595)"/>
<path d="M33.9453 66.1284H78.0552V75.4939H33.9453V66.1284Z" fill="url(#paint3_linear_1_5595)"/>
<path d="M36.7437 61.6957H78.7667V54.8924C78.7667 50.7817 77.677 46.9256 75.7711 43.5968C72.3541 42.2079 68.6179 41.4409 64.7021 41.4409C51.6553 41.4409 40.5943 49.9359 36.7437 61.6957Z" fill="#6FACF2"/>
<path d="M55.9999 80.7012C61.33 80.7012 65.6575 85.0286 65.6575 90.3587V108.5H46.3423V90.3587C46.3423 85.0286 50.6697 80.7012 55.9999 80.7012Z" fill="url(#paint4_linear_1_5595)"/>
<path d="M91.5053 85.7896C94.8882 85.7896 97.6347 88.536 97.6347 91.9189V100.315C97.6347 100.97 97.1027 101.502 96.4473 101.502H86.5634C85.908 101.502 85.376 100.97 85.376 100.315V91.9189C85.376 88.536 88.1225 85.7896 91.5053 85.7896Z" fill="url(#paint5_linear_1_5595)"/>
<path d="M81.1989 59.972H30.8009C29.8057 59.972 28.999 60.7788 28.999 61.7739V64.764C28.999 65.7591 29.8057 66.5658 30.8009 66.5658H81.1989C82.194 66.5658 83.0007 65.7591 83.0007 64.764V61.7739C83.0007 60.7788 82.194 59.972 81.1989 59.972Z" fill="#3288ED"/>
<path d="M56 29.9954C58.9969 29.9954 61.4264 27.566 61.4264 24.5691C61.4264 21.5723 58.9969 19.1428 56 19.1428C53.0032 19.1428 50.5737 21.5723 50.5737 24.5691C50.5737 27.566 53.0032 29.9954 56 29.9954Z" fill="#22364D"/>
<path d="M59.286 15.9213C55.5389 15.6635 52.5063 12.6311 52.2484 8.88403C52.1404 7.31546 52.5093 5.83989 53.2245 4.58753C53.58 3.96488 52.9142 3.25412 52.2772 3.58334C49.2223 5.16228 47.1723 8.41354 47.3402 12.1267C47.5518 16.8081 51.3617 20.618 56.0432 20.8296C59.7563 20.9974 63.0075 18.9474 64.5864 15.8925C64.9156 15.2556 64.2049 14.5897 63.5822 14.9453C62.3299 15.6604 60.8544 16.0293 59.286 15.9213Z" fill="#22364D"/>
<defs>
<linearGradient id="paint0_linear_1_5595" x1="55.4879" y1="64.2193" x2="55.4879" y2="20.4781" gradientUnits="userSpaceOnUse">
<stop stop-color="#6FACF2"/>
<stop offset="0.99875" stop-color="#3288ED"/>
</linearGradient>
<linearGradient id="paint1_linear_1_5595" x1="20.4946" y1="104.024" x2="20.4946" y2="88.4179" gradientUnits="userSpaceOnUse">
<stop offset="0.00125" stop-color="#EAE5EC"/>
<stop offset="1" stop-color="#FDFFFC"/>
</linearGradient>
<linearGradient id="paint2_linear_1_5595" x1="56" y1="109" x2="56" y2="60" gradientUnits="userSpaceOnUse">
<stop offset="0.00125003" stop-color="#3288ED"/>
<stop offset="1" stop-color="#6FACF2"/>
</linearGradient>
<linearGradient id="paint3_linear_1_5595" x1="56.0001" y1="87.3311" x2="56.0001" y2="52.9703" gradientUnits="userSpaceOnUse">
<stop stop-color="#3288ED"/>
<stop offset="0.99875" stop-color="#6FACF2"/>
</linearGradient>
<linearGradient id="paint4_linear_1_5595" x1="-41.9126" y1="82.7982" x2="-41.9126" y2="98.5492" gradientUnits="userSpaceOnUse">
<stop offset="0.00125" stop-color="#EAE5EC"/>
<stop offset="1" stop-color="#FDFFFC"/>
</linearGradient>
<linearGradient id="paint5_linear_1_5595" x1="-6.40717" y1="83.2681" x2="-6.40717" y2="98.8737" gradientUnits="userSpaceOnUse">
<stop offset="0.00125" stop-color="#EAE5EC"/>
<stop offset="1" stop-color="#FDFFFC"/>
</linearGradient>
</defs>
</svg>
