<svg width="28" height="29" viewBox="0 0 28 29" fill="none" xmlns="http://www.w3.org/2000/svg">
<path opacity="0.4" d="M6.5625 4.38184C6.5625 3.65586 7.14902 3.06934 7.875 3.06934H19.6875C20.4135 3.06934 21 3.65586 21 4.38184C21 5.10781 20.4135 5.69434 19.6875 5.69434H7.875C7.14902 5.69434 6.5625 5.10781 6.5625 4.38184ZM6.5625 10.9443C6.5625 10.2184 7.14902 9.63184 7.875 9.63184H19.6875C20.4135 9.63184 21 10.2184 21 10.9443C21 11.6703 20.4135 12.2568 19.6875 12.2568H7.875C7.14902 12.2568 6.5625 11.6703 6.5625 10.9443ZM7.875 16.1943H19.6875C20.4135 16.1943 21 16.7809 21 17.5068C21 18.2328 20.4135 18.8193 19.6875 18.8193H7.875C7.14902 18.8193 6.5625 18.2328 6.5625 17.5068C6.5625 16.7809 7.14902 16.1943 7.875 16.1943Z" fill="#417360"/>
<path d="M2.625 6.35059C3.14714 6.35059 3.6479 6.14316 4.01712 5.77395C4.38633 5.40474 4.59375 4.90398 4.59375 4.38184C4.59375 3.85969 4.38633 3.35893 4.01712 2.98972C3.6479 2.62051 3.14714 2.41309 2.625 2.41309C2.10286 2.41309 1.6021 2.62051 1.23288 2.98972C0.863671 3.35893 0.65625 3.85969 0.65625 4.38184C0.65625 4.90398 0.863671 5.40474 1.23288 5.77395C1.6021 6.14316 2.10286 6.35059 2.625 6.35059ZM4.59375 10.9443C4.59375 10.6858 4.54283 10.4298 4.44389 10.1909C4.34495 9.95207 4.19993 9.73503 4.01712 9.55222C3.8343 9.3694 3.61727 9.22439 3.37841 9.12545C3.13955 9.02651 2.88354 8.97559 2.625 8.97559C2.36646 8.97559 2.11045 9.02651 1.87159 9.12545C1.63273 9.22439 1.4157 9.3694 1.23288 9.55222C1.05007 9.73503 0.905051 9.95207 0.806112 10.1909C0.707173 10.4298 0.65625 10.6858 0.65625 10.9443C0.65625 11.2029 0.707173 11.4589 0.806112 11.6977C0.905051 11.9366 1.05007 12.1536 1.23288 12.3365C1.4157 12.5193 1.63273 12.6643 1.87159 12.7632C2.11045 12.8622 2.36646 12.9131 2.625 12.9131C2.88354 12.9131 3.13955 12.8622 3.37841 12.7632C3.61727 12.6643 3.8343 12.5193 4.01712 12.3365C4.19993 12.1536 4.34495 11.9366 4.44389 11.6977C4.54283 11.4589 4.59375 11.2029 4.59375 10.9443ZM4.59375 17.5068C4.59375 17.2483 4.54283 16.9923 4.44389 16.7534C4.34495 16.5146 4.19993 16.2975 4.01712 16.1147C3.8343 15.9319 3.61727 15.7869 3.37841 15.6879C3.13955 15.589 2.88354 15.5381 2.625 15.5381C2.36646 15.5381 2.11045 15.589 1.87159 15.6879C1.63273 15.7869 1.4157 15.9319 1.23288 16.1147C1.05007 16.2975 0.905051 16.5146 0.806112 16.7534C0.707173 16.9923 0.65625 17.2483 0.65625 17.5068C0.65625 17.7654 0.707173 18.0214 0.806112 18.2602C0.905051 18.4991 1.05007 18.7161 1.23288 18.899C1.4157 19.0818 1.63273 19.2268 1.87159 19.3257C2.11045 19.4247 2.36646 19.4756 2.625 19.4756C2.88354 19.4756 3.13955 19.4247 3.37841 19.3257C3.61727 19.2268 3.8343 19.0818 4.01712 18.899C4.19993 18.7161 4.34495 18.4991 4.44389 18.2602C4.54283 18.0214 4.59375 17.7654 4.59375 17.5068Z" fill="#417360"/>
</svg>
