<svg width="28" height="29" viewBox="0 0 28 29" fill="none" xmlns="http://www.w3.org/2000/svg">
<path opacity="0.4" d="M25.375 21.4209C25.375 21.3976 25.3633 21.3743 25.3633 21.3509C25.3517 21.2576 25.34 21.1643 25.305 21.0826C25.2583 20.9776 25.2 20.896 25.13 20.8143C25.13 20.8143 25.13 20.8026 25.1183 20.8026C25.0367 20.721 24.9433 20.6626 24.8384 20.6159C24.7333 20.5693 24.6167 20.5459 24.5 20.5459L19.0517 20.5693C19.0517 20.5693 19.0517 20.5693 19.04 20.5693C18.34 20.5693 17.6633 20.2426 17.2433 19.6826L15.82 17.8509C15.5283 17.4659 14.98 17.3959 14.595 17.6993C14.21 18.0026 14.14 18.5393 14.4433 18.9243L15.8667 20.7559C16.625 21.7359 17.815 22.3193 19.0517 22.3193H19.0633L22.3883 22.3076L21.56 23.136C21.2217 23.4743 21.2217 24.0343 21.56 24.3726C21.735 24.5476 21.9567 24.6293 22.1784 24.6293C22.4 24.6293 22.6217 24.5476 22.7967 24.3726L25.13 22.0393C25.2117 21.9576 25.27 21.8643 25.3167 21.7593C25.3517 21.6426 25.375 21.5259 25.375 21.4209Z" fill="#417360"/>
<path opacity="0.4" d="M9.82331 8.24932C9.06497 7.19932 7.85162 6.58099 6.55662 6.58099C6.54495 6.58099 6.54497 6.58099 6.5333 6.58099L3.48828 6.59267C3.00995 6.59267 2.61328 6.98934 2.61328 7.46767C2.61328 7.94601 3.00995 8.34267 3.48828 8.34267L6.5333 8.33099H6.54494C7.27994 8.33099 7.96829 8.68099 8.38829 9.27599L9.64828 11.026C9.82328 11.2593 10.0916 11.3877 10.36 11.3877C10.535 11.3877 10.7216 11.3293 10.8733 11.2243C11.27 10.9443 11.3516 10.396 11.0716 9.99932L9.82331 8.24932Z" fill="#417360"/>
<path d="M25.3633 7.53763C25.3633 7.5143 25.375 7.49098 25.375 7.47932C25.375 7.36265 25.3516 7.24594 25.305 7.14094C25.2583 7.03594 25.2 6.94261 25.1183 6.86095L22.785 4.52761C22.4466 4.18928 21.8866 4.18928 21.5483 4.52761C21.21 4.86595 21.21 5.42595 21.5483 5.76428L22.3766 6.59264L19.1916 6.58096C19.18 6.58096 19.18 6.58096 19.1683 6.58096C17.8266 6.58096 16.5666 7.24593 15.82 8.3776L8.36498 19.5543C7.94498 20.1843 7.23328 20.5693 6.47495 20.5693H6.4633L3.48828 20.5576C3.00995 20.5576 2.61328 20.9426 2.61328 21.4326C2.61328 21.9109 2.99828 22.3076 3.48828 22.3076L6.4633 22.3193C6.47497 22.3193 6.47496 22.3193 6.48662 22.3193C7.83996 22.3193 9.08828 21.6543 9.83495 20.5226L17.29 9.34595C17.71 8.71595 18.4216 8.33096 19.18 8.33096H19.1916L24.5 8.35432C24.6166 8.35432 24.7216 8.33091 24.8383 8.28425C24.9433 8.23758 25.0366 8.17928 25.1183 8.09761C25.1183 8.09761 25.1183 8.08593 25.13 8.08593C25.2 8.00427 25.27 7.92262 25.305 7.81762C25.34 7.72429 25.3516 7.63097 25.3633 7.53763Z" fill="#417360"/>
</svg>
