<svg width="359" height="231" viewBox="0 0 359 231" fill="none" xmlns="http://www.w3.org/2000/svg">
<mask id="mask0_1_4729" style="mask-type:luminance" maskUnits="userSpaceOnUse" x="3" y="0" width="356" height="209">
<path d="M300.265 201.898C275.55 205.941 249.171 195.493 225.286 203.161C205.648 209.468 195.782 210.786 176.709 203.403C157.642 196.02 75.0493 164.4 57.3717 164.137C-2.29686 163.241 -18.6505 75.2052 39.2987 28.1713C98.6486 -19.9998 168.524 20.4147 178.335 20.0247C190.684 19.5303 201.621 12.2241 212.959 7.17026C224.671 1.95159 237.745 -0.992838 250.281 1.20999C262.817 3.41831 274.655 11.4056 279.264 23.2163C281.214 28.2152 282.307 34.3073 287.032 36.8617C289.092 37.9714 291.514 38.1746 293.849 38.4383C309.466 40.1962 324.809 45.7829 336.79 55.8027C348.771 65.8226 357.132 80.4843 358.066 96.1458C358.709 106.891 355.94 117.625 352.117 127.754C343.552 150.475 329.522 171.185 311.559 187.637" fill="white"/>
</mask>
<g mask="url(#mask0_1_4729)">
<path d="M383 254.667V-19.9998L-28.9998 -19.9998V254.667H383Z" fill="#DDEBD8"/>
<path d="M-1.2583 107.116C-1.25281 85.9173 27.4059 45.2446 59.2178 48.1836C59.6243 48.222 90.5463 53.9186 97.5613 90.257C100.094 89.1913 111.899 81.1381 123.545 85.2636C139.08 90.7679 141.936 106.644 142.464 108.369C145.485 94.2946 156.933 78.8748 170.617 76.2435C185.922 73.2991 201.698 89.1309 208.895 103.688C219.601 87.7136 239.789 81.5171 256.489 88.4222C271.002 94.421 280.533 109.341 280.198 125.826C283.456 116.367 291.959 109.824 301.534 109.341C314.284 108.693 321.816 119.135 322.266 119.784C324.584 105.539 338.334 94.5363 347.184 94.3111C348.892 94.2671 361.241 97.4258 365.839 100.986L364.12 173.404L31.3172 225.937L-1.26379 107.116H-1.2583Z" fill="#D3E5CD"/>
</g>
<g style="mix-blend-mode:multiply">
<path d="M237.487 208.084C204.604 208.084 175.984 210.149 161.185 213.203C145.227 211.121 121.693 209.803 95.4405 209.803C47.3738 209.803 8.4151 214.22 8.4151 219.669C8.4151 225.118 47.3793 229.535 95.4405 229.535C128.324 229.535 156.944 227.47 171.743 224.415C187.701 226.497 211.234 227.816 237.487 227.816C285.554 227.816 324.513 223.399 324.513 217.95C324.513 212.5 285.548 208.084 237.487 208.084Z" fill="#D3E5CD"/>
</g>
<path d="M319.409 158.885C315.272 163.994 310.817 168.845 306.088 173.404C301.391 177.931 296.414 182.177 291.195 186.099C288.24 188.324 285.202 190.439 282.098 192.45C281.516 192.829 282.06 193.763 282.642 193.384C288.196 189.785 293.53 185.841 298.6 181.589C303.637 177.365 308.411 172.833 312.894 168.026C315.415 165.318 317.843 162.527 320.172 159.649C320.354 159.424 320.392 159.105 320.172 158.885C319.98 158.693 319.59 158.655 319.409 158.885Z" fill="#355B51"/>
<path d="M318.393 160.956C319.612 156.963 320.941 152.964 323.023 149.338C325.105 145.718 328.011 142.46 331.741 140.582C332.769 140.065 333.895 139.648 335.043 139.719C336.191 139.791 337.361 140.45 337.746 141.537C337.96 142.131 337.916 142.784 337.806 143.411C337.389 145.751 336.01 147.805 334.526 149.662C330.379 154.837 324.347 158.028 318.393 160.951" fill="#355B51"/>
<path d="M294.227 184.276C293.354 180.189 292.574 176.047 292.64 171.872C292.706 167.697 293.662 163.439 296.018 159.99C296.666 159.039 297.446 158.133 298.49 157.638C299.528 157.144 300.874 157.155 301.737 157.913C302.209 158.331 302.495 158.924 302.698 159.517C303.467 161.769 303.264 164.23 302.863 166.576C301.748 173.113 298.023 178.832 294.233 184.27" fill="#355B51"/>
<path d="M309.378 170.784C308.631 168.186 307.944 165.549 307.812 162.835C307.681 160.121 308.131 157.303 309.537 154.925C309.922 154.271 310.4 153.634 311.065 153.249C311.729 152.865 312.614 152.793 313.212 153.233C313.542 153.474 313.751 153.842 313.91 154.216C314.509 155.628 314.481 157.243 314.317 158.786C313.855 163.093 311.641 167.026 309.378 170.784Z" fill="#355B51"/>
<path d="M312.202 168.004C316.157 164.994 323.523 159.902 328.374 158.819C331.011 158.232 334.076 158.056 336.103 159.841C336.685 160.352 337.158 161.061 337.125 161.835C337.086 162.703 336.427 163.406 335.763 163.961C332.736 166.499 328.808 167.724 324.902 168.284C320.689 168.894 316.382 168.795 312.202 168.004Z" fill="#355B51"/>
<path d="M290.108 187.797C294.942 186.638 303.736 184.951 308.609 185.918C311.257 186.446 314.135 187.522 315.267 189.972C315.591 190.675 315.739 191.516 315.399 192.208C315.014 192.983 314.13 193.367 313.295 193.609C309.504 194.707 305.417 194.246 301.616 193.186C297.518 192.043 293.612 190.214 290.108 187.802" fill="#355B51"/>
<path d="M303.418 176.739C307.499 175.069 314.976 172.399 319.376 172.586C321.771 172.685 324.435 173.239 325.759 175.234C326.138 175.805 326.385 176.524 326.177 177.178C325.946 177.914 325.221 178.365 324.523 178.689C321.348 180.167 317.706 180.315 314.229 179.903C310.482 179.458 306.813 178.387 303.412 176.744" fill="#355B51"/>
<path d="M135.701 150.464C140.403 153.276 144.93 156.38 149.248 159.747C153.538 163.093 157.625 166.696 161.476 170.542C163.657 172.723 165.761 174.975 167.788 177.304C168.167 177.738 168.875 177.183 168.496 176.744C164.871 172.585 160.992 168.647 156.883 164.966C152.807 161.307 148.501 157.902 144.007 154.765C141.475 153.002 138.887 151.326 136.239 149.744C136.031 149.618 135.767 149.623 135.608 149.832C135.476 150.013 135.487 150.337 135.696 150.464H135.701Z" fill="#355B51"/>
<path d="M137.53 151.062C134.092 150.524 130.631 149.903 127.401 148.612C124.165 147.322 121.138 145.311 119.15 142.449C118.6 141.663 118.128 140.784 118.051 139.829C117.974 138.873 118.381 137.829 119.232 137.384C119.699 137.137 120.243 137.093 120.77 137.115C122.753 137.186 124.61 138.076 126.318 139.087C131.076 141.9 134.421 146.503 137.53 151.068" fill="#355B51"/>
<path d="M159.614 168.256C156.345 169.454 153.022 170.586 149.566 171.025C146.111 171.464 142.485 171.173 139.36 169.635C138.497 169.212 137.657 168.674 137.129 167.872C136.602 167.07 136.448 165.96 136.976 165.158C137.267 164.719 137.717 164.417 138.19 164.175C139.958 163.274 142.013 163.153 143.996 163.208C149.522 163.362 154.681 165.762 159.614 168.245" fill="#355B51"/>
<path d="M146.699 157.341C144.644 158.264 142.546 159.138 140.321 159.566C138.096 159.995 135.718 159.951 133.592 159.077C133.004 158.835 132.422 158.517 132.032 158.017C131.636 157.517 131.471 156.792 131.768 156.248C131.927 155.946 132.207 155.732 132.498 155.556C133.597 154.891 134.927 154.732 136.223 154.683C139.832 154.556 143.337 155.919 146.704 157.347" fill="#355B51"/>
<path d="M144.073 155.342C141.123 152.43 136.053 146.953 134.592 143.081C133.795 140.977 133.29 138.466 134.526 136.582C134.877 136.044 135.41 135.566 136.053 135.505C136.772 135.434 137.432 135.895 137.97 136.379C140.42 138.576 141.892 141.674 142.815 144.827C143.809 148.233 144.238 151.798 144.079 155.342" fill="#355B51"/>
<path d="M163.008 171.245C161.481 167.394 159.053 160.335 159.278 156.199C159.399 153.952 159.949 151.452 161.838 150.227C162.377 149.876 163.058 149.656 163.668 149.854C164.354 150.079 164.772 150.766 165.068 151.425C166.42 154.424 166.519 157.852 166.096 161.115C165.634 164.631 164.585 168.07 163.008 171.245Z" fill="#355B51"/>
<path d="M152.319 161.56C150.462 158.39 147.375 152.535 147.012 148.881C146.814 146.893 146.957 144.63 148.446 143.3C148.869 142.921 149.435 142.636 150 142.729C150.632 142.833 151.094 143.377 151.44 143.916C153.033 146.36 153.582 149.348 153.653 152.265C153.725 155.408 153.274 158.566 152.319 161.56Z" fill="#355B51"/>
<path d="M293.557 112.368C295.288 107.825 297.595 103.501 300.375 99.5078C303.154 95.5142 306.423 91.8611 310.076 88.653C312.136 86.8402 314.317 85.1757 316.608 83.6705C317.091 83.3519 316.64 82.5719 316.152 82.8905C311.999 85.6207 308.186 88.8672 304.824 92.5313C301.484 96.1679 298.573 100.211 296.194 104.54C294.854 106.984 293.684 109.522 292.69 112.131C292.602 112.357 292.783 112.626 293.003 112.686C293.255 112.758 293.47 112.598 293.557 112.373V112.368Z" fill="#355E52"/>
<path d="M296.81 105.424C300.496 102.381 304.731 99.9913 309.241 98.4092C310.515 97.9643 311.817 97.5797 313.13 97.2611C313.696 97.1238 313.454 96.2558 312.889 96.3932C308.131 97.5523 303.572 99.5573 299.512 102.293C298.359 103.068 297.244 103.903 296.172 104.792C295.727 105.161 296.365 105.798 296.81 105.43V105.424Z" fill="#355E52"/>
<path d="M309.895 88.4388C309.219 82.7477 311.581 76.7819 315.965 73.0904C318.393 71.0469 321.359 69.701 324.43 68.899C326.419 68.3826 328.451 68.086 330.484 67.7893C332.242 67.5311 333.999 67.2784 335.763 67.0203C335.928 66.9983 336.12 66.9818 336.241 67.0917C336.389 67.229 336.356 67.4652 336.312 67.6575C335.988 69.0748 335.658 70.4975 335.252 71.8928C333.758 77.0126 331.066 81.9401 326.825 85.1757C322.205 88.6915 315.481 90.0208 309.895 88.4333" fill="#54917E"/>
<path d="M308.28 98.1619C310.345 93.932 314.625 90.8667 319.294 90.2734C321.881 89.9438 324.524 90.3339 326.996 91.1469C328.594 91.6742 330.132 92.3719 331.665 93.075C332.994 93.6793 334.318 94.2836 335.648 94.8933C335.774 94.9483 335.911 95.0252 335.944 95.157C335.988 95.3163 335.856 95.4646 335.741 95.58C334.884 96.415 334.027 97.25 333.126 98.03C329.819 100.898 325.771 103.1 321.409 103.446C316.657 103.82 311.427 101.744 308.28 98.1674" fill="#355B51"/>
<path d="M171.595 177.167C169.485 181.551 166.826 185.665 163.717 189.406C160.613 193.147 157.048 196.515 153.137 199.41C150.934 201.041 148.616 202.519 146.204 203.826C145.699 204.101 146.078 204.919 146.594 204.639C150.962 202.266 155.032 199.349 158.696 195.987C162.333 192.642 165.574 188.862 168.31 184.748C169.853 182.424 171.232 179.996 172.441 177.48C172.545 177.26 172.386 176.98 172.171 176.903C171.924 176.81 171.699 176.953 171.595 177.173V177.167Z" fill="#355E52"/>
<path d="M167.766 183.808C163.838 186.533 159.416 188.555 154.785 189.752C153.477 190.093 152.148 190.362 150.813 190.571C150.242 190.659 150.407 191.549 150.978 191.455C155.818 190.703 160.525 189.082 164.805 186.703C166.019 186.028 167.2 185.286 168.342 184.495C168.82 184.166 168.232 183.479 167.76 183.808H167.766Z" fill="#355E52"/>
<path d="M151.928 200.431C152.121 206.161 149.27 211.907 144.584 215.214C141.991 217.043 138.926 218.136 135.794 218.675C133.773 219.021 131.718 219.147 129.669 219.268L124.346 219.587C124.181 219.598 123.989 219.598 123.874 219.477C123.737 219.328 123.791 219.098 123.852 218.905C124.297 217.521 124.742 216.131 125.264 214.774C127.181 209.797 130.279 205.112 134.778 202.25C139.678 199.135 146.49 198.377 151.923 200.426" fill="#355B51"/>
<path d="M155.73 190.082C153.318 194.12 148.792 196.817 144.095 197.015C141.491 197.124 138.893 196.515 136.492 195.498C134.943 194.839 133.471 194.01 131.999 193.186C130.73 192.472 129.455 191.757 128.186 191.043C128.065 190.977 127.933 190.889 127.912 190.758C127.884 190.593 128.021 190.456 128.148 190.351C129.071 189.593 129.993 188.835 130.96 188.126C134.498 185.544 138.717 183.693 143.095 183.715C147.863 183.743 152.901 186.253 155.735 190.082" fill="#54917E"/>
<path d="M163.338 88.3947C163.069 88.3892 162.783 88.6199 162.794 88.9056C162.998 93.7123 163.311 98.5244 164.052 103.282C164.744 107.726 165.832 112.109 167.502 116.29C168.101 117.784 168.788 119.245 169.546 120.668C167.92 119.333 166.343 117.943 164.827 116.488C164.794 116.438 164.75 116.4 164.701 116.367C164.437 116.114 164.173 115.872 163.915 115.614C161.311 113.027 158.9 110.236 156.829 107.198C156.647 106.935 156.477 106.666 156.301 106.402C156.73 101.7 156.543 96.9423 155.757 92.2895C155.538 90.9876 155.274 89.6911 154.961 88.4057C154.802 87.7465 153.774 87.9882 153.934 88.6474C155.038 93.1794 155.554 97.8432 155.461 102.507C155.444 103.309 155.406 104.111 155.356 104.913C153.791 102.342 152.439 99.6396 151.225 96.8819C149.654 93.3003 148.292 89.6197 147.402 85.8074C147.292 85.3404 147.193 84.868 147.094 84.4011C146.963 83.7364 145.935 83.9781 146.067 84.6428C146.853 88.5375 148.155 92.3115 149.687 95.97C151.225 99.6341 152.983 103.221 155.142 106.567C157.175 109.72 159.548 112.642 162.152 115.34C162.196 115.383 162.245 115.433 162.289 115.477C159.822 114.51 157.449 113.318 155.203 111.912C152.269 110.077 149.566 107.896 147.155 105.419C145.792 104.012 144.523 102.518 143.364 100.941C143.194 100.711 142.815 100.733 142.623 100.909C142.392 101.117 142.425 101.425 142.59 101.65C144.688 104.501 147.138 107.072 149.858 109.33C152.56 111.577 155.532 113.499 158.691 115.037C160.432 115.883 162.229 116.619 164.063 117.229C166.123 119.201 168.299 121.058 170.545 122.821C173.506 125.145 176.588 127.309 179.725 129.391C180.104 129.644 180.483 129.891 180.862 130.139C181.428 130.512 181.994 129.622 181.428 129.249C178.313 127.211 175.248 125.101 172.287 122.843C172.106 122.706 171.935 122.563 171.754 122.426C171.754 122.415 171.754 122.404 171.743 122.393C170.139 119.806 168.853 117.042 167.832 114.18C167.848 114.147 167.876 114.12 167.887 114.076C168.853 110.808 169.249 107.374 169.046 103.974C169.029 103.688 168.837 103.441 168.535 103.435C168.271 103.43 167.975 103.661 167.991 103.946C168.167 106.797 167.909 109.659 167.238 112.428C167.035 111.78 166.837 111.132 166.656 110.478C165.431 106.056 164.744 101.502 164.343 96.9423C164.107 94.2781 163.959 91.6083 163.849 88.9331C163.838 88.6474 163.635 88.4002 163.338 88.3892V88.3947Z" fill="#2B160B"/>
<path d="M143.09 97.8598C144.556 98.3103 145.375 99.8594 144.93 101.321C144.479 102.787 142.93 103.606 141.469 103.161C140.002 102.71 139.184 101.161 139.629 99.7001C140.079 98.2334 141.628 97.4149 143.09 97.8598Z" fill="#DE5E28"/>
<path d="M146.941 81.5775C148.407 82.0279 149.226 83.5771 148.781 85.0383C148.33 86.505 146.781 87.3235 145.32 86.8785C143.853 86.4281 143.035 84.879 143.48 83.4177C143.93 81.951 145.479 81.1325 146.941 81.5775Z" fill="#DE5E28"/>
<path d="M155.054 85.3899C156.521 85.8403 157.339 87.3894 156.894 88.8507C156.444 90.3174 154.895 91.1359 153.433 90.6909C151.967 90.2405 151.148 88.6913 151.593 87.2301C152.044 85.7634 153.593 84.9449 155.054 85.3899Z" fill="#DE5E28"/>
<path d="M164.195 95.1681C165.662 95.6186 166.48 97.1677 166.035 98.6289C165.585 100.096 164.036 100.914 162.574 100.469C161.108 100.019 160.289 98.4696 160.734 97.0084C161.185 95.5417 162.734 94.7232 164.195 95.1681Z" fill="#DE5E28"/>
<path d="M151.917 108.094C153.384 108.544 154.203 110.093 153.758 111.555C153.313 113.016 151.758 113.84 150.297 113.395C148.83 112.944 148.012 111.395 148.457 109.934C148.907 108.467 150.456 107.649 151.917 108.094Z" fill="#DE5E28"/>
<path d="M169.941 101.112C171.408 101.562 172.226 103.111 171.781 104.573C171.331 106.039 169.782 106.858 168.32 106.413C166.854 105.962 166.035 104.413 166.48 102.952C166.931 101.485 168.48 100.667 169.941 101.112Z" fill="#DE5E28"/>
<path d="M163.624 85.5602C165.09 86.0107 165.909 87.5598 165.464 89.021C165.013 90.4878 163.464 91.3063 162.003 90.8613C160.536 90.4109 159.718 88.8617 160.163 87.4005C160.608 85.9393 162.162 85.1153 163.624 85.5602Z" fill="#DE5E28"/>
<path d="M316.388 137.209C316.377 137.016 316.201 136.824 315.998 136.852C312.587 137.242 309.17 137.708 305.819 138.483C302.688 139.203 299.622 140.202 296.727 141.609C295.695 142.114 294.689 142.674 293.711 143.29C294.579 142.065 295.486 140.867 296.447 139.714C296.48 139.686 296.508 139.653 296.53 139.615C296.694 139.417 296.854 139.214 297.024 139.016C298.732 137.027 300.6 135.171 302.655 133.539C302.83 133.396 303.017 133.259 303.198 133.122C306.571 133.182 309.95 132.808 313.224 132.012C314.141 131.787 315.048 131.534 315.948 131.243C316.41 131.095 316.185 130.375 315.723 130.523C312.554 131.539 309.258 132.144 305.929 132.32C305.357 132.347 304.781 132.363 304.209 132.369C305.962 131.122 307.818 130.018 309.719 129.018C312.191 127.716 314.745 126.557 317.415 125.728C317.745 125.623 318.074 125.53 318.404 125.436C318.871 125.305 318.646 124.59 318.179 124.717C315.443 125.475 312.823 126.595 310.29 127.875C307.758 129.155 305.297 130.595 303.023 132.303C300.88 133.913 298.919 135.753 297.134 137.747C297.101 137.78 297.073 137.818 297.04 137.851C297.601 136.044 298.331 134.297 299.216 132.622C300.375 130.441 301.787 128.397 303.429 126.557C304.358 125.513 305.363 124.535 306.423 123.629C306.577 123.497 306.544 123.228 306.407 123.096C306.247 122.942 306.028 122.981 305.874 123.113C303.951 124.755 302.243 126.628 300.77 128.683C299.309 130.721 298.09 132.935 297.156 135.264C296.639 136.549 296.211 137.862 295.87 139.203C294.568 140.774 293.36 142.416 292.217 144.108C290.712 146.333 289.328 148.64 288.009 150.98C287.85 151.261 287.691 151.546 287.531 151.826C287.295 152.249 287.96 152.606 288.196 152.183C289.487 149.86 290.833 147.569 292.294 145.344C292.382 145.212 292.475 145.081 292.563 144.943C292.569 144.943 292.58 144.943 292.585 144.932C294.349 143.658 296.249 142.603 298.238 141.724C298.265 141.735 298.282 141.752 298.315 141.757C300.694 142.279 303.16 142.389 305.572 142.065C305.775 142.037 305.94 141.889 305.929 141.675C305.923 141.488 305.736 141.29 305.539 141.318C303.517 141.587 301.468 141.554 299.458 141.213C299.908 141.032 300.358 140.862 300.814 140.697C303.902 139.598 307.11 138.879 310.34 138.357C312.224 138.049 314.119 137.813 316.02 137.593C316.223 137.571 316.388 137.412 316.377 137.203L316.388 137.209Z" fill="#2B160B"/>
<path d="M308.609 123.267C308.362 124.332 307.302 124.997 306.236 124.755C305.171 124.508 304.506 123.448 304.748 122.382C304.995 121.316 306.055 120.652 307.121 120.893C308.187 121.135 308.851 122.201 308.609 123.267Z" fill="#DE5E28"/>
<path d="M320.404 125.178C320.162 126.244 319.096 126.909 318.03 126.667C316.965 126.42 316.3 125.36 316.542 124.294C316.789 123.228 317.849 122.563 318.915 122.805C319.981 123.052 320.645 124.113 320.404 125.178Z" fill="#DE5E28"/>
<path d="M318.107 131.155C317.86 132.221 316.8 132.885 315.734 132.644C314.669 132.396 314.004 131.336 314.246 130.27C314.487 129.205 315.553 128.54 316.619 128.782C317.684 129.029 318.349 130.089 318.107 131.155Z" fill="#DE5E28"/>
<path d="M311.603 138.165C311.356 139.23 310.296 139.895 309.23 139.653C308.164 139.412 307.5 138.346 307.741 137.28C307.989 136.214 309.049 135.55 310.115 135.791C311.18 136.039 311.845 137.099 311.603 138.165Z" fill="#DE5E28"/>
<path d="M301.77 130.078C301.523 131.144 300.463 131.809 299.397 131.567C298.331 131.32 297.667 130.26 297.908 129.194C298.156 128.128 299.216 127.463 300.281 127.705C301.347 127.952 302.012 129.013 301.77 130.078Z" fill="#DE5E28"/>
<path d="M307.665 142.559C307.417 143.625 306.357 144.29 305.291 144.048C304.226 143.801 303.561 142.74 303.803 141.675C304.05 140.609 305.11 139.944 306.176 140.186C307.242 140.433 307.906 141.494 307.665 142.559Z" fill="#DE5E28"/>
<path d="M318.421 137.264C318.173 138.329 317.113 138.994 316.047 138.752C314.982 138.505 314.317 137.445 314.559 136.379C314.806 135.313 315.866 134.649 316.932 134.89C317.998 135.138 318.662 136.198 318.421 137.264Z" fill="#DE5E28"/>
<path d="M135.223 119.256C135.344 118.531 135.635 117.834 136.058 117.235C136.278 116.927 136.542 116.636 136.877 116.449C137.058 116.35 137.261 116.279 137.465 116.29C137.668 116.301 137.877 116.394 137.992 116.57C138.168 116.839 138.069 117.202 137.91 117.476C137.635 117.943 137.201 118.295 136.745 118.581C136.284 118.866 135.795 119.097 135.333 119.383" fill="#DE5E28"/>
<path d="M135.317 119.196C135.937 118.8 136.646 118.542 137.377 118.454C137.756 118.41 138.146 118.41 138.508 118.531C138.706 118.597 138.893 118.701 139.025 118.861C139.156 119.02 139.228 119.24 139.173 119.438C139.091 119.745 138.761 119.921 138.442 119.987C137.915 120.097 137.36 120.014 136.838 119.866C136.316 119.718 135.817 119.509 135.295 119.361" fill="#DE5E28"/>
<path d="M135.46 119.102C134.822 119.47 134.103 119.696 133.372 119.751C132.993 119.778 132.603 119.762 132.246 119.624C132.054 119.547 131.872 119.437 131.746 119.273C131.62 119.108 131.565 118.888 131.625 118.69C131.719 118.383 132.059 118.223 132.378 118.174C132.911 118.086 133.46 118.196 133.976 118.366C134.493 118.537 134.982 118.767 135.493 118.938" fill="#DE5E28"/>
<path d="M135.449 119.383C134.844 118.965 134.334 118.41 133.971 117.768C133.784 117.438 133.63 117.075 133.603 116.696C133.586 116.493 133.614 116.279 133.707 116.098C133.801 115.916 133.976 115.768 134.18 115.741C134.498 115.697 134.784 115.938 134.965 116.202C135.273 116.647 135.41 117.191 135.476 117.729C135.542 118.268 135.542 118.811 135.602 119.35" fill="#DE5E28"/>
<path d="M135.509 119.487C135.85 120.141 136.036 120.871 136.058 121.602C136.069 121.981 136.031 122.371 135.877 122.723C135.795 122.909 135.674 123.085 135.503 123.206C135.333 123.321 135.108 123.371 134.916 123.299C134.614 123.189 134.471 122.843 134.438 122.525C134.377 121.986 134.509 121.443 134.701 120.937C134.894 120.432 135.152 119.954 135.35 119.448" fill="#DE5E28"/>
<path d="M135.24 119.372C135.036 120.08 134.668 120.739 134.179 121.283C133.927 121.569 133.63 121.822 133.279 121.97C133.086 122.047 132.878 122.096 132.674 122.063C132.471 122.03 132.273 121.91 132.185 121.728C132.043 121.443 132.18 121.091 132.372 120.833C132.696 120.399 133.169 120.097 133.658 119.866C134.147 119.635 134.663 119.46 135.152 119.229" fill="#DE5E28"/>
<path d="M135.564 119.432C136.289 119.547 136.987 119.828 137.591 120.251C137.904 120.47 138.195 120.729 138.382 121.058C138.481 121.239 138.552 121.437 138.547 121.646C138.541 121.849 138.448 122.058 138.272 122.173C138.003 122.349 137.64 122.256 137.36 122.096C136.893 121.827 136.536 121.399 136.245 120.937C135.954 120.481 135.723 119.987 135.432 119.531" fill="#DE5E28"/>
<path d="M135.366 120.553C136.575 120.553 136.575 118.68 135.366 118.68C134.158 118.68 134.158 120.553 135.366 120.553Z" fill="#080E07"/>
<path d="M117.782 171.103C118.128 169.043 118.952 167.059 120.16 165.357C120.787 164.472 121.539 163.654 122.484 163.126C122.995 162.841 123.572 162.648 124.159 162.676C124.742 162.703 125.335 162.972 125.654 163.467C126.154 164.23 125.879 165.263 125.417 166.049C124.637 167.378 123.407 168.378 122.099 169.191C120.792 170.004 119.391 170.658 118.084 171.471" fill="white"/>
<path d="M118.045 170.932C119.803 169.801 121.819 169.076 123.896 168.823C124.973 168.691 126.082 168.691 127.109 169.037C127.664 169.224 128.197 169.521 128.571 169.971C128.944 170.422 129.142 171.042 128.994 171.608C128.763 172.493 127.813 172.981 126.923 173.174C125.417 173.492 123.846 173.256 122.363 172.839C120.88 172.421 119.457 171.822 117.974 171.399" fill="white"/>
<path d="M118.452 170.674C116.645 171.723 114.596 172.36 112.514 172.514C111.431 172.597 110.322 172.547 109.311 172.152C108.767 171.943 108.245 171.619 107.894 171.157C107.542 170.69 107.372 170.064 107.542 169.504C107.811 168.63 108.784 168.186 109.679 168.037C111.195 167.784 112.755 168.092 114.217 168.581C115.678 169.064 117.073 169.724 118.534 170.213" fill="white"/>
<path d="M118.419 171.465C116.699 170.279 115.249 168.697 114.222 166.878C113.689 165.939 113.261 164.912 113.184 163.829C113.14 163.247 113.211 162.643 113.48 162.121C113.749 161.605 114.249 161.182 114.826 161.099C115.727 160.973 116.551 161.66 117.067 162.407C117.941 163.676 118.331 165.214 118.512 166.746C118.699 168.274 118.693 169.823 118.88 171.35" fill="white"/>
<path d="M118.6 171.767C119.562 173.624 120.1 175.7 120.16 177.788C120.188 178.87 120.089 179.98 119.649 180.969C119.413 181.501 119.067 182.007 118.584 182.336C118.1 182.666 117.463 182.803 116.914 182.606C116.057 182.292 115.656 181.304 115.546 180.397C115.37 178.87 115.749 177.326 116.304 175.887C116.859 174.453 117.584 173.086 118.139 171.652" fill="white"/>
<path d="M117.837 171.432C117.26 173.443 116.216 175.316 114.821 176.871C114.096 177.678 113.261 178.409 112.261 178.826C111.723 179.052 111.124 179.178 110.547 179.085C109.97 178.991 109.415 178.656 109.152 178.129C108.745 177.316 109.135 176.316 109.679 175.591C110.602 174.36 111.942 173.503 113.332 172.844C114.722 172.185 116.189 171.696 117.578 171.037" fill="white"/>
<path d="M118.754 171.613C120.819 171.943 122.808 172.745 124.522 173.943C125.412 174.563 126.241 175.305 126.774 176.244C127.065 176.755 127.263 177.327 127.241 177.914C127.219 178.497 126.956 179.095 126.467 179.414C125.709 179.919 124.67 179.656 123.879 179.2C122.544 178.431 121.528 177.211 120.704 175.909C119.88 174.607 119.215 173.212 118.391 171.916" fill="white"/>
<path d="M118.183 174.794C121.611 174.794 121.616 169.466 118.183 169.466C114.749 169.466 114.749 174.794 118.183 174.794Z" fill="#080E07"/>
<path d="M326.842 112.879C327.078 111.483 327.633 110.138 328.457 108.984C328.88 108.385 329.391 107.83 330.033 107.473C330.38 107.281 330.77 107.149 331.165 107.166C331.561 107.182 331.962 107.369 332.181 107.699C332.516 108.215 332.335 108.918 332.022 109.451C331.495 110.352 330.66 111.033 329.77 111.582C328.885 112.132 327.935 112.577 327.045 113.126" fill="#DE5E28"/>
<path d="M327.023 112.763C328.215 111.994 329.583 111.505 330.989 111.335C331.72 111.247 332.472 111.247 333.17 111.483C333.544 111.61 333.906 111.813 334.159 112.115C334.411 112.423 334.543 112.84 334.444 113.225C334.291 113.824 333.648 114.159 333.038 114.285C332.016 114.499 330.951 114.34 329.945 114.054C328.94 113.769 327.973 113.368 326.974 113.082" fill="#DE5E28"/>
<path d="M327.298 112.588C326.073 113.302 324.683 113.73 323.271 113.835C322.54 113.89 321.788 113.857 321.101 113.593C320.733 113.45 320.382 113.236 320.14 112.917C319.898 112.599 319.788 112.176 319.904 111.797C320.085 111.203 320.744 110.901 321.354 110.802C322.381 110.632 323.441 110.841 324.43 111.17C325.419 111.5 326.369 111.945 327.358 112.275" fill="#DE5E28"/>
<path d="M327.276 113.126C326.111 112.324 325.128 111.247 324.43 110.017C324.068 109.38 323.777 108.682 323.727 107.951C323.7 107.556 323.744 107.144 323.93 106.792C324.112 106.441 324.452 106.155 324.842 106.1C325.452 106.012 326.012 106.479 326.364 106.984C326.957 107.841 327.221 108.891 327.342 109.923C327.468 110.962 327.468 112.005 327.589 113.044" fill="#DE5E28"/>
<path d="M327.402 113.329C328.056 114.587 328.418 115.993 328.457 117.411C328.479 118.147 328.407 118.894 328.111 119.564C327.951 119.927 327.715 120.267 327.391 120.493C327.062 120.718 326.633 120.811 326.26 120.674C325.677 120.465 325.403 119.789 325.331 119.18C325.21 118.141 325.468 117.098 325.842 116.125C326.216 115.153 326.71 114.225 327.089 113.252" fill="#DE5E28"/>
<path d="M326.88 113.104C326.49 114.466 325.782 115.735 324.837 116.79C324.348 117.334 323.777 117.834 323.101 118.114C322.733 118.268 322.332 118.356 321.936 118.29C321.546 118.229 321.167 117.999 320.991 117.642C320.717 117.087 320.98 116.411 321.348 115.917C321.975 115.082 322.881 114.499 323.826 114.054C324.771 113.609 325.765 113.274 326.704 112.829" fill="#DE5E28"/>
<path d="M327.501 113.225C328.902 113.45 330.248 113.994 331.412 114.802C332.016 115.219 332.577 115.724 332.939 116.362C333.137 116.708 333.269 117.098 333.258 117.493C333.241 117.889 333.06 118.29 332.73 118.51C332.214 118.85 331.511 118.674 330.978 118.361C330.072 117.839 329.385 117.01 328.825 116.131C328.264 115.252 327.814 114.302 327.259 113.423" fill="#DE5E28"/>
<path d="M327.116 115.378C329.44 115.378 329.446 111.764 327.116 111.764C324.787 111.764 324.787 115.378 327.116 115.378Z" fill="#080E07"/>
<path d="M182.043 50.8811C182.274 49.5022 182.823 48.1838 183.631 47.0467C184.048 46.4589 184.548 45.9096 185.18 45.558C185.52 45.3658 185.905 45.2394 186.295 45.2559C186.685 45.2724 187.08 45.4537 187.295 45.7833C187.63 46.2941 187.443 46.9808 187.135 47.5082C186.614 48.3926 185.79 49.0628 184.922 49.6066C184.054 50.1505 183.114 50.5844 182.241 51.1283" fill="#DE5E28"/>
<path d="M182.219 50.7656C183.394 50.013 184.74 49.5241 186.124 49.3593C186.844 49.2714 187.586 49.2714 188.272 49.5021C188.64 49.6285 188.998 49.8262 189.25 50.1229C189.497 50.425 189.629 50.837 189.53 51.216C189.377 51.8038 188.745 52.1334 188.146 52.2598C187.141 52.474 186.092 52.3147 185.103 52.0345C184.114 51.7544 183.164 51.3589 182.175 51.0732" fill="#DE5E28"/>
<path d="M182.493 50.5899C181.285 51.293 179.917 51.716 178.527 51.8204C177.808 51.8753 177.066 51.8423 176.39 51.5787C176.028 51.4358 175.682 51.2216 175.446 50.914C175.209 50.6008 175.099 50.1833 175.215 49.8098C175.396 49.2275 176.044 48.9254 176.643 48.8265C177.659 48.6617 178.698 48.8649 179.675 49.1891C180.653 49.5132 181.587 49.9526 182.559 50.2767" fill="#DE5E28"/>
<path d="M182.471 51.1227C181.323 50.3316 180.356 49.2769 179.664 48.0574C179.307 47.4257 179.022 46.7445 178.972 46.0194C178.945 45.6293 178.989 45.2228 179.17 44.8768C179.351 44.5307 179.681 44.2505 180.071 44.1956C180.675 44.1077 181.219 44.5691 181.565 45.069C182.147 45.915 182.406 46.9422 182.532 47.964C182.653 48.9858 182.653 50.0185 182.774 51.0348" fill="#DE5E28"/>
<path d="M182.592 51.3206C183.235 52.5621 183.592 53.9464 183.63 55.3417C183.652 56.0668 183.581 56.8029 183.29 57.4676C183.131 57.8247 182.9 58.1598 182.581 58.3795C182.263 58.5992 181.834 58.6926 181.466 58.5608C180.895 58.352 180.626 57.6928 180.554 57.0886C180.433 56.0668 180.692 55.0341 181.06 54.0782C181.428 53.1169 181.917 52.2105 182.285 51.2491" fill="#DE5E28"/>
<path d="M182.082 51.1006C181.697 52.441 180.999 53.6935 180.066 54.7317C179.582 55.2701 179.022 55.759 178.357 56.0337C177.995 56.182 177.599 56.2699 177.214 56.2095C176.83 56.149 176.456 55.9238 176.281 55.5722C176.006 55.0284 176.27 54.3637 176.632 53.8748C177.247 53.0508 178.143 52.4795 179.071 52.04C180 51.6005 180.977 51.2709 181.906 50.8315" fill="#DE5E28"/>
<path d="M182.691 51.2215C184.07 51.4412 185.4 51.9796 186.542 52.7761C187.135 53.1881 187.69 53.688 188.047 54.3142C188.24 54.6548 188.371 55.0394 188.36 55.4294C188.344 55.8194 188.168 56.2149 187.844 56.4347C187.339 56.7698 186.646 56.594 186.119 56.2918C185.229 55.781 184.548 54.9625 183.999 54.0945C183.449 53.2266 183.004 52.2927 182.455 51.4248" fill="#DE5E28"/>
<path d="M182.312 53.3421C184.603 53.3421 184.608 49.7825 182.312 49.7825C180.016 49.7825 180.016 53.3421 182.312 53.3421Z" fill="#080E07"/>
<path d="M302.896 58.0934C303.127 56.7145 303.676 55.3961 304.484 54.259C304.901 53.6712 305.401 53.1219 306.033 52.7703C306.374 52.578 306.758 52.4517 307.148 52.4682C307.538 52.4847 307.934 52.6659 308.148 52.9955C308.483 53.5064 308.296 54.1931 307.989 54.7204C307.467 55.6049 306.643 56.2751 305.775 56.8189C304.901 57.3627 303.967 57.7967 303.094 58.3406" fill="#DE5E28"/>
<path d="M303.072 57.9835C304.247 57.2309 305.593 56.742 306.978 56.5772C307.697 56.4893 308.439 56.4893 309.126 56.72C309.494 56.8464 309.851 57.0441 310.103 57.3407C310.351 57.6429 310.482 58.0549 310.384 58.4339C310.23 59.0217 309.598 59.3513 308.999 59.4777C307.994 59.6919 306.945 59.5326 305.956 59.2524C304.967 58.9723 304.017 58.5768 303.028 58.2911" fill="#DE5E28"/>
<path d="M303.347 57.8078C302.138 58.5109 300.77 58.9339 299.38 59.0383C298.661 59.0932 297.919 59.0602 297.244 58.7966C296.881 58.6537 296.535 58.445 296.299 58.1319C296.062 57.8187 295.953 57.4012 296.068 57.0277C296.249 56.4454 296.897 56.1433 297.496 56.0444C298.512 55.8796 299.551 56.0828 300.529 56.4069C301.506 56.7311 302.44 57.1705 303.413 57.4946" fill="#DE5E28"/>
<path d="M303.325 58.3406C302.176 57.5495 301.21 56.4948 300.517 55.2753C300.16 54.6436 299.875 53.9624 299.825 53.2373C299.798 52.8472 299.842 52.4407 300.023 52.0946C300.204 51.7486 300.534 51.4684 300.924 51.4135C301.528 51.3256 302.072 51.787 302.418 52.2869C303 53.1329 303.259 54.1601 303.385 55.1819C303.506 56.2037 303.506 57.2364 303.627 58.2527" fill="#DE5E28"/>
<path d="M303.445 58.5385C304.088 59.78 304.445 61.1643 304.484 62.5596C304.506 63.2847 304.434 64.0208 304.143 64.6855C303.984 65.0426 303.753 65.3777 303.434 65.5974C303.11 65.8171 302.687 65.9105 302.319 65.7787C301.748 65.5699 301.479 64.9107 301.407 64.3065C301.286 63.2847 301.545 62.252 301.913 61.2961C302.281 60.3348 302.77 59.4284 303.138 58.467" fill="#DE5E28"/>
<path d="M302.935 58.3132C302.55 59.6535 301.853 60.906 300.919 61.9443C300.435 62.4826 299.875 62.9715 299.21 63.2462C298.848 63.3945 298.452 63.4824 298.068 63.422C297.683 63.3615 297.31 63.1363 297.134 62.7847C296.859 62.2409 297.123 61.5762 297.485 61.0873C298.101 60.2633 298.996 59.692 299.924 59.2525C300.853 58.8131 301.831 58.4835 302.759 58.044" fill="#DE5E28"/>
<path d="M303.544 58.434C304.923 58.6538 306.253 59.1921 307.395 59.9886C307.989 60.4006 308.543 60.9005 308.9 61.5268C309.093 61.8674 309.225 62.2519 309.214 62.6419C309.197 63.0319 309.021 63.4275 308.697 63.6472C308.192 63.9823 307.5 63.8065 306.972 63.5044C306.082 62.9935 305.401 62.175 304.852 61.307C304.303 60.4391 303.858 59.5052 303.308 58.6373" fill="#DE5E28"/>
<path d="M303.165 60.5597C305.456 60.5597 305.462 57.0001 303.165 57.0001C300.869 57.0001 300.869 60.5597 303.165 60.5597Z" fill="#080E07"/>
<path d="M327.973 191.895C328.204 190.516 328.753 189.198 329.561 188.061C329.978 187.473 330.478 186.923 331.11 186.572C331.451 186.38 331.835 186.253 332.225 186.27C332.615 186.286 333.011 186.468 333.225 186.797C333.56 187.308 333.373 188 333.066 188.522C332.544 189.406 331.72 190.077 330.852 190.62C329.978 191.164 329.045 191.598 328.171 192.142" fill="#DE5E28"/>
<path d="M328.155 191.779C329.33 191.027 330.676 190.538 332.06 190.373C332.78 190.285 333.522 190.285 334.208 190.516C334.576 190.642 334.933 190.84 335.186 191.137C335.433 191.439 335.565 191.851 335.466 192.23C335.312 192.818 334.681 193.147 334.082 193.274C333.077 193.488 332.027 193.329 331.039 193.048C330.05 192.768 329.1 192.373 328.111 192.087" fill="#DE5E28"/>
<path d="M328.424 191.604C327.215 192.307 325.847 192.73 324.458 192.834C323.738 192.889 322.996 192.856 322.321 192.592C321.958 192.45 321.612 192.235 321.376 191.928C321.14 191.615 321.03 191.197 321.145 190.824C321.326 190.241 321.975 189.939 322.573 189.84C323.59 189.676 324.628 189.879 325.606 190.203C326.583 190.527 327.517 190.966 328.49 191.291" fill="#DE5E28"/>
<path d="M328.402 192.137C327.254 191.345 326.287 190.291 325.595 189.071C325.238 188.44 324.952 187.758 324.902 187.033C324.875 186.643 324.919 186.237 325.1 185.891C325.281 185.545 325.611 185.264 326.001 185.209C326.605 185.122 327.149 185.583 327.495 186.083C328.078 186.929 328.336 187.962 328.462 188.978C328.583 190 328.583 191.032 328.704 192.049" fill="#DE5E28"/>
<path d="M328.523 192.334C329.165 193.576 329.522 194.96 329.561 196.355C329.583 197.081 329.511 197.817 329.22 198.481C329.061 198.838 328.83 199.174 328.512 199.393C328.187 199.613 327.764 199.706 327.396 199.575C326.825 199.366 326.556 198.707 326.485 198.102C326.364 197.081 326.622 196.048 326.99 195.092C327.358 194.136 327.847 193.224 328.215 192.263" fill="#DE5E28"/>
<path d="M328.012 192.114C327.627 193.455 326.93 194.707 325.996 195.746C325.512 196.284 324.952 196.773 324.287 197.047C323.925 197.196 323.529 197.284 323.145 197.223C322.76 197.163 322.387 196.938 322.211 196.586C321.936 196.042 322.2 195.378 322.562 194.889C323.178 194.065 324.073 193.493 325.001 193.054C325.93 192.614 326.908 192.285 327.836 191.845" fill="#DE5E28"/>
<path d="M328.627 192.235C330.006 192.455 331.335 192.993 332.478 193.79C333.071 194.202 333.626 194.702 333.983 195.328C334.175 195.669 334.307 196.053 334.296 196.443C334.28 196.833 334.104 197.229 333.78 197.448C333.274 197.784 332.582 197.608 332.055 197.306C331.165 196.795 330.484 195.976 329.934 195.108C329.385 194.24 328.94 193.307 328.391 192.439" fill="#DE5E28"/>
<path d="M328.243 194.356C330.534 194.356 330.539 190.796 328.243 190.796C325.947 190.796 325.947 194.356 328.243 194.356Z" fill="#080E07"/>
<path d="M332.741 130.611C332.741 131.182 332.28 131.643 331.709 131.643C331.137 131.643 330.676 131.182 330.676 130.611C330.676 130.039 331.137 129.578 331.709 129.578C332.28 129.578 332.741 130.039 332.741 130.611Z" fill="white"/>
<path d="M349.534 145.108C349.534 146.41 348.48 147.464 347.178 147.464C345.876 147.464 344.821 146.41 344.821 145.108C344.821 143.806 345.876 142.751 347.178 142.751C348.48 142.751 349.534 143.806 349.534 145.108Z" fill="white"/>
<path d="M58.8492 38.537C58.8492 39.8389 57.7945 40.8936 56.4926 40.8936C55.1907 40.8936 54.1359 39.8389 54.1359 38.537C54.1359 37.2351 55.1907 36.1804 56.4926 36.1804C57.7945 36.1804 58.8492 37.2351 58.8492 38.537Z" fill="white"/>
<path d="M237.481 55.2038C237.481 56.1431 236.718 56.9012 235.784 56.9012C234.85 56.9012 234.087 56.1377 234.087 55.2038C234.087 54.2699 234.85 53.5063 235.784 53.5063C236.718 53.5063 237.481 54.2699 237.481 55.2038Z" fill="white"/>
<path d="M102.906 65.7401C102.906 66.6795 102.142 67.4375 101.208 67.4375C100.274 67.4375 99.5109 66.674 99.5109 65.7401C99.5109 64.8062 100.274 64.0427 101.208 64.0427C102.142 64.0427 102.906 64.8062 102.906 65.7401Z" fill="white"/>
<path d="M120.281 196.344C120.281 198.151 118.814 199.612 117.012 199.612C115.211 199.612 113.744 198.146 113.744 196.344C113.744 194.542 115.211 193.075 117.012 193.075C118.814 193.075 120.281 194.542 120.281 196.344Z" fill="white"/>
<path d="M186.168 109.401C186.168 109.972 185.707 110.434 185.135 110.434C184.564 110.434 184.103 109.972 184.103 109.401C184.103 108.83 184.564 108.368 185.135 108.368C185.707 108.368 186.168 108.83 186.168 109.401Z" fill="white"/>
<path d="M158.498 69.4314C158.498 70.0027 158.037 70.4642 157.466 70.4642C156.894 70.4642 156.433 70.0027 156.433 69.4314C156.433 68.8601 156.894 68.3987 157.466 68.3987C158.037 68.3987 158.498 68.8601 158.498 69.4314Z" fill="white"/>
<path d="M200.434 27.3691C200.434 27.9404 199.973 28.4018 199.402 28.4018C198.83 28.4018 198.369 27.9404 198.369 27.3691C198.369 26.7977 198.83 26.3363 199.402 26.3363C199.973 26.3363 200.434 26.7977 200.434 27.3691Z" fill="white"/>
<path d="M115.689 31.1321C115.689 31.7034 115.227 32.1648 114.656 32.1648C114.085 32.1648 113.623 31.7034 113.623 31.1321C113.623 30.5607 114.085 30.0993 114.656 30.0993C115.227 30.0993 115.689 30.5607 115.689 31.1321Z" fill="white"/>
<path d="M346.145 173.613C346.145 174.184 345.684 174.645 345.112 174.645C344.541 174.645 344.08 174.184 344.08 173.613C344.08 173.041 344.541 172.58 345.112 172.58C345.684 172.58 346.145 173.041 346.145 173.613Z" fill="white"/>
<path d="M119.078 152.93C119.078 153.501 118.617 153.963 118.045 153.963C117.474 153.963 117.013 153.501 117.013 152.93C117.013 152.359 117.474 151.897 118.045 151.897C118.617 151.897 119.078 152.359 119.078 152.93Z" fill="white"/>
<path d="M307.867 76.2434C307.867 76.8147 307.406 77.2761 306.835 77.2761C306.263 77.2761 305.802 76.8147 305.802 76.2434C305.802 75.6721 306.263 75.2106 306.835 75.2106C307.406 75.2106 307.867 75.6721 307.867 76.2434Z" fill="white"/>
<path d="M316.14 204.644C316.711 204.644 317.173 204.182 317.173 203.612C317.173 203.041 316.711 202.579 316.14 202.579C315.57 202.579 315.108 203.041 315.108 203.612C315.108 204.182 315.57 204.644 316.14 204.644Z" fill="white"/>
<path d="M194.447 101.606C194.447 101.606 198.831 109.182 194.447 119.883L300.298 118.63L301.364 118.257V103.732L298.733 101.606H194.447Z" fill="#FBFBFB"/>
<path d="M297.041 101.919C297.041 101.919 301.172 108.303 297.041 119.009C297.041 119.009 301.957 117.63 301.924 111.06C301.891 104.485 299.798 102.106 297.041 101.919Z" fill="#858582"/>
<path d="M191.942 120.553C191.931 119.525 192.755 118.69 193.782 118.68L296.766 117.746C298.848 117.729 300.611 115.158 300.611 112.131V108.325C300.611 105.281 298.842 102.71 296.744 102.71H193.799C192.772 102.71 191.942 101.881 191.942 100.854C191.942 99.8264 192.772 98.9969 193.799 98.9969H296.744C300.924 98.9969 304.325 103.183 304.325 108.325V112.131C304.325 117.323 301.018 121.421 296.799 121.459L193.815 122.393C192.788 122.404 191.953 121.58 191.942 120.553Z" fill="#141D5E"/>
<path d="M284.499 105.902H212.806V106.38H284.499V105.902Z" fill="#DBDBDB"/>
<path d="M288.922 110.219H208.109V110.697H288.922V110.219Z" fill="#DBDBDB"/>
<path d="M284.499 114.543H212.806V115.021H284.499V114.543Z" fill="#DBDBDB"/>
<path d="M182.323 147.388C182.323 147.388 186.707 154.963 182.323 165.664L288.174 164.412L289.24 164.038V149.514L286.609 147.388H182.323Z" fill="#FBFBFB"/>
<path d="M284.922 147.701C284.922 147.701 289.053 154.084 284.922 164.791C284.922 164.791 289.839 163.412 289.806 156.842C289.773 150.266 287.68 147.888 284.922 147.701Z" fill="#858582"/>
<path d="M179.818 166.334C179.807 165.307 180.631 164.472 181.658 164.461L284.642 163.527C286.724 163.511 288.487 160.94 288.487 157.913V154.106C288.487 151.063 286.718 148.492 284.62 148.492H181.675C180.648 148.492 179.818 147.663 179.818 146.635C179.818 145.608 180.648 144.779 181.675 144.779H284.62C288.8 144.779 292.201 148.964 292.201 154.106V157.913C292.201 163.104 288.894 167.202 284.675 167.241L181.691 168.175C180.664 168.186 179.829 167.362 179.818 166.334Z" fill="#DE5E28"/>
<path d="M272.381 151.684H200.688V152.162H272.381V151.684Z" fill="#DBDBDB"/>
<path d="M276.798 156.007H195.985V156.485H276.798V156.007Z" fill="#DBDBDB"/>
<path d="M272.381 160.33H200.688V160.808H272.381V160.33Z" fill="#DBDBDB"/>
<path d="M156.323 124.173C156.323 124.173 161.712 131.858 156.323 142.718L286.504 141.449L287.812 141.07V126.337L284.576 124.178H156.318L156.323 124.173Z" fill="#FBFBFB"/>
<path d="M283.071 124.492C283.071 124.492 287.669 130.968 283.071 141.829C283.071 141.829 288.543 140.433 288.51 133.764C288.477 127.095 286.142 124.684 283.071 124.492Z" fill="#858582"/>
<path d="M153.247 143.4C153.236 142.361 154.247 141.51 155.51 141.499L282.165 140.554C284.73 140.532 286.894 137.928 286.894 134.857V130.996C286.894 127.908 284.719 125.299 282.137 125.299H155.532C154.269 125.299 153.247 124.453 153.247 123.415C153.247 122.377 154.269 121.531 155.532 121.531H282.137C287.279 121.531 291.459 125.777 291.459 130.996V134.857C291.459 140.125 287.394 144.284 282.203 144.322L155.543 145.267C154.28 145.278 153.253 144.443 153.236 143.4H153.247Z" fill="#F2D161"/>
<path d="M267.08 128.529H178.906V129.018H267.08V128.529Z" fill="#DBDBDB"/>
<path d="M272.518 132.918H173.127V133.407H272.518V132.918Z" fill="#DBDBDB"/>
<path d="M267.08 137.302H178.906V137.791H267.08V137.302Z" fill="#DBDBDB"/>
<path d="M146.402 169.839C146.402 169.839 151.791 177.414 146.402 188.115L276.583 186.863L277.891 186.489V171.965L274.655 169.839H146.397H146.402Z" fill="#FBFBFB"/>
<path d="M272.925 170.388C272.925 170.388 277.523 176.771 272.925 187.478C272.925 187.478 278.396 186.099 278.363 179.529C278.33 172.953 275.996 170.575 272.925 170.388Z" fill="#858582"/>
<path d="M143.326 188.785C143.315 187.758 144.326 186.923 145.589 186.912L272.244 185.978C274.809 185.962 276.973 183.391 276.973 180.364V176.557C276.973 173.514 274.798 170.943 272.216 170.943H145.606C144.342 170.943 143.321 170.114 143.321 169.086C143.321 168.059 144.342 167.23 145.606 167.23H272.216C277.358 167.23 281.538 171.415 281.538 176.557V180.364C281.538 185.555 277.473 189.653 272.282 189.692L145.622 190.626C144.359 190.637 143.332 189.813 143.315 188.785H143.326Z" fill="#F2D161"/>
<path d="M257.159 174.134H168.985V174.612H257.159V174.134Z" fill="#DBDBDB"/>
<path d="M262.597 178.458H163.206V178.936H262.597V178.458Z" fill="#DBDBDB"/>
<path d="M257.159 182.781H168.985V183.259H257.159V182.781Z" fill="#DBDBDB"/>
<path d="M170.502 191.873C170.502 191.873 175.891 201.228 170.502 214.445L300.683 212.901L301.99 212.44V194.504L298.755 191.878H170.496L170.502 191.873Z" fill="#FBFBFB"/>
<path d="M297.024 192.422C297.024 192.422 301.622 200.651 297.024 214.45C297.024 214.45 302.496 212.676 302.463 204.205C302.43 195.735 300.095 192.669 297.024 192.428V192.422Z" fill="#858582"/>
<path d="M167.425 215.697C167.414 214.439 168.425 213.412 169.689 213.401L296.343 212.259C298.908 212.237 301.073 209.083 301.073 205.375V200.706C301.073 196.976 298.897 193.823 296.316 193.823H169.711C168.447 193.823 167.425 192.801 167.425 191.549C167.425 190.291 168.447 189.275 169.711 189.275H296.316C301.457 189.275 305.638 194.405 305.638 200.712V205.381C305.638 211.748 301.573 216.769 296.381 216.818L169.722 217.961C168.458 217.972 167.431 216.961 167.414 215.703L167.425 215.697Z" fill="#141D5E"/>
<path d="M281.259 198.597H193.085V199.075H281.259V198.597Z" fill="#DBDBDB"/>
<path d="M286.697 202.92H187.306V203.398H286.697V202.92Z" fill="#DBDBDB"/>
<path d="M281.259 207.243H193.085V207.721H281.259V207.243Z" fill="#DBDBDB"/>
<path d="M297.925 95.5968C297.925 90.7022 294.123 86.6591 289.24 86.3515C279.088 85.7143 262.114 85.1045 249.803 87.0217C259.252 85.2803 282.258 81.4075 296.156 82.2589C295.76 78.7707 292.844 76.1119 289.339 76.0515C278.89 75.8647 257.521 76.3371 244.59 82.5336C244.59 82.5336 263.163 70.2176 293.03 71.514C292.794 65.6196 287.724 61.1041 281.84 61.5326C270.486 62.3566 252.347 65.8064 238.333 78.5235C238.333 78.5235 248.402 59.6099 269.898 53.0124C268.783 51.9852 267.184 51.6721 265.767 52.2049C259.175 54.6824 240.783 62.8071 236.449 77.6116C232.115 62.8016 213.723 54.6824 207.131 52.2049C205.708 51.6721 204.115 51.9797 203 53.0124C224.495 59.6099 234.565 78.5235 234.565 78.5235C220.551 65.8064 202.412 62.3566 191.058 61.5326C185.174 61.1041 180.109 65.6251 179.868 71.514C209.735 70.2231 228.308 82.5336 228.308 82.5336C215.371 76.3426 194.007 75.8647 183.559 76.0515C180.049 76.1119 177.137 78.7762 176.742 82.2589C190.64 81.4075 213.646 85.2803 223.095 87.0217C210.79 85.099 193.81 85.7088 183.658 86.3515C178.774 86.6591 174.973 90.7022 174.973 95.5968L236.367 96.9316H236.454H236.542L297.936 95.5968H297.925Z" fill="#FDFFFF"/>
<path d="M237.482 100.815C235.68 100.815 234.048 99.9144 232.928 98.953C232.714 98.7662 232.439 98.6729 232.153 98.6729H172.595C171.924 98.6729 171.375 98.129 171.375 97.4533V95.5307C171.375 94.8605 171.919 94.3112 172.595 94.3112H232.939C233.285 94.3112 233.614 94.4595 233.845 94.7122C233.988 94.866 237.46 98.563 240.668 94.7506L240.679 94.7396C240.91 94.465 241.25 94.3057 241.613 94.3057H300.183C300.853 94.3057 301.402 94.8495 301.402 95.5252V97.4479C301.402 98.118 300.858 98.6674 300.183 98.6674H242.475C242.146 98.6674 241.838 98.8047 241.602 99.0299C240.223 100.326 238.806 100.81 237.482 100.81V100.815Z" fill="#396355"/>
<path d="M240.212 81.1876C241.036 80.6438 241.882 80.1439 242.733 79.6495C244.991 78.3366 247.304 77.1116 249.655 75.969C253.033 74.3265 256.5 72.8433 260.026 71.5468C264.185 70.0197 268.448 68.7507 272.782 67.8224C277.495 66.8116 282.302 66.2018 287.13 66.1469C287.74 66.1414 288.35 66.1469 288.954 66.1524C289.212 66.1524 289.212 65.7514 288.954 65.7459C284.093 65.658 279.231 66.1469 274.457 67.0643C270.008 67.9158 265.63 69.1408 261.356 70.6405C257.703 71.9204 254.116 73.4036 250.616 75.0571C248.089 76.2491 245.606 77.5346 243.184 78.9189C242.129 79.5232 241.058 80.1219 240.053 80.8086C240.042 80.8196 240.025 80.8251 240.014 80.8361C239.8 80.9789 239.998 81.3305 240.217 81.1876H240.212Z" fill="#DBDBDB"/>
<path d="M244.294 85.4066C245.2 85.1484 246.112 84.9122 247.024 84.6815C249.441 84.0717 251.874 83.5169 254.319 83.0115C257.785 82.2919 261.268 81.6711 264.767 81.1548C268.887 80.545 273.029 80.089 277.188 79.8309C281.494 79.5672 285.823 79.5123 290.13 79.8089C290.641 79.8419 291.152 79.8858 291.663 79.9297C291.921 79.9517 291.921 79.5507 291.663 79.5232C287.367 79.1442 283.049 79.1277 278.742 79.342C274.54 79.5452 270.354 79.9737 266.185 80.545C262.559 81.0449 258.95 81.6656 255.363 82.3853C252.764 82.9071 250.171 83.4839 247.595 84.1212C246.474 84.3958 245.332 84.654 244.228 85.0001C244.211 85.0001 244.2 85.0111 244.184 85.0111C243.937 85.0825 244.041 85.4725 244.294 85.4011V85.4066Z" fill="#DBDBDB"/>
<path d="M254.764 91.0427C255.286 90.9823 255.808 90.9329 256.33 90.8834C257.697 90.7516 259.065 90.6472 260.433 90.5538C262.35 90.4275 264.273 90.3396 266.196 90.2956C268.371 90.2462 270.552 90.2517 272.727 90.3396C274.864 90.4275 277.001 90.5923 279.11 90.9164C279.358 90.9548 279.605 90.9933 279.846 91.0372C279.956 91.0537 280.066 91.0098 280.094 90.8944C280.121 90.7955 280.061 90.6637 279.951 90.6472C277.836 90.2791 275.694 90.0814 273.551 89.9715C271.365 89.8562 269.173 89.8342 266.981 89.8726C265.009 89.9056 263.042 89.988 261.076 90.1089C259.62 90.1967 258.164 90.3066 256.714 90.4439C256.071 90.5044 255.423 90.5648 254.78 90.6417C254.769 90.6417 254.764 90.6417 254.753 90.6417C254.643 90.6527 254.55 90.7241 254.55 90.845C254.55 90.9438 254.643 91.0592 254.753 91.0482L254.764 91.0427Z" fill="#DBDBDB"/>
<path d="M202.385 67.1742C202.533 67.2017 202.687 67.2346 202.835 67.2676C203.264 67.361 203.687 67.4544 204.11 67.5587C204.763 67.718 205.417 67.8828 206.071 68.0641C206.917 68.2948 207.757 68.5365 208.592 68.7947C209.587 69.1024 210.581 69.432 211.564 69.778C212.663 70.1681 213.75 70.5801 214.827 71.014C215.986 71.4865 217.129 71.9864 218.255 72.5247C219.447 73.0905 220.617 73.6948 221.771 74.343C222.941 75.0022 224.083 75.7053 225.188 76.4634C226.297 77.2215 227.368 78.029 228.39 78.9025C228.643 79.1167 228.89 79.3364 229.137 79.5562C229.33 79.732 229.615 79.4463 229.423 79.2705C228.418 78.3586 227.357 77.5126 226.253 76.7161C225.155 75.9251 224.023 75.189 222.858 74.5023C221.716 73.8266 220.546 73.1949 219.354 72.6071C218.206 72.0413 217.046 71.5084 215.865 71.0085C214.75 70.5361 213.63 70.0966 212.493 69.6792C211.476 69.3056 210.454 68.9595 209.427 68.6299C208.548 68.3498 207.658 68.0806 206.768 67.8334C206.065 67.6356 205.357 67.4489 204.643 67.2731C204.159 67.1522 203.67 67.0369 203.181 66.927C202.962 66.8776 202.736 66.8281 202.511 66.7842C202.5 66.7842 202.495 66.7842 202.484 66.7787C202.231 66.7292 202.121 67.1193 202.374 67.1687L202.385 67.1742Z" fill="#DBDBDB"/>
<path d="M187.844 79.6166C188.712 79.6111 189.585 79.6276 190.453 79.6495C192.755 79.7045 195.051 79.8198 197.347 79.9736C200.611 80.1934 203.863 80.5065 207.109 80.9185C210.878 81.3964 214.624 82.0117 218.338 82.8192C222.128 83.6377 225.885 84.654 229.533 85.9779C229.983 86.1427 230.428 86.3075 230.873 86.4832C231.115 86.5766 231.219 86.1866 230.983 86.0932C227.336 84.6814 223.562 83.5992 219.755 82.7203C216.025 81.8634 212.251 81.2096 208.46 80.6933C205.137 80.2428 201.797 79.8967 198.452 79.6495C196.013 79.4683 193.568 79.3364 191.124 79.265C190.052 79.232 188.97 79.1716 187.899 79.2101C187.882 79.2101 187.871 79.2101 187.855 79.2101C187.597 79.2101 187.597 79.6166 187.855 79.6166H187.844Z" fill="#DBDBDB"/>
<path d="M184.46 91.1141C185.169 91.0537 185.877 91.0152 186.586 90.9713C188.454 90.8614 190.321 90.7845 192.189 90.7296C194.875 90.6526 197.562 90.6307 200.248 90.6691C203.363 90.7131 206.483 90.8394 209.587 91.0701C212.817 91.3118 216.041 91.6689 219.238 92.2182C219.612 92.2842 219.991 92.3501 220.364 92.4215C220.617 92.4709 220.727 92.0809 220.474 92.0315C217.305 91.4382 214.091 91.0427 210.878 90.768C207.719 90.4988 204.555 90.3505 201.385 90.2846C198.622 90.2297 195.859 90.2351 193.096 90.3011C191.096 90.3505 189.096 90.4219 187.102 90.5373C186.234 90.5867 185.361 90.6252 184.493 90.7076C184.482 90.7076 184.471 90.7076 184.46 90.7076C184.202 90.7295 184.202 91.1306 184.46 91.1141Z" fill="#DBDBDB"/>
<path d="M210.076 91.861L125.363 110.236L35.6293 69.9206L0.708144 171.745L0.27417 174.926L94.7815 219.669L181.708 194.301L210.076 91.861Z" fill="#4E7841"/>
<path d="M210.51 88.6804L125.791 107.056L34.69 66.1193L0.708191 171.745L93.3752 215.335L182.137 191.12L210.51 88.6804Z" fill="#78A36B"/>
<path d="M222.963 90.768L221.557 86.4282L125.467 110.615L94.7815 219.669L191.772 203.914L222.963 90.768Z" fill="#4E7841"/>
<path d="M221.557 86.4282L124.055 106.281L93.3752 215.335L190.365 199.574L221.557 86.4282Z" fill="#78A36B"/>
<path d="M36.9312 67.1301L4.30078 169.059L94.0838 212.802L183.592 197.053L215.443 87.6752L202.577 77.1665L124.857 100.14L45.9732 55.0997L36.9312 67.1301Z" fill="#EBEBEB"/>
<path d="M14.9414 159.913L94.0839 212.802L183.592 197.053L215.443 87.6752L202.577 77.1665L124.858 100.14L45.9732 55.0997L14.9414 159.913Z" fill="white"/>
<path d="M114.327 105.287C114.272 105.287 114.222 105.276 114.168 105.248L47.6707 68.5308C47.5114 68.4429 47.4565 68.2451 47.5444 68.0913C47.6323 67.932 47.83 67.8771 47.9839 67.965L114.481 104.682C114.64 104.77 114.695 104.968 114.607 105.122C114.547 105.226 114.437 105.292 114.321 105.292L114.327 105.287Z" fill="#DEDEDE"/>
<path d="M112.404 113.296C112.349 113.296 112.294 113.285 112.245 113.258L45.7481 76.5401C45.5888 76.4522 45.5338 76.2545 45.6217 76.1007C45.7096 75.9414 45.9074 75.8864 46.0612 75.9743L112.558 112.692C112.717 112.78 112.772 112.977 112.684 113.131C112.624 113.236 112.514 113.302 112.399 113.302L112.404 113.296Z" fill="#DEDEDE"/>
<path d="M110.487 121.305C110.432 121.305 110.383 121.294 110.328 121.267L43.831 84.5494C43.6717 84.4615 43.6168 84.2638 43.7047 84.1099C43.7926 83.9506 43.9903 83.8957 44.1441 83.9836L110.641 120.701C110.8 120.789 110.855 120.987 110.767 121.14C110.707 121.245 110.597 121.311 110.482 121.311L110.487 121.305Z" fill="#DEDEDE"/>
<path d="M108.564 129.315C108.51 129.315 108.46 129.304 108.405 129.276L41.9083 92.5587C41.749 92.4708 41.6941 92.2731 41.782 92.1192C41.8699 91.9654 42.0676 91.905 42.2215 91.9929L108.718 128.71C108.878 128.798 108.932 128.996 108.845 129.15C108.784 129.254 108.674 129.32 108.559 129.32L108.564 129.315Z" fill="#DEDEDE"/>
<path d="M106.642 137.324C106.587 137.324 106.537 137.313 106.482 137.285L39.3867 100.238C39.2274 100.151 39.1725 99.9528 39.2604 99.799C39.3483 99.6397 39.546 99.5847 39.6999 99.6726L106.795 136.72C106.955 136.808 107.01 137.005 106.922 137.159C106.861 137.263 106.751 137.329 106.636 137.329L106.642 137.324Z" fill="#DEDEDE"/>
<path d="M104.724 145.328C104.67 145.328 104.62 145.317 104.565 145.289L37.1674 108.072C37.0081 107.984 36.9532 107.786 37.0411 107.627C37.129 107.468 37.3267 107.413 37.4806 107.501L104.878 144.718C105.038 144.806 105.093 145.004 105.005 145.157C104.944 145.262 104.834 145.328 104.719 145.328H104.724Z" fill="#DEDEDE"/>
<path d="M102.802 153.337C102.747 153.337 102.692 153.326 102.643 153.298L35.2998 116.114C35.1405 116.026 35.0855 115.828 35.1734 115.675C35.2613 115.521 35.4591 115.46 35.6129 115.548L102.956 152.733C103.115 152.82 103.17 153.018 103.082 153.172C103.022 153.276 102.912 153.342 102.796 153.342L102.802 153.337Z" fill="#DEDEDE"/>
<path d="M100.879 161.346C100.824 161.346 100.775 161.335 100.72 161.308L33.02 123.926C32.8607 123.838 32.8058 123.64 32.8937 123.486C32.9816 123.332 33.1793 123.272 33.3332 123.36L101.033 160.742C101.192 160.83 101.247 161.028 101.159 161.187C101.099 161.291 100.989 161.357 100.874 161.357L100.879 161.346Z" fill="#DEDEDE"/>
<path d="M98.9619 169.355C98.907 169.355 98.852 169.344 98.8026 169.317L30.7017 131.71C30.5424 131.622 30.4875 131.424 30.5754 131.27C30.6633 131.111 30.861 131.056 31.0149 131.144L99.1157 168.751C99.275 168.839 99.3299 169.037 99.2421 169.191C99.1816 169.295 99.0718 169.361 98.9564 169.361L98.9619 169.355Z" fill="#DEDEDE"/>
<path d="M97.0394 177.365C96.9845 177.365 96.9351 177.354 96.8801 177.326L28.4167 139.521C28.2574 139.433 28.2025 139.236 28.2904 139.082C28.3783 138.922 28.576 138.867 28.7298 138.955L97.1932 176.76C97.3525 176.848 97.4075 177.046 97.3196 177.2C97.2592 177.304 97.1493 177.37 97.0339 177.37L97.0394 177.365Z" fill="#DEDEDE"/>
<path d="M95.1168 185.374C95.0618 185.374 95.0124 185.363 94.9575 185.335L26.3677 147.464C26.2084 147.377 26.1535 147.179 26.2413 147.025C26.3292 146.866 26.527 146.811 26.6808 146.899L95.2706 184.77C95.4299 184.858 95.4848 185.055 95.3969 185.215C95.3365 185.319 95.2266 185.385 95.1113 185.385L95.1168 185.374Z" fill="#DEDEDE"/>
<path d="M93.194 193.383C93.1391 193.383 93.0842 193.372 93.0347 193.345L24.3461 155.413C24.1868 155.326 24.1318 155.128 24.2197 154.974C24.3076 154.815 24.5054 154.76 24.6592 154.848L93.3478 192.779C93.5072 192.867 93.5621 193.065 93.4742 193.219C93.4138 193.323 93.3039 193.389 93.1885 193.389L93.194 193.383Z" fill="#DEDEDE"/>
<path d="M94.0838 212.802L183.592 197.053L215.443 87.6751L202.577 77.1664L124.857 100.139L94.0838 212.802Z" fill="#EDEDED"/>
<path d="M127.028 108.116C126.885 108.116 126.753 108.022 126.714 107.874C126.671 107.698 126.769 107.522 126.945 107.478L190.574 90.4821C190.745 90.4381 190.926 90.537 190.97 90.7128C191.014 90.8886 190.915 91.0644 190.739 91.1083L127.11 108.105C127.083 108.11 127.055 108.116 127.028 108.116Z" fill="#DEDEDE"/>
<path d="M123.869 116.614C123.726 116.614 123.594 116.521 123.556 116.372C123.512 116.197 123.611 116.021 123.787 115.977L187.416 98.9804C187.592 98.9365 187.767 99.0354 187.811 99.2111C187.855 99.3869 187.756 99.5627 187.581 99.6067L123.951 116.603C123.924 116.609 123.896 116.614 123.869 116.614Z" fill="#DEDEDE"/>
<path d="M120.716 125.112C120.573 125.112 120.441 125.019 120.403 124.87C120.359 124.695 120.457 124.519 120.633 124.475L184.263 107.478C184.438 107.434 184.614 107.533 184.658 107.709C184.702 107.885 184.603 108.061 184.427 108.105L120.798 125.101C120.771 125.107 120.743 125.112 120.716 125.112Z" fill="#DEDEDE"/>
<path d="M117.557 133.605C117.414 133.605 117.282 133.511 117.244 133.363C117.2 133.187 117.299 133.011 117.475 132.967L181.104 115.971C181.274 115.927 181.455 116.026 181.499 116.202C181.543 116.378 181.444 116.553 181.269 116.597L117.639 133.594C117.612 133.599 117.584 133.605 117.557 133.605Z" fill="#DEDEDE"/>
<path d="M114.398 142.103C114.256 142.103 114.124 142.01 114.085 141.861C114.041 141.685 114.14 141.51 114.316 141.466L179.181 124.14C179.357 124.096 179.533 124.195 179.577 124.371C179.621 124.546 179.522 124.722 179.346 124.766L114.481 142.092C114.453 142.097 114.426 142.103 114.398 142.103Z" fill="#DEDEDE"/>
<path d="M111.245 150.601C111.102 150.601 110.97 150.508 110.932 150.36C110.888 150.184 110.987 150.008 111.163 149.964L176.308 132.561C176.484 132.517 176.66 132.616 176.704 132.792C176.748 132.968 176.649 133.143 176.473 133.187L111.327 150.59C111.3 150.596 111.272 150.601 111.245 150.601Z" fill="#DEDEDE"/>
<path d="M108.086 159.099C107.944 159.099 107.812 159.006 107.773 158.858C107.729 158.682 107.828 158.506 108.004 158.462L173.182 141.054C173.353 141.01 173.534 141.109 173.578 141.284C173.622 141.46 173.523 141.636 173.347 141.68L108.169 159.088C108.141 159.094 108.114 159.099 108.086 159.099Z" fill="#DEDEDE"/>
<path d="M104.928 167.598C104.785 167.598 104.653 167.504 104.615 167.356C104.571 167.18 104.67 167.004 104.845 166.96L171.628 149.123C171.804 149.074 171.979 149.178 172.023 149.354C172.067 149.53 171.968 149.706 171.793 149.75L105.01 167.587C104.983 167.592 104.955 167.598 104.928 167.598Z" fill="#DEDEDE"/>
<path d="M101.769 176.096C101.626 176.096 101.494 176.002 101.456 175.854C101.412 175.678 101.511 175.503 101.687 175.459L168.469 157.622C168.645 157.578 168.821 157.677 168.865 157.852C168.909 158.028 168.81 158.204 168.634 158.248L101.851 176.085C101.824 176.09 101.796 176.096 101.769 176.096Z" fill="#DEDEDE"/>
<path d="M98.616 184.588C98.4732 184.588 98.3413 184.495 98.3029 184.347C98.2589 184.171 98.3578 183.995 98.5336 183.946L166.722 165.647C166.898 165.603 167.074 165.702 167.123 165.878C167.167 166.054 167.068 166.23 166.893 166.279L98.7039 184.577C98.6764 184.583 98.649 184.588 98.6215 184.588H98.616Z" fill="#DEDEDE"/>
<path d="M95.4573 193.087C95.3145 193.087 95.1826 192.993 95.1442 192.845C95.1002 192.669 95.1991 192.493 95.3749 192.449L163.591 174.228C163.767 174.184 163.943 174.283 163.987 174.459C164.031 174.635 163.932 174.81 163.756 174.854L95.5397 193.076C95.5122 193.081 95.4848 193.087 95.4573 193.087Z" fill="#DEDEDE"/>
<path d="M4.30078 169.059L14.9414 159.912L97.3853 201.08L172.265 182.21L202.577 77.1664L215.443 87.6751L183.592 197.053L94.0838 212.802L4.30078 169.059Z" fill="#F3F3F3"/>
<path d="M4.30078 169.059L14.9414 159.912L97.3853 201.079L172.265 182.21L183.592 197.053L94.0838 212.802L4.30078 169.059Z" fill="#E3E3E3"/>
<path d="M86.3273 209.023C86.3273 209.023 89.0739 201.069 97.3799 201.08C105.686 201.091 109.866 210.023 109.866 210.023L94.0784 212.802L86.3218 209.023H86.3273Z" fill="#BABABA"/>
<path d="M127.027 99.4968C127.027 99.4968 125.885 100.398 124.665 105.539C123.259 111.478 102.044 183.314 103.532 199.53C104.142 206.205 101.813 224.8 87.9477 230.727C89.1068 227.546 89.6122 223.86 89.6122 223.86L81.3228 226.97C81.3228 226.97 93.9629 214.846 93.3806 199.08C92.7983 183.314 115.348 120.218 118.815 110.242C122.281 100.266 123.176 98.7662 127.033 99.5023L127.027 99.4968Z" fill="#B0CFA6"/>
<path d="M262.8 40.3444H338.301C344.695 40.2565 346.101 39.7896 346.145 39.3666C346.277 38.0482 333.456 35.0654 320.651 34.4666C316.586 34.2743 313.196 34.3567 310.845 34.4666C311.493 28.0778 307.203 22.59 302.023 21.722C296.046 20.7223 289.372 25.9464 289.278 33.4888C287.74 29.8577 283.961 27.8526 280.456 28.5887C277.621 29.182 275.325 31.4837 274.573 34.4721C271.908 33.9392 268.206 33.4119 263.789 33.4943C252.627 33.6975 241.964 37.6857 242.217 39.3776C242.365 40.3719 246.37 41.1575 262.806 40.3554L262.8 40.3444Z" fill="white"/>
<path d="M98.4068 21.2661H22.9065C16.5122 21.1782 15.1059 20.7113 15.062 20.2883C14.9301 18.9699 27.7516 15.987 40.5565 15.3883C44.6216 15.196 48.011 15.2784 50.3621 15.3883C49.7139 8.99952 54.0042 3.51168 59.1844 2.64373C65.1612 1.64395 71.8356 6.86811 71.929 14.4105C73.4671 10.7794 77.2465 8.77429 80.7513 9.5104C83.5858 10.1037 85.882 12.4054 86.6346 15.3938C89.2989 14.8609 93.0014 14.3335 97.418 14.4105C108.58 14.6137 119.243 18.6019 118.99 20.2938C118.842 21.2881 114.837 22.0737 98.4013 21.2716L98.4068 21.2661Z" fill="white"/>
</svg>
