<svg width="215" height="178" viewBox="0 0 215 178" fill="none" xmlns="http://www.w3.org/2000/svg">
<g opacity="0.05">
<path d="M188.469 147.766C194.191 139.299 190.526 130.113 183.935 123.342C180.688 120.008 177.217 116.6 178.956 111.683C182.614 101.335 192.464 92.5812 190.175 80.6603C188.1 69.8507 179.932 63.1567 169.051 62.0467C163.959 61.5296 158.567 61.7053 153.571 60.6261C146.367 59.0692 143.717 53.434 140.756 47.3219C135 35.4421 116.792 31.7766 106.873 40.7893C102.714 44.5688 98.8162 49.0748 92.5594 48.4738C82.3675 47.4938 72.1883 39.2399 62.1574 46.146C57.3109 49.4842 55.9112 53.4548 55.0095 59.0077C54.1988 64 52.7166 68.1434 46.9601 68.4901C44.0961 68.6627 41.5714 69.7243 39.169 71.2206C30.6202 76.5452 32.5902 87.3516 38.0556 94.0425C43.1522 100.283 51.5695 104.835 45.7285 114.069C41.1706 121.273 33.7745 127.435 34.8785 136.964C35.6772 143.818 41.1628 149.727 48.1547 150.327C58.2803 151.196 66.2142 141.922 76.0897 143.661C80.0673 144.362 82.5901 146.936 83.0608 150.924C83.8685 157.763 82.2562 166.386 88.0567 171.637C91.7446 175.34 96.0982 177.519 101.371 177.68C111.624 177.994 117.426 165.117 123.951 159.222C131.504 152.397 140.157 150.4 149.91 153.671C159.652 156.937 167.823 158.851 178.026 155.458C182.341 154.024 185.925 151.535 188.473 147.766L188.469 147.766Z" fill="#F2261A"/>
<path d="M168.983 47.1469C171.488 42.0589 168.639 35.5935 165.37 33.3375C162.042 31.0393 157.298 32.1615 154.192 29.8816C151.661 28.0234 149.052 28.6729 147.395 31.3112C145.632 34.1162 145.814 37.3715 148.169 40.3391C152.435 45.716 162.888 59.5393 168.983 47.1469Z" fill="#F2261A"/>
<path d="M24.8171 73.0007C27.6868 69.9564 29.4342 66.3004 30.1767 62.2162C30.8371 58.5725 28.7219 54.8293 25.4277 53.5085C13.9988 48.9217 9.71755 67.897 16.0489 74.4957C18.4258 76.9747 22.7013 75.246 24.8171 73.0007Z" fill="#F2261A"/>
<path d="M204.683 153.677C205.16 150.388 202.996 147.259 199.365 146.404C195.487 145.49 189.421 149.264 189.554 153.608C189.67 157.382 184.054 160.846 187.226 164.634C193.503 172.13 203.843 159.466 204.683 153.677Z" fill="#F2261A"/>
<path d="M130.324 18.9372C129.203 11.7612 121.318 11.0695 116.917 15.5179C114.989 17.4672 114.466 19.9444 115.375 22.0639C117.452 26.9075 131.249 24.8576 130.324 18.9372Z" fill="#F2261A"/>
<path d="M9.31872 61.0135C9.7147 58.8805 8.86778 57.1866 7.21245 55.9037C5.82498 54.8286 3.21814 55.0331 1.85296 56.3471C0.782177 57.4058 0.308757 58.8697 0.794737 60.479C1.20375 61.8341 1.80665 63.1459 2.4456 64.4156C2.99112 65.4987 3.89813 65.838 5.05859 65.6289C6.92706 65.2897 8.91977 63.1736 9.31872 61.0135Z" fill="#F2261A"/>
<path d="M128.046 6.29163C128.503 5.7148 128.791 5.01751 128.818 4.19512C128.883 2.14892 126.954 0.23124 124.892 0.134148C123.13 0.0509326 121.548 0.646005 120.271 1.80524C119.032 2.93295 118.644 4.43752 119.178 6.06192C119.687 7.6066 120.934 8.23199 122.457 8.36455C124.34 8.52909 126.809 7.85084 128.046 6.29163Z" fill="#F2261A"/>
<path d="M214.691 160.88C215.041 159.355 214.524 158.054 213.375 157.044C211.763 155.624 209.559 156.781 208.13 158.355C207.512 159.032 207.04 159.791 206.822 160.451C206.253 162.182 207.166 163.882 208.754 164.326C211.093 164.983 214.152 163.23 214.691 160.88Z" fill="#F2261A"/>
</g>
</svg>
