<svg width="15" height="14" viewBox="0 0 15 14" fill="none" xmlns="http://www.w3.org/2000/svg">
<g clip-path="url(#clip0_497_24280)">
<path d="M11.75 1.16699H3.58329C1.97329 1.16699 0.666626 2.47366 0.666626 4.08366V9.91699C0.666626 11.527 1.97329 12.8337 3.58329 12.8337H11.75C13.36 12.8337 14.6666 11.527 14.6666 9.91699V4.08366C14.6666 2.47366 13.36 1.16699 11.75 1.16699ZM3.58329 2.33366H11.75C12.7125 2.33366 13.5 3.12116 13.5 4.08366H1.83329C1.83329 3.12116 2.62079 2.33366 3.58329 2.33366ZM11.75 11.667H3.58329C2.62079 11.667 1.83329 10.8795 1.83329 9.91699V5.25033H13.5V9.91699C13.5 10.8795 12.7125 11.667 11.75 11.667ZM6.49996 7.00033C6.49996 7.32116 6.23746 7.58366 5.91663 7.58366H5.33329V9.91699C5.33329 10.2378 5.07079 10.5003 4.74996 10.5003C4.42913 10.5003 4.16663 10.2378 4.16663 9.91699V7.58366H3.58329C3.26246 7.58366 2.99996 7.32116 2.99996 7.00033C2.99996 6.67949 3.26246 6.41699 3.58329 6.41699H5.91663C6.23746 6.41699 6.49996 6.67949 6.49996 7.00033ZM12.3333 7.00033C12.3333 7.32116 12.0708 7.58366 11.75 7.58366H8.24996C7.92913 7.58366 7.66663 7.32116 7.66663 7.00033C7.66663 6.67949 7.92913 6.41699 8.24996 6.41699H11.75C12.0708 6.41699 12.3333 6.67949 12.3333 7.00033ZM12.3333 9.33366C12.3333 9.65449 12.0708 9.91699 11.75 9.91699H8.24996C7.92913 9.91699 7.66663 9.65449 7.66663 9.33366C7.66663 9.01283 7.92913 8.75033 8.24996 8.75033H11.75C12.0708 8.75033 12.3333 9.01283 12.3333 9.33366Z" fill="#3D4953"/>
</g>
<defs>
<clipPath id="clip0_497_24280">
<rect width="14" height="14" fill="white" transform="translate(0.666626)"/>
</clipPath>
</defs>
</svg>
