<svg width="14" height="14" viewBox="0 0 14 14" fill="none" xmlns="http://www.w3.org/2000/svg">
<g clip-path="url(#clip0_497_24298)">
<path d="M12.95 1.26221C12.6221 0.987999 12.2378 0.789351 11.8244 0.68037C11.4111 0.571388 10.9788 0.554746 10.5583 0.631623L8.32883 1.03646C7.8141 1.13098 7.34609 1.39581 7 1.78837C6.65301 1.39513 6.18366 1.13024 5.66767 1.03646L3.44167 0.631623C3.02118 0.554678 2.58891 0.571103 2.17547 0.679734C1.76203 0.788366 1.37752 0.986549 1.04916 1.26025C0.720806 1.53396 0.456625 1.8765 0.275323 2.26362C0.0940206 2.65074 2.84739e-05 3.07298 0 3.50046L0 9.79637C3.35159e-05 10.4793 0.239736 11.1406 0.677328 11.665C1.11492 12.1894 1.72265 12.5435 2.39458 12.6658L6.06142 13.3325C6.68206 13.4453 7.31794 13.4453 7.93858 13.3325L11.6083 12.6658C12.2797 12.5429 12.8868 12.1885 13.3238 11.6642C13.7608 11.1399 14.0001 10.4789 14 9.79637V3.50046C14.0003 3.07313 13.9063 2.65101 13.7248 2.26414C13.5433 1.87727 13.2788 1.53517 12.95 1.26221ZM6.41667 12.2085C6.36767 12.2015 6.31867 12.1933 6.26967 12.1845L2.60342 11.5184C2.2002 11.445 1.83551 11.2325 1.57295 10.9178C1.31039 10.6031 1.1666 10.2062 1.16667 9.79637V3.50046C1.16667 3.03633 1.35104 2.59121 1.67923 2.26302C2.00742 1.93483 2.45254 1.75046 2.91667 1.75046C3.0223 1.75071 3.12771 1.76027 3.23167 1.77904L5.46 2.18737C5.72811 2.23643 5.97058 2.37782 6.14533 2.58698C6.32008 2.79615 6.41608 3.0599 6.41667 3.33246V12.2085ZM12.8333 9.79637C12.8334 10.2062 12.6896 10.6031 12.427 10.9178C12.1645 11.2325 11.7998 11.445 11.3966 11.5184L7.73033 12.1845C7.68133 12.1933 7.63233 12.2015 7.58333 12.2085V3.33246C7.58329 3.05923 7.67915 2.79466 7.85419 2.58486C8.02923 2.37507 8.27235 2.23336 8.54117 2.18446L10.7701 1.77612C11.0225 1.7302 11.2819 1.74034 11.53 1.80582C11.7781 1.87131 12.0087 1.99053 12.2056 2.15506C12.4024 2.31959 12.5607 2.52539 12.6692 2.75789C12.7777 2.99039 12.8337 3.24389 12.8333 3.50046V9.79637Z" fill="white"/>
</g>
<defs>
<clipPath id="clip0_497_24298">
<rect width="14" height="14" fill="white"/>
</clipPath>
</defs>
</svg>
