<svg width="15" height="14" viewBox="0 0 15 14" fill="none" xmlns="http://www.w3.org/2000/svg">
<g clip-path="url(#clip0_497_24316)">
<path d="M12.0798 14C11.864 13.9994 11.6505 13.9561 11.4515 13.8725C11.2526 13.7888 11.0722 13.6667 10.9207 13.5129L7.33324 9.94642L3.74574 13.5153C3.51534 13.749 3.21986 13.9079 2.89782 13.9713C2.57578 14.0347 2.24211 13.9995 1.94033 13.8705C1.63554 13.7479 1.37481 13.5363 1.19218 13.2632C1.00954 12.9901 0.913494 12.6683 0.916576 12.3398V2.91667C0.916576 2.14312 1.22387 1.40125 1.77085 0.854272C2.31783 0.307291 3.05969 0 3.83324 0L10.8332 0C11.2163 0 11.5955 0.0754418 11.9494 0.222018C12.3033 0.368594 12.6248 0.583434 12.8956 0.854272C13.1665 1.12511 13.3813 1.44664 13.5279 1.80051C13.6745 2.15437 13.7499 2.53364 13.7499 2.91667V12.3398C13.7532 12.6681 13.6575 12.9897 13.4753 13.2627C13.2931 13.5357 13.0328 13.7475 12.7285 13.8705C12.5231 13.9564 12.3025 14.0005 12.0798 14ZM3.83324 1.16667C3.36911 1.16667 2.92399 1.35104 2.59581 1.67923C2.26762 2.00742 2.08324 2.45254 2.08324 2.91667V12.3398C2.08303 12.437 2.11163 12.5321 2.16543 12.6131C2.21924 12.694 2.29582 12.7572 2.38552 12.7947C2.47522 12.8321 2.574 12.8422 2.6694 12.8235C2.76479 12.8048 2.85252 12.7583 2.92149 12.6898L6.92491 8.71092C7.0342 8.60227 7.18205 8.54129 7.33616 8.54129C7.49027 8.54129 7.63811 8.60227 7.74741 8.71092L11.7462 12.6887C11.8151 12.7572 11.9029 12.8037 11.9983 12.8223C12.0936 12.841 12.1924 12.831 12.2821 12.7935C12.3718 12.7561 12.4484 12.6929 12.5022 12.6119C12.556 12.531 12.5846 12.4359 12.5844 12.3387V2.91667C12.5844 2.45254 12.4 2.00742 12.0718 1.67923C11.7437 1.35104 11.2985 1.16667 10.8344 1.16667H3.83324Z" fill="#3D4953"/>
</g>
<defs>
<clipPath id="clip0_497_24316">
<rect width="14" height="14" fill="white" transform="translate(0.333252)"/>
</clipPath>
</defs>
</svg>
