<svg width="56" height="56" viewBox="0 0 56 56" fill="none" xmlns="http://www.w3.org/2000/svg">
<path d="M1.27124 2.98287V53.0171C1.27124 54.6645 2.60671 56 4.25412 56H42.3417C43.9891 56 45.3245 54.6645 45.3245 53.0171V13.155L32.1697 0H4.25422C2.60682 0 1.27124 1.33547 1.27124 2.98287Z" fill="#EAECF0"/>
<path d="M35.0427 2.87305V15.2389C35.0427 16.4837 36.0518 17.4927 37.2965 17.4927H39.3908V56.0001H42.3418C43.9892 56.0001 45.3246 54.6646 45.3246 53.0172V13.1551L35.0427 2.87305Z" fill="#D3D7DE"/>
<path d="M32.1697 0L45.3246 13.155H34.4236C33.1788 13.155 32.1698 12.1459 32.1698 10.9012L32.1697 0Z" fill="#DF705D"/>
<path d="M47.2459 30.0114H31.2473V27.0344C31.2473 25.0533 32.8534 23.4473 34.8345 23.4473H43.6588C45.6399 23.4473 47.2459 25.0533 47.2459 27.0344V30.0114Z" fill="#8DAE5C"/>
<path d="M46.6142 55.9767H31.879C30.0605 55.9767 28.5564 54.5606 28.4469 52.7454L26.9536 27.9978H51.5396L50.0463 52.7454C49.9368 54.5607 48.4328 55.9767 46.6142 55.9767Z" fill="#676E84"/>
<path d="M45.9597 27.9977L44.2715 55.9766H46.6143C48.4328 55.9766 49.9369 54.5606 50.0464 52.7453L51.5397 27.9976H45.9597V27.9977Z" fill="#4A4E67"/>
<path d="M52.5601 31.2673H25.9332C24.7354 31.2673 23.7644 30.2963 23.7644 29.0985C23.7644 27.9007 24.7354 26.9297 25.9332 26.9297H52.5601C53.7579 26.9297 54.7289 27.9007 54.7289 29.0985C54.729 30.2963 53.758 31.2673 52.5601 31.2673Z" fill="#AED180"/>
<path d="M52.5601 26.9297H48.7952V31.2674H52.5601C53.7578 31.2674 54.7289 30.2964 54.7289 29.0986C54.729 27.9007 53.7579 26.9297 52.5601 26.9297Z" fill="#8DAE5C"/>
<path d="M33.337 52.2425C32.8889 52.2425 32.5154 51.8904 32.4936 51.4381L31.6897 34.7635C31.6673 34.2972 32.0269 33.9012 32.4931 33.8786C32.9622 33.8568 33.3554 34.2158 33.3779 34.682L34.1818 51.3566C34.2042 51.8229 33.8446 52.219 33.3785 52.2415C33.3645 52.2421 33.3507 52.2425 33.337 52.2425Z" fill="#D3D7DE"/>
<path d="M37.277 52.2422C36.8165 52.2422 36.4396 51.8727 36.4323 51.4107L36.1642 34.7361C36.1567 34.2694 36.5289 33.885 36.9956 33.8775C37.4643 33.8732 37.8468 34.2424 37.8541 34.7088L38.1222 51.3835C38.1296 51.8502 37.7574 52.2345 37.2907 52.2421C37.2861 52.2421 37.2814 52.2422 37.277 52.2422Z" fill="#D3D7DE"/>
<path d="M41.2168 52.2423C41.2122 52.2423 41.2075 52.2423 41.2029 52.2421C40.7362 52.2347 40.364 51.8503 40.3714 51.3836L40.6394 34.7089C40.6467 34.2423 41.0293 33.8705 41.4979 33.8775C41.9646 33.885 42.3368 34.2694 42.3294 34.7361L42.0614 51.4108C42.0541 51.8728 41.6771 52.2423 41.2168 52.2423Z" fill="#D3D7DE"/>
<path d="M45.1567 52.2422C45.143 52.2422 45.1292 52.2418 45.1154 52.2412C44.6492 52.2187 44.2896 51.8226 44.312 51.3563L45.1159 34.6817C45.1385 34.2155 45.5363 33.8574 46.0008 33.8783C46.4669 33.9007 46.8266 34.2969 46.8041 34.7632L46.0002 51.4378C45.9784 51.8901 45.6048 52.2422 45.1567 52.2422Z" fill="#D3D7DE"/>
<path d="M23.7644 8.43665H6.73614C6.26933 8.43665 5.89111 8.05832 5.89111 7.59161C5.89111 7.12491 6.26944 6.74658 6.73614 6.74658H23.7644C24.2312 6.74658 24.6094 7.12491 24.6094 7.59161C24.6094 8.05832 24.2311 8.43665 23.7644 8.43665Z" fill="#676E84"/>
<path d="M23.7644 14.0001H6.73614C6.26933 14.0001 5.89111 13.6218 5.89111 13.1551C5.89111 12.6884 6.26944 12.3101 6.73614 12.3101H23.7644C24.2312 12.3101 24.6094 12.6884 24.6094 13.1551C24.6094 13.6218 24.2311 14.0001 23.7644 14.0001Z" fill="#676E84"/>
</svg>
