<svg width="56" height="57" viewBox="0 0 56 57" fill="none" xmlns="http://www.w3.org/2000/svg">
<path d="M42.0001 15.9448C41.6964 15.9448 41.398 15.8657 41.1341 15.7153C40.8702 15.565 40.65 15.3486 40.4951 15.0873L35.7526 7.19482H20.2476L15.5051 15.0873C15.2503 15.4377 14.8746 15.6811 14.4507 15.7704C14.0268 15.8598 13.5848 15.7887 13.2103 15.5709C12.8357 15.3532 12.5553 15.0042 12.4232 14.5916C12.2911 14.179 12.3167 13.7321 12.4951 13.3373L17.2376 5.44482C17.543 4.91584 17.9815 4.47599 18.5096 4.16899C19.0376 3.86198 19.6368 3.69851 20.2476 3.69482H35.7526C36.3634 3.69851 36.9626 3.86198 37.4907 4.16899C38.0187 4.47599 38.4573 4.91584 38.7626 5.44482L43.5051 13.3548C43.7418 13.754 43.8102 14.2308 43.6953 14.6804C43.5805 15.13 43.2917 15.5156 42.8926 15.7523C42.6174 15.8943 42.3094 15.9608 42.0001 15.9448Z" fill="#FFD64F"/>
<path d="M47.25 14.1948V14.2823L45.5 49.3698C45.4551 50.2674 45.0666 51.1133 44.415 51.7323C43.7634 52.3513 42.8987 52.6959 42 52.6948H14C13.1013 52.6959 12.2366 52.3513 11.585 51.7323C10.9334 51.1133 10.5449 50.2674 10.5 49.3698V49.1948V48.3198L8.75 14.2823V14.1948H47.25Z" fill="#F94B3E"/>
<path d="M41.8425 14.1948L40.25 45.8698C40.2051 46.7674 39.8166 47.6133 39.165 48.2323C38.5134 48.8513 37.6487 49.1959 36.75 49.1948H10.5V48.3198L8.75 14.2823V14.1948H41.8425Z" fill="#F95B53"/>
<path d="M50.75 14.1948C50.75 14.659 50.5656 15.1041 50.2374 15.4323C49.9092 15.7604 49.4641 15.9448 49 15.9448H7C6.53587 15.9448 6.09075 15.7604 5.76256 15.4323C5.43437 15.1041 5.25 14.659 5.25 14.1948C5.25 13.7307 5.43437 13.2856 5.76256 12.9574C6.09075 12.6292 6.53587 12.4448 7 12.4448H49C49.4641 12.4448 49.9092 12.6292 50.2374 12.9574C50.5656 13.2856 50.75 13.7307 50.75 14.1948Z" fill="#FFC166"/>
<path d="M49 12.4448C49 12.909 48.8156 13.3541 48.4874 13.6823C48.1592 14.0104 47.7141 14.1948 47.25 14.1948H5.25C5.25 13.7307 5.43437 13.2856 5.76256 12.9574C6.09075 12.6292 6.53587 12.4448 7 12.4448H49Z" fill="#FFD64F"/>
<path d="M21.875 38.6948C21.4109 38.6948 20.9658 38.5105 20.6376 38.1823C20.3094 37.8541 20.125 37.409 20.125 36.9448V26.4448C20.125 25.9807 20.3094 25.5356 20.6376 25.2074C20.9658 24.8792 21.4109 24.6948 21.875 24.6948C22.3391 24.6948 22.7842 24.8792 23.1124 25.2074C23.4406 25.5356 23.625 25.9807 23.625 26.4448V36.9448C23.625 37.409 23.4406 37.8541 23.1124 38.1823C22.7842 38.5105 22.3391 38.6948 21.875 38.6948Z" fill="#E8ECED"/>
<path d="M34.125 38.6948C33.6609 38.6948 33.2158 38.5105 32.8876 38.1823C32.5594 37.8541 32.375 37.409 32.375 36.9448V26.4448C32.375 25.9807 32.5594 25.5356 32.8876 25.2074C33.2158 24.8792 33.6609 24.6948 34.125 24.6948C34.5891 24.6948 35.0342 24.8792 35.3624 25.2074C35.6906 25.5356 35.875 25.9807 35.875 26.4448V36.9448C35.875 37.409 35.6906 37.8541 35.3624 38.1823C35.0342 38.5105 34.5891 38.6948 34.125 38.6948Z" fill="#E8ECED"/>
</svg>
