<svg width="56" height="57" viewBox="0 0 56 57" fill="none" xmlns="http://www.w3.org/2000/svg">
<g clip-path="url(#clip0_497_24523)">
<path d="M39.375 5.44482H20.125C19.6418 5.44482 19.25 5.83658 19.25 6.31982V50.0698C19.25 50.5531 19.6418 50.9448 20.125 50.9448H39.375C39.8582 50.9448 40.25 50.5531 40.25 50.0698V6.31982C40.25 5.83658 39.8582 5.44482 39.375 5.44482Z" fill="#BCE4DB"/>
<path d="M55.7436 27.5762L47.8686 19.7012C47.7874 19.6199 47.691 19.5555 47.5848 19.5115C47.4787 19.4675 47.3649 19.4448 47.25 19.4448C47.1351 19.4448 47.0213 19.4675 46.9152 19.5115C46.809 19.5555 46.7126 19.6199 46.6314 19.7012L44.0064 22.3262C43.9251 22.4074 43.8606 22.5039 43.8166 22.61C43.7726 22.7162 43.75 22.83 43.75 22.9449C43.75 23.0598 43.7726 23.1735 43.8166 23.2797C43.8606 23.3858 43.9251 23.4823 44.0064 23.5635L46.0127 25.5699H28C27.7679 25.5699 27.5454 25.662 27.3813 25.8261C27.2172 25.9902 27.125 26.2128 27.125 26.4449V29.9449C27.125 30.1769 27.2172 30.3995 27.3813 30.5636C27.5454 30.7277 27.7679 30.8199 28 30.8199H46.0127L44.0064 32.8262C43.9251 32.9074 43.8606 33.0039 43.8166 33.11C43.7726 33.2162 43.75 33.33 43.75 33.4449C43.75 33.5598 43.7726 33.6735 43.8166 33.7797C43.8606 33.8858 43.9251 33.9823 44.0064 34.0635L46.6314 36.6885C46.7126 36.7698 46.809 36.8342 46.9152 36.8782C47.0213 36.9222 47.1351 36.9448 47.25 36.9448C47.3649 36.9448 47.4787 36.9222 47.5848 36.8782C47.691 36.8342 47.7874 36.7698 47.8686 36.6885L55.7436 28.8135C55.8249 28.7323 55.8894 28.6358 55.9334 28.5297C55.9774 28.4235 56 28.3098 56 28.1949C56 28.08 55.9774 27.9662 55.9334 27.86C55.8894 27.7539 55.8249 27.6574 55.7436 27.5762Z" fill="#1AA483"/>
<path d="M20.6377 0.361025C20.5255 0.279928 20.3957 0.226549 20.2589 0.205257C20.1221 0.183965 19.9822 0.195366 19.8507 0.238525L0.600688 6.5968C0.425832 6.65453 0.273645 6.76595 0.165794 6.91519C0.0579421 7.06444 -7.57487e-05 7.24391 7.42244e-08 7.42805V48.9615C-7.57487e-05 49.1456 0.0579421 49.3251 0.165794 49.4743C0.273645 49.6236 0.425832 49.735 0.600688 49.7927L19.8507 56.151C19.9822 56.1944 20.1221 56.206 20.2589 56.1848C20.3957 56.1636 20.5256 56.1103 20.6378 56.0291C20.75 55.948 20.8413 55.8414 20.9043 55.7181C20.9673 55.5947 21.0001 55.4582 21 55.3198V1.06978C20.9999 0.931416 20.967 0.795055 20.904 0.671861C20.841 0.548668 20.7497 0.442147 20.6377 0.361025Z" fill="#1AA483"/>
<path d="M14.875 30.8198C16.3247 30.8198 17.5 29.6446 17.5 28.1948C17.5 26.7451 16.3247 25.5698 14.875 25.5698C13.4253 25.5698 12.25 26.7451 12.25 28.1948C12.25 29.6446 13.4253 30.8198 14.875 30.8198Z" fill="#0C7259"/>
</g>
<defs>
<clipPath id="clip0_497_24523">
<rect width="56" height="56" fill="white" transform="translate(0 0.194824)"/>
</clipPath>
</defs>
</svg>
