<svg width="116" height="112" viewBox="0 0 116 112" fill="none" xmlns="http://www.w3.org/2000/svg">
<g clip-path="url(#clip0_497_24321)">
<path d="M62.2056 107.833C91.9155 107.833 116 83.694 116 53.9166C116 24.1393 91.9155 0 62.2056 0C32.4957 0 8.41113 24.1393 8.41113 53.9166C8.41113 83.694 32.4957 107.833 62.2056 107.833Z" fill="#EEF7EB"/>
<path d="M76.1186 92.9982C75.5144 95.5456 73.5977 97.7038 70.9091 98.4866L25.538 111.699C21.5576 112.858 17.3942 110.563 16.2379 106.574L0.300182 51.5926C-0.856111 47.6039 1.43274 43.4303 5.41238 42.2713L33.7883 34.0085L50.7835 29.0596C54.7639 27.9007 58.9273 30.1948 60.0836 34.1842L76.0213 89.1654C76.3966 90.4601 76.4096 91.7741 76.1186 92.9982Z" fill="#EBF2E8"/>
<path d="M85.7526 17.7292H38.5054C34.3608 17.7292 31.001 21.0967 31.001 25.2507V82.506C31.001 86.6599 34.3608 90.0274 38.5054 90.0274H85.7526C89.8972 90.0274 93.2571 86.6599 93.2571 82.506V25.2507C93.2571 21.0967 89.8972 17.7292 85.7526 17.7292Z" fill="white"/>
<path d="M77.8468 68.7424L78.3132 69.2996C78.2519 69.3626 78.1899 69.4255 78.1263 69.4884C77.7098 69.9059 77.271 70.3089 76.81 70.6957C76.3513 71.0802 75.8804 71.4448 75.3964 71.7878C75.2869 71.8631 75.1774 71.939 75.0679 72.0135C75.0312 72.038 74.9944 72.0634 74.9569 72.0872L74.5081 71.5507L74.2516 71.2445L73.9958 70.939C74.1054 70.8645 74.2149 70.7886 74.3244 70.7133C74.8083 70.3703 75.2793 70.0057 75.7379 69.6212C76.1989 69.2344 76.6377 68.8314 77.0543 68.4139C77.15 68.3195 77.2427 68.2244 77.3338 68.1284L77.5918 68.4362L77.8468 68.7424Z" fill="#E1EBE1"/>
<path d="M86.5787 79.1713L86.0481 79.6179L83.24 81.9803L81.511 79.9173L81.2567 79.6126L81.0017 79.3071L77.2128 75.0329C77.2488 75.0076 77.2847 74.9823 77.3207 74.9562C77.4287 74.8802 77.5367 74.8019 77.6439 74.7244C78.1202 74.3744 78.5888 74.006 79.0483 73.6215C79.507 73.2347 79.9488 72.8356 80.3753 72.425C80.4389 72.3643 80.5025 72.3029 80.5653 72.24L84.342 76.4996L84.5954 76.8043L84.8512 77.1075L86.1338 78.6394L86.5787 79.1713Z" fill="#E1EBE1"/>
<path d="M95.4724 101.072L80.0416 82.6403C79.4971 81.9902 79.5821 81.0209 80.2307 80.476L85.6232 75.9408C86.2718 75.3951 87.2389 75.4803 87.7826 76.1304L103.213 94.5618C104.488 96.0838 104.289 98.3525 102.771 99.6296L100.528 101.516C99.0094 102.793 96.7458 102.594 95.4716 101.073L95.4724 101.072Z" fill="#CEDDD1"/>
<path d="M82.5218 36.7877C73.201 25.6536 56.6423 24.2023 45.5334 33.5442C34.4261 42.8862 32.9765 59.4825 42.2981 70.6166C51.0591 81.0814 66.2173 82.9925 77.232 75.4234C77.3415 75.349 77.451 75.273 77.5589 75.1955C77.6669 75.1195 77.7749 75.0412 77.8813 74.9637C78.3584 74.6137 78.8263 74.2453 79.2865 73.8608C79.7452 73.474 80.187 73.0749 80.6128 72.6651C80.7085 72.5737 80.8034 72.4824 80.8976 72.3864C80.9934 72.2936 81.0852 72.1992 81.1779 72.104C90.5278 62.5487 91.2836 47.2532 82.521 36.7884L82.5218 36.7877ZM49.0812 37.7816C57.8407 30.4159 70.9451 31.5656 78.2941 40.3435C85.0825 48.4513 84.6208 60.2777 77.6087 67.839C77.5191 67.9357 77.428 68.0332 77.3338 68.1284C77.2427 68.2243 77.15 68.3195 77.0551 68.4139C76.6385 68.8314 76.1997 69.2343 75.7387 69.6212C75.28 70.0064 74.8091 70.3702 74.3251 70.7133C74.2156 70.7893 74.1061 70.8653 73.9966 70.9397C73.8856 71.0142 73.7753 71.0871 73.6643 71.16C69.8064 73.6689 65.2563 74.8125 60.6035 74.405C55.0855 73.9199 50.0866 71.312 46.5266 67.0585C39.1776 58.2814 40.3232 45.1465 49.0812 37.7808V37.7816Z" fill="#E1EBE1"/>
<path d="M78.5966 40.0878C71.0944 31.1281 57.768 29.9592 48.827 37.4784C39.886 44.996 38.7213 58.3558 46.2219 67.3156C53.1627 75.6076 65.0932 77.2262 73.9185 71.4669C74.0311 71.394 74.1398 71.3196 74.2509 71.2451C74.3604 71.1707 74.4699 71.0962 74.5779 71.0172C75.0603 70.6772 75.5312 70.3134 75.993 69.9266C76.4532 69.5398 76.892 69.1368 77.3108 68.7208C77.405 68.6264 77.4985 68.5313 77.5911 68.4369C77.6838 68.3402 77.7749 68.2442 77.866 68.1475C85.058 60.4357 85.5374 48.3807 78.5966 40.0886V40.0878ZM77.608 67.839C77.5184 67.9357 77.4272 68.0332 77.3331 68.1283C77.2419 68.2243 77.1493 68.3194 77.0543 68.4138C76.6377 68.8314 76.199 69.2343 75.738 69.6211C75.2793 70.0064 74.8083 70.3702 74.3244 70.7133C74.2149 70.7892 74.1054 70.8652 73.9959 70.9397C73.8848 71.0141 73.7746 71.087 73.6635 71.1599C69.8057 73.6689 65.2555 74.8125 60.6028 74.4049C55.0847 73.9199 50.0859 71.3119 46.5259 67.0584C39.1769 58.2814 40.3225 45.1464 49.0804 37.7808C57.8399 30.4151 70.9443 31.5648 78.2933 40.3427C85.0818 48.4505 84.62 60.2768 77.608 67.8382V67.839Z" fill="#E1EBE1"/>
<path d="M77.6079 67.8389C77.5183 67.9356 77.4272 68.0331 77.333 68.1283C77.2419 68.2242 77.1492 68.3194 77.0543 68.4138C76.6377 68.8313 76.1989 69.2342 75.7379 69.621C75.2792 70.0063 74.8083 70.3701 74.3243 70.7132C74.2148 70.7892 74.1053 70.8652 73.9958 70.9396C73.8848 71.014 73.7745 71.087 73.6635 71.1599C69.8056 73.6688 65.2555 74.8124 60.6027 74.4048C55.0847 73.9198 50.0858 71.3118 46.5258 67.0584C39.1768 58.2813 40.3224 45.1463 49.0804 37.7807C57.8399 30.415 70.9443 31.5647 78.2933 40.3426C85.0817 48.4504 84.6199 60.2768 77.6079 67.8381V67.8389Z" fill="white"/>
<path d="M65.2211 58.1968C64.4002 58.764 63.5571 58.5414 62.6926 57.5299L60.7437 55.0647C60.3371 54.5558 60.161 54.0631 60.2146 53.5888C60.2682 53.1145 60.5071 52.6317 60.9306 52.1413C61.6259 51.3508 62.0417 50.5625 62.1772 49.7766C62.3135 48.9915 62.1175 48.2155 61.5914 47.4504C61.0125 46.6084 60.3302 46.0988 59.5461 45.92C58.7619 45.7419 57.9586 45.9368 57.1378 46.504C56.1063 47.2163 55.6223 48.1304 55.6844 49.244C55.6897 50.0307 55.6024 50.5994 55.4209 50.9501C55.2402 51.3016 54.8841 51.6033 54.3542 51.8565C53.7539 52.1305 53.1933 52.1858 52.6734 52.0231C52.1527 51.8604 51.8395 51.4352 51.7323 50.7467C51.5309 49.3898 51.7185 48.0751 52.2936 46.8018C52.8687 45.5293 53.8052 44.4448 55.1039 43.5476C56.2878 42.7302 57.4877 42.2329 58.7037 42.0556C59.9198 41.8791 61.0791 42.0387 62.1795 42.5338C63.2807 43.0296 64.2394 43.8707 65.0549 45.0565C65.9899 46.4158 66.3307 47.8026 66.0795 49.2187C65.8283 50.6347 65.133 51.9893 63.9951 53.2833L65.4401 55.6303C66.0948 56.7869 66.0213 57.6427 65.2196 58.1968H65.2211ZM69.4366 64.389C68.8447 64.7981 68.1892 64.9401 67.4701 64.8157C66.7511 64.6922 66.1875 64.333 65.7793 63.7397C65.3582 63.1272 65.218 62.4626 65.3574 61.7442C65.4975 61.0266 65.8636 60.4633 66.4555 60.0542C67.0666 59.6321 67.732 59.4832 68.4511 59.6075C69.1701 59.7318 69.7406 60.1002 70.1618 60.7127C70.5699 61.306 70.7039 61.9622 70.5638 62.679C70.4237 63.3966 70.0477 63.9669 69.4374 64.389H69.4366Z" fill="#A8C0B2"/>
</g>
<defs>
<clipPath id="clip0_497_24321">
<rect width="116" height="112" fill="white"/>
</clipPath>
</defs>
</svg>
