<svg width="128" height="127" viewBox="0 0 128 127" fill="none" xmlns="http://www.w3.org/2000/svg">
<g clip-path="url(#clip0_497_24532)">
<path d="M64.0004 54.0366L50.9457 67.0914L56.1676 85.3679L56.1676 87.9787C56.1676 92.3129 59.6661 95.8115 64.0004 95.8116C68.3344 95.8116 71.8332 92.313 71.8333 87.9787L71.8333 85.3679L77.0552 67.0914L64.0004 54.0366ZM50.4945 84.226C50.9815 83.5095 51.081 82.6019 50.7621 81.7961C48.9722 77.2729 47.3557 69.5803 46.4403 61.2171C46.3459 60.3679 45.8438 59.6184 45.0915 59.2105C43.5451 58.3688 42.3064 59.4239 41.9452 59.5343C41.4607 59.7765 30.0582 65.6741 30.0582 82.7575C30.0582 95.6643 37.5723 95.8122 37.8911 95.8122C39.3344 95.8122 40.5021 94.6445 40.502 93.2013C40.5021 88.882 44.0156 85.3686 48.3349 85.3684C49.1991 85.3683 50.0075 84.94 50.4945 84.226ZM82.9095 59.2104C82.1574 59.6184 81.655 60.3679 81.5607 61.2169C80.6122 69.8708 79.0415 77.362 77.2464 81.773C76.92 82.5787 77.0144 83.494 77.4988 84.2157C77.9857 84.9347 78.7967 85.3681 79.6661 85.3681C83.9853 85.3681 87.4989 88.8817 87.499 93.201C87.499 94.6442 88.6668 95.812 90.1099 95.8119C90.4286 95.8118 97.9428 95.6639 97.9428 82.7571C97.9428 65.6737 86.5403 59.7762 86.0584 59.5365C85.7138 59.4314 84.4506 58.3688 82.9095 59.2104ZM65.567 2.34006C64.6272 1.66115 63.374 1.66114 62.4336 2.34006C61.9115 2.75755 54.0264 8.81512 47.8645 20.0943L63.8828 25.3161L80.1359 20.0943C73.9742 8.81512 66.089 2.75768 65.567 2.34006ZM53.5566 38.371C53.5566 44.1152 58.2562 48.8148 64.0004 48.8148C69.7966 48.8148 74.4443 44.1152 74.4443 38.371C74.4443 32.5748 69.7966 27.9272 64.0004 27.9272C58.2562 27.9272 53.5568 32.5747 53.5566 38.371Z" fill="url(#paint0_linear_497_24532)"/>
<path d="M47.8645 20.0945C43.7916 27.4576 40.5018 37.0657 40.5018 48.815C40.5018 52.6793 40.7627 57.1702 41.2325 61.7652C42.2247 70.5903 43.948 78.7887 45.9324 83.6972C46.2979 84.6895 47.2379 85.3683 48.3345 85.3683L56.1674 85.3683L56.1673 67.0916C56.1673 62.7574 59.6659 59.2588 64.0002 59.2587C68.3863 59.2587 71.833 62.7053 71.8331 67.0916L71.8331 85.3681L79.666 85.3681C80.7102 85.3681 81.7023 84.7415 82.0679 83.7495C84.0522 78.8932 85.7755 70.9034 86.7676 61.7652C87.2374 57.1702 87.4987 52.6791 87.4987 48.8151C87.4987 37.0658 84.2089 27.4577 80.1357 20.0947L47.8645 20.0945ZM74.444 38.3712C74.444 44.1154 69.7965 48.8149 64.0002 48.815C58.256 48.815 53.5564 44.1154 53.5564 38.3712C53.5564 32.575 58.256 27.9274 64.0002 27.9274C69.7963 27.9274 74.444 32.575 74.444 38.3712ZM64.0258 101.011C62.5827 101.011 61.415 102.179 61.4149 103.622L61.3891 122.714C61.3891 124.157 62.5569 125.325 64.0001 125.325C65.4432 125.325 66.6111 124.157 66.611 122.714L66.6367 103.622C66.6367 102.179 65.4689 101.011 64.0258 101.011ZM71.8586 103.622L71.8586 108.844C71.8586 110.287 73.0264 111.455 74.4695 111.455C75.9127 111.455 77.0805 110.287 77.0804 108.844L77.0804 103.622C77.0805 102.179 75.9126 101.011 74.4695 101.011C73.0264 101.011 71.8587 102.179 71.8586 103.622ZM56.1929 108.844L56.1929 103.622C56.1929 102.179 55.0251 101.011 53.582 101.011C52.1387 101.011 50.9709 102.179 50.9711 103.622L50.9711 108.844C50.9709 110.287 52.1389 111.455 53.582 111.455C55.0251 111.455 56.1929 110.287 56.1929 108.844Z" fill="url(#paint1_linear_497_24532)"/>
</g>
<defs>
<linearGradient id="paint0_linear_497_24532" x1="63.9938" y1="95.8006" x2="63.9938" y2="1.83357" gradientUnits="userSpaceOnUse">
<stop stop-color="#75CBAC"/>
<stop offset="0.5028" stop-color="#EAFFFA"/>
<stop offset="1" stop-color="#ACF8D3"/>
</linearGradient>
<linearGradient id="paint1_linear_497_24532" x1="63.9935" y1="125.309" x2="63.9935" y2="20.0944" gradientUnits="userSpaceOnUse">
<stop stop-color="#0E9577"/>
<stop offset="1" stop-color="#60DEC0"/>
</linearGradient>
<clipPath id="clip0_497_24532">
<rect width="89.1203" height="89.1203" fill="white" transform="translate(0.982422 63.3896) rotate(-45)"/>
</clipPath>
</defs>
</svg>
