<svg width="16" height="15" viewBox="0 0 16 15" fill="none" xmlns="http://www.w3.org/2000/svg">
<path d="M7.979 0.806152V2.2124M11.9565 2.45365L10.9621 3.44803M13.604 6.43115H12.1978M11.9565 10.4087L10.9621 9.41428M7.979 10.6499V12.0562M4.99588 9.41428L4.0015 10.4087M3.76025 6.43115H2.354M4.99588 3.44803L4.0015 2.45365M10.3228 6.43115C10.3228 7.05275 10.0758 7.6489 9.63629 8.08843C9.19675 8.52797 8.60061 8.7749 7.979 8.7749C7.3574 8.7749 6.76126 8.52797 6.32172 8.08843C5.88218 7.6489 5.63525 7.05275 5.63525 6.43115C5.63525 5.80955 5.88218 5.21341 6.32172 4.77387C6.76126 4.33433 7.3574 4.0874 7.979 4.0874C8.60061 4.0874 9.19675 4.33433 9.63629 4.77387C10.0758 5.21341 10.3228 5.80955 10.3228 6.43115V6.43115Z" stroke="white" stroke-width="1.5" stroke-linecap="round" stroke-linejoin="round"/>
</svg>
