<svg width="80" height="80" viewBox="0 0 80 80" fill="none" xmlns="http://www.w3.org/2000/svg">
<path d="M20.1311 3.33325H10.4438C6.2591 3.33325 3.75488 5.86659 3.75488 10.0999V19.8999C3.75488 24.1333 6.2591 26.6666 10.4438 26.6666H20.1311C24.3158 26.6666 26.82 24.1333 26.82 19.8999V10.0999C26.82 5.86659 24.3158 3.33325 20.1311 3.33325ZM21.7786 18.5333C22.6024 19.3666 22.6024 20.7333 21.7786 21.5666C21.3503 21.9666 20.7901 22.1666 20.2629 22.1666C19.7357 22.1666 19.2085 21.9666 18.7802 21.5666L15.2545 18.0333L11.8277 21.5666C11.3993 21.9666 10.8721 22.1666 10.279 22.1666C9.75182 22.1666 9.22461 21.9666 8.79626 21.5666C7.97251 20.7333 7.97251 19.3666 8.79626 18.5333L12.3219 14.9999L8.82921 11.4999C8.00546 10.6666 8.00546 9.29992 8.82921 8.46659C9.65297 7.63325 11.0039 7.63325 11.8277 8.46659L15.2545 11.9999L18.7472 8.46659C19.571 7.63325 20.9219 7.63325 21.7457 8.46659C22.5694 9.29992 22.5694 10.6666 21.7457 11.4999L18.2859 14.9999L21.7786 18.5333Z" fill="#F2261A"/>
<path opacity="0.4" d="M55.2561 6.66675H26.0952C26.5565 7.63341 26.8201 8.76675 26.8201 10.1001V19.9001C26.8201 24.1334 24.3159 26.6667 20.1312 26.6667H10.4439C9.81782 26.6667 9.25766 26.6001 8.69751 26.4667V57.1001C8.69751 66.0667 15.8807 73.3334 24.7443 73.3334H51.0056C51.5657 73.3334 52.1259 73.1334 52.5542 72.6667C57.4308 67.7001 65.932 59.0334 70.7098 54.1668C71.1381 53.7334 71.3029 53.2334 71.3029 52.7334V22.9001C71.3029 13.9334 64.1197 6.66675 55.2561 6.66675Z" fill="#F2261A"/>
<path d="M71.3028 52.7334C71.3028 53.2334 71.1381 53.7334 70.7097 54.1668C65.932 59.0334 57.4308 67.7001 52.5542 72.6668C52.1258 73.1334 51.5657 73.3334 51.0055 73.3334C49.9182 73.3334 48.8638 72.4668 48.8638 71.2001V59.5334C48.8638 54.6668 52.9496 50.6334 57.958 50.6334C61.0883 50.6001 65.4377 50.6001 69.1611 50.6001C70.4461 50.6001 71.3028 51.6334 71.3028 52.7334Z" fill="#F2261A"/>
<path d="M49.1603 42.3667H24.7113C23.3273 42.3667 22.24 41.2334 22.24 39.8667C22.24 38.5 23.3603 37.3667 24.7113 37.3667H49.1603C50.5442 37.3667 51.6316 38.5 51.6316 39.8667C51.6316 41.2334 50.5442 42.3667 49.1603 42.3667Z" fill="#F2261A"/>
<path d="M40.0001 54.7334H24.7113C23.3273 54.7334 22.24 53.6001 22.24 52.2334C22.24 50.8334 23.3603 49.7334 24.7113 49.7334H40.0001C41.3841 49.7334 42.4714 50.8667 42.4714 52.2334C42.4714 53.6001 41.3841 54.7334 40.0001 54.7334Z" fill="#F2261A"/>
</svg>
