<svg width="33" height="33" viewBox="0 0 33 33" fill="none" xmlns="http://www.w3.org/2000/svg">
<g clip-path="url(#clip0_1_1909)">
<path d="M16.6191 0.932617L8.61914 16.9326L16.6191 32.9326C25.4557 32.9326 32.6191 25.7692 32.6191 16.9326C32.6191 8.09606 25.4557 0.932617 16.6191 0.932617Z" fill="#14CFFF"/>
<path d="M0.619141 16.9326C0.619141 25.7692 7.78258 32.9326 16.6191 32.9326V0.932617C7.78258 0.932617 0.619141 8.09606 0.619141 16.9326Z" fill="#14CFFF"/>
<path d="M16.6191 4.68262L10.4941 16.9326L16.6191 29.1826C23.3846 29.1826 28.8691 23.6981 28.8691 16.9326C28.8691 10.1671 23.3846 4.68262 16.6191 4.68262Z" fill="#E4F5FF"/>
<path d="M4.36914 16.9326C4.36914 23.6981 9.85364 29.1826 16.6191 29.1826V4.68262C9.85364 4.68262 4.36914 10.1671 4.36914 16.9326Z" fill="#E4F5FF"/>
<path d="M15.6973 21.1512L15.6973 17.4013L14.8134 16.5174L13.8223 19.2763L13.8223 21.1512H15.6973Z" fill="#340D66"/>
<path d="M15.6972 10.8701L13.8222 10.8701L13.8222 19.2763L15.6972 17.4013L15.6972 10.8701Z" fill="#373E9F"/>
<path d="M22.0099 19.6757L17.4473 19.6756L14.6885 20.6667L15.5723 21.5506L22.0099 21.5506L22.0099 19.6757Z" fill="#373E9F"/>
<path d="M13.8193 19.6756L13.8193 21.5506L15.6943 21.5506L17.5693 19.6756L13.8193 19.6756Z" fill="#3857BC"/>
</g>
<defs>
<clipPath id="clip0_1_1909">
<rect width="32" height="32" fill="white" transform="translate(0.619141 0.932617)"/>
</clipPath>
</defs>
</svg>
