<svg width="33" height="33" viewBox="0 0 33 33" fill="none" xmlns="http://www.w3.org/2000/svg">
<g clip-path="url(#clip0_1_1988)">
<path d="M32.6127 18.3029C32.5747 17.9518 32.3473 17.6604 32.0194 17.5425C30.2387 16.9021 28.2605 17.0485 26.5877 17.9471L20.4451 21.5305L20.4205 21.5482C19.9933 21.9223 19.4629 22.1283 18.9269 22.1283H13.7248V20.8591H18.9269C19.6914 20.8591 20.1142 19.9394 20.1142 19.3036C20.1142 18.4707 19.5968 17.7731 18.9566 17.7485L13.4877 17.6874C11.4908 17.6655 10.2839 16.5159 8.26116 17.5524C6.28776 18.5639 5.42007 20.8525 5.2012 21.53L5.18362 21.5844L7.83839 28.245H17.7703L32.1948 19.1757C32.4908 18.9896 32.6509 18.6551 32.6127 18.3029Z" fill="#F9D298"/>
<path d="M8.84464 29.7855L5.97777 31.3496C5.42543 31.6509 4.73326 31.4336 4.4523 30.8706L0.736264 23.4256C0.469393 22.8909 0.673495 22.2409 1.19808 21.9547L4.06495 20.3907C4.61729 20.0894 5.30946 20.3067 5.59042 20.8697L9.30645 28.3147C9.57333 28.8493 9.36922 29.4994 8.84464 29.7855Z" fill="#4C97E3"/>
<path d="M20.7135 4.7779C17.8342 -1.71892 6.6652 6.0804 20.6668 15.1117L20.6595 15.0787C35.3397 6.04737 23.1161 -1.5142 20.7135 4.7779Z" fill="#FF2459"/>
</g>
<defs>
<clipPath id="clip0_1_1988">
<rect width="32" height="32" fill="white" transform="translate(0.619141 0.932617)"/>
</clipPath>
</defs>
</svg>
