<svg width="33" height="33" viewBox="0 0 33 33" fill="none" xmlns="http://www.w3.org/2000/svg">
<g clip-path="url(#clip0_1_1929)">
<path d="M16.6186 11.1603C16.6186 11.1603 15.8196 4.24851 7.33008 0.932617V11.1603H16.6186Z" fill="#F0F5FA"/>
<path d="M16.6191 11.1603C16.6191 11.1603 17.4182 4.24851 25.9077 0.932617V11.1603H16.6191Z" fill="#E4ECF2"/>
<path d="M16.721 11.1604C13.0141 4.53702 4.13307 2.50183 4.13307 2.50183L2.36914 4.29422L14.5756 12.4144L16.721 11.1604Z" fill="#E4ECF2"/>
<path d="M16.5156 11.1604C20.2225 4.53702 29.1036 2.50183 29.1036 2.50183L30.8675 4.29422L18.661 12.4145L16.5156 11.1604Z" fill="#F0F5FA"/>
<path d="M32.194 25.3908L19.746 32.3928C19.3168 32.6343 18.7864 32.3241 18.7864 31.8316L18.1426 21.6005L18.7864 11.5367C18.7864 11.3041 18.9119 11.0896 19.1146 10.9755L31.5626 3.97353C31.9918 3.73208 32.5222 4.04223 32.5222 4.53472V24.8295C32.5222 25.0622 32.3967 25.2768 32.194 25.3908Z" fill="#15C69B"/>
<path d="M31.5613 3.97365L29.9454 4.8826V24.8296C29.9454 25.0622 29.8199 25.2768 29.6173 25.3908L18.7852 31.4839V31.8316C18.7852 32.324 19.3155 32.6342 19.7447 32.3928L32.1927 25.3908C32.3955 25.2768 32.5209 25.0622 32.5209 24.8296V4.53478C32.5209 4.04235 31.9905 3.73221 31.5613 3.97365Z" fill="#1AA483"/>
<path d="M13.4911 32.3928L1.04302 25.3908C0.840268 25.2768 0.714844 25.0623 0.714844 24.8296V4.53481C0.714844 4.04238 1.24519 3.73223 1.67439 3.97362L14.1224 10.9756C14.3251 11.0897 14.4506 11.3042 14.4506 11.5368V31.8316C14.4506 32.3241 13.9203 32.6343 13.4911 32.3928Z" fill="#15C69B"/>
<path d="M14.1224 10.9757L1.67439 3.97371C1.24519 3.73227 0.714844 4.04242 0.714844 4.53484V4.88266L11.5469 10.9757C11.7497 11.0898 11.8751 11.3043 11.8751 11.5369V31.4839L13.491 32.3929C13.9202 32.6343 14.4506 32.3242 14.4506 31.8317L15.0944 21.6328L14.4506 11.5369C14.4506 11.3043 14.3251 11.0898 14.1224 10.9757Z" fill="#1AA483"/>
<path d="M30.161 12.4147L21.1466 17.5656V14.4525L30.161 9.30164V12.4147Z" fill="white"/>
<path d="M18.1427 32.9326H15.0951C14.7395 32.9326 14.4512 32.6443 14.4512 32.2887V11.8041C14.4512 11.4485 14.7395 11.1603 15.0951 11.1603H18.1427C18.4983 11.1603 18.7866 11.4485 18.7866 11.8041V32.2887C18.7866 32.6443 18.4983 32.9326 18.1427 32.9326Z" fill="#15C69B"/>
<path d="M18.1423 11.1603H15.9531C16.3087 11.1603 16.597 11.4485 16.597 11.8041V32.2887C16.597 32.6443 16.3087 32.9326 15.9531 32.9326H18.1423C18.4979 32.9326 18.7861 32.6443 18.7861 32.2887V11.8041C18.7861 11.4485 18.4979 11.1603 18.1423 11.1603Z" fill="#1AA483"/>
<path d="M14.4512 13.4062H18.7865V15.5524H14.4512V13.4062Z" fill="#FFDA45"/>
<path d="M14.4512 28.5404H18.7865V30.6866H14.4512V28.5404Z" fill="#FFDA45"/>
<path d="M16.6196 25.4267C16.3529 25.4267 16.1367 25.2106 16.1367 24.9438V19.149C16.1367 18.8823 16.3529 18.6661 16.6196 18.6661C16.8863 18.6661 17.1025 18.8823 17.1025 19.149V24.9438C17.1025 25.2105 16.8863 25.4267 16.6196 25.4267Z" fill="white"/>
</g>
<defs>
<clipPath id="clip0_1_1929">
<rect width="32" height="32" fill="white" transform="translate(0.619141 0.932617)"/>
</clipPath>
</defs>
</svg>
