<svg width="25" height="24" viewBox="0 0 25 24" fill="none" xmlns="http://www.w3.org/2000/svg">
<path opacity="0.4" d="M20.36 8.08997C20.36 8.23997 20.36 8.38997 20.35 8.52997C18.82 7.95997 17.02 8.30997 15.82 9.38997C15.01 8.65997 13.96 8.24997 12.84 8.24997C10.38 8.24997 8.38 10.26 8.38 12.74C8.38 15.57 9.8 17.64 11.16 18.98C11.05 18.97 10.96 18.95 10.88 18.92C8.29 18.03 2.5 14.35 2.5 8.08997C2.5 5.32997 4.71999 3.09998 7.45999 3.09998C9.08999 3.09998 10.53 3.87997 11.43 5.08997C12.34 3.87997 13.78 3.09998 15.4 3.09998C18.14 3.09998 20.36 5.32997 20.36 8.08997Z" fill="#E0144C"/>
<path d="M18.5 9.58997C17.43 9.58997 16.46 10.11 15.86 10.91C15.26 10.11 14.3 9.58997 13.22 9.58997C11.4 9.58997 9.92004 11.07 9.92004 12.91C9.92004 13.62 10.03 14.27 10.23 14.87C11.17 17.84 14.06 19.61 15.49 20.1C15.69 20.17 16.02 20.17 16.23 20.1C17.66 19.61 20.55 17.84 21.49 14.87C21.69 14.26 21.8 13.61 21.8 12.91C21.8 11.07 20.32 9.58997 18.5 9.58997Z" fill="#E0144C"/>
</svg>
