<svg width="25" height="24" viewBox="0 0 25 24" fill="none" xmlns="http://www.w3.org/2000/svg">
<path opacity="0.4" d="M22.52 16.82L19.39 9.50002C18.82 8.16002 17.97 7.40002 17 7.35002C16.04 7.30002 15.11 7.97002 14.4 9.25002L12.5 12.66C12.1 13.38 11.53 13.81 10.91 13.86C10.28 13.92 9.65002 13.59 9.14002 12.94L8.92002 12.66C8.21002 11.77 7.33002 11.34 6.43002 11.43C5.53002 11.52 4.76002 12.14 4.25002 13.15L2.52002 16.6C1.90002 17.85 1.96002 19.3 2.69002 20.48C3.42002 21.66 4.69002 22.37 6.08002 22.37H18.84C20.18 22.37 21.43 21.7 22.17 20.58C22.93 19.46 23.05 18.05 22.52 16.82Z" fill="#3E9D81"/>
<path d="M7.46997 8.38C9.33669 8.38 10.85 6.86672 10.85 5C10.85 3.13327 9.33669 1.62 7.46997 1.62C5.60324 1.62 4.08997 3.13327 4.08997 5C4.08997 6.86672 5.60324 8.38 7.46997 8.38Z" fill="#3E9D81"/>
</svg>
