<svg width="25" height="24" viewBox="0 0 25 24" fill="none" xmlns="http://www.w3.org/2000/svg">
<path opacity="0.4" fill-rule="evenodd" clip-rule="evenodd" d="M4.82935 5.82753C4.82935 5.43018 4.98717 5.04908 5.26815 4.76815C5.54908 4.48717 5.93018 4.32935 6.32753 4.32935H18.6425C19.0398 4.32935 19.4209 4.48717 19.7019 4.76815C19.9828 5.04908 20.1406 5.43018 20.1406 5.82753V18.1425C20.1406 18.5398 19.9828 18.9209 19.7019 19.2019C19.4209 19.4828 19.0398 19.6406 18.6425 19.6406C15.713 19.6406 9.25694 19.6406 6.32753 19.6406C5.93018 19.6406 5.54908 19.4828 5.26815 19.2019C4.98717 18.9209 4.82935 18.5398 4.82935 18.1425V5.82753Z" fill="#8459EC"/>
<path d="M12.4849 1.77881C12.8822 1.77881 13.2635 1.93643 13.5444 2.21729L22.2524 10.9253C22.5334 11.2062 22.6909 11.5876 22.6909 11.9849C22.6909 12.3822 22.5334 12.7635 22.2524 13.0444C20.181 15.1159 15.6159 19.681 13.5444 21.7524C13.2635 22.0334 12.8822 22.1909 12.4849 22.1909C12.0876 22.1909 11.7062 22.0334 11.4253 21.7524L2.71729 13.0444C2.43643 12.7635 2.27881 12.3822 2.27881 11.9849C2.27885 11.5876 2.4364 11.2062 2.71729 10.9253C4.78877 8.85388 9.35388 4.28877 11.4253 2.21729C11.7062 1.9364 12.0876 1.77885 12.4849 1.77881ZM13.9233 8.90576C13.6651 8.90592 13.4556 9.11621 13.4556 9.37451V14.0308C13.4556 14.1863 13.3937 14.3358 13.2837 14.4458C13.1737 14.5558 13.0242 14.6177 12.8687 14.6177H12.8677C12.7123 14.6176 12.5636 14.5556 12.4536 14.4458C12.3437 14.3358 12.2817 14.1863 12.2817 14.0308V9.37451C12.2817 9.11611 12.0714 8.90576 11.813 8.90576C11.7486 8.90581 11.6872 8.91927 11.6313 8.94287C11.4632 9.01393 11.3452 9.18062 11.3452 9.37451V14.0308C11.3452 14.1863 11.2833 14.3358 11.1733 14.4458C11.0634 14.5558 10.9139 14.6177 10.7583 14.6177H10.7573C10.602 14.6176 10.4532 14.5556 10.3433 14.4458C10.2333 14.3358 10.1714 14.1863 10.1714 14.0308V11.2476C10.1714 11.086 10.0877 10.9356 9.95068 10.8501C9.81372 10.7646 9.64265 10.7558 9.49756 10.8267C9.49756 10.8267 8.70605 11.2131 7.94189 11.5864C7.52126 11.7921 7.25591 12.2208 7.25928 12.689C7.26268 13.1572 7.53396 13.5823 7.95752 13.7817L9.28174 14.4048C9.34851 14.6687 9.48539 14.9121 9.68115 15.1079C9.96664 15.3934 10.3536 15.5541 10.7573 15.5542H10.7583C11.1523 15.5542 11.5296 15.4 11.813 15.1274C12.0964 15.4001 12.4736 15.5541 12.8677 15.5542H12.8687C13.2725 15.5542 13.6602 15.3935 13.9458 15.1079C14.2313 14.8223 14.3921 14.4346 14.3921 14.0308V9.37451C14.3921 9.11611 14.1817 8.90576 13.9233 8.90576ZM15.6733 8.90576C15.4152 8.90602 15.2056 9.11627 15.2056 9.37451V15.0854C15.2056 15.3437 15.4152 15.5539 15.6733 15.5542C15.9317 15.5542 16.1421 15.3439 16.1421 15.0854V9.37451C16.1421 9.11611 15.9317 8.90576 15.6733 8.90576ZM9.23486 13.3481L8.35693 12.9341C8.25918 12.888 8.19661 12.7902 8.1958 12.6821C8.19506 12.5741 8.25595 12.4747 8.35303 12.4272L9.23486 11.9966V13.3481Z" fill="#8459EC"/>
</svg>
