<svg width="25" height="24" viewBox="0 0 25 24" fill="none" xmlns="http://www.w3.org/2000/svg">
<path opacity="0.4" d="M12.5 5.53125V19.875C12.5 19.875 15.7625 18.75 17.5625 18.75C18.916 18.75 20.6703 19.1754 21.7777 19.5445C22.175 19.6781 22.625 19.3828 22.625 18.9645V5.94609C22.625 5.5207 22.3859 5.12695 21.9887 4.97578C20.9973 4.59258 19.3379 4.125 17.5625 4.125C15.3125 4.125 13.0625 4.96875 12.5 5.53125Z" fill="#C36839"/>
<path d="M12.5 5.53125V19.875C12.5 19.875 9.2375 18.75 7.4375 18.75C6.08398 18.75 4.32969 19.1754 3.22227 19.5445C2.825 19.6746 2.375 19.3828 2.375 18.9645V5.94609C2.375 5.5207 2.61406 5.12695 3.01133 4.97227C4.00273 4.59258 5.66211 4.125 7.4375 4.125C9.6875 4.125 11.9375 4.96875 12.5 5.53125Z" fill="#C36839"/>
</svg>
