<svg width="25" height="24" viewBox="0 0 25 24" fill="none" xmlns="http://www.w3.org/2000/svg">
<path d="M9.81994 13.28H12.9099V20.48C12.9099 21.54 14.2299 22.04 14.9299 21.24L22.4999 12.64C23.1599 11.89 22.6299 10.72 21.6299 10.72H18.5399V3.52003C18.5399 2.46003 17.2199 1.96003 16.5199 2.76003L8.94994 11.36C8.29994 12.11 8.82994 13.28 9.81994 13.28Z" fill="#2C9E4B"/>
<path opacity="0.4" d="M9 4.75H2C1.59 4.75 1.25 4.41 1.25 4C1.25 3.59 1.59 3.25 2 3.25H9C9.41 3.25 9.75 3.59 9.75 4C9.75 4.41 9.41 4.75 9 4.75Z" fill="#2C9E4B"/>
<path opacity="0.4" d="M8 20.75H2C1.59 20.75 1.25 20.41 1.25 20C1.25 19.59 1.59 19.25 2 19.25H8C8.41 19.25 8.75 19.59 8.75 20C8.75 20.41 8.41 20.75 8 20.75Z" fill="#2C9E4B"/>
<path opacity="0.4" d="M5 12.75H2C1.59 12.75 1.25 12.41 1.25 12C1.25 11.59 1.59 11.25 2 11.25H5C5.41 11.25 5.75 11.59 5.75 12C5.75 12.41 5.41 12.75 5 12.75Z" fill="#2C9E4B"/>
</svg>
