<svg width="25" height="24" viewBox="0 0 25 24" fill="none" xmlns="http://www.w3.org/2000/svg">
<path opacity="0.4" d="M8.5 1.25H4.5C2.98122 1.25 1.75 2.48122 1.75 4V8C1.75 9.51879 2.98122 10.75 4.5 10.75H8.5C10.0188 10.75 11.25 9.51879 11.25 8V4C11.25 2.48122 10.0188 1.25 8.5 1.25Z" fill="#277BC0"/>
<path d="M8.5 13.25H4.5C2.98122 13.25 1.75 14.4812 1.75 16V20C1.75 21.5188 2.98122 22.75 4.5 22.75H8.5C10.0188 22.75 11.25 21.5188 11.25 20V16C11.25 14.4812 10.0188 13.25 8.5 13.25Z" fill="#277BC0"/>
<path d="M20.5 1.25H16.5C14.9812 1.25 13.75 2.48122 13.75 4V8C13.75 9.51879 14.9812 10.75 16.5 10.75H20.5C22.0188 10.75 23.25 9.51879 23.25 8V4C23.25 2.48122 22.0188 1.25 20.5 1.25Z" fill="#277BC0"/>
<path opacity="0.4" d="M15.5 21.75C15.3011 21.75 15.1103 21.671 14.9697 21.5303C14.829 21.3897 14.75 21.1989 14.75 21V15C14.75 14.8011 14.829 14.6103 14.9697 14.4697C15.1103 14.329 15.3011 14.25 15.5 14.25C15.6989 14.25 15.8897 14.329 16.0303 14.4697C16.171 14.6103 16.25 14.8011 16.25 15V21C16.25 21.1989 16.171 21.3897 16.0303 21.5303C15.8897 21.671 15.6989 21.75 15.5 21.75Z" fill="#277BC0"/>
<path opacity="0.4" d="M21.5 21.75C21.3011 21.75 21.1103 21.671 20.9697 21.5303C20.829 21.3897 20.75 21.1989 20.75 21V15C20.75 14.8011 20.829 14.6103 20.9697 14.4697C21.1103 14.329 21.3011 14.25 21.5 14.25C21.6989 14.25 21.8897 14.329 22.0303 14.4697C22.171 14.6103 22.25 14.8011 22.25 15V21C22.25 21.1989 22.171 21.3897 22.0303 21.5303C21.8897 21.671 21.6989 21.75 21.5 21.75Z" fill="#277BC0"/>
<path opacity="0.4" d="M18.5 21.75C18.3011 21.75 18.1103 21.671 17.9697 21.5303C17.829 21.3897 17.75 21.1989 17.75 21V15C17.75 14.8011 17.829 14.6103 17.9697 14.4697C18.1103 14.329 18.3011 14.25 18.5 14.25C18.6989 14.25 18.8897 14.329 19.0303 14.4697C19.171 14.6103 19.25 14.8011 19.25 15V21C19.25 21.1989 19.171 21.3897 19.0303 21.5303C18.8897 21.671 18.6989 21.75 18.5 21.75Z" fill="#277BC0"/>
</svg>
