<svg width="25" height="24" viewBox="0 0 25 24" fill="none" xmlns="http://www.w3.org/2000/svg">
<path d="M12.5 4.65002C7.71996 4.65002 3.82996 8.54002 3.82996 13.32C3.82996 18.1 7.71996 22 12.5 22C17.28 22 21.17 18.11 21.17 13.33C21.17 8.55002 17.28 4.65002 12.5 4.65002ZM13.25 13C13.25 13.41 12.91 13.75 12.5 13.75C12.09 13.75 11.75 13.41 11.75 13V8.00002C11.75 7.59002 12.09 7.25002 12.5 7.25002C12.91 7.25002 13.25 7.59002 13.25 8.00002V13Z" fill="#4989E9"/>
<path opacity="0.4" d="M15.39 3.45H9.61001C9.21001 3.45 8.89001 3.13 8.89001 2.73C8.89001 2.33 9.21001 2 9.61001 2H15.39C15.79 2 16.11 2.32 16.11 2.72C16.11 3.12 15.79 3.45 15.39 3.45Z" fill="#4989E9"/>
</svg>
