<svg width="28" height="28" viewBox="0 0 28 28" fill="none" xmlns="http://www.w3.org/2000/svg">
<path fill-rule="evenodd" clip-rule="evenodd" d="M10.6405 5.83337C10.9897 5.83336 11.3189 6.00304 11.5308 6.29221C11.786 6.64044 12.2887 7.04919 13.0409 7.6205C13.0967 7.66279 13.1535 7.7058 13.2112 7.74952C13.866 8.24552 14.6406 8.83217 15.2776 9.48804C15.9684 10.1993 16.642 11.1339 16.7766 12.3178C16.9169 13.5508 16.4448 14.763 15.4366 15.9425C15.2242 16.1912 14.9197 16.3334 14.6002 16.3334H6.681C6.36141 16.3334 6.05705 16.1912 5.84453 15.9425C4.8363 14.763 4.36429 13.5508 4.50454 12.3178C4.63924 11.1339 5.31274 10.1993 6.00351 9.48805C6.64042 8.8322 7.41497 8.24556 8.06982 7.74957C8.12755 7.70584 8.18436 7.66281 8.24006 7.62051C8.99224 7.0492 9.49503 6.64046 9.75013 6.29226C9.96199 6.00308 10.2912 5.83339 10.6405 5.83337ZM10.8589 8.8296C10.7314 8.72352 10.5496 8.72352 10.4221 8.8296C10.1334 9.06978 9.83601 9.29608 9.55979 9.50588C9.51143 9.5426 9.46327 9.57914 9.41532 9.61551C8.72911 10.136 8.08873 10.6218 7.57826 11.1474C7.02982 11.7122 6.77576 12.1813 6.72899 12.5925C6.69693 12.8742 6.74592 13.5804 7.1165 14.1987C7.17312 14.2932 7.2751 14.3455 7.38205 14.3455H13.8991C14.006 14.3455 14.1081 14.2932 14.1646 14.1987C14.5352 13.5804 14.5843 12.8742 14.5522 12.5925C14.5055 12.1813 14.2513 11.7122 13.7029 11.1475C13.1924 10.6218 12.5519 10.136 11.8657 9.61546C11.8178 9.57912 11.7696 9.5426 11.7212 9.50589C11.445 9.29608 11.1477 9.06978 10.8589 8.8296Z" fill="white"/>
<path fill-rule="evenodd" clip-rule="evenodd" d="M10.4985 1.71465C10.8266 2.05636 10.8266 2.61038 10.4985 2.95209C10.4122 3.04205 10.3602 3.16382 10.3602 3.29987C10.3602 3.57151 10.5716 3.7917 10.8324 3.7917C10.963 3.7917 11.0799 3.73762 11.1663 3.64764C11.4943 3.30594 12.0262 3.30594 12.3542 3.64764C12.6822 3.98936 12.6822 4.54338 12.3542 4.88508C11.9656 5.28982 11.4265 5.5417 10.8324 5.5417C9.6438 5.5417 8.68024 4.538 8.68024 3.29987C8.68024 2.68105 8.92205 2.11939 9.3106 1.71465C9.63863 1.37295 10.1705 1.37295 10.4985 1.71465Z" fill="white"/>
<path fill-rule="evenodd" clip-rule="evenodd" d="M10.6402 3.79163C11.1042 3.79163 11.4802 4.18338 11.4802 4.66663V6.99996C11.4802 7.4832 11.1042 7.87496 10.6402 7.87496C10.1763 7.87496 9.80023 7.4832 9.80023 6.99996V4.66663C9.80023 4.18338 10.1763 3.79163 10.6402 3.79163Z" fill="white"/>
<path fill-rule="evenodd" clip-rule="evenodd" d="M22.1202 1.45837C22.3932 1.45836 22.6491 1.59648 22.8064 1.82873C22.9847 2.09178 23.258 2.36815 23.6283 2.74262C23.6542 2.76874 23.6804 2.79534 23.7071 2.82244C24.0856 3.20548 24.5414 3.67522 24.8882 4.21912C25.2438 4.77709 25.5177 5.46276 25.4761 6.27651C25.4346 7.08612 25.0871 7.89695 24.4339 8.723C24.2744 8.9248 24.0365 9.04171 23.7855 9.04171H20.4549C20.2039 9.04171 19.9661 8.9248 19.8065 8.723C19.1533 7.89694 18.8059 7.08609 18.7645 6.27649C18.7227 5.46274 18.9968 4.77706 19.3525 4.2191C19.6991 3.6752 20.1551 3.20548 20.5334 2.82244C20.5601 2.79539 20.5864 2.76883 20.6121 2.74276C20.9824 2.36822 21.2557 2.09183 21.434 1.82877C21.5913 1.59651 21.8473 1.45839 22.1202 1.45837ZM22.1203 3.65445C22.0145 3.7645 21.9092 3.87071 21.8087 3.97191C21.7732 4.00772 21.7383 4.04288 21.7042 4.07738C21.3174 4.46909 20.9862 4.81967 20.7519 5.18723C20.5266 5.54073 20.4253 5.85766 20.442 6.18323C20.456 6.45487 20.5565 6.81847 20.871 7.29171H23.3695C23.6841 6.81846 23.7845 6.45486 23.7984 6.18321C23.8151 5.85764 23.714 5.5407 23.4886 5.18722C23.2543 4.81966 22.9231 4.46907 22.5363 4.07738C22.5022 4.04287 22.4673 4.00768 22.4318 3.97186C22.3313 3.87067 22.2259 3.76448 22.1203 3.65445Z" fill="white"/>
<path fill-rule="evenodd" clip-rule="evenodd" d="M11.5307 17.8636C11.5232 17.8599 11.5164 17.8565 11.5103 17.8535C11.3112 17.771 11.0893 17.771 10.8901 17.8535C10.8841 17.8565 10.8773 17.8599 10.8698 17.8636C10.7557 17.9209 10.4755 18.0616 10.3297 18.1521C10.02 18.3446 9.61009 18.642 9.20007 19.0677C8.3697 19.9297 7.54984 21.3109 7.56033 23.3357V25.8416C7.56033 26.1716 7.56033 26.3366 7.46193 26.4391C7.36351 26.5416 7.20512 26.5416 6.88833 26.5416H5.15161C4.62773 26.5416 4.1585 26.5417 3.77893 26.492C3.36909 26.4385 2.93805 26.3141 2.57857 25.9646C2.21087 25.6071 2.0717 25.1644 2.01276 24.7382C1.96011 24.3574 1.96017 23.8907 1.96024 23.388V23.3333V19.8333V19.7691C1.96021 18.7239 1.96017 17.8462 2.05669 17.1482C2.15957 16.4043 2.38661 15.7386 2.93004 15.2104C3.46525 14.69 4.12559 14.4802 4.86221 14.3839C5.56822 14.2916 6.46058 14.2916 7.54461 14.2916H14.8559C15.9399 14.2916 16.8322 14.2916 17.5383 14.3839C18.2749 14.4802 18.9353 14.69 19.4704 15.2104C20.0138 15.7386 20.241 16.4043 20.3438 17.1482C20.4403 17.8462 20.4403 18.7239 20.4402 19.7691V25.6666C20.4402 26.1499 20.0641 26.5416 19.6002 26.5416H15.5121C15.1954 26.5416 15.037 26.5416 14.9386 26.4391C14.8401 26.3366 14.8401 26.1716 14.8401 25.8416V23.3357C14.8506 21.3109 14.0308 19.9297 13.2004 19.0677C12.7904 18.642 12.3805 18.3446 12.0708 18.1521C11.925 18.0616 11.6449 17.9209 11.5307 17.8636ZM12.4881 26.5416C12.805 26.5416 12.9633 26.5416 13.0618 26.4391C13.1601 26.3366 13.1601 26.1716 13.1601 25.8416V23.3283C13.1683 21.8545 12.5886 20.9031 12.0145 20.3072C11.7221 20.0037 11.4285 19.7907 11.2101 19.655C11.204 19.6513 11.1965 19.6513 11.1904 19.655C10.9721 19.7907 10.6784 20.0037 10.386 20.3072C9.8119 20.9031 9.23217 21.8545 9.24032 23.3283L9.24033 23.3333V25.8416C9.24033 26.1716 9.24033 26.3366 9.33874 26.4391C9.43716 26.5416 9.59555 26.5416 9.91233 26.5416H12.4881Z" fill="white"/>
<path d="M19.2623 13.3531C18.9871 13.2286 18.8495 13.1665 18.7942 13.0625C18.7388 12.9586 18.7587 12.8201 18.7984 12.5431L19.4453 8.03759C19.5068 7.60908 19.8602 7.29199 20.276 7.29199H23.7755C24.2058 7.29199 24.5664 7.63061 24.611 8.07635L25.8543 20.5114C25.9685 21.6536 26.0637 22.6051 26.0344 23.3639C26.0033 24.1666 25.8302 24.9007 25.2884 25.4995C24.752 26.0923 24.055 26.3301 23.2774 26.4383C23.0492 26.4701 22.8017 26.4921 22.5351 26.5074C22.244 26.5241 22.0985 26.5325 22.0136 26.4833C21.9539 26.4486 21.9293 26.4243 21.8929 26.3643C21.841 26.2786 21.841 26.0746 21.841 25.6665V19.6881C21.8411 18.7093 21.8412 17.7428 21.7302 16.9402C21.6024 16.0164 21.2903 14.984 20.4264 14.1441C20.0602 13.7881 19.6645 13.5349 19.2623 13.3531Z" fill="white"/>
</svg>
