<svg width="28" height="28" viewBox="0 0 28 28" fill="none" xmlns="http://www.w3.org/2000/svg">
<path d="M21.7817 2.33337H19.565C17.0217 2.33337 15.68 3.67504 15.68 6.21837V8.43504C15.68 10.9784 17.0217 12.32 19.565 12.32H21.7817C24.325 12.32 25.6667 10.9784 25.6667 8.43504V6.21837C25.6667 3.67504 24.325 2.33337 21.7817 2.33337Z" fill="white"/>
<path d="M8.44668 15.6683H6.23001C3.67501 15.6683 2.33334 17.01 2.33334 19.5533V21.77C2.33334 24.325 3.67501 25.6667 6.21834 25.6667H8.43501C10.9783 25.6667 12.32 24.325 12.32 21.7817V19.565C12.3317 17.01 10.99 15.6683 8.44668 15.6683Z" fill="white"/>
<path d="M7.33834 12.3434C10.1025 12.3434 12.3433 10.1026 12.3433 7.33837C12.3433 4.57419 10.1025 2.33337 7.33834 2.33337C4.57416 2.33337 2.33334 4.57419 2.33334 7.33837C2.33334 10.1026 4.57416 12.3434 7.33834 12.3434Z" fill="white"/>
<path d="M20.6617 25.6666C23.4259 25.6666 25.6667 23.4258 25.6667 20.6616C25.6667 17.8974 23.4259 15.6566 20.6617 15.6566C17.8975 15.6566 15.6567 17.8974 15.6567 20.6616C15.6567 23.4258 17.8975 25.6666 20.6617 25.6666Z" fill="white"/>
</svg>
