<svg width="28" height="28" viewBox="0 0 28 28" fill="none" xmlns="http://www.w3.org/2000/svg">
<path d="M6.99948 17.9024C7.01892 18.5464 6.51257 19.0842 5.86854 19.1037C5.35413 19.1192 4.80198 19.0568 4.72038 19.6646C4.66916 20.0463 4.66669 20.5734 4.66669 21.4325C4.66669 22.2915 4.66916 22.8186 4.72038 23.2002C4.77088 23.5764 4.85062 23.6653 5.23547 23.7172C5.61607 23.7684 6.14203 23.7708 7.00002 23.7708H21C21.858 23.7708 22.3839 23.7684 22.7646 23.7172C23.1407 23.6664 23.228 23.5851 23.2797 23.2002C23.3309 22.8186 23.3333 22.2915 23.3333 21.4325C23.3333 20.5734 23.3309 20.0463 23.2797 19.6646C23.1932 19.0212 22.6919 19.1206 22.1314 19.1037C21.4874 19.0842 20.9811 18.5464 21.0006 17.9024C21.02 17.2583 21.5578 16.7519 22.2019 16.7714C23.0908 16.7983 24.08 16.8823 24.813 17.6163C25.3219 18.1259 25.5108 18.7479 25.5922 19.3542C25.6668 19.9098 25.6668 20.5962 25.6667 21.3606V21.5042C25.6668 22.2686 25.6668 22.9551 25.5922 23.5107C25.5108 24.117 25.3219 24.7389 24.813 25.2485C24.3039 25.7584 23.6822 25.948 23.076 26.0296C22.5209 26.1043 21.835 26.1043 21.072 26.1042C16.3574 26.1042 11.6427 26.1037 6.92807 26.1042C6.16499 26.1043 5.47922 26.1043 4.92411 26.0296C4.31789 25.948 3.69614 25.7584 3.18703 25.2485C2.67815 24.7389 2.4892 24.117 2.4078 23.5107C2.33088 22.9378 2.33335 22.2257 2.33335 21.4325C2.33335 20.6393 2.33088 19.9271 2.4078 19.3542C2.4892 18.7479 2.67815 18.1259 3.18703 17.6163C3.92003 16.8823 4.90928 16.7983 5.79817 16.7714C6.4422 16.7519 6.98006 17.2583 6.99948 17.9024Z" fill="white"/>
<path d="M8.16667 22.6042H11.2919H11.3052H16.6948H16.7081H19.8333C20.4777 22.6042 21 22.0819 21 21.4375C21 20.7932 20.4777 20.2709 19.8333 20.2709H18.9097C19.1292 19.7018 19.25 19.0839 19.25 18.4376C19.25 15.5615 16.8766 13.2709 14 13.2709C11.1233 13.2709 8.75 15.5615 8.75 18.4376C8.75 19.0839 8.87075 19.7018 9.09035 20.2709H8.16667C7.52234 20.2709 7 20.7932 7 21.4375C7 22.0819 7.52234 22.6042 8.16667 22.6042Z" fill="white"/>
<path d="M21.0516 12.9773C21.9176 12.9774 22.9453 13.0437 23.6097 12.3792C23.9702 12.0187 24.1015 11.5804 24.1572 11.1657C24.2079 10.7891 24.2077 10.3261 24.2077 9.82114V6.77817C24.2079 6.08183 24.2408 5.31615 23.8022 4.72856C23.3637 4.14097 22.6203 3.95478 21.9527 3.75677L16.1206 2.02621C15.2754 1.77541 14.3696 1.88453 13.6054 2.32542L4.83724 7.3845C3.74853 8.01267 3.46832 9.46112 4.1934 10.4652C5.00177 11.5846 6.41409 12.0779 7.73301 11.6678L7.73478 11.6672L10.2145 10.9054C10.7871 10.7295 10.7377 10.5941 10.5778 10.0322C10.4951 9.74146 10.4853 9.46251 10.4994 9.30541C10.4994 8.16055 11.2799 7.23613 12.2883 6.95736L15.2526 6.13776C16.328 5.84046 17.4797 5.94271 18.4865 6.42985L20.3769 7.34447C20.7394 7.51987 20.891 7.95592 20.7157 8.31843C20.5403 8.68093 20.1042 8.83261 19.7417 8.65721L17.8514 7.74259C17.1647 7.41033 16.3768 7.33998 15.6413 7.54335L12.6769 8.36296C12.2684 8.47588 11.9577 8.8491 11.9577 9.30541C11.9577 10.954 13.3306 11.3728 14.963 11.3728L16.1793 11.3729C16.3914 11.3729 16.5994 11.4208 16.7868 11.5114L19.1691 12.664C19.7728 12.9562 20.3981 12.9773 21.0516 12.9773Z" fill="white"/>
</svg>
