<svg width="28" height="28" viewBox="0 0 28 28" fill="none" xmlns="http://www.w3.org/2000/svg">
<path d="M6.92301 13.125C6.55414 13.125 6.36971 13.125 6.21866 13.0188C6.06761 12.9124 6.01132 12.7553 5.89875 12.4413C5.54093 11.4429 5.45693 10.5051 5.61736 9.61892C5.87929 8.17203 6.76326 7.03515 7.76439 6.11593C8.63913 5.31276 9.68126 4.60843 10.61 3.98073C10.7376 3.8945 10.8638 3.80921 10.9863 3.72583C12.0567 2.99763 12.8636 2.40192 13.293 1.81605C13.4579 1.59122 13.72 1.45839 13.9987 1.45837C14.2776 1.45836 14.5396 1.5912 14.7044 1.81602C15.134 2.4019 15.941 2.99763 17.0112 3.72583C17.1339 3.80929 17.2594 3.89414 17.3871 3.98043C18.316 4.60821 19.3582 5.31267 20.2329 6.116C21.2338 7.03525 22.1176 8.17223 22.3789 9.61923C22.5391 10.5055 22.4547 11.4432 22.0964 12.4416C21.9837 12.7556 21.9274 12.9125 21.7764 13.0188C21.6255 13.125 21.441 13.125 21.0723 13.125H6.92301Z" fill="white"/>
<path fill-rule="evenodd" clip-rule="evenodd" d="M6.8792 15.0458C6.70834 15.2167 6.70834 15.4917 6.70834 16.0417V19.0617C6.70832 20.5806 6.70831 21.8059 6.83305 22.7698C6.96229 23.7686 7.23913 24.6182 7.89262 25.2972C8.55062 25.9807 9.3816 26.2747 10.3586 26.4112C11.2928 26.5417 12.4779 26.5417 13.9346 26.5417H14.0656C15.5223 26.5417 16.7071 26.5417 17.6415 26.4112C18.6184 26.2747 19.4494 25.9807 20.1074 25.2972C20.7608 24.6182 21.0377 23.7686 21.167 22.7698C21.2917 21.8059 21.2917 20.5806 21.2917 19.0616V16.0417C21.2917 15.4917 21.2917 15.2167 21.1209 15.0458C20.95 14.875 20.675 14.875 20.125 14.875H7.87501C7.32504 14.875 7.05005 14.875 6.8792 15.0458ZM15.1667 19.5417C15.1667 18.8973 14.6444 18.375 14 18.375C13.3557 18.375 12.8333 18.8973 12.8333 19.5417V21.875C12.8333 22.5193 13.3557 23.0417 14 23.0417C14.6444 23.0417 15.1667 22.5193 15.1667 21.875V19.5417Z" fill="white"/>
<path fill-rule="evenodd" clip-rule="evenodd" d="M26.1266 15.2288C25.8384 14.6525 25.1376 14.4189 24.5614 14.7071L23.3947 15.2904C22.8184 15.5786 22.5848 16.2794 22.873 16.8557C23.161 17.4319 23.8618 17.6656 24.4382 17.3774L25.6048 16.7941C26.1812 16.5059 26.4147 15.8051 26.1266 15.2288ZM22.873 20.4788C22.5848 21.0551 22.8184 21.7559 23.3947 22.0441L24.5614 22.6274C25.1376 22.9156 25.8384 22.6819 26.1266 22.1057C26.4147 21.5294 26.1812 20.8286 25.6048 20.5404L24.4382 19.9571C23.8618 19.6689 23.161 19.9025 22.873 20.4788Z" fill="white"/>
<path fill-rule="evenodd" clip-rule="evenodd" d="M1.87342 15.2285C2.16158 14.6522 2.86236 14.4186 3.43867 14.7068L4.60534 15.2901C5.18165 15.5783 5.41525 16.2791 5.12709 16.8553C4.83894 17.4317 4.13814 17.6652 3.56185 17.3771L2.39518 16.7937C1.81887 16.5057 1.58527 15.8049 1.87342 15.2285ZM5.12709 20.4785C5.41525 21.0549 5.18165 21.7557 4.60534 22.0437L3.43867 22.6271C2.86236 22.9152 2.16158 22.6817 1.87342 22.1053C1.58527 21.5291 1.81887 20.8283 2.39518 20.5401L3.56185 19.9568C4.13814 19.6686 4.83894 19.9022 5.12709 20.4785Z" fill="white"/>
</svg>
