<svg width="35" height="34" viewBox="0 0 35 34" fill="none" xmlns="http://www.w3.org/2000/svg">
<path d="M15.375 1.59375H19.625V6.90625H15.375V1.59375Z" fill="#5CAA26"/>
<path d="M17.5 28.0542L20.5053 25.049L25.3885 29.9322H22.3833V32.9375L17.5 28.0542Z" fill="#5CAA26"/>
<path d="M14.4947 25.049L17.5 28.0542L12.6168 32.9375V29.9322H9.61148L14.4947 25.049Z" fill="#5CAA26"/>
<path d="M19.625 6.90624V4.64673C19.042 4.12124 18.2849 3.83041 17.5 3.83041C16.7151 3.83041 15.958 4.12124 15.375 4.64673V6.90624H19.625Z" fill="#4D9B1E"/>
<path d="M17.4952 28.0527L20.4999 25.0479L21.2511 25.7991L18.2464 28.8039L17.4952 28.0527Z" fill="#4D9B1E"/>
<path d="M13.7392 25.7987L14.4904 25.0475L17.4951 28.0523L16.7439 28.8034L13.7392 25.7987Z" fill="#4D9B1E"/>
<path d="M28.0182 14.5306L19.0026 5.51528C18.6041 5.11678 18.0636 4.8929 17.5 4.8929C16.9364 4.8929 16.3959 5.11678 15.9974 5.51528L6.98179 14.5306C6.78446 14.7279 6.62793 14.9622 6.52113 15.22C6.41434 15.4778 6.35938 15.7541 6.35938 16.0332C6.35938 16.3123 6.41434 16.5886 6.52113 16.8464C6.62793 17.1042 6.78446 17.3385 6.98179 17.5358L17.5 28.054L28.0182 17.5358C28.2156 17.3385 28.3721 17.1042 28.4789 16.8464C28.5857 16.5886 28.6406 16.3123 28.6406 16.0332C28.6406 15.7541 28.5857 15.4778 28.4789 15.22C28.3721 14.9622 28.2156 14.7279 28.0182 14.5306Z" fill="#5CAA26"/>
<path d="M17.8788 24.672L26.1422 16.4086C26.3497 16.2011 26.3497 15.8648 26.1422 15.6574L17.8788 7.39396C17.6714 7.18652 17.335 7.18652 17.1276 7.39396L8.86417 15.6574C8.65673 15.8648 8.65673 16.2011 8.86417 16.4086L17.1276 24.672C17.335 24.8795 17.6714 24.8795 17.8788 24.672Z" fill="#6FB638"/>
<path d="M23.5139 16.0327L20.5091 19.0375L17.5044 16.0327L20.5091 13.028L23.5139 16.0327Z" fill="#82C349"/>
<path d="M20.5086 19.0385L17.5039 22.0433L14.4991 19.0385L17.5039 16.0338L20.5086 19.0385Z" fill="#82C349"/>
<path d="M20.5081 13.028L17.5033 16.0327L14.4986 13.028L17.5033 10.0232L20.5081 13.028Z" fill="#82C349"/>
<path d="M17.5028 16.0332L14.498 19.038L11.4933 16.0332L14.498 13.0285L17.5028 16.0332Z" fill="#82C349"/>
<path d="M26.1401 12.6525L23.5104 15.2821L21.2565 13.0279L23.8862 10.3983L23.135 9.64707L20.5053 12.2768L18.2514 10.0227L20.8811 7.39298L20.1299 6.64179L17.5 9.27143L14.8703 6.64174L14.1191 7.39293L16.7488 10.0226L14.4949 12.2767L11.8652 9.64702L11.114 10.3982L13.7437 13.0279L11.4898 15.2821L8.86007 12.6524L8.10889 13.4036L10.7386 16.0333L8.10889 18.6627L8.86013 19.4139L11.4898 16.7846L13.7437 19.0383L11.1141 21.668L11.8652 22.4192L14.4949 19.7895L16.7488 22.0436L14.1191 24.6733L14.8703 25.4245L17.5 22.7948L20.1297 25.4245L20.8809 24.6733L18.2512 22.0436L20.5051 19.7894L23.1348 22.4191L23.8861 21.6679L21.2564 19.0382L23.5103 16.7845L26.14 19.4138L26.8912 18.6627L24.2615 16.0332L26.8912 13.4035L26.1401 12.6525ZM17.5 10.7737L19.7539 13.0279L17.5 15.2822L15.2461 13.0281L17.5 10.7737ZM12.2409 16.0331L14.4949 13.779L16.7488 16.0331L14.4949 18.2868L12.2409 16.0331ZM17.5 21.2925L15.2461 19.0384L17.5 16.7847L19.7539 19.0384L17.5 21.2925ZM20.5051 18.2872L18.2512 16.0334L20.5051 13.7793L22.7591 16.0334L20.5051 18.2872Z" fill="#4D9B1E"/>
</svg>
