<svg width="34" height="34" viewBox="0 0 34 34" fill="none" xmlns="http://www.w3.org/2000/svg">
<path d="M29.75 3.54167H4.25C3.07639 3.54167 2.125 4.49306 2.125 5.66667V28.3333C2.125 29.5069 3.07639 30.4583 4.25 30.4583H29.75C30.9236 30.4583 31.875 29.5069 31.875 28.3333V5.66667C31.875 4.49306 30.9236 3.54167 29.75 3.54167Z" fill="#5FAF46"/>
<path d="M29.75 3.54167H4.25C3.07639 3.54167 2.125 4.49306 2.125 5.66667V25.5C2.125 26.6736 3.07639 27.625 4.25 27.625H29.75C30.9236 27.625 31.875 26.6736 31.875 25.5V5.66667C31.875 4.49306 30.9236 3.54167 29.75 3.54167Z" fill="#FFC801"/>
<path d="M26.9166 9.91667H14.875C14.6871 9.91667 14.5069 9.84204 14.3741 9.7092C14.2413 9.57636 14.1666 9.3962 14.1666 9.20833C14.1666 9.02047 14.2413 8.8403 14.3741 8.70747C14.5069 8.57463 14.6871 8.5 14.875 8.5H26.9166C27.1045 8.5 27.2847 8.57463 27.4175 8.70747C27.5503 8.8403 27.625 9.02047 27.625 9.20833C27.625 9.3962 27.5503 9.57636 27.4175 9.7092C27.2847 9.84204 27.1045 9.91667 26.9166 9.91667Z" fill="#F9F6F6"/>
<path d="M22.6666 13.4583H14.875C14.6871 13.4583 14.5069 13.3837 14.3741 13.2509C14.2413 13.118 14.1666 12.9379 14.1666 12.75C14.1666 12.5621 14.2413 12.382 14.3741 12.2491C14.5069 12.1163 14.6871 12.0417 14.875 12.0417H22.6666C22.8545 12.0417 23.0347 12.1163 23.1675 12.2491C23.3003 12.382 23.375 12.5621 23.375 12.75C23.375 12.9379 23.3003 13.118 23.1675 13.2509C23.0347 13.3837 22.8545 13.4583 22.6666 13.4583Z" fill="#F9F6F6"/>
<path d="M8.69123 13.3167C8.5224 13.3167 8.35912 13.2564 8.23081 13.1467L6.62289 11.7867C6.48012 11.6646 6.3917 11.4907 6.37709 11.3034C6.36247 11.1161 6.42287 10.9307 6.54498 10.7879C6.66709 10.6451 6.84091 10.5567 7.02821 10.5421C7.21552 10.5275 7.40095 10.5879 7.54373 10.71L8.58498 11.5883L10.7737 8.755C10.8925 8.61935 11.0585 8.53411 11.238 8.51664C11.4175 8.49917 11.5968 8.5508 11.7395 8.66099C11.8822 8.77119 11.9776 8.93166 12.0061 9.10969C12.0346 9.28773 11.9941 9.46993 11.8929 9.61916L9.25081 13.0192C9.19181 13.0948 9.11807 13.1576 9.03405 13.2039C8.95004 13.2502 8.85751 13.2789 8.76206 13.2883L8.69123 13.3167Z" fill="#F9F6F6"/>
<path d="M26.9166 18.4167H14.875C14.6871 18.4167 14.5069 18.342 14.3741 18.2092C14.2413 18.0764 14.1666 17.8962 14.1666 17.7083C14.1666 17.5205 14.2413 17.3403 14.3741 17.2075C14.5069 17.0746 14.6871 17 14.875 17H26.9166C27.1045 17 27.2847 17.0746 27.4175 17.2075C27.5503 17.3403 27.625 17.5205 27.625 17.7083C27.625 17.8962 27.5503 18.0764 27.4175 18.2092C27.2847 18.342 27.1045 18.4167 26.9166 18.4167Z" fill="#F9F6F6"/>
<path d="M22.6666 21.9583H14.875C14.6871 21.9583 14.5069 21.8837 14.3741 21.7509C14.2413 21.618 14.1666 21.4379 14.1666 21.25C14.1666 21.0621 14.2413 20.882 14.3741 20.7491C14.5069 20.6163 14.6871 20.5417 14.875 20.5417H22.6666C22.8545 20.5417 23.0347 20.6163 23.1675 20.7491C23.3003 20.882 23.375 21.0621 23.375 21.25C23.375 21.4379 23.3003 21.618 23.1675 21.7509C23.0347 21.8837 22.8545 21.9583 22.6666 21.9583Z" fill="#F9F6F6"/>
<path d="M8.69123 21.8167C8.5224 21.8167 8.35912 21.7564 8.23081 21.6467L6.62289 20.2867C6.48012 20.1646 6.3917 19.9907 6.37709 19.8034C6.36247 19.6161 6.42287 19.4307 6.54498 19.2879C6.66709 19.1451 6.84091 19.0567 7.02821 19.0421C7.21552 19.0275 7.40095 19.0879 7.54373 19.21L8.58498 20.0883L10.7737 17.255C10.828 17.175 10.8981 17.1069 10.9796 17.055C11.0612 17.003 11.1526 16.9684 11.248 16.9531C11.3435 16.9378 11.4411 16.9422 11.5348 16.9661C11.6285 16.99 11.7164 17.0328 11.7929 17.0919C11.8694 17.151 11.9331 17.2251 11.9799 17.3097C12.0267 17.3944 12.0556 17.4877 12.065 17.5839C12.0744 17.6801 12.0639 17.7773 12.0343 17.8693C12.0047 17.9614 11.9566 18.0464 11.8929 18.1192L9.25081 21.5192C9.19181 21.5948 9.11807 21.6576 9.03405 21.7039C8.95004 21.7502 8.85751 21.7789 8.76206 21.7883L8.69123 21.8167Z" fill="#F9F6F6"/>
</svg>
