<svg width="34" height="34" viewBox="0 0 34 34" fill="none" xmlns="http://www.w3.org/2000/svg">
<path d="M29.75 4.60417H4.24998C2.88077 4.60417 1.77081 5.71413 1.77081 7.08333V29.75C1.77081 31.1192 2.88077 32.2292 4.24998 32.2292H29.75C31.1192 32.2292 32.2291 31.1192 32.2291 29.75V7.08333C32.2291 5.71413 31.1192 4.60417 29.75 4.60417Z" fill="#0DB561"/>
<path d="M7.08331 6.72917C6.80266 6.7255 6.53454 6.61238 6.33607 6.41391C6.1376 6.21545 6.02448 5.94732 6.02081 5.66667V2.83334C6.02081 2.55154 6.13275 2.28129 6.33201 2.08203C6.53127 1.88278 6.80152 1.77084 7.08331 1.77084C7.36511 1.77084 7.63536 1.88278 7.83461 2.08203C8.03387 2.28129 8.14581 2.55154 8.14581 2.83334V5.66667C8.14214 5.94732 8.02902 6.21545 7.83056 6.41391C7.63209 6.61238 7.36396 6.7255 7.08331 6.72917Z" fill="#145638"/>
<path d="M13.6992 6.72917C13.4174 6.72917 13.1471 6.61723 12.9479 6.41797C12.7486 6.21871 12.6367 5.94846 12.6367 5.66667V2.83334C12.6367 2.55154 12.7486 2.28129 12.9479 2.08203C13.1471 1.88278 13.4174 1.77084 13.6992 1.77084C13.981 1.77084 14.2512 1.88278 14.4505 2.08203C14.6497 2.28129 14.7617 2.55154 14.7617 2.83334V5.66667C14.758 5.94732 14.6449 6.21545 14.4464 6.41391C14.2479 6.61238 13.9798 6.7255 13.6992 6.72917Z" fill="#145638"/>
<path d="M20.3008 6.72917C20.0202 6.7255 19.7521 6.61238 19.5536 6.41391C19.3551 6.21545 19.242 5.94732 19.2383 5.66667V2.83334C19.2383 2.55154 19.3503 2.28129 19.5495 2.08203C19.7488 1.88278 20.019 1.77084 20.3008 1.77084C20.5826 1.77084 20.8529 1.88278 21.0521 2.08203C21.2514 2.28129 21.3633 2.55154 21.3633 2.83334V5.66667C21.3633 5.94846 21.2514 6.21871 21.0521 6.41797C20.8529 6.61723 20.5826 6.72917 20.3008 6.72917Z" fill="#145638"/>
<path d="M26.9166 6.72917C26.636 6.7255 26.3679 6.61238 26.1694 6.41391C25.9709 6.21545 25.8578 5.94732 25.8541 5.66667V2.83334C25.8541 2.55154 25.9661 2.28129 26.1653 2.08203C26.3646 1.88278 26.6348 1.77084 26.9166 1.77084C27.1984 1.77084 27.4687 1.88278 27.6679 2.08203C27.8672 2.28129 27.9791 2.55154 27.9791 2.83334V5.66667C27.9755 5.94732 27.8623 6.21545 27.6639 6.41391C27.4654 6.61238 27.1973 6.7255 26.9166 6.72917Z" fill="#145638"/>
<path d="M32.2291 7.08333V12.3958H1.77081V7.08333C1.77453 6.42697 2.03692 5.79854 2.50105 5.33441C2.96518 4.87028 3.59361 4.60789 4.24998 4.60417H29.75C30.4063 4.60789 31.0348 4.87028 31.4989 5.33441C31.963 5.79854 32.2254 6.42697 32.2291 7.08333Z" fill="#145638"/>
<path d="M9.20829 18.0625H7.79163C7.50983 18.0625 7.23958 17.9506 7.04032 17.7513C6.84107 17.552 6.72913 17.2818 6.72913 17C6.72913 16.7182 6.84107 16.448 7.04032 16.2487C7.23958 16.0494 7.50983 15.9375 7.79163 15.9375H9.20829C9.49009 15.9375 9.76034 16.0494 9.95959 16.2487C10.1589 16.448 10.2708 16.7182 10.2708 17C10.2708 17.2818 10.1589 17.552 9.95959 17.7513C9.76034 17.9506 9.49009 18.0625 9.20829 18.0625Z" fill="white"/>
<path d="M9.20829 23.0208H7.79163C7.50983 23.0208 7.23958 22.9089 7.04032 22.7096C6.84107 22.5104 6.72913 22.2401 6.72913 21.9583C6.72913 21.6765 6.84107 21.4063 7.04032 21.207C7.23958 21.0078 7.50983 20.8958 7.79163 20.8958H9.20829C9.49009 20.8958 9.76034 21.0078 9.95959 21.207C10.1589 21.4063 10.2708 21.6765 10.2708 21.9583C10.2708 22.2401 10.1589 22.5104 9.95959 22.7096C9.76034 22.9089 9.49009 23.0208 9.20829 23.0208Z" fill="white"/>
<path d="M14.875 18.0625H13.4583C13.1765 18.0625 12.9063 17.9506 12.707 17.7513C12.5078 17.552 12.3958 17.2818 12.3958 17C12.3958 16.7182 12.5078 16.448 12.707 16.2487C12.9063 16.0494 13.1765 15.9375 13.4583 15.9375H14.875C15.1568 15.9375 15.427 16.0494 15.6263 16.2487C15.8255 16.448 15.9375 16.7182 15.9375 17C15.9375 17.2818 15.8255 17.552 15.6263 17.7513C15.427 17.9506 15.1568 18.0625 14.875 18.0625Z" fill="white"/>
<path d="M14.875 23.0208H13.4583C13.1765 23.0208 12.9063 22.9089 12.707 22.7096C12.5078 22.5104 12.3958 22.2401 12.3958 21.9583C12.3958 21.6765 12.5078 21.4063 12.707 21.207C12.9063 21.0078 13.1765 20.8958 13.4583 20.8958H14.875C15.1568 20.8958 15.427 21.0078 15.6263 21.207C15.8255 21.4063 15.9375 21.6765 15.9375 21.9583C15.9375 22.2401 15.8255 22.5104 15.6263 22.7096C15.427 22.9089 15.1568 23.0208 14.875 23.0208Z" fill="white"/>
<path d="M20.5416 18.0625H19.1249C18.8431 18.0625 18.5729 17.9506 18.3736 17.7513C18.1744 17.552 18.0624 17.2818 18.0624 17C18.0624 16.7182 18.1744 16.448 18.3736 16.2487C18.5729 16.0494 18.8431 15.9375 19.1249 15.9375H20.5416C20.8234 15.9375 21.0936 16.0494 21.2929 16.2487C21.4922 16.448 21.6041 16.7182 21.6041 17C21.6041 17.2818 21.4922 17.552 21.2929 17.7513C21.0936 17.9506 20.8234 18.0625 20.5416 18.0625Z" fill="white"/>
<path d="M20.5416 23.0208H19.1249C18.8431 23.0208 18.5729 22.9089 18.3736 22.7096C18.1744 22.5104 18.0624 22.2401 18.0624 21.9583C18.0624 21.6765 18.1744 21.4063 18.3736 21.207C18.5729 21.0078 18.8431 20.8958 19.1249 20.8958H20.5416C20.8234 20.8958 21.0936 21.0078 21.2929 21.207C21.4922 21.4063 21.6041 21.6765 21.6041 21.9583C21.6041 22.2401 21.4922 22.5104 21.2929 22.7096C21.0936 22.9089 20.8234 23.0208 20.5416 23.0208Z" fill="white"/>
<path d="M26.2083 18.0625H24.7916C24.5098 18.0625 24.2396 17.9506 24.0403 17.7513C23.8411 17.552 23.7291 17.2818 23.7291 17C23.7291 16.7182 23.8411 16.448 24.0403 16.2487C24.2396 16.0494 24.5098 15.9375 24.7916 15.9375H26.2083C26.4901 15.9375 26.7603 16.0494 26.9596 16.2487C27.1589 16.448 27.2708 16.7182 27.2708 17C27.2708 17.2818 27.1589 17.552 26.9596 17.7513C26.7603 17.9506 26.4901 18.0625 26.2083 18.0625Z" fill="white"/>
<path d="M26.2083 23.0208H24.7916C24.5098 23.0208 24.2396 22.9089 24.0403 22.7096C23.8411 22.5104 23.7291 22.2401 23.7291 21.9583C23.7291 21.6765 23.8411 21.4063 24.0403 21.207C24.2396 21.0078 24.5098 20.8958 24.7916 20.8958H26.2083C26.4901 20.8958 26.7603 21.0078 26.9596 21.207C27.1589 21.4063 27.2708 21.6765 27.2708 21.9583C27.2708 22.2401 27.1589 22.5104 26.9596 22.7096C26.7603 22.9089 26.4901 23.0208 26.2083 23.0208Z" fill="white"/>
<path d="M9.20829 27.9792H7.79163C7.50983 27.9792 7.23958 27.8672 7.04032 27.668C6.84107 27.4687 6.72913 27.1985 6.72913 26.9167C6.72913 26.6349 6.84107 26.3646 7.04032 26.1654C7.23958 25.9661 7.50983 25.8542 7.79163 25.8542H9.20829C9.49009 25.8542 9.76034 25.9661 9.95959 26.1654C10.1589 26.3646 10.2708 26.6349 10.2708 26.9167C10.2708 27.1985 10.1589 27.4687 9.95959 27.668C9.76034 27.8672 9.49009 27.9792 9.20829 27.9792Z" fill="white"/>
<path d="M14.875 27.9792H13.4583C13.1765 27.9792 12.9063 27.8672 12.707 27.668C12.5078 27.4687 12.3958 27.1985 12.3958 26.9167C12.3958 26.6349 12.5078 26.3646 12.707 26.1654C12.9063 25.9661 13.1765 25.8542 13.4583 25.8542H14.875C15.1568 25.8542 15.427 25.9661 15.6263 26.1654C15.8255 26.3646 15.9375 26.6349 15.9375 26.9167C15.9375 27.1985 15.8255 27.4687 15.6263 27.668C15.427 27.8672 15.1568 27.9792 14.875 27.9792Z" fill="white"/>
<path d="M20.5416 27.9792H19.1249C18.8431 27.9792 18.5729 27.8672 18.3736 27.668C18.1744 27.4687 18.0624 27.1985 18.0624 26.9167C18.0624 26.6349 18.1744 26.3646 18.3736 26.1654C18.5729 25.9661 18.8431 25.8542 19.1249 25.8542H20.5416C20.8234 25.8542 21.0936 25.9661 21.2929 26.1654C21.4922 26.3646 21.6041 26.6349 21.6041 26.9167C21.6041 27.1985 21.4922 27.4687 21.2929 27.668C21.0936 27.8672 20.8234 27.9792 20.5416 27.9792Z" fill="white"/>
<path d="M26.2083 27.9792H24.7916C24.5098 27.9792 24.2396 27.8672 24.0403 27.668C23.8411 27.4687 23.7291 27.1985 23.7291 26.9167C23.7291 26.6349 23.8411 26.3646 24.0403 26.1654C24.2396 25.9661 24.5098 25.8542 24.7916 25.8542H26.2083C26.4901 25.8542 26.7603 25.9661 26.9596 26.1654C27.1589 26.3646 27.2708 26.6349 27.2708 26.9167C27.2708 27.1985 27.1589 27.4687 26.9596 27.668C26.7603 27.8672 26.4901 27.9792 26.2083 27.9792Z" fill="white"/>
</svg>
