<svg width="34" height="34" viewBox="0 0 34 34" fill="none" xmlns="http://www.w3.org/2000/svg">
<path d="M3 24.6562L11.0391 25.3672L31 24.6578L31 17L15.9609 15.3594L3 17L3 24.6562Z" fill="#23995F"/>
<path d="M19.8437 8.85156L3 9.34375L3 17L31 17L31 9.34375L19.8437 8.85156Z" fill="#23995F"/>
<path d="M13.1172 11.8604V20.8272L16.3438 18.9644L17.4375 16.1797L16.3438 13.7232L13.1172 11.8604Z" fill="white"/>
<path d="M16.3438 13.7231V18.9644L20.8828 16.3438L16.3438 13.7231Z" fill="white"/>
<path d="M3 6.31133L3 9.34375L31 9.34375L31 6.31133C31 4.48531 29.5147 3 27.6887 3L6.31133 3C4.48531 3 3 4.48531 3 6.31133ZM27.6887 4.64062C28.6096 4.64062 29.3594 5.39039 29.3594 6.31133L29.3594 7.70312L25.4766 7.70312L25.4766 4.64062L27.6887 4.64062ZM23.8359 4.64062L23.8359 7.70312L20.3726 7.70312L20.3726 4.64062L23.8359 4.64062ZM18.732 4.64062L18.732 7.70312L15.268 7.70312L15.268 4.64062L18.732 4.64062ZM13.6274 4.64062L13.6274 7.70312L10.1641 7.70312L10.1641 4.64062L13.6274 4.64062ZM8.52344 4.64062L8.52344 7.70312L4.64062 7.70312L4.64062 6.31133C4.64062 5.39039 5.39039 4.64062 6.31133 4.64062L8.52344 4.64062Z" fill="#FFC801"/>
<path d="M3 24.6562L3 27.6887C3 29.5147 4.48531 31 6.31133 31L27.6887 31C29.5147 31 31 29.5147 31 27.6887L31 24.6578L3 24.6562ZM6.31133 29.3594C5.39039 29.3594 4.64062 28.6096 4.64062 27.6887L4.64062 26.2969L8.52344 26.2969L8.52344 29.3594L6.31133 29.3594ZM10.1641 29.3594L10.1641 26.2969L13.6274 26.2969L13.6274 29.3594L10.1641 29.3594ZM15.268 29.3594L15.268 26.2969L18.732 26.2969L18.732 29.3594L15.268 29.3594ZM20.3726 29.3594L20.3726 26.2969L23.8359 26.2969L23.8359 29.3594L20.3726 29.3594ZM29.3594 27.6887C29.3594 28.6096 28.6096 29.3594 27.6887 29.3594L25.4766 29.3594L25.4766 26.2969L29.3594 26.2969L29.3594 27.6887Z" fill="#FFC801"/>
</svg>
