<svg width="35" height="34" viewBox="0 0 35 34" fill="none" xmlns="http://www.w3.org/2000/svg">
<path d="M23.4334 15.7333V12.9C23.4334 12.3645 23.0622 11.8007 22.5692 11.5893L19.8832 10.4378C20.3445 9.84623 20.6001 9.11977 20.6001 8.36667V4.4C20.6001 2.5249 19.0752 1 17.2001 1C15.325 1 13.8001 2.5249 13.8001 4.4V8.36667C13.8001 9.11977 14.0556 9.84623 14.5175 10.4378L11.8309 11.5893C11.3379 11.8007 10.9667 12.3645 10.9667 12.9V15.7333H23.4334Z" fill="#9DCC6B"/>
<g clip-path="url(#clip0_1_1252)">
<path d="M7 19.1333V36.7C7 37.0128 7.2533 37.2666 7.56667 37.2666H26.8333C27.1467 37.2666 27.4 37.0128 27.4 36.7V19.1333H7Z" fill="#805333"/>
<path d="M9.83331 19.1333H24.5666V37.2666H9.83331V19.1333Z" fill="#A56A43"/>
<path d="M27.9666 15.7333H6.4333C6.11994 15.7333 5.86664 15.9871 5.86664 16.2999V18.5666C5.86664 18.8794 6.11994 19.1333 6.4333 19.1333H27.9666C28.28 19.1333 28.5333 18.8794 28.5333 18.5666V16.2999C28.5333 15.9871 28.28 15.7333 27.9666 15.7333Z" fill="#FFDAAA"/>
<path d="M12.1685 7.73138C11.5265 7.08878 10.4068 7.08878 9.76472 7.73138L9.19805 8.29804C8.87675 8.61878 8.69995 9.04604 8.69995 9.49994C8.69995 9.95384 8.87675 10.3811 9.19805 10.7018C9.51878 11.0231 9.94605 11.1999 10.4 11.1999C10.8539 11.1999 11.2811 11.0231 11.6019 10.7018L12.1685 10.1352C12.4893 9.81444 12.6666 9.38718 12.6666 8.93328C12.6666 8.47938 12.4893 8.05211 12.1685 7.73138Z" fill="#805333"/>
<path d="M21.7333 26.4999C21.7333 22.5333 17.2 21.3999 17.2 21.3999C17.2 21.3999 12.6666 22.5333 12.6666 26.4999C12.6666 27.5726 13.0412 28.5569 13.6645 29.3333H12.1V37.2666H22.3V29.3333H20.7354C21.3587 28.5569 21.7333 27.5726 21.7333 26.4999Z" fill="#FFDAAA"/>
</g>
<path d="M9.26663 15.7333V11.4346L9.66727 11.0339C9.6684 11.0328 9.66897 11.0305 9.67067 11.0294C9.4984 10.9472 9.3369 10.8407 9.19807 10.7019C9.05923 10.563 8.9527 10.4015 8.8711 10.2298C8.8694 10.231 8.8677 10.2315 8.866 10.2327L8.29933 10.7993C8.1928 10.9053 8.1333 11.0498 8.1333 11.2V15.7333H9.26663Z" fill="#603E26"/>
<path d="M17.1999 1C15.3248 1 13.7999 2.5249 13.7999 4.4V8.36667C13.7999 10.2418 15.3248 11.7667 17.1999 11.7667C19.075 11.7667 20.5999 10.2418 20.5999 8.36667V4.4C20.5999 2.5249 19.075 1 17.1999 1Z" fill="#EFB33C"/>
<path d="M17.1999 9.50005C15.322 9.50005 13.7999 7.97799 13.7999 6.10005V8.36672C13.7999 10.2418 15.3248 11.7667 17.1999 11.7667C19.075 11.7667 20.5999 10.2418 20.5999 8.36672V6.10005C20.5999 7.97799 19.0773 9.50005 17.1999 9.50005Z" fill="#603E26"/>
<path d="M17.1999 1C15.3248 1 13.7999 2.5249 13.7999 4.4H20.5999C20.5999 2.5249 19.075 1 17.1999 1Z" fill="#84B749"/>
<path d="M17.2001 11.7666C16.8023 11.7666 16.4221 11.6947 16.0668 11.5683V15.7333H18.3334V11.5683C17.9781 11.6947 17.5979 11.7666 17.2001 11.7666Z" fill="#6C9E37"/>
<defs>
<clipPath id="clip0_1_1252">
<rect width="22.4" height="25.6" fill="white" transform="translate(6 7.39995)"/>
</clipPath>
</defs>
</svg>
