<svg width="35" height="34" viewBox="0 0 35 34" fill="none" xmlns="http://www.w3.org/2000/svg">
<path d="M25.3103 8.89003L25.3104 23.6015C25.3104 25.0447 24.1404 26.2147 22.6972 26.2147H14.7006L8.55087 31.0626V26.2147C7.10765 26.2147 5.93771 25.0448 5.93771 23.6015V7.10158C5.93771 4.95728 7.55584 3.08504 9.69556 2.94641C12.0403 2.79459 13.9895 4.65154 13.9895 6.96376V8.88991" fill="#FEF49C"/>
<path d="M11.832 28.476V26.2147C10.3887 26.2147 9.2188 25.0448 9.2188 23.6015L9.21869 7.10153C9.21869 5.44421 10.1875 3.953 11.6146 3.29569C11.0343 3.0339 10.3828 2.902 9.6954 2.94642C7.55568 3.08487 5.9375 4.95735 5.9375 7.10153L5.93762 23.6015C5.93762 25.0448 7.10756 26.2147 8.55078 26.2147V31.0626L11.832 28.476Z" fill="#FEE47F"/>
<path d="M8.5506 32C8.4115 32 8.27164 31.9691 8.14162 31.906C7.81865 31.7492 7.61334 31.4217 7.61334 31.0624V27.0265C6.10871 26.6144 5 25.235 5 23.6015V7.1015C5 4.41522 7.0359 2.17917 9.63482 2.01083C9.76091 2.00268 9.88683 1.99917 10.0111 2.00016H25.1658C27.9027 2.00016 30.1292 4.22678 30.1292 6.96363V8.89002C30.1292 9.13863 30.0304 9.37711 29.8546 9.55289C29.6788 9.72873 29.4403 9.82752 29.1918 9.82752H26.2477V23.6015C26.2477 25.5593 24.6549 27.1521 22.6971 27.1521H15.0257L9.13132 31.7988C8.96257 31.9317 8.75749 32 8.5506 32ZM9.95726 3.87516C9.8904 3.87528 9.82337 3.87756 9.75605 3.88196C8.14039 3.98661 6.87494 5.40076 6.87494 7.1015V23.6015C6.87494 24.5254 7.62681 25.2772 8.55078 25.2772C9.06851 25.2772 9.48827 25.6969 9.48827 26.2147V29.1298L14.1202 25.4785C14.2857 25.3482 14.49 25.2772 14.7006 25.2772H22.697C23.6211 25.2772 24.3726 24.5255 24.3726 23.6015V9.82752L13.9893 9.82746C13.4715 9.82746 13.0518 9.40775 13.0518 8.88996V6.96375C13.0518 6.10072 12.7048 5.30022 12.0747 4.70965C11.4995 4.17047 10.762 3.8785 9.97818 3.87516H9.96353C9.96142 3.87516 9.95937 3.87516 9.95726 3.87516Z" fill="#5FAF46"/>
<path d="M25.166 2.00022H22.3535C25.0904 2.00022 27.3169 4.22677 27.3169 6.96368V8.88989C27.3169 9.1385 27.2181 9.37692 27.0423 9.5527C26.8665 9.72872 26.628 9.82733 26.3795 9.82733H29.192C29.4406 9.82733 29.679 9.72866 29.8548 9.5527C30.0306 9.37692 30.1294 9.13839 30.1294 8.88989V6.96368C30.1294 4.22672 27.9029 2.00022 25.166 2.00022Z" fill="#FFD801"/>
<path d="M21.4083 14.0705H10.3928C10.0044 14.0705 9.68967 13.7557 9.68967 13.3674C9.68967 12.9791 10.0044 12.6643 10.3928 12.6643H21.4083C21.7967 12.6643 22.1115 12.9791 22.1115 13.3674C22.1115 13.7557 21.7968 14.0705 21.4083 14.0705Z" fill="#37474F"/>
<path d="M21.4083 17.9963H10.3928C10.0043 17.9963 9.68964 17.6815 9.68964 17.2932C9.68964 16.9049 10.0043 16.59 10.3928 16.59H21.4083C21.7967 16.59 22.1114 16.9049 22.1114 17.2932C22.1114 17.6815 21.7967 17.9963 21.4083 17.9963Z" fill="#37474F"/>
<path d="M21.4083 21.9221H10.3928C10.0043 21.9221 9.68964 21.6072 9.68964 21.2189C9.68964 20.8306 10.0043 20.5158 10.3928 20.5158H21.4083C21.7967 20.5158 22.1114 20.8306 22.1114 21.2189C22.1114 21.6072 21.7967 21.9221 21.4083 21.9221Z" fill="#37474F"/>
</svg>
