<svg width="34" height="34" viewBox="0 0 34 34" fill="none" xmlns="http://www.w3.org/2000/svg">
<path d="M8.71437 16.7618H4.90485V4.38084C4.90485 3.32893 5.7577 2.47607 6.80961 2.47607C7.86151 2.47607 8.71437 3.32893 8.71437 4.38084V16.7618Z" fill="#F7B83C"/>
<path d="M10.6192 19.1429C9.56733 19.1429 8.71448 18.29 8.71448 17.2381V13.4286C8.71448 12.3767 9.56733 11.5238 10.6192 11.5238C11.6711 11.5238 12.524 12.3767 12.524 13.4286V17.2381C12.524 18.29 11.6711 19.1429 10.6192 19.1429Z" fill="#F7B83C"/>
<path d="M8.71429 20.0953H9.19048C11.0314 20.0953 12.5238 18.6029 12.5238 16.7619C12.5238 16.2357 12.0976 15.8096 11.5714 15.8096H4.90476C3.85286 15.8096 3 16.6624 3 17.7143V21.9296C3 23.5372 3.40952 25.1186 4.19048 26.5238C4.97143 27.9291 5.38095 29.5105 5.38095 31.1181V31.5238C5.38095 31.7867 5.59429 32 5.85714 32H17.7619C18.0248 32 18.2381 31.7867 18.2381 31.5238V30.6743C18.2381 29.3505 18.5157 28.0419 19.0533 26.8324L19.3276 26.2157C19.8652 25.0057 20.1429 23.6972 20.1429 22.3734V16.2857H11.5714" fill="#F7B83C"/>
<path d="M14.4286 19.1429C13.3767 19.1429 12.5239 18.29 12.5239 17.2381V13.4286C12.5239 12.3767 13.3767 11.5238 14.4286 11.5238C15.4805 11.5238 16.3334 12.3767 16.3334 13.4286V17.2381C16.3334 18.29 15.4805 19.1429 14.4286 19.1429Z" fill="#F7B83C"/>
<path d="M18.238 19.1429C17.186 19.1429 16.3332 18.29 16.3332 17.2381V13.4286C16.3332 12.3767 17.186 11.5238 18.238 11.5238C19.2899 11.5238 20.1427 12.3767 20.1427 13.4286V17.2381C20.1427 18.29 19.2899 19.1429 18.238 19.1429Z" fill="#F7B83C"/>
<path d="M15.5929 21.6041L15.5091 21.6598C13.6401 22.906 12.5239 24.9912 12.5239 27.2384C12.5239 27.5017 12.7372 27.7146 13.0001 27.7146C13.2629 27.7146 13.4762 27.5017 13.4762 27.2384C13.4762 25.3107 14.4339 23.5212 16.0377 22.4522L16.1215 22.3965C16.3401 22.2503 16.3991 21.955 16.2534 21.736C16.1077 21.5169 15.8115 21.4584 15.5929 21.6041Z" fill="#D28D28"/>
<path d="M14.4285 11.0475C14.1657 11.0475 13.9523 11.2604 13.9523 11.5237C13.9523 11.787 14.1657 11.9999 14.4285 11.9999C15.2161 11.9999 15.8571 12.6408 15.8571 13.4285V13.9046V16.7618V17.238C15.8571 18.0256 15.2161 18.6665 14.4285 18.6665C14.1657 18.6665 13.9523 18.8794 13.9523 19.1427C13.9523 19.4061 14.1657 19.6189 14.4285 19.6189C15.7414 19.6189 16.8095 18.5508 16.8095 17.238V16.7618V13.9046V13.4285C16.8095 12.1156 15.7414 11.0475 14.4285 11.0475Z" fill="#D28D28"/>
<path d="M18.2382 11.0475C17.9753 11.0475 17.762 11.2604 17.762 11.5237C17.762 11.787 17.9753 11.9999 18.2382 11.9999C19.0258 11.9999 19.6667 12.6408 19.6667 13.4285V13.9046V16.7618V17.238C19.6667 18.0256 19.0258 18.6665 18.2382 18.6665C17.9753 18.6665 17.762 18.8794 17.762 19.1427C17.762 19.4061 17.9753 19.6189 18.2382 19.6189C19.551 19.6189 20.6191 18.5508 20.6191 17.238V16.7618V13.9046V13.4285C20.6191 12.1156 19.551 11.0475 18.2382 11.0475Z" fill="#D28D28"/>
<path d="M12.9999 13.4286C12.9999 12.1157 11.9318 11.0476 10.6189 11.0476C10.3561 11.0476 10.1428 11.2605 10.1428 11.5238C10.1428 11.7871 10.3561 12 10.6189 12C11.4066 12 12.0475 12.641 12.0475 13.4286V15.3333H9.19037V4.38095C9.19037 3.06667 8.1237 2 6.80942 2C6.54751 2 6.33323 2.21429 6.33323 2.47619C6.33323 2.7381 6.54751 2.95238 6.80942 2.95238C7.59513 2.95238 8.23799 3.59524 8.23799 4.38095V15.3333H4.90466C4.64275 15.3333 4.42847 15.5476 4.42847 15.8095C4.42847 16.0714 4.64275 16.2857 4.90466 16.2857H12.0475V17.2381C12.0475 18.5524 10.9808 19.619 9.66656 19.619H8.71418C8.45228 19.619 8.23799 19.8333 8.23799 20.0952V20.5238C8.23799 21.7048 7.3999 22.7286 6.23799 22.9619C5.98085 23.0143 5.81418 23.2619 5.86656 23.5238C5.90942 23.7476 6.10942 23.9048 6.33323 23.9048C6.3618 23.9048 6.39513 23.9 6.42847 23.8952C8.01418 23.5762 9.16656 22.1857 9.19037 20.5714H9.66656C11.5047 20.5714 12.9999 19.0762 12.9999 17.2381V13.4286Z" fill="#D28D28"/>
<path d="M30.5809 9.08589C29.9238 11.2764 27.8619 12.8097 25.5666 12.8097C22.6762 12.8097 20.3286 10.4573 20.3286 7.5716C20.3286 5.27637 21.8571 3.21446 24.0524 2.55732C24.3905 2.45732 24.7524 2.54779 25 2.80018C25.2476 3.05256 25.3381 3.41922 25.2333 3.75256C25.1381 4.05732 25.0905 4.37637 25.0905 4.71446C25.0905 6.54779 26.5857 8.04779 28.4238 8.04779C28.7571 8.04779 29.0809 7.99541 29.3809 7.90494C29.719 7.80017 30.0857 7.88589 30.3381 8.13351C30.5857 8.38113 30.6809 8.74779 30.5809 9.08589Z" fill="#5FAF46"/>
<path d="M26.8191 16.7619C26.2934 16.7619 25.8644 16.3352 25.8644 15.8095C25.8644 15.2838 26.2887 14.8571 26.8144 14.8571H26.8191C27.3453 14.8571 27.7715 15.2838 27.7715 15.8095C27.7715 16.3352 27.3453 16.7619 26.8191 16.7619Z" fill="#95FFA6"/>
<path d="M28.7237 5.33324C28.198 5.33324 27.7689 4.90658 27.7689 4.38086C27.7689 3.85515 28.1932 3.42848 28.7189 3.42848H28.7237C29.2499 3.42848 29.6761 3.85515 29.6761 4.38086C29.6761 4.90658 29.2499 5.33324 28.7237 5.33324Z" fill="#95FFA6"/>
<path d="M16.819 6.76199C16.2933 6.76199 15.8647 6.33532 15.8647 5.8096C15.8647 5.28389 16.2886 4.85722 16.8147 4.85722H16.8195C17.3457 4.85722 17.7719 5.28389 17.7719 5.8096C17.7719 6.33532 17.3452 6.76199 16.819 6.76199Z" fill="#95FFA6"/>
</svg>
