<svg width="35" height="34" viewBox="0 0 35 34" fill="none" xmlns="http://www.w3.org/2000/svg">
<path d="M31.5556 9.22231H3.55565C3.14309 9.22231 2.74743 9.3862 2.4557 9.67792C2.16398 9.96965 2.00009 10.3653 2.00009 10.7779V28.6668C2.00009 29.2856 2.24592 29.8791 2.68351 30.3167C3.12109 30.7543 3.71459 31.0001 4.33342 31.0001H30.7779C31.3967 31.0001 31.9902 30.7543 32.4278 30.3167C32.8654 29.8791 33.1112 29.2856 33.1112 28.6668V10.7779C33.1112 10.3653 32.9473 9.96965 32.6556 9.67792C32.3639 9.3862 31.9682 9.22231 31.5556 9.22231Z" fill="#23995F"/>
<path d="M17.0422 15.7866L15.7978 18.6644C15.7569 18.7667 15.6859 18.8541 15.5942 18.9152C15.5026 18.9763 15.3946 19.0082 15.2844 19.0066H12.8889C12.77 19.0044 12.6535 19.04 12.5562 19.1084C12.459 19.1768 12.386 19.2744 12.3479 19.387C12.3098 19.4996 12.3085 19.6214 12.3442 19.7348C12.38 19.8482 12.4509 19.9473 12.5467 20.0177L14.6155 21.6666C14.7044 21.737 14.7698 21.8326 14.8031 21.941C14.8365 22.0493 14.8361 22.1652 14.8022 22.2733L13.8222 25.54C13.791 25.6543 13.7958 25.7754 13.836 25.8869C13.8762 25.9984 13.9498 26.0947 14.0468 26.1628C14.1438 26.2308 14.2594 26.2673 14.3779 26.2672C14.4964 26.2671 14.612 26.2304 14.7089 26.1622L17.2133 24.2644C17.3142 24.1955 17.4334 24.1587 17.5555 24.1587C17.6777 24.1587 17.7969 24.1955 17.8978 24.2644L20.4022 26.1622C20.4991 26.2304 20.6147 26.2671 20.7332 26.2672C20.8516 26.2673 20.9673 26.2308 21.0643 26.1628C21.1613 26.0947 21.2349 25.9984 21.2751 25.8869C21.3153 25.7754 21.3201 25.6543 21.2889 25.54L20.3089 22.2733C20.2749 22.1652 20.2746 22.0493 20.308 21.941C20.3413 21.8326 20.4067 21.737 20.4955 21.6666L22.6267 19.9555C22.7225 19.8851 22.7933 19.786 22.8291 19.6726C22.8648 19.5592 22.8635 19.4374 22.8254 19.3248C22.7873 19.2121 22.7143 19.1146 22.6171 19.0462C22.5198 18.9778 22.4033 18.9422 22.2844 18.9444H19.8267C19.7165 18.946 19.6085 18.9141 19.5168 18.853C19.4252 18.7919 19.3542 18.7045 19.3133 18.6022L18.0689 15.7244C18.0196 15.6267 17.9428 15.5456 17.8479 15.4912C17.753 15.4367 17.6443 15.4111 17.5351 15.4178C17.4259 15.4244 17.321 15.4628 17.2334 15.5284C17.1458 15.5939 17.0793 15.6837 17.0422 15.7866Z" fill="white"/>
<path d="M30.7779 3H4.33342C3.71459 3 3.12109 3.24583 2.68351 3.68342C2.24592 4.121 2.00009 4.71449 2.00009 5.33333V11.5556H33.1112V5.33333C33.1112 4.71449 32.8654 4.121 32.4278 3.68342C31.9902 3.24583 31.3967 3 30.7779 3Z" fill="#00C27A"/>
</svg>
