<svg width="35" height="34" viewBox="0 0 35 34" fill="none" xmlns="http://www.w3.org/2000/svg">
<path d="M31 26.8L17 31V3L31 7.2V26.8Z" fill="#323232"/>
<path d="M3 26.8L17 31V3L3 7.2V26.8Z" fill="#4B4B4B"/>
<path d="M3.93335 27.08L17 31V3L3.93335 6.92V27.08Z" fill="#3C3C3C"/>
<path d="M3 26.8L17 31V27.7333L3 24.7V26.8Z" fill="#C39664"/>
<path d="M3.93335 27.08L17 31L17.4667 29.1333L17 27.7333L3.93335 24.902V27.08Z" fill="#B58045"/>
<path d="M17 27.7333V24.4667L3 22.6V24.7L17 27.7333Z" fill="white"/>
<path d="M3.93335 24.9021L17 27.7333L17.9333 26.3333L17 24.4667L3.93335 22.7246V24.9021Z" fill="#F7F6F5"/>
<path d="M3 9.3V11.4L17 9.53333V6.26667L3 9.3Z" fill="#FFE651"/>
<path d="M3.93335 11.2754L17 9.53333L17.9333 8.13333L17 6.26667L3.93335 9.09793V11.2754Z" fill="#F0D246"/>
<path d="M19.8 15.1334V24.0934L24 23.5334V15.1334V12.5668L19.8 12.1468V15.1334Z" fill="#EBBE28"/>
<path d="M10.9333 15.1334H14.2V12.1468L10.9333 12.4734V15.1334Z" fill="#F0D246"/>
<path d="M5.33331 15.1332H8.13331V12.7532L5.33331 13.0332V15.1332Z" fill="#F0D246"/>
<path d="M26.3333 12.8V15.1333H29.1333V13.08L26.3333 12.8Z" fill="#EBBE28"/>
<path d="M3 7.2V8.36667L17 4.16667V3L3 7.2Z" fill="#4B4B4B"/>
<path d="M31 9.3V11.4L17 9.53333V6.26667L31 9.3Z" fill="#EBBE28"/>
<path d="M17 27.7333V24.4667L31 22.6V24.7L17 27.7333Z" fill="#E8E4E0"/>
<path d="M31 26.8L17 31V27.7333L31 24.7V26.8Z" fill="#A76F2A"/>
</svg>
