<svg width="35" height="34" viewBox="0 0 35 34" fill="none" xmlns="http://www.w3.org/2000/svg">
<path d="M32.7506 16.6244L28.5494 12.4232V6.48188C28.5494 6.34098 28.4934 6.20585 28.3938 6.10623C28.2942 6.0066 28.159 5.95063 28.0181 5.95063H22.0768L17.8756 1.74939C17.8263 1.70004 17.7678 1.66089 17.7033 1.63418C17.6389 1.60747 17.5698 1.59372 17.5 1.59372C17.4303 1.59372 17.3612 1.60747 17.2967 1.63418C17.2323 1.66089 17.1737 1.70004 17.1244 1.74939L12.9232 5.95063H6.98191C6.84101 5.95063 6.70588 6.0066 6.60626 6.10623C6.50663 6.20585 6.45066 6.34098 6.45066 6.48188V12.4232L2.24942 16.6244C2.20007 16.6737 2.16092 16.7323 2.13421 16.7967C2.1075 16.8611 2.09375 16.9302 2.09375 17C2.09375 17.0698 2.1075 17.1388 2.13421 17.2033C2.16092 17.2677 2.20007 17.3263 2.24942 17.3756L6.45066 21.5768V27.5181C6.45066 27.659 6.50663 27.7941 6.60626 27.8937C6.70588 27.9934 6.84101 28.0494 6.98191 28.0494H12.9232L17.1244 32.2506C17.1737 32.2999 17.2323 32.3391 17.2967 32.3658C17.3612 32.3925 17.4303 32.4062 17.5 32.4062C17.5698 32.4062 17.6389 32.3925 17.7033 32.3658C17.7677 32.3391 17.8263 32.2999 17.8756 32.2506L22.0768 28.0494H28.0181C28.159 28.0494 28.2942 27.9934 28.3938 27.8937C28.4934 27.7941 28.5494 27.659 28.5494 27.5181V21.5768L32.7506 17.3756C32.8 17.3263 32.8391 17.2677 32.8658 17.2033C32.8925 17.1388 32.9063 17.0698 32.9063 17C32.9063 16.9302 32.8925 16.8611 32.8658 16.7967C32.8391 16.7323 32.8 16.6737 32.7506 16.6244Z" fill="#4A7C4A"/>
<path d="M32.7506 16.6244L28.5494 12.4232V6.48187C28.5494 6.34098 28.4934 6.20585 28.3938 6.10622C28.2942 6.00659 28.1591 5.95062 28.0182 5.95062H23.3438V22.3125C23.3438 22.4534 23.2878 22.5885 23.1882 22.6881C23.0886 22.7878 22.9534 22.8437 22.8125 22.8437H6.45068V27.5181C6.45068 27.659 6.50665 27.7941 6.60628 27.8937C6.70591 27.9934 6.84104 28.0493 6.98193 28.0493H12.9232L17.1245 32.2506C17.1738 32.2999 17.2323 32.3391 17.2968 32.3658C17.3612 32.3925 17.4303 32.4062 17.5 32.4062C17.5698 32.4062 17.6389 32.3925 17.7033 32.3658C17.7678 32.3391 17.8263 32.2999 17.8756 32.2506L22.0769 28.0493H28.0182C28.1591 28.0493 28.2942 27.9934 28.3938 27.8937C28.4934 27.7941 28.5494 27.659 28.5494 27.5181V21.5768L32.7506 17.3756C32.8 17.3263 32.8391 17.2677 32.8659 17.2033C32.8926 17.1388 32.9063 17.0697 32.9063 17C32.9063 16.9302 32.8926 16.8611 32.8659 16.7967C32.8391 16.7322 32.8 16.6737 32.7506 16.6244Z" fill="#3C683C"/>
<path d="M17.5 29.4011C17.4303 29.4012 17.3612 29.3875 17.2967 29.3608C17.2322 29.334 17.1737 29.2949 17.1244 29.2454L13.8033 25.9243H9.10708C8.96619 25.9243 8.83106 25.8684 8.73143 25.7687C8.63181 25.6691 8.57583 25.534 8.57583 25.3931V20.6968L5.25473 17.3756C5.15513 17.2759 5.09918 17.1408 5.09918 17C5.09918 16.8591 5.15513 16.724 5.25473 16.6244L8.57583 13.3033V8.60702C8.57583 8.46613 8.63181 8.331 8.73143 8.23137C8.83106 8.13174 8.96619 8.07577 9.10708 8.07577H13.8033L17.1244 4.75466C17.2241 4.65507 17.3592 4.59912 17.5 4.59912C17.6409 4.59912 17.776 4.65507 17.8756 4.75466L21.1967 8.07577H25.893C26.0339 8.07577 26.169 8.13174 26.2686 8.23137C26.3683 8.331 26.4242 8.46613 26.4242 8.60702V13.3033L29.7453 16.6244C29.8449 16.724 29.9009 16.8591 29.9009 17C29.9009 17.1408 29.8449 17.2759 29.7453 17.3756L26.4242 20.6967V25.3929C26.4242 25.5338 26.3683 25.669 26.2686 25.7686C26.169 25.8682 26.0339 25.9242 25.893 25.9242H21.1967L17.8756 29.2453C17.8264 29.2947 17.7678 29.3339 17.7034 29.3607C17.6389 29.3874 17.5698 29.4012 17.5 29.4011ZM9.63818 24.8618H14.0233C14.1642 24.8619 14.2993 24.9179 14.3989 25.0175L17.5 28.1186L20.6012 25.0175C20.7008 24.9179 20.8359 24.8619 20.9767 24.8618H25.3619V20.4767C25.3619 20.3358 25.4179 20.2007 25.5176 20.1011L28.6187 17L25.5176 13.8989C25.4179 13.7993 25.3619 13.6641 25.3619 13.5233V9.13811H20.9767C20.8359 9.13808 20.7008 9.08209 20.6012 8.98246L17.5 5.88134L14.3989 8.98246C14.2993 9.08209 14.1642 9.13808 14.0233 9.13811H9.63818V13.5233C9.63815 13.6641 9.58215 13.7993 9.48252 13.8989L6.3814 17L9.48252 20.1011C9.58215 20.2007 9.63815 20.3358 9.63818 20.4767V24.8618Z" fill="#FCD465"/>
<path d="M24.8472 18.8287L23.7326 17.1693C23.3921 16.6357 22.9027 16.2136 22.3248 15.9554C21.7469 15.6971 21.106 15.6139 20.4813 15.7162C19.9887 15.8095 19.5238 16.0142 19.1223 16.3147L18.7751 16.575L19.4126 17.425L19.7599 17.1647C19.9958 16.9832 20.2675 16.8538 20.5572 16.7853C20.8468 16.7167 21.1477 16.7104 21.4399 16.7669C21.7322 16.8233 22.0091 16.9412 22.2523 17.1127C22.4956 17.2842 22.6996 17.5055 22.8509 17.7618L23.4094 18.5937H18.0313V11.6875H16.9688V16.8744L15.319 13.5748L14.3686 14.0501L16.9582 19.2294C16.932 19.7731 16.698 20.2859 16.3045 20.662C15.911 21.038 15.3881 21.2485 14.8438 21.25H13.2501V22.3125H14.8438C15.5964 22.3112 16.3243 22.0439 16.8989 21.5578C17.4734 21.0718 17.8576 20.3982 17.9835 19.6562H24.4063C24.5026 19.6562 24.5971 19.63 24.6797 19.5804C24.7623 19.5309 24.8298 19.4598 24.8751 19.3748C24.9204 19.2898 24.9417 19.1941 24.9368 19.0979C24.9319 19.0017 24.901 18.9087 24.8472 18.8287Z" fill="#FCD465"/>
<path d="M13.7813 11.6875H12.7188V17.5312C12.7182 18.0946 12.4941 18.6347 12.0957 19.0331C11.6973 19.4315 11.1572 19.6556 10.5938 19.6562V20.7187C11.4389 20.7178 12.2491 20.3817 12.8467 19.7841C13.4443 19.1865 13.7804 18.3763 13.7813 17.5312V11.6875Z" fill="#FCD465"/>
</svg>
