<svg width="34" height="34" viewBox="0 0 34 34" fill="none" xmlns="http://www.w3.org/2000/svg">
<path d="M2.74908 5C2.74908 3.89543 3.64452 3 4.74908 3H22.8427C23.9473 3 24.8427 3.89543 24.8427 5V23.9774C24.8427 25.0819 23.9473 25.9774 22.8427 25.9774H10.2436C9.69082 25.9774 9.16266 25.7486 8.78456 25.3453L3.29001 19.4844C2.94249 19.1137 2.74908 18.6246 2.74908 18.1165V5Z" fill="#5FAF46"/>
<path d="M6.91577 9.98373H13.606V11.7443H6.91577V9.98373Z" fill="white"/>
<path d="M6.91577 13.5049H13.606V15.2655H6.91577V13.5049Z" fill="white"/>
<path d="M6.91583 6.46249V8.22308H13.6061L13.8408 7.2841L13.6061 6.46249H6.91583Z" fill="white"/>
<path d="M13.606 6.46259H20.2962V8.22317H13.606V6.46259Z" fill="white"/>
<path d="M17.6486 24.1858C17.6486 27.9492 20.6995 31.0001 24.4629 31.0001L24.8948 24.2338L24.4629 17.3715C20.6995 17.3715 17.6486 20.4224 17.6486 24.1858Z" fill="#FF3F02"/>
<path d="M24.463 17.3715V31.0001C28.2264 31.0001 31.2772 27.9492 31.2772 24.1858C31.2772 20.4224 28.2264 17.3715 24.463 17.3715Z" fill="#FF3F02"/>
<path d="M22.4113 20.8893L21.1664 22.1342L23.2181 24.1859L21.1664 26.2376L22.4113 27.4825L24.463 25.4308L24.8151 24.1859L24.463 22.941L22.4113 20.8893Z" fill="#E6F8FC"/>
<path d="M27.7596 22.1342L26.5147 20.8893L24.463 22.941V25.4308L26.5147 27.4825L27.7596 26.2376L25.7079 24.1859L27.7596 22.1342Z" fill="#D0E8FF"/>
<path d="M3.20476 19.4011C3.20476 19.4011 2.59017 18.8694 2.749 17.5818L9.23798 17.9062C10.4691 17.9678 11.3632 19.1194 11.1466 20.3328C10.7678 22.454 10.3515 24.9729 10.1021 25.9705C8.32774 26.2294 3.20476 19.4011 3.20476 19.4011Z" fill="#64D465"/>
</svg>
