<svg width="35" height="34" viewBox="0 0 35 34" fill="none" xmlns="http://www.w3.org/2000/svg">
<g clip-path="url(#clip0_1_1211)">
<path d="M29.8103 5.75866V12.7931H5.25354C3.60043 12.7931 2.25861 11.2174 2.25861 9.2759C2.25861 7.33438 3.60043 5.75866 5.25354 5.75866H29.8103Z" fill="#F5EFCA"/>
<path d="M30.9828 13.3793C30.9808 14.026 30.4571 14.5498 29.8103 14.5518H5.77586C2.86208 14.5518 0.5 12.1897 0.5 9.2759C0.5 6.36212 2.86208 4.00003 5.77586 4.00003H29.8103C30.4579 4.00003 30.9828 4.52494 30.9828 5.17245C30.9828 5.81995 30.4579 6.34486 29.8103 6.34486H5.77586C4.1571 6.34486 2.84483 7.65713 2.84483 9.2759C2.84483 10.8947 4.1571 12.2069 5.77586 12.2069H29.8103C30.4571 12.2089 30.9808 12.7326 30.9828 13.3793Z" fill="#F29C1F"/>
<path d="M33.3276 14.5518H4.01726C3.36976 14.5518 2.84485 15.0767 2.84485 15.7242V21.5862C2.84485 22.2337 3.36976 22.7587 4.01726 22.7587H33.3276C33.9751 22.7587 34.5 22.2337 34.5 21.5862V15.7242C34.5 15.0767 33.9751 14.5518 33.3276 14.5518Z" fill="#7D6599"/>
<path d="M30.9828 22.7587H1.67241C1.02491 22.7587 0.5 23.2836 0.5 23.9311V29.7931C0.5 30.4406 1.02491 30.9656 1.67241 30.9656H30.9828C31.6303 30.9656 32.1552 30.4406 32.1552 29.7931V23.9311C32.1552 23.2836 31.6303 22.7587 30.9828 22.7587Z" fill="#E64C3C"/>
<path d="M25.1207 16.8966H12.2241C11.9004 16.8966 11.6379 17.159 11.6379 17.4828V19.8276C11.6379 20.1514 11.9004 20.4138 12.2241 20.4138H25.1207C25.4445 20.4138 25.7069 20.1514 25.7069 19.8276V17.4828C25.7069 17.159 25.4445 16.8966 25.1207 16.8966Z" fill="#9FC9D3"/>
<path d="M28.6379 14.5518H29.8104V22.7587H28.6379V14.5518Z" fill="#B49ACA"/>
<path d="M7.53448 14.5518H8.7069V22.7587H7.53448V14.5518Z" fill="#B49ACA"/>
<path d="M16.3276 28.6207C19.2413 28.6207 21.6034 27.8334 21.6034 26.8621C21.6034 25.8908 19.2413 25.1035 16.3276 25.1035C13.4138 25.1035 11.0517 25.8908 11.0517 26.8621C11.0517 27.8334 13.4138 28.6207 16.3276 28.6207Z" fill="#F5EFCA"/>
<path d="M4.01721 22.7587H6.36204V30.9656H4.01721V22.7587Z" fill="#F29C1F"/>
<path d="M26.2931 22.7587H28.6379V30.9656H26.2931V22.7587Z" fill="#F29C1F"/>
</g>
<defs>
<clipPath id="clip0_1_1211">
<rect width="34" height="34" fill="white" transform="translate(0.5)"/>
</clipPath>
</defs>
</svg>
