<svg width="35" height="34" viewBox="0 0 35 34" fill="none" xmlns="http://www.w3.org/2000/svg">
<path d="M13.8 6.73343H29.2C30.2309 6.73343 31.0667 7.56916 31.0667 8.6001V25.4001C31.0667 26.431 30.2309 27.2668 29.2 27.2668H5.86667C4.83574 27.2668 4 26.431 4 25.4001V8.6001C4 7.56916 4.83574 6.73343 5.86667 6.73343H13.8Z" fill="#5FAF46"/>
<path d="M7.7333 4.86667C7.56902 4.86894 7.40578 4.89327 7.24797 4.939C7.50522 4.37274 8.04714 3.98858 8.66664 3.93333C8.92437 3.93333 9.1333 3.7244 9.1333 3.46667C9.1333 3.20893 8.92437 3 8.66664 3C7.12244 3 5.86664 4.67487 5.86664 6.73333C5.86664 7.76427 6.70237 8.6 7.7333 8.6C8.76424 8.6 9.59997 7.76427 9.59997 6.73333C9.59997 5.7024 8.76424 4.86667 7.7333 4.86667Z" fill="#F29C1F"/>
<path d="M12.4 4.86667C12.2357 4.86894 12.0725 4.89327 11.9147 4.939C12.1719 4.37274 12.7138 3.98858 13.3333 3.93333C13.5911 3.93333 13.8 3.7244 13.8 3.46667C13.8 3.20893 13.5911 3 13.3333 3C11.7891 3 10.5333 4.67487 10.5333 6.73333C10.5333 7.76427 11.3691 8.6 12.4 8.6C13.4309 8.6 14.2667 7.76427 14.2667 6.73333C14.2667 5.7024 13.4309 4.86667 12.4 4.86667Z" fill="#F29C1F"/>
<path d="M27.3333 25.4C26.3024 25.4 25.4667 26.2357 25.4667 27.2666C25.4667 28.2976 26.3024 29.1333 27.3333 29.1333C27.4976 29.131 27.6609 29.1067 27.8187 29.061C27.5614 29.6272 27.0195 30.0114 26.4 30.0666C26.1423 30.0666 25.9333 30.2756 25.9333 30.5333C25.9333 30.791 26.1423 31 26.4 31C27.9442 31 29.2 29.3251 29.2 27.2666C29.2 26.2357 28.3643 25.4 27.3333 25.4Z" fill="#F29C1F"/>
<path d="M22.6666 25.4C21.6357 25.4 20.7999 26.2357 20.7999 27.2666C20.7999 28.2976 21.6357 29.1333 22.6666 29.1333C22.8309 29.131 22.9941 29.1067 23.1519 29.061C22.8947 29.6272 22.3528 30.0114 21.7333 30.0666C21.4755 30.0666 21.2666 30.2756 21.2666 30.5333C21.2666 30.791 21.4755 31 21.7333 31C23.2775 31 24.5333 29.3251 24.5333 27.2666C24.5333 26.2357 23.6975 25.4 22.6666 25.4Z" fill="#F29C1F"/>
<path d="M27.3333 10.4667H7.73326C7.21779 10.4667 6.79993 10.8845 6.79993 11.4C6.79993 11.9155 7.21779 12.3333 7.73326 12.3333H27.3333C27.8487 12.3333 28.2666 11.9155 28.2666 11.4C28.2666 10.8845 27.8487 10.4667 27.3333 10.4667Z" fill="#ECF0F1"/>
<path d="M21.7334 14.2002H7.73338C7.21792 14.2002 6.80005 14.618 6.80005 15.1335C6.80005 15.649 7.21792 16.0668 7.73338 16.0668H21.7334C22.2488 16.0668 22.6667 15.649 22.6667 15.1335C22.6667 14.618 22.2488 14.2002 21.7334 14.2002Z" fill="#ECF0F1"/>
<path d="M27.3334 14.2002H25.4668C24.9513 14.2002 24.5334 14.618 24.5334 15.1335C24.5334 15.649 24.9513 16.0668 25.4668 16.0668H27.3334C27.8489 16.0668 28.2668 15.649 28.2668 15.1335C28.2668 14.618 27.8489 14.2002 27.3334 14.2002Z" fill="#ECF0F1"/>
<path d="M16.6001 19.8H27.3334C27.8489 19.8 28.2667 19.3822 28.2667 18.8667C28.2667 18.3512 27.8489 17.9334 27.3334 17.9334H16.6001C16.0846 17.9334 15.6667 18.3512 15.6667 18.8667C15.6667 19.3822 16.0846 19.8 16.6001 19.8Z" fill="#ECF0F1"/>
<path d="M7.73338 19.8H12.8667C13.3822 19.8 13.8 19.3822 13.8 18.8667C13.8 18.3512 13.3822 17.9334 12.8667 17.9334H7.73338C7.21792 17.9334 6.80005 18.3512 6.80005 18.8667C6.80005 19.3822 7.21792 19.8 7.73338 19.8Z" fill="#ECF0F1"/>
<path d="M7.73341 23.5334H18.0001C18.5155 23.5334 18.9334 23.1156 18.9334 22.6001C18.9334 22.0846 18.5155 21.6668 18.0001 21.6668H7.73341C7.21795 21.6668 6.80008 22.0846 6.80008 22.6001C6.80008 23.1156 7.21795 23.5334 7.73341 23.5334Z" fill="#ECF0F1"/>
</svg>
