<svg width="35" height="34" viewBox="0 0 35 34" fill="none" xmlns="http://www.w3.org/2000/svg">
<path d="M17.6442 10.3201C17.6442 10.3201 24.9444 14.3063 25.3447 22.7795C25.4484 24.6909 24.921 26.5835 23.8435 28.1657C22.766 29.7479 21.1983 30.9321 19.3817 31.5358C17.6623 32.0751 15.869 32.3413 14.0671 32.3247C12.2652 32.3413 10.4718 32.0751 8.75243 31.5358C6.93586 30.9321 5.36812 29.7479 4.29063 28.1657C3.21315 26.5835 2.68566 24.6909 2.78942 22.7795C3.18971 14.306 10.4899 10.3201 10.4899 10.3201H17.6442Z" fill="#64D465"/>
<path d="M17.6442 8.30131L19.8989 3.24195C19.8989 3.24195 17.9022 1.67477 14.0671 1.67477C10.232 1.67477 8.23526 3.24195 8.23526 3.24195L10.4899 8.30131H17.6442Z" fill="#64D465"/>
<path d="M18.9147 25.5521C21.2471 22.8754 20.9679 18.8147 18.2912 16.4824C15.6145 14.15 11.5539 14.4292 9.22152 17.1059C6.88916 19.7826 7.16831 23.8432 9.84502 26.1756C12.5217 28.508 16.5824 28.2288 18.9147 25.5521Z" fill="#F4DD45"/>
<path d="M17.3283 24.3072C18.9696 22.5076 18.8413 19.7181 17.0417 18.0768C15.2421 16.4354 12.4526 16.5638 10.8112 18.3634C9.1699 20.163 9.29822 22.9525 11.0979 24.5938C12.8975 26.2352 15.687 26.1069 17.3283 24.3072Z" fill="#FCC101"/>
<path d="M10.4899 8.30132H17.6445V10.3201H10.4899V8.30132Z" fill="#477B9E"/>
<path d="M31.1571 13.6143H19.5397C18.9525 13.6143 18.4764 14.0904 18.4764 14.6776V31.2614C18.4764 31.8487 18.9525 32.3247 19.5397 32.3247H31.1571C31.7444 32.3247 32.2204 31.8487 32.2204 31.2614V14.6776C32.2204 14.0904 31.7444 13.6143 31.1571 13.6143Z" fill="#477B9E"/>
<path d="M20.3435 15.4838H30.3536V19.2562H20.3435V15.4838Z" fill="#DBEDFF"/>
<path d="M24.2851 21.123H26.412V22.9901H24.2851V21.123Z" fill="#F4DD45"/>
<path d="M28.2267 21.123H30.3536V22.9901H28.2267V21.123Z" fill="#F4DD45"/>
<path d="M20.3435 21.123H22.4704V22.9901H20.3435V21.123Z" fill="#F4DD45"/>
<path d="M24.2851 24.8569H26.412V26.724H24.2851V24.8569Z" fill="#F4DD45"/>
<path d="M28.2267 24.8569H30.3536V30.4576H28.2267V24.8569Z" fill="#F87C68"/>
<path d="M20.3435 24.8569H22.4704V26.724H20.3435V24.8569Z" fill="#F4DD45"/>
<path d="M24.2851 28.5908H26.412V30.4576H24.2851V28.5908Z" fill="#F4DD45"/>
<path d="M20.3435 28.5908H22.4704V30.4576H20.3435V28.5908Z" fill="#F4DD45"/>
<path d="M14.4286 23.9782V24.4606H13.743V23.9559C13.0867 23.8818 12.4714 23.5992 11.9875 23.1498L12.5302 22.479C12.8683 22.801 13.2875 23.025 13.743 23.1272V21.6575C12.8162 21.4165 12.191 21.085 12.191 20.1965C12.191 19.3827 12.8162 18.7574 13.743 18.6442V18.1847H14.4286V18.6519C15.0167 18.7126 15.5706 18.9578 16.0109 19.3524L15.4988 20.0457C15.1946 19.7712 14.8268 19.577 14.4286 19.4807V20.8967C15.4611 21.1302 16.1466 21.4843 16.1466 22.4036C16.1466 23.2701 15.5214 23.9031 14.4286 23.9782ZM13.743 20.7158V19.465C13.5841 19.4891 13.438 19.5662 13.3286 19.6839C13.2191 19.8016 13.1528 19.9529 13.1403 20.1131C13.1403 20.4143 13.3363 20.5727 13.743 20.7158ZM15.2039 22.4939C15.2039 22.1473 14.963 21.9892 14.4278 21.8299V23.171C14.9412 23.1118 15.2047 22.8254 15.2047 22.4939H15.2039Z" fill="#F4DD45"/>
</svg>
