<svg width="35" height="34" viewBox="0 0 35 34" fill="none" xmlns="http://www.w3.org/2000/svg">
<g clip-path="url(#clip0_1_1023)">
<path d="M24.6358 5.12556L18.2842 4.00356C17.6464 3.89089 17.0381 4.31659 16.9254 4.95439L12.2334 31.5154C12.1207 32.1532 12.5464 32.7616 13.1842 32.8743L19.5358 33.9963C20.1736 34.1089 20.7819 33.6832 20.8946 33.0454L25.5866 6.48439C25.6993 5.84659 25.2736 5.23823 24.6358 5.12556Z" fill="#805333"/>
<path d="M16.2193 8.9873L16.7293 6.10024L25.3905 7.63024L24.8805 10.5173L16.2193 8.9873Z" fill="#F29C1F"/>
<path d="M12.4556 30.3556L12.9656 27.4686L21.6268 28.9986L21.1168 31.8856L12.4556 30.3556Z" fill="#F29C1F"/>
<path d="M33.3276 0H26.8793C26.2318 0 25.7069 0.524908 25.7069 1.17241V32.8276C25.7069 33.4751 26.2318 34 26.8793 34H33.3276C33.9751 34 34.5 33.4751 34.5 32.8276V1.17241C34.5 0.524908 33.9751 0 33.3276 0Z" fill="#A56A43"/>
<path d="M25.7069 2.34482H34.5V5.27585H25.7069V2.34482Z" fill="#F0C419"/>
<path d="M25.7069 28.7242H34.5V31.6552H25.7069V28.7242Z" fill="#F0C419"/>
<path d="M31.569 8.20691H28.6379C28.3142 8.20691 28.0517 8.46936 28.0517 8.79312V25.2069C28.0517 25.5307 28.3142 25.7931 28.6379 25.7931H31.569C31.8927 25.7931 32.1552 25.5307 32.1552 25.2069V8.79312C32.1552 8.46936 31.8927 8.20691 31.569 8.20691Z" fill="#ECF0F1"/>
<path d="M15.2607 13.6879L14.8973 14.8017L14.5338 15.9155L9.64484 30.9635L9.28139 32.0773L8.91794 33.1969C8.82257 33.4933 8.61325 33.7395 8.33614 33.8813C8.05903 34.0232 7.73687 34.049 7.4407 33.9531L1.30898 31.96C0.694166 31.7589 0.358395 31.0979 0.558633 30.4828L0.922082 29.3631L1.28553 28.2493L6.16863 13.1955H6.1745L6.53208 12.0817L6.89553 10.9679C7.09663 10.3531 7.75768 10.0174 8.37277 10.2176L14.5104 12.2107C15.1252 12.4118 15.4609 13.0729 15.2607 13.6879Z" fill="#603E26"/>
<path d="M4.97277 27.8976C4.91126 27.8974 4.85015 27.8878 4.79163 27.8689C4.48375 27.7688 4.31526 27.4381 4.41528 27.1302L7.62183 17.2532C7.67861 17.0446 7.84558 16.8842 8.05628 16.8358C8.26699 16.7875 8.48721 16.859 8.62929 17.0219C8.77137 17.1849 8.81224 17.4128 8.73563 17.6149L5.53025 27.4931C5.45157 27.7344 5.22656 27.8976 4.97277 27.8976Z" fill="#ECF0F1"/>
<path d="M7.57552 28.7417C7.51401 28.7416 7.45291 28.7319 7.39438 28.713C7.0865 28.6129 6.91802 28.2823 7.01804 27.9744L8.73562 22.6809C8.79306 22.473 8.96006 22.3134 9.17039 22.2655C9.38071 22.2175 9.60037 22.289 9.74225 22.4515C9.88413 22.614 9.92529 22.8413 9.84942 23.0432L8.13183 28.3361C8.0537 28.5774 7.82919 28.7411 7.57552 28.7417Z" fill="#ECF0F1"/>
<path d="M14.8973 14.8017L14.5338 15.9155L6.1745 13.1955L6.53209 12.0817L14.8973 14.8017Z" fill="#E57E25"/>
<path d="M9.64485 30.9634L9.2814 32.0772L0.922089 29.3631L1.28554 28.2493L9.64485 30.9634Z" fill="#E57E25"/>
<path d="M21.9552 14.1592C21.9208 14.1592 21.8865 14.1562 21.8526 14.1504L17.8113 13.4376C17.4924 13.3813 17.2795 13.0771 17.3359 12.7582C17.3922 12.4393 17.6964 12.2264 18.0153 12.2828L22.0566 12.9956C22.3562 13.0481 22.5659 13.3209 22.5394 13.6239C22.513 13.9269 22.2593 14.1594 21.9552 14.1592Z" fill="#ECF0F1"/>
<path d="M21.5449 16.4683C21.5107 16.4682 21.4765 16.4653 21.4429 16.4595L17.4015 15.7467C17.1915 15.7143 17.0155 15.5708 16.9414 15.3716C16.8673 15.1724 16.9069 14.9488 17.0447 14.787C17.1826 14.6253 17.3971 14.5509 17.6055 14.5924L21.6463 15.3047C21.9458 15.3571 22.1555 15.63 22.1291 15.933C22.1027 16.236 21.849 16.4684 21.5449 16.4683Z" fill="#ECF0F1"/>
</g>
<defs>
<clipPath id="clip0_1_1023">
<rect width="34" height="34" fill="white" transform="translate(0.5)"/>
</clipPath>
</defs>
</svg>
