<svg width="35" height="34" viewBox="0 0 35 34" fill="none" xmlns="http://www.w3.org/2000/svg">
<path fill-rule="evenodd" clip-rule="evenodd" d="M31.6667 30.0333C31.6667 29.4074 31.1592 28.9 30.5333 28.9H4.46668C3.84077 28.9 3.33334 29.4074 3.33334 30.0333C3.33334 30.6592 3.84077 31.1667 4.46668 31.1667H30.5333C31.1592 31.1667 31.6667 30.6592 31.6667 30.0333Z" fill="#84B749"/>
<path fill-rule="evenodd" clip-rule="evenodd" d="M27.8417 11.6167C25.4162 11.6167 23.45 9.65046 23.45 7.22501C23.45 4.79956 25.4162 2.83334 27.8417 2.83334C27.9313 2.83334 28.0203 2.83604 28.1086 2.84133C28.6784 2.87548 28.6223 3.77594 28.2164 4.17717C27.7226 4.66512 27.4167 5.34266 27.4167 6.09168C27.4167 7.57824 28.6218 8.78334 30.1083 8.78334C30.2452 8.78334 30.3795 8.77314 30.5107 8.75348C31.0748 8.66893 31.8259 9.16077 31.5123 9.63706C30.7271 10.8296 29.3762 11.6167 27.8417 11.6167Z" fill="#FC9605"/>
<path d="M13.0665 28.1856C13.139 28.2782 13.8856 28.9 20.874 28.9C23.637 28.9 25.15 28.1742 25.15 26.2871C25.15 23.3238 22.8378 23.6347 20.7265 22.8033C19.2521 22.2226 18.0725 20.3356 17.6301 18.013C17.1878 15.6904 16.8929 12.7872 16.598 12.3517C16.3621 12.0033 14.9269 11.2873 14.2388 11.3356C8.93282 11.3356 10.0259 22.0241 12.2915 25.2284C12.3122 25.2577 12.3265 25.2889 12.3354 25.3237L13.0557 28.1603C13.0581 28.1696 13.0607 28.1781 13.0665 28.1856Z" fill="#9DCC6B"/>
<path d="M10.1333 27.7667C10.1333 28.3926 10.6408 28.9 11.2667 28.9C11.8926 28.9 12.4 28.3926 12.4 27.7667V24.7863C12.4 24.5834 12.252 24.4108 12.0515 24.3798L11.208 24.2494C10.6431 24.1621 10.1333 24.5991 10.1333 25.1708V27.7667Z" fill="#EEBF17"/>
<path d="M20.8549 28.9C13.8397 28.9 12.1977 28.2812 12.1241 28.1884C12.1208 28.1841 12.1185 28.1796 12.1167 28.1747V24.2715C15.4959 24.253 18.2339 23.9103 20.3664 22.6667C20.4779 22.7271 20.5915 22.78 20.7068 22.8251C21.2064 23.0203 21.7172 23.1522 22.2061 23.2786C23.7928 23.6886 25.15 24.0393 25.15 26.2965C25.15 28.1768 23.6302 28.9 20.8549 28.9Z" fill="#84B749"/>
<path d="M22.4696 23.9333C22.6574 23.9333 22.8096 23.7811 22.8096 23.5933C22.8096 22.8422 22.2007 22.2333 21.4496 22.2333H18.5596L19.2724 23.3025C19.5351 23.6966 19.9774 23.9333 20.4511 23.9333H22.4696Z" fill="#EFB33C"/>
<path d="M18.7509 18.7C19.3176 19.975 21.325 22.2333 21.325 22.2333H18.4179C17.6993 22.2333 15.2333 19.4083 14.8083 18.7C13.5094 16.5351 12.0967 11.4478 15.9176 12.4667C18.0667 13.0398 18.0426 16.7167 18.7509 18.7Z" fill="#84B749"/>
<path d="M12.0659 7.50115C11.6486 9.65153 13.0555 11.7226 15.2083 12.1271C17.3612 12.5316 19.4447 11.1162 19.8621 8.96581L20.1037 7.7207C20.521 5.57031 19.1141 3.49918 16.9612 3.09475C14.8084 2.69028 12.7249 4.10565 12.3075 6.25604L12.0659 7.50115Z" fill="#EEBF17"/>
<path d="M19.9786 8.36564C19.9786 8.36564 12.0543 6.87689 12.2038 6.905C12.5654 3.70192 14.8548 2.59979 17.0017 3.00313C19.1486 3.40648 20.9436 5.40299 19.9786 8.36564Z" fill="#84B749"/>
</svg>
