<svg width="35" height="34" viewBox="0 0 35 34" fill="none" xmlns="http://www.w3.org/2000/svg">
<path d="M28.6406 1.97293H8.61835C8.61828 1.97293 8.61815 1.97293 8.61801 1.97293H8.29614V26.6018H8.61835H11.5643H28.6406C28.8176 26.6018 28.9625 26.457 28.9625 26.2799V2.29487C28.9624 2.11783 28.8176 1.97293 28.6406 1.97293Z" fill="#5FAF46"/>
<path d="M8.29196 1.97272C7.04691 1.97272 6.03754 2.98216 6.03754 4.22781V28.8567H8.29615V6.48217V1.97272H8.29196Z" fill="#2F803E"/>
<path d="M28.4672 26.6019V31.1116H8.29209C7.04664 31.1116 6.0376 30.1019 6.0376 28.8571V28.8564C6.03826 27.6102 7.04664 26.6019 8.29209 26.6019H28.4672Z" fill="#FFF2BD"/>
<path d="M28.4673 28.3498V29.363H8.29616C8.01652 29.363 7.78961 29.1367 7.78961 28.8564C7.78961 28.5768 8.01652 28.3498 8.29616 28.3498H28.4673Z" fill="#58595B"/>
<path d="M24.1424 17.0155C24.1424 16.8298 24.2498 16.5703 24.3812 16.439L26.2942 14.5261C26.4254 14.3947 26.4254 14.1798 26.2942 14.0485L24.3812 12.1355C24.2498 12.0042 24.1424 11.7448 24.1424 11.5591V8.85393C24.1424 8.66819 23.9904 8.51626 23.8047 8.51626H21.0995C20.9138 8.51626 20.6544 8.40881 20.523 8.27746L18.61 6.36463C18.4787 6.23328 18.2638 6.23328 18.1325 6.36463L16.2195 8.27746C16.0882 8.40881 15.8287 8.51626 15.643 8.51626H12.9379C12.7521 8.51626 12.6002 8.66826 12.6002 8.85393V11.5591C12.6002 11.7448 12.4927 12.0042 12.3614 12.1355L10.4484 14.0485C10.3171 14.1798 10.3171 14.3947 10.4484 14.5261L12.3614 16.439C12.4927 16.5703 12.6002 16.8298 12.6002 17.0155V19.7207C12.6002 19.9065 12.7522 20.0584 12.9379 20.0584H15.643C15.8287 20.0584 16.0882 20.1658 16.2195 20.2972L18.1325 22.2102C18.2639 22.3415 18.4788 22.3415 18.61 22.2102L20.523 20.2972C20.6544 20.1658 20.9138 20.0584 21.0995 20.0584H23.8047C23.9904 20.0584 24.1424 19.9065 24.1424 19.7207V17.0155Z" fill="#FFF2BD"/>
<path d="M22.4906 16.8242C21.6555 17.9345 20.3265 18.6523 18.8302 18.6523C16.3016 18.6523 14.252 16.6026 14.252 14.0742C14.252 12.236 15.3349 10.6511 16.8974 9.92249C16.3212 10.6881 15.9796 11.6403 15.9796 12.6726C15.9796 15.2012 18.0294 17.2511 20.5579 17.2511C21.2486 17.2511 21.9035 17.098 22.4906 16.8242Z" fill="#FFCE06"/>
<path d="M19.8343 11.4139C19.9165 11.2473 20.0511 11.2473 20.1333 11.4139L20.4122 11.9794C20.4945 12.146 20.7121 12.3041 20.8959 12.3308L21.52 12.4215C21.7039 12.4482 21.7454 12.5762 21.6125 12.7058L21.1608 13.146C21.0279 13.2756 20.9448 13.5316 20.9762 13.7147L21.0827 14.3363C21.1142 14.5193 21.0054 14.5984 20.841 14.512L20.2826 14.2185C20.1181 14.1321 19.8492 14.1321 19.6848 14.2185L19.1265 14.512C18.962 14.5984 18.8534 14.5193 18.8847 14.3363L18.9913 13.7147C19.0227 13.5316 18.9396 13.2757 18.8065 13.1461L18.3548 12.7058C18.2219 12.5762 18.2634 12.4482 18.4472 12.4215L19.0714 12.3308C19.2552 12.3041 19.4729 12.146 19.5551 11.9794L19.8343 11.4139Z" fill="#FFCE06"/>
<path d="M19.8343 11.4139C19.9165 11.2473 20.0511 11.2473 20.1333 11.4139L20.4122 11.9794C20.4945 12.146 20.7121 12.3041 20.8959 12.3308L21.52 12.4215C21.7039 12.4482 21.7454 12.5762 21.6125 12.7058L21.1608 13.146C21.0279 13.2756 20.9448 13.5316 20.9762 13.7147L21.0827 14.3363C21.1142 14.5193 21.0054 14.5984 20.841 14.512L20.2826 14.2185C20.1181 14.1321 19.8492 14.1321 19.6848 14.2185L19.1265 14.512C18.962 14.5984 18.8534 14.5193 18.8847 14.3363L18.9913 13.7147C19.0227 13.5316 18.9396 13.2757 18.8065 13.1461L18.3548 12.7058C18.2219 12.5762 18.2634 12.4482 18.4472 12.4215L19.0714 12.3308C19.2552 12.3041 19.4729 12.146 19.5551 11.9794L19.8343 11.4139Z" fill="#FFCE06"/>
<path d="M26.1945 28.3498V31.8079C26.1945 31.9937 26.0581 32.0781 25.8919 31.9957L24.845 31.4777C24.6782 31.3952 24.4061 31.3952 24.2392 31.4777L23.1923 31.9957C23.0262 32.0781 22.8897 31.9937 22.8897 31.8079V28.3498H26.1945Z" fill="#CB2027"/>
<path d="M26.1945 28.3498V31.8079C26.1945 31.9937 26.0581 32.0781 25.8919 31.9957L24.845 31.4777C24.6782 31.3952 24.4061 31.3952 24.2392 31.4777L23.1923 31.9957C23.0262 32.0781 22.8897 31.9937 22.8897 31.8079V28.3498H26.1945Z" fill="#CB2027"/>
</svg>
