<svg width="34" height="34" viewBox="0 0 34 34" fill="none" xmlns="http://www.w3.org/2000/svg">
<path d="M16 2.0542L19.7288 7.85465C19.832 8.01516 19.8901 8.20049 19.8969 8.39117C19.9037 8.58186 19.8591 8.77087 19.7676 8.93834C19.6762 9.10582 19.5414 9.24558 19.3773 9.34295C19.2132 9.44032 19.0259 9.4917 18.8351 9.4917H13.875L11.2187 5.77295L16 2.0542Z" fill="#EFB33C"/>
<path d="M15.9999 2.0542C15.9999 2.0542 14.9374 0.991699 12.2811 0.991699C8.56238 0.991699 11.2186 5.77295 11.2186 5.77295" fill="#84B749"/>
<path d="M13.8749 9.49181C13.8749 9.49181 10.6874 8.96056 10.1561 12.6793L11.2186 21.7106C11.2186 21.7106 8.56238 23.3043 10.6874 26.4918H9.09363V30.7418H26.6249V29.0714C26.6249 28.6105 26.5031 28.1578 26.2717 27.7592C26.0404 27.3606 25.7078 27.0302 25.3077 26.8016L19.1874 23.3043V17.4606L22.9061 20.6481H25.0311L26.0936 12.1481H22.9061L22.3749 15.3356L15.9999 9.49181H13.8749Z" fill="#9DCC6B"/>
<path fill-rule="evenodd" clip-rule="evenodd" d="M0.597069 31.875C0.597069 31.2491 1.16671 30.7417 1.8693 30.7417H31.1307C31.8333 30.7417 32.4029 31.2491 32.4029 31.875C32.4029 32.5009 31.8333 33.0084 31.1307 33.0084H1.8693C1.16671 33.0084 0.597069 32.5009 0.597069 31.875Z" fill="#84B749"/>
<path d="M25.5624 12.1479V8.38491C25.5624 8.11486 25.4551 7.85588 25.2642 7.66493C25.0732 7.47397 24.8142 7.3667 24.5442 7.3667H24.4556C24.1855 7.3667 23.9266 7.47397 23.7356 7.66493C23.5447 7.85588 23.4374 8.11486 23.4374 8.38491V10.0229L22.3749 9.4917L21.8436 10.5542L23.4374 12.1479H25.5624Z" fill="#EFB33C"/>
<path d="M25.5624 12.1479H27.1561L27.6874 8.38491C27.6874 8.11486 27.5801 7.85588 27.3892 7.66493C27.1982 7.47397 26.9392 7.3667 26.6692 7.3667H26.5806C26.3105 7.3667 26.0516 7.47397 25.8606 7.66493C25.6697 7.85588 25.5624 8.11486 25.5624 8.38491" fill="#D68C16"/>
<path d="M9.09363 28.0855C9.09363 28.0855 8.03113 27.023 6.96863 28.0855C5.90613 29.148 4.31238 29.6793 4.31238 29.6793V30.7418H9.09363V28.0855Z" fill="#EFB33C"/>
<path d="M15.9999 14.2729L19.1874 17.4604V19.5854L15.9999 14.2729Z" fill="#84B749"/>
<path d="M25.5624 12.1479H27.6874L25.0311 20.6479L25.5624 12.1479Z" fill="#84B749"/>
<path d="M16.7631 7.89795C18.2849 8.27839 18.9893 7.56911 19.2667 7.13574L19.7288 7.85465C19.832 8.01516 19.8901 8.2005 19.8969 8.39119C19.9037 8.58188 19.8591 8.77089 19.7676 8.93837C19.6762 9.10585 19.5413 9.24561 19.3772 9.34297C19.2131 9.44034 19.0258 9.49171 18.835 9.4917H13.8749L11.9776 6.83545H14.1069C14.1069 6.83545 14.6381 7.3667 16.7631 7.89795Z" fill="#603E26"/>
<path d="M12.2811 14.8043L13.3436 21.7105C13.3436 21.7105 10.6874 22.773 11.7499 24.3668C12.8124 25.9605 17.5936 26.4918 17.5936 26.4918H10.6874C8.56238 23.3043 11.2186 21.7105 11.2186 21.7105L10.1561 12.6793C10.589 9.6494 12.7848 9.44082 13.5837 9.46752L13.8749 9.49175C13.8749 9.49175 11.7499 11.0855 12.2811 14.8043Z" fill="#84B749"/>
</svg>
