<svg width="35" height="34" viewBox="0 0 35 34" fill="none" xmlns="http://www.w3.org/2000/svg">
<path d="M16.9695 9.03081V10.623H18.0323V9.03081H16.9695Z" fill="#FFBC42"/>
<path d="M17.0445 10.3524C15.9067 12.2487 13.2083 13.4896 10.6913 15.0662C9.43273 15.8546 8.21965 16.7415 7.31077 17.902C6.4019 19.0625 5.81247 20.5107 5.81247 22.3139C5.81247 24.9607 6.65236 26.8085 7.50687 27.9802C7.90741 28.5294 8.31219 28.9246 8.63683 29.2025H26.3631C26.6868 28.9246 27.0905 28.5294 27.491 27.9802C28.3455 26.8085 29.1895 24.9607 29.1895 22.3139C29.1895 20.5107 28.596 19.0625 27.6871 17.902C26.7782 16.7415 25.5693 15.8546 24.3108 15.0662C21.7937 13.4896 19.0911 12.2487 17.9534 10.3524C17.7471 9.99512 17.2664 9.96812 17.0445 10.3524Z" fill="#FFBC42"/>
<path d="M7.40466 28.686C6.53091 28.686 5.81247 29.4084 5.81247 30.2822V32.4038C5.81221 32.4736 5.82569 32.5427 5.85215 32.6073C5.87862 32.6719 5.91754 32.7306 5.9667 32.7801C6.01587 32.8296 6.0743 32.8689 6.13868 32.8959C6.20305 32.9228 6.27211 32.9368 6.34189 32.9371H28.656C28.7261 32.9373 28.7955 32.9238 28.8604 32.8971C28.9252 32.8703 28.9841 32.8311 29.0337 32.7815C29.0833 32.7319 29.1225 32.673 29.1493 32.6082C29.176 32.5434 29.1896 32.4739 29.1893 32.4038V30.2822C29.1893 29.4084 28.4669 28.686 27.5932 28.686H7.40466Z" fill="#A56A43"/>
<path d="M16.9625 1.20285C15.1057 1.68049 13.7833 3.3786 13.7812 5.31278C13.7812 7.6537 15.6914 9.55966 18.0323 9.55966C19.9534 9.55765 21.6296 8.26302 22.1266 6.41678C22.3944 5.89722 21.7491 5.38913 21.3069 5.77137C20.8328 6.15997 20.238 6.37568 19.625 6.37634C18.1517 6.37634 16.9698 5.19028 16.9698 3.71698C16.9537 3.08577 17.2231 2.48594 17.5695 2.03816C17.9138 1.59301 17.4888 1.06748 16.9625 1.20285Z" fill="#FFBC42"/>
</svg>
