<svg width="35" height="34" viewBox="0 0 35 34" fill="none" xmlns="http://www.w3.org/2000/svg">
<path d="M32.9062 9.77499V18.0784C32.9062 18.2933 32.8413 18.5031 32.7199 18.6803C32.5986 18.8576 32.4265 18.9941 32.2262 19.0719C28.9831 20.3324 20.8331 23.5022 17.5 24.7987C14.1401 23.4913 6.03895 20.3412 2.77375 19.0719C2.57337 18.9943 2.40117 18.8578 2.2798 18.6805C2.15842 18.5032 2.09357 18.2933 2.09375 18.0784V9.77499C2.09458 9.49346 2.20679 9.22369 2.40586 9.02461C2.60494 8.82553 2.87471 8.71332 3.15625 8.71249H5.8125L17.5 11.1934L29.1875 8.71249H31.8438C32.1253 8.71332 32.3951 8.82553 32.5941 9.02461C32.7932 9.22369 32.9054 9.49346 32.9062 9.77499Z" fill="#805333"/>
<path d="M28.4331 29.0487L17.5 24.7987C18.5776 24.3747 26.0119 21.49 27.02 21.0959L29.7984 27.6462C29.8798 27.8387 29.9025 28.0508 29.8639 28.2561C29.8252 28.4615 29.7269 28.6508 29.5812 28.8005C29.4354 28.9502 29.2488 29.0536 29.0446 29.0978C28.8404 29.1419 28.6277 29.1249 28.4331 29.0487Z" fill="#7C8C8E"/>
<path d="M17.5 24.7987L6.56688 29.0487C6.39552 29.1157 6.20967 29.1371 6.02758 29.1106C5.8455 29.0841 5.67342 29.0108 5.52823 28.8977C5.38304 28.7847 5.26974 28.6358 5.19943 28.4658C5.12913 28.2958 5.10423 28.1104 5.12719 27.9278C5.14012 27.8312 5.1651 27.7366 5.20157 27.6462L7.98001 21.0959C9.57591 21.7169 16.0362 24.2321 17.5 24.7987Z" fill="#7C8C8E"/>
<path d="M28.4331 29.0488L17.5 24.7988C18.5776 24.3748 26.0119 21.49 27.02 21.0959L29.7984 27.6463C29.8798 27.8387 29.9025 28.0509 29.8639 28.2562C29.8252 28.4615 29.7269 28.6508 29.5812 28.8005C29.4354 28.9502 29.2488 29.0536 29.0446 29.0978C28.8404 29.1419 28.6277 29.1249 28.4331 29.0488Z" fill="#F29C1F"/>
<path d="M17.5 24.7988L6.56688 29.0488C6.39552 29.1158 6.20967 29.1371 6.02758 29.1106C5.8455 29.0842 5.67342 29.0108 5.52823 28.8978C5.38304 28.7847 5.26974 28.6359 5.19943 28.4658C5.12913 28.2958 5.10423 28.1104 5.12719 27.9278C5.14012 27.8312 5.1651 27.7366 5.20157 27.6463L7.98001 21.0959C9.57591 21.7169 16.0362 24.2321 17.5 24.7988Z" fill="#F29C1F"/>
<path d="M29.4584 18.0413L17.5 22.525V9.77501L27.2697 6.05626C27.4227 5.97761 27.5923 5.93668 27.7644 5.93689C27.9364 5.9371 28.1059 5.97843 28.2588 6.05745C28.4116 6.13646 28.5433 6.25087 28.643 6.39113C28.7426 6.53138 28.8073 6.69343 28.8316 6.86376L30.1384 16.9097C30.1698 17.1474 30.1196 17.3887 29.9961 17.5943C29.8726 17.7998 29.6831 17.9574 29.4584 18.0413Z" fill="#A56A43"/>
<path d="M17.5 9.775V22.525L5.54157 18.0412C5.38455 17.9835 5.24345 17.8894 5.12986 17.7666C5.01627 17.6437 4.93343 17.4957 4.88813 17.3347C4.85256 17.196 4.84354 17.0518 4.86157 16.9097L6.16845 6.86375C6.18962 6.70452 6.24652 6.55215 6.3349 6.41803C6.42328 6.28391 6.54085 6.17151 6.67881 6.08924C6.81677 6.00698 6.97154 5.95698 7.13156 5.94298C7.29157 5.92899 7.45268 5.95137 7.60282 6.00844C8.74235 6.43813 16.5701 9.42559 17.5 9.775Z" fill="#A56A43"/>
<path d="M29.4584 16.9788L17.5 21.4625V8.71251L27.2697 4.99376C27.4227 4.91511 27.5923 4.87418 27.7644 4.87439C27.9364 4.8746 28.1059 4.91593 28.2588 4.99495C28.4116 5.07396 28.5433 5.18837 28.643 5.32863C28.7426 5.46888 28.8073 5.63093 28.8316 5.80126L30.1384 15.8472C30.1698 16.0849 30.1196 16.3262 29.9961 16.5318C29.8726 16.7373 29.6831 16.8949 29.4584 16.9788Z" fill="#9DCC6B"/>
<path d="M17.5 8.7125V21.4625L16.9688 21.2659L5.54157 16.9787C5.38455 16.921 5.24345 16.8269 5.12986 16.7041C5.01627 16.5812 4.93343 16.4332 4.88813 16.2722C4.85256 16.1335 4.84354 15.9893 4.86157 15.8472L6.16845 5.80125C6.18962 5.64202 6.24652 5.48965 6.3349 5.35553C6.42328 5.22141 6.54085 5.10901 6.67881 5.02674C6.81677 4.94448 6.97154 4.89448 7.13156 4.88048C7.29157 4.86649 7.45268 4.88887 7.60282 4.94594C8.84709 5.42218 15.3264 7.88487 17.5 8.7125Z" fill="#9DCC6B"/>
<path opacity="0.1" d="M17.5 8.71249V21.4625L16.9688 21.2659V8.51062C17.2131 8.60625 17.3991 8.67531 17.5 8.71249Z" fill="black"/>
</svg>
