<svg width="35" height="34" viewBox="0 0 35 34" fill="none" xmlns="http://www.w3.org/2000/svg">
<path fill-rule="evenodd" clip-rule="evenodd" d="M6.6333 8.25569C6.6333 7.69278 6.85688 7.15289 7.25495 6.75492C7.65292 6.35685 8.19281 6.13327 8.75572 6.13327H26.2019C26.7648 6.13327 27.3046 6.35685 27.7027 6.75492C28.1007 7.15289 28.3243 7.69278 28.3243 8.25569V25.7019C28.3243 26.2648 28.1007 26.8046 27.7027 27.2027C27.3046 27.6006 26.7648 27.8242 26.2019 27.8242C22.0518 27.8242 12.9057 27.8242 8.75572 27.8242C8.19281 27.8242 7.65292 27.6006 7.25495 27.2027C6.85688 26.8046 6.6333 26.2648 6.6333 25.7019V8.25569Z" fill="#FCD354"/>
<path fill-rule="evenodd" clip-rule="evenodd" d="M15.978 3.14165C16.3761 2.74368 16.9159 2.52 17.4788 2.52C18.0417 2.52 18.5815 2.74368 18.9795 3.14165C21.9141 6.07625 28.3813 12.5435 31.3159 15.478C31.7139 15.8761 31.9375 16.4159 31.9375 16.9788C31.9375 17.5417 31.7139 18.0815 31.3159 18.4795C28.3813 21.4141 21.9141 27.8813 18.9795 30.8158C18.5815 31.2139 18.0417 31.4375 17.4788 31.4375C16.9159 31.4375 16.3761 31.2139 15.978 30.8158C13.0435 27.8813 6.57627 21.4141 3.64167 18.4795C3.24369 18.0815 3.02002 17.5417 3.02002 16.9788C3.02002 16.4159 3.24369 15.8761 3.64167 15.478C6.57627 12.5435 13.0435 6.07625 15.978 3.14165Z" fill="#9DCC6B"/>
<path fill-rule="evenodd" clip-rule="evenodd" d="M15.864 13.2803V19.8774C15.864 20.4496 16.0913 20.9982 16.4959 21.4029C16.9005 21.8075 17.4492 22.0348 18.0214 22.0348H18.0227C18.5949 22.0348 19.1437 21.8075 19.5482 21.4029C19.9528 20.9982 20.1801 20.4496 20.1801 19.8774C20.1801 17.5393 20.1801 13.2803 20.1801 13.2803C20.1801 12.9143 19.8829 12.6171 19.5169 12.6171C19.1508 12.6171 18.8536 12.9143 18.8536 13.2803V19.8774C18.8536 20.0977 18.7661 20.3091 18.6103 20.4649C18.4544 20.6207 18.2432 20.7083 18.0227 20.7083C18.0223 20.7083 18.0219 20.7083 18.0214 20.7083C17.8011 20.7083 17.5897 20.6207 17.4338 20.4649C17.2781 20.3091 17.1905 20.0977 17.1905 19.8774V13.2803C17.1905 12.9143 16.8934 12.6171 16.5273 12.6171C16.1612 12.6171 15.864 12.9143 15.864 13.2803Z" fill="white"/>
<path fill-rule="evenodd" clip-rule="evenodd" d="M22.6596 21.3715V13.2803C22.6596 12.9143 22.3624 12.6171 21.9963 12.6171C21.6302 12.6171 21.3331 12.9143 21.3331 13.2803V21.3715C21.3331 21.7375 21.6302 22.0348 21.9963 22.0348C22.3624 22.0348 22.6596 21.7375 22.6596 21.3715Z" fill="white"/>
<path fill-rule="evenodd" clip-rule="evenodd" d="M12.9403 20.4063C13.0348 20.7803 13.2289 21.1255 13.5064 21.4029C13.9109 21.8075 14.4596 22.0348 15.0318 22.0348H15.0331C15.6053 22.0348 16.1541 21.8075 16.5586 21.4029C16.9632 20.9982 17.1905 20.4496 17.1905 19.8774C17.1905 17.5393 17.1905 13.2803 17.1905 13.2803C17.1905 12.9143 16.8934 12.6171 16.5273 12.6171C16.1612 12.6171 15.864 12.9143 15.864 13.2803V19.8774C15.864 20.0977 15.7765 20.3091 15.6207 20.4649C15.4649 20.6207 15.2535 20.7083 15.0331 20.7083C15.0327 20.7083 15.0323 20.7083 15.0318 20.7083C14.8114 20.7083 14.6001 20.6207 14.4442 20.4649C14.2885 20.3091 14.2009 20.0977 14.2009 19.8774V15.9333C14.2009 15.7045 14.083 15.4919 13.889 15.3707C13.6949 15.2495 13.4521 15.237 13.2465 15.3373C13.2465 15.3373 12.1254 15.8851 11.0429 16.414C10.4469 16.7053 10.0708 17.3125 10.0756 17.9758C10.0804 18.6392 10.4652 19.2409 11.0653 19.5234L12.9403 20.4063ZM12.8744 18.9092V16.9955L11.6253 17.6058C11.4878 17.673 11.4009 17.8131 11.402 17.9662C11.4031 18.1193 11.492 18.2582 11.6304 18.3234L12.8744 18.9092Z" fill="white"/>
</svg>
