<svg width="34" height="34" viewBox="0 0 34 34" fill="none" xmlns="http://www.w3.org/2000/svg">
<path d="M23.9062 8.5H10.0938C9.80035 8.5 9.5625 8.73785 9.5625 9.03125V24.9688C9.5625 25.2622 9.80035 25.5 10.0938 25.5H23.9062C24.1997 25.5 24.4375 25.2622 24.4375 24.9688V9.03125C24.4375 8.73785 24.1997 8.5 23.9062 8.5Z" fill="#33C07B"/>
<path d="M10.0938 7.4375H23.9062C24.0471 7.4375 24.1823 7.38153 24.2819 7.2819C24.3815 7.18227 24.4375 7.04715 24.4375 6.90625C24.4375 4.50234 22.0957 3.44941 20.2141 2.60313C18.8344 1.98316 17.5312 1.39772 17.5312 0.53125C17.5312 0.390354 17.4753 0.255228 17.3757 0.1556C17.276 0.0559708 17.1409 0 17 0C16.8591 0 16.724 0.0559708 16.6243 0.1556C16.5247 0.255228 16.4688 0.390354 16.4688 0.53125C16.4688 1.39719 15.1672 1.98103 13.7897 2.59888C11.9064 3.44303 9.5625 4.49438 9.5625 6.90625C9.5625 7.04715 9.61847 7.18227 9.7181 7.2819C9.81773 7.38153 9.95285 7.4375 10.0938 7.4375Z" fill="#33C07B"/>
<path d="M23.9062 26.5625H10.0938C9.95285 26.5625 9.81773 26.6185 9.7181 26.7181C9.61847 26.8177 9.5625 26.9529 9.5625 27.0938C9.5625 29.5056 11.9064 30.557 13.7897 31.4011C15.1672 32.019 16.4688 32.6028 16.4688 33.4688C16.4688 33.6096 16.5247 33.7448 16.6243 33.8444C16.724 33.944 16.8591 34 17 34C17.1409 34 17.276 33.944 17.3757 33.8444C17.4753 33.7448 17.5312 33.6096 17.5312 33.4688C17.5312 32.6023 18.8344 32.0168 20.2141 31.3969C22.0957 30.5506 24.4375 29.4977 24.4375 27.0938C24.4375 26.9529 24.3815 26.8177 24.2819 26.7181C24.1823 26.6185 24.0471 26.5625 23.9062 26.5625Z" fill="#33C07B"/>
<path d="M19.6563 13.8125V24.9688C19.6563 25.1096 19.6003 25.2448 19.5007 25.3444C19.401 25.444 19.2659 25.5 19.125 25.5H14.875C14.7341 25.5 14.599 25.444 14.4994 25.3444C14.3997 25.2448 14.3438 25.1096 14.3438 24.9688V13.8125C14.3433 13.7142 14.3705 13.6178 14.4221 13.5342C14.4738 13.4507 14.5479 13.3832 14.6359 13.3397C15.1459 13.0794 16.4688 12.1869 16.4688 11.1562C16.4688 11.0154 16.5247 10.8802 16.6244 10.7806C16.724 10.681 16.8591 10.625 17 10.625C17.1409 10.625 17.276 10.681 17.3757 10.7806C17.4753 10.8802 17.5313 11.0154 17.5313 11.1562C17.5313 12.3887 19.3428 13.3291 19.3641 13.3397C19.4526 13.3827 19.5271 13.45 19.5788 13.5337C19.6305 13.6174 19.6574 13.7141 19.6563 13.8125Z" fill="#FCD354"/>
<path d="M12.2188 13.8125V24.9688C12.2188 25.1096 12.1628 25.2448 12.0632 25.3444C11.9635 25.444 11.8284 25.5 11.6875 25.5H10.0938C9.95285 25.5 9.81773 25.444 9.7181 25.3444C9.61847 25.2448 9.5625 25.1096 9.5625 24.9688V11.1562C9.5625 12.1656 11.2838 13.0794 11.8841 13.3184C11.9829 13.3578 12.0677 13.4259 12.1273 13.514C12.187 13.6021 12.2189 13.7061 12.2188 13.8125Z" fill="#FCD354"/>
<path d="M24.4375 11.1562V24.9688C24.4375 25.1096 24.3815 25.2448 24.2819 25.3444C24.1823 25.444 24.0471 25.5 23.9063 25.5H22.3125C22.1716 25.5 22.0365 25.444 21.9368 25.3444C21.8372 25.2448 21.7813 25.1096 21.7813 24.9688V13.8125C21.7811 13.7061 21.813 13.6021 21.8727 13.514C21.9323 13.4259 22.0171 13.3578 22.1159 13.3184C22.7163 13.0794 24.4375 12.1603 24.4375 11.1562Z" fill="#FCD354"/>
<path d="M24.9688 24.4375H9.03125C8.73785 24.4375 8.5 24.6753 8.5 24.9688V27.0938C8.5 27.3872 8.73785 27.625 9.03125 27.625H24.9688C25.2622 27.625 25.5 27.3872 25.5 27.0938V24.9688C25.5 24.6753 25.2622 24.4375 24.9688 24.4375Z" fill="#00A570"/>
<path d="M24.9688 6.375H9.03125C8.73785 6.375 8.5 6.61285 8.5 6.90625V9.03125C8.5 9.32465 8.73785 9.5625 9.03125 9.5625H24.9688C25.2622 9.5625 25.5 9.32465 25.5 9.03125V6.90625C25.5 6.61285 25.2622 6.375 24.9688 6.375Z" fill="#00A570"/>
</svg>
