<svg width="34" height="34" viewBox="0 0 34 34" fill="none" xmlns="http://www.w3.org/2000/svg">
<path d="M17 32.9375C25.802 32.9375 32.9375 25.802 32.9375 17C32.9375 8.19796 25.802 1.0625 17 1.0625C8.19796 1.0625 1.0625 8.19796 1.0625 17C1.0625 25.802 8.19796 32.9375 17 32.9375Z" fill="#EBBE28"/>
<path d="M17 30.8125C24.6284 30.8125 30.8125 24.6284 30.8125 17C30.8125 9.37157 24.6284 3.1875 17 3.1875C9.37157 3.1875 3.1875 9.37157 3.1875 17C3.1875 24.6284 9.37157 30.8125 17 30.8125Z" fill="#E8E4E0"/>
<path d="M18.0625 4.25C15.3946 4.24963 12.7837 5.022 10.5454 6.47375C8.30713 7.92551 6.53722 9.9945 5.44965 12.4306C4.36207 14.8668 4.00339 17.5658 4.41695 20.2014C4.83051 22.8371 5.9986 25.2965 7.78005 27.2824C10.4103 29.6405 13.8442 30.9011 17.3755 30.8048C20.9067 30.7086 24.2668 29.2628 26.7647 26.7649C29.2626 24.267 30.7084 20.9069 30.8046 17.3757C30.9009 13.8444 29.6403 10.4105 27.2822 7.78026C24.7515 5.50352 21.4666 4.24573 18.0625 4.25Z" fill="#F7F6F5"/>
<path d="M17 11.1562L25.5 14.5717V24.7982L17 28.1562V11.1562Z" fill="#3C3C3C"/>
<path d="M17 28.1562L8.5 24.7982V14.5717L17 11.1562V28.1562Z" fill="#4B4B4B"/>
<path d="M17 14.4766L25.5 16.9671V19.125L17 17.1328V14.4766Z" fill="#EBBE28"/>
<path d="M17 17.1328L8.5 19.125V16.9665L17 14.4766V17.1328Z" fill="#F0D246"/>
<path d="M19.6562 27.107L22.8438 25.848V21.25L19.6562 20.7188V27.107Z" fill="#EBBE28"/>
<path d="M17 4.25L14.3438 9.03125L17 7.4375L19.6562 9.03125L17 4.25Z" fill="#E65032"/>
<path d="M17 4.25V7.4375L19.6562 9.03125L17 4.25Z" fill="#D73E1E"/>
</svg>
