<svg width="46" height="45" viewBox="0 0 46 45" fill="none" xmlns="http://www.w3.org/2000/svg">
<path d="M40.6187 21.5062L36.0812 16.9687V10.575C36.0838 10.3896 36.0491 10.2056 35.9793 10.0339C35.9095 9.86213 35.8061 9.7061 35.675 9.57501C35.5439 9.44392 35.3878 9.34043 35.2161 9.27065C35.0443 9.20088 34.8603 9.16623 34.675 9.16875H28.375L23.7437 4.63125C23.4755 4.37671 23.1198 4.23482 22.75 4.23482C22.3802 4.23482 22.0245 4.37671 21.7562 4.63125L17.2187 9.16875H10.825C10.6396 9.16623 10.4556 9.20088 10.2839 9.27065C10.1121 9.34043 9.95608 9.44392 9.82499 9.57501C9.6939 9.7061 9.59042 9.86213 9.52064 10.0339C9.45086 10.2056 9.41621 10.3896 9.41873 10.575V16.9687L4.88123 21.5062C4.61789 21.7699 4.46997 22.1273 4.46997 22.5C4.46997 22.8727 4.61789 23.2301 4.88123 23.4937L9.41873 28.125V34.5187C9.41621 34.7041 9.45086 34.8881 9.52064 35.0599C9.59042 35.2316 9.6939 35.3876 9.82499 35.5187C9.95608 35.6498 10.1121 35.7533 10.2839 35.8231C10.4556 35.8929 10.6396 35.9275 10.825 35.925H17.2187L21.7562 40.4625C22.0199 40.7258 22.3773 40.8738 22.75 40.8738C23.1226 40.8738 23.4801 40.7258 23.7437 40.4625L28.375 35.8312H34.7687C34.9541 35.8338 35.1381 35.7991 35.3098 35.7293C35.4816 35.6596 35.6376 35.5561 35.7687 35.425C35.8998 35.2939 36.0033 35.1379 36.0731 34.9661C36.1429 34.7944 36.1775 34.6104 36.175 34.425V28.125L40.7125 23.5875C40.8518 23.4493 40.9606 23.2834 41.0319 23.1006C41.1032 22.9178 41.1355 22.7221 41.1267 22.5261C41.1179 22.3301 41.0681 22.1381 40.9806 21.9624C40.8931 21.7868 40.7699 21.6314 40.6187 21.5062Z" fill="#08A05E"/>
<path d="M29.3125 28.3125C29.0141 28.3125 28.728 28.194 28.517 27.983C28.306 27.772 28.1875 27.4859 28.1875 27.1875V19.6875C28.1875 19.3891 28.306 19.103 28.517 18.892C28.728 18.681 29.0141 18.5625 29.3125 18.5625C29.6109 18.5625 29.897 18.681 30.108 18.892C30.319 19.103 30.4375 19.3891 30.4375 19.6875V27.1875C30.4375 27.4859 30.319 27.772 30.108 27.983C29.897 28.194 29.6109 28.3125 29.3125 28.3125Z" fill="#FFD671"/>
<path d="M23.6875 28.3125C23.0056 28.3161 22.3433 28.0843 21.8125 27.6562C21.2817 28.0843 20.6194 28.3161 19.9375 28.3125C19.1419 28.3125 18.3788 27.9964 17.8162 27.4338C17.2536 26.8712 16.9375 26.1081 16.9375 25.3125V24.5625H14.3125C14.0141 24.5625 13.728 24.444 13.517 24.233C13.306 24.022 13.1875 23.7359 13.1875 23.4375V23.1375C13.1875 21.9241 13.6695 20.7605 14.5275 19.9025C15.3855 19.0445 16.5491 18.5625 17.7625 18.5625H18.0625C18.3609 18.5625 18.647 18.681 18.858 18.892C19.069 19.103 19.1875 19.3891 19.1875 19.6875V25.3125C19.1875 25.5114 19.2665 25.7022 19.4072 25.8428C19.5478 25.9835 19.7386 26.0625 19.9375 26.0625C20.1364 26.0625 20.3272 25.9835 20.4678 25.8428C20.6085 25.7022 20.6875 25.5114 20.6875 25.3125V19.6875C20.6875 19.3891 20.806 19.103 21.017 18.892C21.228 18.681 21.5141 18.5625 21.8125 18.5625C22.1109 18.5625 22.397 18.681 22.608 18.892C22.819 19.103 22.9375 19.3891 22.9375 19.6875V25.3125C22.9375 25.5114 23.0165 25.7022 23.1572 25.8428C23.2978 25.9835 23.4886 26.0625 23.6875 26.0625C23.8864 26.0625 24.0772 25.9835 24.2178 25.8428C24.3585 25.7022 24.4375 25.5114 24.4375 25.3125V19.6875C24.4375 19.3891 24.556 19.103 24.767 18.892C24.978 18.681 25.2641 18.5625 25.5625 18.5625C25.8609 18.5625 26.147 18.681 26.358 18.892C26.569 19.103 26.6875 19.3891 26.6875 19.6875V25.3125C26.6875 26.1081 26.3714 26.8712 25.8088 27.4338C25.2462 27.9964 24.4831 28.3125 23.6875 28.3125ZM15.5875 22.3125H16.9375V20.9625C16.6315 21.0822 16.3536 21.2639 16.1213 21.4963C15.8889 21.7286 15.7072 22.0065 15.5875 22.3125Z" fill="#FFD671"/>
<path d="M22.75 17.5313C22.4137 17.5327 22.0855 17.4277 21.8125 17.2312C21.5744 17.4044 21.293 17.5083 20.9995 17.5313C20.706 17.5543 20.4118 17.4955 20.1497 17.3615C19.8875 17.2275 19.6676 17.0236 19.5143 16.7722C19.361 16.5208 19.2804 16.2319 19.2813 15.9375V15C19.2813 14.826 19.3504 14.659 19.4735 14.536C19.5965 14.4129 19.7635 14.3438 19.9375 14.3438C20.1116 14.3438 20.2785 14.4129 20.4015 14.536C20.5246 14.659 20.5938 14.826 20.5938 15V15.9375C20.5938 16.2562 21.1563 16.2562 21.1563 15.9375V15C21.1563 14.826 21.2254 14.659 21.3485 14.536C21.4715 14.4129 21.6385 14.3438 21.8125 14.3438C21.9866 14.3438 22.1535 14.4129 22.2765 14.536C22.3996 14.659 22.4688 14.826 22.4688 15V15.9375C22.4688 16.2562 23.0313 16.2562 23.0313 15.9375V15C23.0313 14.826 23.1004 14.659 23.2235 14.536C23.3465 14.4129 23.5135 14.3438 23.6875 14.3438C23.8616 14.3438 24.0285 14.4129 24.1515 14.536C24.2746 14.659 24.3438 14.826 24.3438 15V15.9375C24.3438 16.3602 24.1758 16.7656 23.877 17.0645C23.5781 17.3633 23.1727 17.5313 22.75 17.5313Z" fill="#FFD671"/>
</svg>
