<svg width="69" height="59" viewBox="0 0 69 59" fill="none" xmlns="http://www.w3.org/2000/svg">
<path d="M52.3383 48.6093L46.2502 44.3062C45.857 44.0187 45.3826 43.8637 44.8955 43.8637C44.4084 43.8637 43.934 44.0187 43.5408 44.3062L36.9108 48.8643C36.3966 49.2198 36.0331 49.7538 35.8908 50.3625C35.875 50.5215 35.875 50.6816 35.8908 50.8406C35.8731 51.234 35.9614 51.6249 36.1465 51.9726C36.3315 52.3202 36.6065 52.6118 36.9427 52.8168L45.6764 58.8093C46.6141 59.4544 47.7258 59.7991 48.8639 59.7975C50.1637 59.7891 51.4274 59.3693 52.4737 58.5982C53.5201 57.8271 54.2954 56.7444 54.6883 55.5055C55.0812 54.2665 55.0716 52.9349 54.6609 51.7017C54.2502 50.4685 53.4594 49.3971 52.402 48.6412L52.3383 48.6093Z" fill="#0D7751"/>
<path d="M17.0849 23.6514C16.1527 23.0276 15.0724 22.6608 13.9531 22.588C12.8338 22.5153 11.7151 22.7391 10.7099 23.237C9.6608 23.7804 8.78333 24.6047 8.17545 25.6178C7.56757 26.6309 7.2532 27.7931 7.26743 28.9745C7.2718 30.0265 7.52889 31.0621 8.01703 31.994C8.50518 32.9259 9.2101 33.7269 10.0724 34.3295L30.2812 48.227C30.6733 48.5013 31.1414 48.6462 31.6199 48.6414C32.154 48.6524 32.6742 48.4714 33.0862 48.1314L39.4612 43.5095C39.7742 43.2905 40.0301 42.9996 40.2076 42.6613C40.3851 42.323 40.4789 41.9471 40.4812 41.5651C40.6406 40.322 40.6406 40.322 17.0849 23.6514Z" fill="#0D7751"/>
<path d="M65.8853 23.2367C64.8774 22.7435 63.7572 22.525 62.6379 22.6034C61.5185 22.6817 60.4397 23.0541 59.5103 23.683L24.1609 48.6411C23.0847 49.378 22.2783 50.4459 21.8641 51.6828C21.4499 52.9196 21.4505 54.2578 21.8659 55.4942C22.2498 56.7387 23.0245 57.8263 24.0752 58.5958C25.126 59.3652 26.3968 59.7754 27.6991 59.7655C28.8372 59.7671 29.9489 59.4225 30.8866 58.7774L66.5866 34.2974C67.5295 33.6824 68.2927 32.8288 68.7988 31.8233C69.3048 30.8177 69.5355 29.6961 69.4675 28.5724C69.3995 27.4488 69.0352 26.3632 68.4116 25.426C67.788 24.4888 66.9274 23.7335 65.9172 23.2367H65.8853Z" fill="#0D7751"/>
<path d="M63.0166 23.6832L57.9166 18.4238C56.9506 17.4225 55.6418 16.8234 54.2526 16.7465C52.8634 16.6697 51.4965 17.1208 50.4259 18.0094L38.2497 28.0501L26.0734 18.0094C25.0029 17.1208 23.636 16.6697 22.2468 16.7465C20.8576 16.8234 19.5488 17.4225 18.5828 18.4238L13.4828 23.6832C13.1902 23.9671 12.9751 24.3212 12.858 24.7118C12.7408 25.1023 12.7255 25.5163 12.8134 25.9144C12.8982 26.3017 13.0846 26.6594 13.3536 26.9508C13.6225 27.2421 13.9641 27.4565 14.3434 27.5719L36.8791 43.5094C37.2772 43.7996 37.7571 43.9559 38.2497 43.9559C38.7423 43.9559 39.2222 43.7996 39.6203 43.5094L61.9328 27.5719C62.3223 27.4539 62.6746 27.237 62.9555 26.9425C63.2364 26.6479 63.4363 26.2857 63.5357 25.8911C63.6352 25.4964 63.6308 25.0828 63.5231 24.6903C63.4154 24.2978 63.2079 23.9399 62.9209 23.6513L63.0166 23.6832Z" fill="#FFD671"/>
</svg>
