<svg width="46" height="45" viewBox="0 0 46 45" fill="none" xmlns="http://www.w3.org/2000/svg">
<path d="M23.7054 6.07928C20.1047 6.07928 16.5849 7.14701 13.591 9.14744C10.5972 11.1479 8.26373 13.9912 6.88581 17.3177C5.50789 20.6443 5.14736 24.3048 5.84982 27.8363C6.55228 31.3678 8.28617 34.6117 10.8322 37.1577C13.3783 39.7038 16.6222 41.4377 20.1537 42.1402C23.6852 42.8426 27.3456 42.4821 30.6722 41.1042C33.9988 39.7262 36.8421 37.3928 38.8425 34.399C40.843 31.4051 41.9107 27.8853 41.9107 24.2846C41.9052 19.458 39.9854 14.8306 36.5724 11.4176C33.1594 8.00462 28.532 6.08479 23.7054 6.07928ZM25.2658 39.3691V36.7683C25.2658 36.3544 25.1014 35.9575 24.8088 35.6649C24.5161 35.3722 24.1192 35.2078 23.7054 35.2078C23.2915 35.2078 22.8946 35.3722 22.6019 35.6649C22.3093 35.9575 22.1449 36.3544 22.1449 36.7683V39.2858C18.704 38.9236 15.4918 37.3911 13.0454 34.9446C10.5989 32.4981 9.06639 29.2859 8.70415 25.8451H11.2217C11.6355 25.8451 12.0325 25.6807 12.3251 25.388C12.6177 25.0954 12.7821 24.6985 12.7821 24.2846C12.7821 23.8708 12.6177 23.4739 12.3251 23.1812C12.0325 22.8886 11.6355 22.7242 11.2217 22.7242H8.70415C9.09508 19.0181 10.8441 15.5878 13.614 13.0947C16.3839 10.6016 19.9787 9.2221 23.7054 9.2221C27.432 9.2221 31.0268 10.6016 33.7967 13.0947C36.5666 15.5878 38.3156 19.0181 38.7066 22.7242H36.189C35.7752 22.7242 35.3782 22.8886 35.0856 23.1812C34.793 23.4739 34.6286 23.8708 34.6286 24.2846C34.6286 24.6985 34.793 25.0954 35.0856 25.388C35.3782 25.6807 35.7752 25.8451 36.189 25.8451H38.7066C38.3443 29.2859 36.8118 32.4981 34.3654 34.9446C31.9189 37.3911 28.7067 38.9236 25.2658 39.2858V39.3691Z" fill="#08A05E"/>
<path d="M29.9472 16.4823H17.4635C16.6017 16.4823 15.9031 17.1809 15.9031 18.0427V30.5264C15.9031 31.3882 16.6017 32.0869 17.4635 32.0869H29.9472C30.809 32.0869 31.5077 31.3882 31.5077 30.5264V18.0427C31.5077 17.1809 30.809 16.4823 29.9472 16.4823Z" fill="#038859"/>
<path d="M27.8666 13.3614C27.6614 13.3636 27.4579 13.3241 27.2683 13.2454C27.0788 13.1668 26.9072 13.0505 26.7638 12.9037L23.7053 9.84518L20.6468 12.9037C20.3794 13.1794 20.0208 13.3483 19.6379 13.379C19.255 13.4096 18.8741 13.2998 18.5662 13.0701C18.2649 12.8559 18.0508 12.5404 17.9629 12.1813C17.8751 11.8222 17.9194 11.4435 18.0877 11.1144L22.2489 2.7919C22.3928 2.5505 22.5969 2.3506 22.8413 2.21177C23.0856 2.07295 23.3619 1.99997 23.6429 1.99997C23.924 1.99997 24.2002 2.07295 24.4445 2.21177C24.6889 2.3506 24.893 2.5505 25.0369 2.7919L29.1981 11.1144C29.3665 11.4435 29.4107 11.8222 29.3229 12.1813C29.235 12.5404 29.0209 12.8559 28.7196 13.0701C28.468 13.2448 28.1725 13.3457 27.8666 13.3614Z" fill="#EF5350"/>
<path d="M15.9031 21.9959H31.5077V24.4926H15.9031V21.9959Z" fill="#FFD671"/>
<path d="M25.2658 27.9256V32.0868H22.1449V27.9256C22.1449 27.5117 22.3093 27.1148 22.6019 26.8222C22.8946 26.5295 23.2915 26.3651 23.7054 26.3651C24.1192 26.3651 24.5161 26.5295 24.8088 26.8222C25.1014 27.1148 25.2658 27.5117 25.2658 27.9256Z" fill="#FFD671"/>
</svg>
