<svg width="46" height="45" viewBox="0 0 46 45" fill="none" xmlns="http://www.w3.org/2000/svg">
<path d="M40.125 40.7812H36.375C36.002 40.7812 35.6444 40.6331 35.3806 40.3694C35.1169 40.1056 34.9688 39.748 34.9688 39.375C34.9688 39.002 35.1169 38.6444 35.3806 38.3806C35.6444 38.1169 36.002 37.9688 36.375 37.9688H40.125C40.498 37.9688 40.8556 38.1169 41.1194 38.3806C41.3831 38.6444 41.5313 39.002 41.5313 39.375C41.5313 39.748 41.3831 40.1056 41.1194 40.3694C40.8556 40.6331 40.498 40.7812 40.125 40.7812Z" fill="#038859"/>
<path d="M40.125 33.2812H36.375C36.002 33.2812 35.6444 33.1331 35.3806 32.8694C35.1169 32.6056 34.9688 32.248 34.9688 31.875C34.9688 31.502 35.1169 31.1444 35.3806 30.8806C35.6444 30.6169 36.002 30.4688 36.375 30.4688H40.125C40.498 30.4688 40.8556 30.6169 41.1194 30.8806C41.3831 31.1444 41.5313 31.502 41.5313 31.875C41.5313 32.248 41.3831 32.6056 41.1194 32.8694C40.8556 33.1331 40.498 33.2812 40.125 33.2812Z" fill="#038859"/>
<path d="M40.125 25.7812H36.375C36.002 25.7812 35.6444 25.6331 35.3806 25.3694C35.1169 25.1056 34.9688 24.748 34.9688 24.375C34.9688 24.002 35.1169 23.6444 35.3806 23.3806C35.6444 23.1169 36.002 22.9688 36.375 22.9688H40.125C40.498 22.9688 40.8556 23.1169 41.1194 23.3806C41.3831 23.6444 41.5313 24.002 41.5313 24.375C41.5313 24.748 41.3831 25.1056 41.1194 25.3694C40.8556 25.6331 40.498 25.7812 40.125 25.7812Z" fill="#038859"/>
<path d="M40.125 10.7812H36.375C36.002 10.7812 35.6444 10.6331 35.3806 10.3694C35.1169 10.1056 34.9688 9.74796 34.9688 9.375C34.9688 9.00204 35.1169 8.64435 35.3806 8.38063C35.6444 8.11691 36.002 7.96875 36.375 7.96875H40.125C40.498 7.96875 40.8556 8.11691 41.1194 8.38063C41.3831 8.64435 41.5313 9.00204 41.5313 9.375C41.5313 9.74796 41.3831 10.1056 41.1194 10.3694C40.8556 10.6331 40.498 10.7812 40.125 10.7812Z" fill="#424242"/>
<path d="M40.125 18.2812H36.375C36.002 18.2812 35.6444 18.1331 35.3806 17.8694C35.1169 17.6056 34.9688 17.248 34.9688 16.875C34.9688 16.502 35.1169 16.1444 35.3806 15.8806C35.6444 15.6169 36.002 15.4688 36.375 15.4688H40.125C40.498 15.4688 40.8556 15.6169 41.1194 15.8806C41.3831 16.1444 41.5313 16.502 41.5313 16.875C41.5313 17.248 41.3831 17.6056 41.1194 17.8694C40.8556 18.1331 40.498 18.2812 40.125 18.2812Z" fill="#038859"/>
<path d="M40.125 10.7812H36.375C36.002 10.7812 35.6444 10.6331 35.3806 10.3694C35.1169 10.1056 34.9688 9.74796 34.9688 9.375C34.9688 9.00204 35.1169 8.64435 35.3806 8.38063C35.6444 8.11691 36.002 7.96875 36.375 7.96875H40.125C40.498 7.96875 40.8556 8.11691 41.1194 8.38063C41.3831 8.64435 41.5313 9.00204 41.5313 9.375C41.5313 9.74796 41.3831 10.1056 41.1194 10.3694C40.8556 10.6331 40.498 10.7812 40.125 10.7812Z" fill="#038859"/>
<path d="M36.375 7.96875H17.2875C17.0637 7.97087 16.8436 8.02639 16.6455 8.13071C16.4474 8.23502 16.2771 8.38512 16.1488 8.56851C16.0204 8.75189 15.9376 8.96328 15.9074 9.18508C15.8772 9.40689 15.9004 9.6327 15.975 9.84375C16.1488 10.2917 16.2317 10.7697 16.2187 11.25V33.75C16.2187 34.8689 15.7743 35.9419 14.9831 36.7331C14.1919 37.5243 13.1189 37.9688 12 37.9688C11.627 37.9688 11.2694 38.1169 11.0056 38.3806C10.7419 38.6444 10.5938 39.002 10.5938 39.375C10.5938 39.748 10.7419 40.1056 11.0056 40.3694C11.2694 40.6331 11.627 40.7812 12 40.7812H36.375C36.7464 40.7764 37.1013 40.6267 37.364 40.364C37.6267 40.1013 37.7764 39.7465 37.7812 39.375V9.375C37.7764 9.00355 37.6267 8.64868 37.364 8.386C37.1013 8.12332 36.7464 7.97361 36.375 7.96875Z" fill="#08A05E"/>
<path d="M31.3313 23.1L28.9875 22.0125C28.6609 21.8685 28.3684 21.6571 28.1293 21.3921C27.8902 21.1272 27.7098 20.8146 27.6 20.475C27.0082 18.4587 25.7699 16.6928 24.0759 15.4494C22.3819 14.2059 20.326 13.5539 18.225 13.5937H17.625C17.2535 13.5986 16.8987 13.7483 16.636 14.011C16.3733 14.2737 16.2236 14.6285 16.2188 15V33.75C16.2236 34.1214 16.3733 34.4763 16.636 34.739C16.8987 35.0017 17.2535 35.1514 17.625 35.1562H18.2063C20.329 35.1678 22.4016 34.5119 24.1313 33.2812C25.8386 32.079 27.067 30.3128 27.6 28.2937C27.7087 27.9592 27.8845 27.6502 28.1166 27.3859C28.3487 27.1215 28.6323 26.9073 28.95 26.7562L31.3313 25.6687C31.5741 25.5557 31.7797 25.3757 31.9237 25.1498C32.0678 24.924 32.1443 24.6616 32.1443 24.3937C32.1443 24.1259 32.0678 23.8635 31.9237 23.6377C31.7797 23.4118 31.5741 23.2318 31.3313 23.1187V23.1Z" fill="#FFD671"/>
<path d="M12 4.21875C10.1352 4.21875 8.34677 4.95954 7.02816 6.27816C5.70954 7.59677 4.96875 9.3852 4.96875 11.25V33.75C4.96875 34.123 5.11691 34.4806 5.38063 34.7444C5.64435 35.0081 6.00204 35.1562 6.375 35.1562C6.74796 35.1562 7.10565 35.0081 7.36937 34.7444C7.63309 34.4806 7.78125 34.123 7.78125 33.75C7.78125 32.6311 8.22572 31.5581 9.01689 30.7669C9.80806 29.9757 10.8811 29.5312 12 29.5312C13.1189 29.5312 14.1919 29.9757 14.9831 30.7669C15.7743 31.5581 16.2188 32.6311 16.2188 33.75C16.2188 34.123 16.3669 34.4806 16.6306 34.7444C16.8944 35.0081 17.252 35.1562 17.625 35.1562C17.998 35.1562 18.3556 35.0081 18.6194 34.7444C18.8831 34.4806 19.0312 34.123 19.0312 33.75V11.25C19.0312 9.3852 18.2905 7.59677 16.9718 6.27816C15.6532 4.95954 13.8648 4.21875 12 4.21875Z" fill="#08A05E"/>
<path d="M12 40.7812C15.8833 40.7812 19.0312 37.6333 19.0312 33.75C19.0312 29.8667 15.8833 26.7188 12 26.7188C8.11675 26.7188 4.96875 29.8667 4.96875 33.75C4.96875 37.6333 8.11675 40.7812 12 40.7812Z" fill="#038859"/>
</svg>
