<svg width="46" height="45" viewBox="0 0 46 45" fill="none" xmlns="http://www.w3.org/2000/svg">
<path fill-rule="evenodd" clip-rule="evenodd" d="M22.5082 4C12.3136 4 4.00001 12.3005 4 22.4951C3.99997 32.6897 12.3136 41 22.5082 41C32.7029 41 41 32.6897 41 22.4951C41 12.3005 32.7028 4 22.5082 4ZM22.4819 10.7025C23.4106 10.6915 24.1722 11.4354 24.1832 12.3641C24.1834 12.3816 24.1834 12.3992 24.183 12.4167V20.817H32.5833C33.5128 20.817 34.2663 21.5705 34.2663 22.5C34.2663 23.4295 33.5128 24.183 32.5833 24.183H22.5082C21.5795 24.1884 20.8224 23.4399 20.817 22.5112C20.817 22.5058 20.817 22.5004 20.817 22.4951V12.4167C20.7989 11.4882 21.5369 10.7208 22.4655 10.7027C22.471 10.7026 22.4764 10.7025 22.4819 10.7025Z" fill="#08A05E"/>
</svg>
