<svg width="24" height="30" viewBox="0 0 24 30" fill="none" xmlns="http://www.w3.org/2000/svg">
<path d="M21.0001 0.375H3.00012C1.55037 0.375 0.375122 1.55025 0.375122 3V27C0.375122 28.4497 1.55037 29.625 3.00012 29.625H21.0001C22.4499 29.625 23.6251 28.4497 23.6251 27V3C23.6251 1.55025 22.4499 0.375 21.0001 0.375Z" fill="#FFD671"/>
<path d="M18.0002 25.1251H6.00024C5.70188 25.1251 5.41573 25.0066 5.20475 24.7956C4.99377 24.5846 4.87524 24.2985 4.87524 24.0001C4.87524 23.7018 4.99377 23.4156 5.20475 23.2046C5.41573 22.9936 5.70188 22.8751 6.00024 22.8751H18.0002C18.2986 22.8751 18.5848 22.9936 18.7957 23.2046C19.0067 23.4156 19.1252 23.7018 19.1252 24.0001C19.1252 24.2985 19.0067 24.5846 18.7957 24.7956C18.5848 25.0066 18.2986 25.1251 18.0002 25.1251Z" fill="#0D7751"/>
<path d="M18.0002 20.6251H6.00024C5.70188 20.6251 5.41573 20.5066 5.20475 20.2956C4.99377 20.0846 4.87524 19.7985 4.87524 19.5001C4.87524 19.2018 4.99377 18.9156 5.20475 18.7046C5.41573 18.4936 5.70188 18.3751 6.00024 18.3751H18.0002C18.2986 18.3751 18.5848 18.4936 18.7957 18.7046C19.0067 18.9156 19.1252 19.2018 19.1252 19.5001C19.1252 19.7985 19.0067 20.0846 18.7957 20.2956C18.5848 20.5066 18.2986 20.6251 18.0002 20.6251Z" fill="#0D7751"/>
<path d="M16.3502 12.6449C16.0331 12.7349 15.7049 12.7804 15.3752 12.7799C14.5968 12.7793 13.8379 12.5365 13.2037 12.0852C12.5695 11.6338 12.0914 10.9962 11.8359 10.261C11.5804 9.52568 11.56 8.72909 11.7776 7.9817C11.9952 7.2343 12.4399 6.57315 13.0502 6.08993C12.8659 6.06703 12.6795 6.06703 12.4952 6.08993C11.6942 6.06924 10.9021 6.26282 10.2009 6.65068C9.49974 7.03853 8.91483 7.60658 8.50664 8.29614C8.09845 8.9857 7.88179 9.77174 7.87905 10.5731C7.87632 11.3744 8.0876 12.1619 8.49106 12.8542C8.89453 13.5465 9.47555 14.1186 10.1741 14.5112C10.8726 14.9038 11.6633 15.1028 12.4645 15.0876C13.2657 15.0724 14.0482 14.8435 14.7314 14.4247C15.4145 14.0058 15.9733 13.4121 16.3502 12.7049V12.6449Z" fill="#0D7751"/>
<path d="M14.8654 7.13992L15.4804 8.38492L16.8604 8.57992L15.8554 9.55492L16.0954 10.9199L14.8654 10.2749L13.6504 10.9199L13.8754 9.55492L12.8854 8.57992L14.2504 8.38492L14.8654 7.13992Z" fill="#0D7751"/>
</svg>
