<svg width="46" height="45" viewBox="0 0 46 45" fill="none" xmlns="http://www.w3.org/2000/svg">
<path d="M22.75 4.21875C19.1343 4.21875 15.5998 5.29093 12.5935 7.2997C9.58715 9.30847 7.244 12.1636 5.86034 15.5041C4.47667 18.8445 4.11464 22.5203 4.82003 26.0665C5.52541 29.6127 7.26653 32.8701 9.82321 35.4268C12.3799 37.9835 15.6373 39.7246 19.1835 40.43C22.7297 41.1354 26.4055 40.7733 29.7459 39.3897C33.0864 38.006 35.9415 35.6629 37.9503 32.6565C39.9591 29.6502 41.0313 26.1157 41.0313 22.5C41.0263 17.653 39.0986 13.006 35.6713 9.57869C32.244 6.15136 27.597 4.22371 22.75 4.21875ZM7.28126 22.5C7.28078 18.8828 8.54797 15.3798 10.8625 12.6L15.7938 17.5313C16.0574 17.7946 16.4149 17.9425 16.7875 17.9425C17.1602 17.9425 17.5176 17.7946 17.7813 17.5313C18.0446 17.2676 18.1925 16.9102 18.1925 16.5375C18.1925 16.1648 18.0446 15.8074 17.7813 15.5437L12.85 10.6125C15.8152 8.13841 19.5985 6.8629 23.4564 7.0367C27.3143 7.2105 30.9676 8.82103 33.6983 11.5517C36.429 14.2824 38.0395 17.9357 38.2133 21.7936C38.3871 25.6515 37.1116 29.4348 34.6375 32.4L29.7063 27.4688C29.5775 27.3306 29.4223 27.2198 29.2498 27.1429C29.0773 27.0661 28.8911 27.0247 28.7022 27.0214C28.5134 27.0181 28.3259 27.0528 28.1508 27.1235C27.9757 27.1942 27.8166 27.2995 27.6831 27.4331C27.5495 27.5666 27.4443 27.7257 27.3735 27.9008C27.3028 28.0759 27.2681 28.2634 27.2714 28.4522C27.2747 28.641 27.3161 28.8273 27.3929 28.9998C27.4698 29.1723 27.5806 29.3275 27.7188 29.4562L32.65 34.3875C30.3911 36.2691 27.6427 37.4679 24.7269 37.8436C21.811 38.2193 18.8485 37.7563 16.1864 36.5089C13.5243 35.2614 11.2727 33.2812 9.69557 30.8001C8.11841 28.3191 7.28093 25.4399 7.28126 22.5Z" fill="#08A05E"/>
<path d="M34.8438 21.0188C33.7117 18.7834 31.9822 16.9055 29.8473 15.5936C27.7124 14.2818 25.2558 13.5873 22.75 13.5873C20.2443 13.5873 17.7876 14.2818 15.6528 15.5936C13.5179 16.9055 11.7884 18.7834 10.6563 21.0188C10.4339 21.4776 10.3184 21.9808 10.3184 22.4906C10.3184 23.0005 10.4339 23.5037 10.6563 23.9625C11.7884 26.1979 13.5179 28.0758 15.6528 29.3876C17.7876 30.6995 20.2443 31.394 22.75 31.394C25.2558 31.394 27.7124 30.6995 29.8473 29.3876C31.9822 28.0758 33.7117 26.1979 34.8438 23.9625C35.0661 23.5037 35.1816 23.0005 35.1816 22.4906C35.1816 21.9808 35.0661 21.4776 34.8438 21.0188Z" fill="#FFD671"/>
<path d="M22.75 27.6563C25.5977 27.6563 27.9063 25.3477 27.9063 22.5C27.9063 19.6523 25.5977 17.3438 22.75 17.3438C19.9023 17.3438 17.5938 19.6523 17.5938 22.5C17.5938 25.3477 19.9023 27.6563 22.75 27.6563Z" fill="#038859"/>
</svg>
