<svg width="46" height="45" viewBox="0 0 46 45" fill="none" xmlns="http://www.w3.org/2000/svg">
<path d="M28.875 11.0438C28.4228 10.782 27.9231 10.6125 27.405 10.5449C26.8869 10.4773 26.3605 10.513 25.8563 10.65C25.0989 10.855 24.4192 11.2796 23.9028 11.8702C23.3863 12.4608 23.0561 13.191 22.9539 13.9689C22.8516 14.7467 22.9819 15.5375 23.3282 16.2415C23.6745 16.9455 24.2214 17.5312 24.9 17.925C25.5063 18.268 26.1909 18.4488 26.8875 18.45C27.759 18.4458 28.6049 18.1553 29.2951 17.6232C29.9854 17.0912 30.4816 16.347 30.7075 15.5053C30.9333 14.6636 30.8763 13.771 30.5452 12.9648C30.2141 12.1587 29.6273 11.4837 28.875 11.0438Z" fill="#08A05E"/>
<path d="M34.7062 16.875C34.1636 15.9939 33.2987 15.3592 32.2954 15.1057C31.2921 14.8522 30.2295 15 29.3334 15.5176C28.4373 16.0352 27.7784 16.8819 27.4968 17.8776C27.2151 18.8734 27.3328 19.9397 27.825 20.85C28.1843 21.4467 28.6894 21.9422 29.293 22.2899C29.8965 22.6376 30.5786 22.826 31.275 22.8375C31.9739 22.835 32.6596 22.6474 33.2625 22.2938C33.7207 22.0408 34.123 21.6978 34.4452 21.2854C34.7674 20.8729 35.0029 20.3996 35.1375 19.8938C35.2689 19.3871 35.2984 18.8594 35.2244 18.3412C35.1504 17.823 34.9742 17.3246 34.7062 16.875Z" fill="#038859"/>
<path d="M32.8687 20.8688C32.0826 20.8688 31.314 21.1019 30.6603 21.5387C30.0067 21.9755 29.4972 22.5963 29.1963 23.3226C28.8955 24.0489 28.8167 24.8482 28.9701 25.6193C29.1235 26.3903 29.5021 27.0986 30.058 27.6545C30.6139 28.2104 31.3222 28.589 32.0933 28.7424C32.8643 28.8958 33.6636 28.8171 34.3899 28.5162C35.1162 28.2153 35.7371 27.7059 36.1738 27.0522C36.6106 26.3985 36.8437 25.63 36.8437 24.8438C36.8437 23.7895 36.4249 22.7785 35.6795 22.033C34.934 21.2876 33.923 20.8688 32.8687 20.8688Z" fill="#08A05E"/>
<path d="M25.6875 4.21876C24.9146 4.21506 24.158 4.44111 23.5138 4.86821C22.8695 5.29532 22.3668 5.90423 22.0693 6.61762C21.7718 7.33101 21.6929 8.11671 21.8428 8.87498C21.9927 9.63325 22.3645 10.3299 22.9111 10.8764C23.4576 11.423 24.1543 11.7948 24.9125 11.9447C25.6708 12.0946 26.4565 12.0158 27.1699 11.7183C27.8833 11.4208 28.4922 10.918 28.9193 10.2738C29.3464 9.62955 29.5725 8.87295 29.5688 8.10001C29.5688 7.07064 29.1598 6.08343 28.432 5.35556C27.7041 4.62768 26.7169 4.21876 25.6875 4.21876Z" fill="#038859"/>
<path d="M36.375 14.5312C36.0709 14.5299 35.7753 14.4314 35.5312 14.25L28.0313 8.625C27.7951 8.44791 27.6207 8.20102 27.5327 7.9193C27.4447 7.63758 27.4476 7.33531 27.5409 7.0553C27.6342 6.7753 27.8133 6.53177 28.0528 6.35919C28.2922 6.18662 28.5799 6.09375 28.875 6.09375H38.25C38.623 6.09375 38.9806 6.24191 39.2444 6.50563C39.5081 6.76935 39.6562 7.12704 39.6562 7.5C39.6562 7.87296 39.5081 8.23065 39.2444 8.49437C38.9806 8.75809 38.623 8.90625 38.25 8.90625H33.0937L37.2188 12C37.491 12.2211 37.6708 12.5361 37.7229 12.883C37.7749 13.2299 37.6954 13.5837 37.5 13.875C37.3805 14.0681 37.2154 14.2289 37.0193 14.3433C36.8231 14.4577 36.6019 14.5223 36.375 14.5312Z" fill="#FFD671"/>
<path d="M36.375 15.9375C37.9283 15.9375 39.1875 14.6783 39.1875 13.125C39.1875 11.5717 37.9283 10.3125 36.375 10.3125C34.8217 10.3125 33.5625 11.5717 33.5625 13.125C33.5625 14.6783 34.8217 15.9375 36.375 15.9375Z" fill="#08A05E"/>
<path d="M38.25 10.3125C39.8033 10.3125 41.0625 9.0533 41.0625 7.5C41.0625 5.9467 39.8033 4.6875 38.25 4.6875C36.6967 4.6875 35.4375 5.9467 35.4375 7.5C35.4375 9.0533 36.6967 10.3125 38.25 10.3125Z" fill="#08A05E"/>
<path d="M33.2625 27.3938C32.8123 27.1271 32.3125 26.9546 31.7936 26.8869C31.2746 26.8192 30.7474 26.8577 30.2438 27C29.7354 27.1343 29.2593 27.3695 28.8438 27.6916C28.4283 28.0138 28.0818 28.4162 27.825 28.875C27.3062 29.7919 27.1687 30.876 27.4423 31.8934C27.716 32.9107 28.3787 33.7796 29.2875 34.3125C30.2004 34.8355 31.2834 34.9752 32.2991 34.701C33.3148 34.4269 34.1805 33.7613 34.7063 32.85C34.9718 32.3975 35.1452 31.8969 35.2164 31.377C35.2875 30.8572 35.2551 30.3284 35.1208 29.8212C34.9866 29.3139 34.7533 28.8383 34.4344 28.4217C34.1154 28.0051 33.7171 27.6557 33.2625 27.3938Z" fill="#038859"/>
<path d="M30.3187 33.225C30.0641 32.7681 29.7205 32.3668 29.3083 32.0448C28.8962 31.7228 28.4237 31.4866 27.9187 31.35C26.8997 31.0817 25.8161 31.223 24.9 31.7438C24.4479 32.0057 24.0518 32.3542 23.7345 32.7694C23.4172 33.1845 23.1848 33.6581 23.0507 34.1632C22.9166 34.6682 22.8834 35.1947 22.953 35.7126C23.0226 36.2305 23.1936 36.7295 23.4562 37.1813C23.7092 37.6395 24.0522 38.0418 24.4646 38.364C24.8771 38.6862 25.3504 38.9217 25.8562 39.0563C26.1921 39.1507 26.5387 39.2011 26.8875 39.2063C27.5843 39.2043 28.2683 39.0192 28.8711 38.6695C29.4738 38.3198 29.974 37.8179 30.3215 37.2139C30.6691 36.61 30.8518 35.9253 30.8513 35.2285C30.8508 34.5317 30.6671 33.8472 30.3187 33.2438V33.225Z" fill="#08A05E"/>
<path d="M20.9063 32.8313C20.1201 32.8313 19.3516 33.0644 18.6979 33.5012C18.0442 33.938 17.5347 34.5588 17.2339 35.2851C16.933 36.0114 16.8543 36.8107 17.0077 37.5818C17.161 38.3528 17.5396 39.0611 18.0955 39.617C18.6514 40.1729 19.3597 40.5515 20.1308 40.7049C20.9019 40.8583 21.7011 40.7795 22.4274 40.4787C23.1538 40.1778 23.7746 39.6683 24.2114 39.0147C24.6481 38.361 24.8813 37.5924 24.8813 36.8063C24.8813 35.752 24.4625 34.741 23.717 33.9955C22.9716 33.2501 21.9605 32.8313 20.9063 32.8313Z" fill="#038859"/>
<path d="M16.9125 31.7625C15.9912 31.2367 14.8999 31.0953 13.875 31.3688C13.1177 31.5738 12.438 31.9983 11.9215 32.5889C11.405 33.1795 11.0749 33.9097 10.9726 34.6876C10.8704 35.4655 11.0006 36.2562 11.3469 36.9602C11.6932 37.6642 12.2401 38.25 12.9187 38.6438C13.5216 38.9974 14.2073 39.185 14.9062 39.1875C15.255 39.1823 15.6017 39.1319 15.9375 39.0375C16.4433 38.9029 16.9166 38.6675 17.3291 38.3452C17.7415 38.023 18.0845 37.6207 18.3375 37.1625C18.8577 36.2558 18.9998 35.1808 18.7331 34.1701C18.4664 33.1594 17.8123 32.2944 16.9125 31.7625Z" fill="#08A05E"/>
<path d="M13.9875 28.8375C13.455 27.9282 12.5846 27.2662 11.5661 26.9957C10.5476 26.7253 9.46349 26.8684 8.55001 27.3938C7.79636 27.8346 7.20879 28.5112 6.87805 29.3192C6.54731 30.1272 6.49179 31.0216 6.72006 31.8643C6.94834 32.707 7.44772 33.4512 8.14107 33.9818C8.83443 34.5123 9.68318 34.7999 10.5563 34.8C11.2155 34.7856 11.8604 34.605 12.4313 34.275C13.3561 33.7578 14.0387 32.8958 14.3303 31.8771C14.6219 30.8584 14.4986 29.7657 13.9875 28.8375Z" fill="#038859"/>
<path d="M8.94375 20.8688C8.15757 20.8688 7.38905 21.1019 6.73536 21.5387C6.08167 21.9755 5.57219 22.5963 5.27133 23.3226C4.97047 24.0489 4.89175 24.8482 5.04513 25.6193C5.19851 26.3903 5.57709 27.0986 6.133 27.6545C6.68892 28.2104 7.39719 28.589 8.16827 28.7424C8.93934 28.8958 9.73858 28.8171 10.4649 28.5162C11.1913 28.2153 11.8121 27.7059 12.2488 27.0522C12.6856 26.3985 12.9188 25.63 12.9188 24.8438C12.9188 23.7895 12.5 22.7785 11.7545 22.033C11.009 21.2876 9.99799 20.8688 8.94375 20.8688Z" fill="#08A05E"/>
<path d="M12.525 15.4313C11.8461 15.0342 11.0643 14.8485 10.2794 14.8978C9.49452 14.9471 8.74212 15.2292 8.11831 15.7082C7.4945 16.1871 7.02758 16.8411 6.77718 17.5866C6.52677 18.3321 6.50425 19.1354 6.71249 19.8938C6.84705 20.3995 7.08252 20.8729 7.40475 21.2853C7.72697 21.6978 8.12928 22.0408 8.58749 22.2938C9.19033 22.6474 9.87609 22.835 10.575 22.8375C10.9239 22.8336 11.2707 22.7832 11.6062 22.6875C12.1146 22.5532 12.5907 22.318 13.0062 21.9959C13.4218 21.6738 13.7682 21.2713 14.025 20.8125C14.533 19.8985 14.6605 18.8212 14.3797 17.8139C14.0989 16.8067 13.4326 15.9506 12.525 15.4313Z" fill="#038859"/>
<path d="M18.3563 12.4875C18.1033 12.0293 17.7603 11.627 17.3479 11.3048C16.9354 10.9826 16.4621 10.7471 15.9563 10.6125C15.4076 10.4575 14.832 10.4224 14.2685 10.5095C13.705 10.5966 13.1669 10.8039 12.6906 11.1173C12.2143 11.4307 11.811 11.8429 11.5081 12.326C11.2052 12.809 11.0097 13.3516 10.935 13.9168C10.8603 14.4821 10.908 15.0568 11.075 15.6019C11.242 16.1471 11.5243 16.65 11.9027 17.0764C12.2812 17.5028 12.747 17.8429 13.2685 18.0734C13.7899 18.3039 14.3549 18.4196 14.925 18.4125C15.622 18.4139 16.3072 18.2329 16.9125 17.8875C17.3713 17.6308 17.7738 17.2843 18.0959 16.8688C18.418 16.4532 18.6532 15.9771 18.7875 15.4688C18.919 14.9683 18.9486 14.4465 18.8745 13.9344C18.8004 13.4222 18.6242 12.9302 18.3563 12.4875Z" fill="#08A05E"/>
<path d="M20.9063 16.8562C23.1016 16.8562 24.8813 15.0766 24.8813 12.8812C24.8813 10.6859 23.1016 8.90625 20.9063 8.90625C18.7109 8.90625 16.9313 10.6859 16.9313 12.8812C16.9313 15.0766 18.7109 16.8562 20.9063 16.8562Z" fill="#038859"/>
</svg>
