<svg width="46" height="45" viewBox="0 0 46 45" fill="none" xmlns="http://www.w3.org/2000/svg">
<path d="M40.3563 15.675C40.1517 15.5546 39.9186 15.4912 39.6813 15.4912C39.4439 15.4912 39.2108 15.5546 39.0063 15.675L9.00625 30.675C8.771 30.7903 8.57263 30.9689 8.43349 31.1909C8.29435 31.4129 8.21997 31.6693 8.21875 31.9313V37.5563C8.23826 38.4152 8.59198 39.2326 9.20471 39.8348C9.81744 40.4371 10.6409 40.7766 11.5 40.7813H37.75C38.6187 40.7763 39.4505 40.429 40.0648 39.8148C40.6791 39.2005 41.0263 38.3687 41.0313 37.5V16.875C41.0329 16.6335 40.9715 16.3958 40.8531 16.1854C40.7347 15.9749 40.5635 15.799 40.3563 15.675Z" fill="#038859"/>
<path d="M39.625 15.4688H9.62499C9.25354 15.4736 8.89867 15.6233 8.63599 15.886C8.37331 16.1487 8.2236 16.5035 8.21874 16.875V19.4813C8.21465 23.6162 6.99537 27.6587 4.71249 31.1063C4.57959 31.3201 4.50916 31.5669 4.50916 31.8188C4.50916 32.0706 4.57959 32.3174 4.71249 32.5313C4.82979 32.758 5.00739 32.948 5.22573 33.0803C5.44407 33.2127 5.69468 33.2822 5.94999 33.2813H35.875C36.1088 33.2786 36.3385 33.2192 36.5442 33.1081C36.75 32.9971 36.9257 32.8377 37.0562 32.6438C39.6457 28.7561 41.0286 24.1899 41.0312 19.5188V16.875C41.0264 16.5035 40.8767 16.1487 40.614 15.886C40.3513 15.6233 39.9964 15.4736 39.625 15.4688Z" fill="#08A05E"/>
<path d="M37.75 6.09375H11.5C10.6313 6.09867 9.79953 6.44595 9.18524 7.06024C8.57095 7.67453 8.22367 8.50628 8.21875 9.375V16.875C8.22361 17.2464 8.37332 17.6013 8.636 17.864C8.89868 18.1267 9.25355 18.2764 9.625 18.2812H39.625C39.9965 18.2764 40.3513 18.1267 40.614 17.864C40.8767 17.6013 41.0264 17.2464 41.0312 16.875V9.375C41.0263 8.50628 40.679 7.67453 40.0648 7.06024C39.4505 6.44595 38.6187 6.09867 37.75 6.09375Z" fill="#FFD671"/>
<path d="M32.125 10.7813C31.7535 10.7764 31.3987 10.6267 31.136 10.364C30.8733 10.1013 30.7236 9.74645 30.7188 9.375V5.625C30.7188 5.25204 30.8669 4.89435 31.1306 4.63063C31.3944 4.36691 31.752 4.21875 32.125 4.21875C32.498 4.21875 32.8556 4.36691 33.1194 4.63063C33.3831 4.89435 33.5312 5.25204 33.5312 5.625V9.375C33.5264 9.74645 33.3767 10.1013 33.114 10.364C32.8513 10.6267 32.4965 10.7764 32.125 10.7813Z" fill="#08A05E"/>
<path d="M17.125 10.7813C16.7535 10.7764 16.3987 10.6267 16.136 10.364C15.8733 10.1013 15.7236 9.74645 15.7188 9.375V5.625C15.7188 5.25204 15.8669 4.89435 16.1306 4.63063C16.3944 4.36691 16.752 4.21875 17.125 4.21875C17.498 4.21875 17.8556 4.36691 18.1194 4.63063C18.3831 4.89435 18.5312 5.25204 18.5312 5.625V9.375C18.5264 9.74645 18.3767 10.1013 18.114 10.364C17.8513 10.6267 17.4965 10.7764 17.125 10.7813Z" fill="#08A05E"/>
</svg>
