<svg width="46" height="45" viewBox="0 0 46 45" fill="none" xmlns="http://www.w3.org/2000/svg">
<path d="M32.4812 17.1375C32.2191 15.8717 31.5625 14.7216 30.6058 13.8524C29.649 12.9832 28.4413 12.4397 27.1562 12.3C26.59 11.6996 25.9071 11.2212 25.1494 10.8943C24.3917 10.5673 23.5752 10.3986 22.7499 10.3986C21.9247 10.3986 21.1082 10.5673 20.3505 10.8943C19.5928 11.2212 18.9099 11.6996 18.3437 12.3C17.0616 12.448 15.8582 12.9943 14.903 13.8621C13.9477 14.7299 13.2887 15.8755 13.0187 17.1375C13.0094 17.2498 13.0094 17.3627 13.0187 17.475C13.0285 17.8397 13.1816 18.1859 13.4448 18.4386C13.708 18.6912 14.0601 18.8301 14.4249 18.825H31.1124C31.3197 18.8199 31.5233 18.7703 31.7097 18.6794C31.896 18.5886 32.0605 18.4587 32.1922 18.2986C32.3238 18.1385 32.4195 17.9519 32.4726 17.7516C32.5257 17.5512 32.535 17.3418 32.5 17.1375H32.4812Z" fill="white"/>
<path d="M34.4688 19.2937V25.7062C34.4688 26.8758 34.2384 28.034 33.7908 29.1145C33.3432 30.1951 32.6872 31.1769 31.8602 32.0039C31.0332 32.8309 30.0513 33.487 28.9708 33.9346C27.8902 34.3821 26.7321 34.6125 25.5625 34.6125H19.9375C17.5754 34.6125 15.3101 33.6742 13.6398 32.0039C11.9696 30.3337 11.0312 28.0683 11.0312 25.7062V19.2937C11.0313 18.4235 11.377 17.5889 11.9923 16.9736C12.6077 16.3582 13.4423 16.0125 14.3125 16.0125H31.1875C32.0577 16.0125 32.8923 16.3582 33.5077 16.9736C34.1231 17.5889 34.4688 18.4235 34.4688 19.2937Z" fill="#FFD671"/>
<path d="M11.0312 21.6375H34.4688V24.45H11.0312V21.6375Z" fill="#038859"/>
<path d="M22.75 4.21875C19.1343 4.21875 15.5998 5.29093 12.5935 7.2997C9.58715 9.30847 7.244 12.1636 5.86034 15.5041C4.47667 18.8445 4.11464 22.5203 4.82003 26.0665C5.52541 29.6127 7.26653 32.8701 9.82321 35.4268C12.3799 37.9835 15.6373 39.7246 19.1835 40.43C22.7297 41.1354 26.4055 40.7733 29.7459 39.3897C33.0864 38.006 35.9415 35.6629 37.9503 32.6565C39.9591 29.6502 41.0313 26.1157 41.0313 22.5C41.0263 17.653 39.0986 13.006 35.6713 9.57869C32.244 6.15136 27.597 4.22371 22.75 4.21875ZM38.2188 22.5C38.2161 26.1167 36.9493 29.6186 34.6375 32.4L12.85 10.6125C15.109 8.73095 17.8573 7.5321 20.7732 7.15639C23.689 6.78068 26.6515 7.24366 29.3136 8.49111C31.9758 9.73856 34.2273 11.7188 35.8044 14.1999C37.3816 16.6809 38.2191 19.5601 38.2188 22.5ZM7.28126 22.5C7.28395 18.8833 8.55075 15.3814 10.8625 12.6L32.65 34.3875C30.3911 36.2691 27.6427 37.4679 24.7269 37.8436C21.811 38.2193 18.8485 37.7563 16.1864 36.5089C13.5243 35.2614 11.2727 33.2812 9.69557 30.8001C8.11841 28.3191 7.28093 25.4399 7.28126 22.5Z" fill="#08A05E"/>
</svg>
