<svg width="46" height="45" viewBox="0 0 46 45" fill="none" xmlns="http://www.w3.org/2000/svg">
<path d="M22.5479 11.9525V14.0598H23.9545V11.9525H22.5479Z" fill="#FFD671"/>
<path d="M22.6471 13.7018C21.1412 16.2115 17.5698 17.8539 14.2384 19.9406C12.5727 20.984 10.9672 22.1579 9.76423 23.6938C8.56132 25.2297 7.78119 27.1465 7.78119 29.5331C7.78119 33.0362 8.89281 35.4819 10.0238 37.0327C10.5539 37.7596 11.0896 38.2826 11.5193 38.6504H34.9806C35.409 38.2826 35.9433 37.7594 36.4734 37.0327C37.6043 35.4819 38.7214 33.0362 38.7214 29.5331C38.7214 27.1465 37.9359 25.2297 36.7329 23.6938C35.53 22.1579 33.9299 20.984 32.2642 19.9406C28.9328 17.8539 25.3559 16.2115 23.8501 13.7018C23.577 13.2288 22.9408 13.1931 22.6471 13.7018Z" fill="#08A05E"/>
<path d="M9.8885 37.9668C8.73207 37.9668 7.78119 38.9229 7.78119 40.0794V42.8874C7.78084 42.9797 7.79869 43.0712 7.83371 43.1567C7.86874 43.2421 7.92025 43.3198 7.98532 43.3854C8.05039 43.4509 8.12773 43.503 8.21294 43.5387C8.29814 43.5743 8.38953 43.5928 8.48189 43.5932H38.0152C38.108 43.5935 38.2 43.5756 38.2858 43.5402C38.3716 43.5049 38.4495 43.4529 38.5152 43.3873C38.5808 43.3216 38.6328 43.2437 38.6681 43.1579C38.7035 43.0721 38.7215 42.9802 38.7211 42.8874V40.0794C38.7211 38.9229 37.765 37.9668 36.6086 37.9668H9.8885Z" fill="#038859"/>
<path d="M22.5386 1.592C20.0811 2.22417 18.3309 4.47166 18.3281 7.03162C18.3281 10.1299 20.8562 12.6525 23.9545 12.6525C26.4972 12.6498 28.7156 10.9363 29.3735 8.49279C29.7279 7.80514 28.8738 7.13266 28.2886 7.63857C27.661 8.1529 26.8738 8.43839 26.0624 8.43927C24.1125 8.43927 22.5482 6.86948 22.5482 4.91953C22.5269 4.0841 22.8835 3.2902 23.342 2.69756C23.7977 2.10839 23.2351 1.41284 22.5386 1.592Z" fill="#FFD671"/>
</svg>
