<svg width="76" height="59" viewBox="0 0 76 59" fill="none" xmlns="http://www.w3.org/2000/svg">
<path d="M59.75 40.7443V56.5776C59.7418 57.205 59.4889 57.8043 59.0453 58.248C58.6016 58.6916 58.0023 58.9444 57.375 58.9526H47.3366C46.1889 58.9548 45.0521 58.7292 43.9921 58.2889C42.9322 57.8486 41.9701 57.2024 41.1616 56.3876L38.565 53.791L38.375 53.5693C36.8469 51.9643 35.9963 49.8321 36 47.616V19.116C35.9759 18.1767 36.1793 17.2456 36.5928 16.402C37.0064 15.5584 37.6178 14.8272 38.375 14.271C39.0611 13.7081 39.8778 13.3269 40.75 13.1626C41.139 13.1143 41.5326 13.1143 41.9216 13.1626C43.2469 13.1591 44.5351 13.6003 45.58 14.4155C46.6248 15.2308 47.366 16.373 47.685 17.6593L52.7516 37.8943C52.7984 38.0621 52.8971 38.2107 53.0337 38.3188C53.1703 38.427 53.3376 38.489 53.5116 38.496H57.375C57.9813 38.5026 58.5627 38.7379 59.003 39.1548C59.4433 39.5716 59.7101 40.1393 59.75 40.7443Z" fill="#FFD671"/>
<path d="M40.75 18.9578V47.6162C40.7537 49.8323 39.903 51.9645 38.375 53.5695L38.185 53.7912L35.5883 56.3878C34.7799 57.2026 33.8178 57.8488 32.7578 58.2891C31.6979 58.7294 30.5611 58.955 29.4133 58.9528H19.375C18.7477 58.9446 18.1483 58.6918 17.7047 58.2482C17.2611 57.8045 17.0082 57.2052 17 56.5778V40.7445C17.0082 40.1172 17.2611 39.5178 17.7047 39.0742C18.1483 38.6306 18.7477 38.3777 19.375 38.3695H23.2383C23.4124 38.3625 23.5797 38.3005 23.7163 38.1924C23.8528 38.0843 23.9516 37.9356 23.9983 37.7678L29.065 17.5328C29.3839 16.2465 30.1251 15.1043 31.17 14.2891C32.2149 13.4738 33.503 13.0327 34.8283 13.0362C35.2174 12.9878 35.6109 12.9878 36 13.0362C36.8721 13.2005 37.6889 13.5816 38.375 14.1445C39.1277 14.6977 39.7364 15.4237 40.1497 16.2614C40.5631 17.0991 40.769 18.0239 40.75 18.9578Z" fill="#FFD671"/>
<path d="M63.7083 35.203H60.5417C57.4811 35.203 55 37.6841 55 40.7447V56.578C55 59.6386 57.4811 62.1197 60.5417 62.1197H63.7083C66.7689 62.1197 69.25 59.6386 69.25 56.578V40.7447C69.25 37.6841 66.7689 35.203 63.7083 35.203Z" fill="#0D7751"/>
<path d="M15.8333 35.6249H12.6667C9.60609 35.6249 7.125 38.106 7.125 41.1666V56.9999C7.125 60.0605 9.60609 62.5416 12.6667 62.5416H15.8333C18.8939 62.5416 21.375 60.0605 21.375 56.9999V41.1666C21.375 38.106 18.8939 35.6249 15.8333 35.6249Z" fill="#0D7751"/>
<path d="M40.375 13.5845V56.3978L38.19 54.2128L38 53.9911L37.81 54.2128L35.625 56.3978V13.5845C36.4971 13.7488 37.3139 14.1299 38 14.6928C38.6861 14.1299 39.5029 13.7488 40.375 13.5845Z" fill="#E6C05F"/>
</svg>
