<svg width="46" height="45" viewBox="0 0 46 45" fill="none" xmlns="http://www.w3.org/2000/svg">
<path d="M39.625 4.21875H5.875C5.0984 4.21875 4.46875 4.8484 4.46875 5.625V39.375C4.46875 40.1516 5.0984 40.7812 5.875 40.7812H39.625C40.4023 40.7812 41.0312 40.1516 41.0312 39.375V5.625C41.0312 4.8484 40.4023 4.21875 39.625 4.21875Z" fill="#FFD671"/>
<path d="M43.4318 21.5057L23.7443 1.81824C23.1949 1.26892 22.3051 1.26892 21.7557 1.81824L2.06824 21.5057C1.51892 22.0551 1.51892 22.9449 2.06824 23.4943L21.7557 43.1818C22.0304 43.4564 22.3902 43.5938 22.75 43.5938C23.1098 43.5938 23.4696 43.4564 23.7443 43.1818L43.4318 23.4943C43.9811 22.9449 43.9811 22.0551 43.4318 21.5057Z" fill="#08A05E"/>
<path d="M32.3424 21.1377C31.7327 20.7614 30.6862 20.4758 29.1523 21.2421C28.4574 21.5895 28.1759 22.4341 28.5233 23.129C28.8721 23.8239 29.7139 24.1047 30.4102 23.7579C30.6437 23.6412 30.7947 23.5966 30.8799 23.5794C31.0556 23.885 31.1298 24.6039 31.1614 25.3125H26.9687V15.4688C26.9687 14.6922 26.3398 14.0625 25.5625 14.0625C24.7852 14.0625 24.1562 14.6922 24.1562 15.4688C24.1562 16.2076 24.1027 16.8942 24.0237 17.5575L22.3359 15.878C21.7852 15.3314 20.8974 15.3335 20.3467 15.8828C19.7988 16.4335 19.8015 17.3241 20.3515 17.872L23.1778 20.6845C23.1929 20.6996 23.2135 20.7044 23.2293 20.7182C22.4307 22.6682 21.1089 24.2434 19.1554 25.5501C18.5099 25.982 18.3369 26.8554 18.7688 27.5008C19.04 27.906 19.485 28.125 19.9389 28.125C20.2073 28.125 20.4792 28.0481 20.7196 27.8874C22.1135 26.955 23.2389 25.8913 24.1562 24.7048V26.7188C24.1562 27.4953 24.7852 28.125 25.5625 28.125H32.5937C33.371 28.125 34 27.4953 34 26.7188C34 24.689 34 22.1622 32.3424 21.1377Z" fill="#A3D6A6"/>
<path d="M17.125 14.0549C16.3484 14.0549 15.7188 14.6846 15.7188 15.4612V23.9062C15.7188 24.6815 15.0877 25.3125 14.3125 25.3125C13.5373 25.3125 12.9062 24.6815 12.9062 23.9062C12.9062 23.1297 12.2766 22.5 11.5 22.5C10.7234 22.5 10.0938 23.1297 10.0938 23.9062C10.0938 26.2326 11.9861 28.125 14.3125 28.125C16.6389 28.125 18.5312 26.2326 18.5312 23.9062V15.4612C18.5312 14.6846 17.9016 14.0549 17.125 14.0549Z" fill="#A3D6A6"/>
</svg>
