<svg width="46" height="45" viewBox="0 0 46 45" fill="none" xmlns="http://www.w3.org/2000/svg">
<path d="M40.125 36.0937H39.6562V14.1187C39.6525 13.4821 39.4646 12.8601 39.1153 12.3278C38.7659 11.7955 38.2701 11.3756 37.6875 11.1187L24.7312 6.45C24.2738 6.21255 23.7654 6.09027 23.25 6.09375C22.8785 6.0986 22.5237 6.24832 22.261 6.511C21.9983 6.77367 21.8486 7.12855 21.8438 7.5V37.5C21.8438 37.873 21.9919 38.2306 22.2556 38.4944C22.5194 38.7581 22.877 38.9062 23.25 38.9062C23.623 38.9062 23.9806 38.7581 24.2444 38.4944C24.5081 38.2306 24.6562 37.873 24.6562 37.5H41.5312C41.5264 37.1285 41.3767 36.7737 41.114 36.511C40.8513 36.2483 40.4965 36.0986 40.125 36.0937Z" fill="#08A05E"/>
<path d="M23.25 6.09372V37.5H4.96875C4.97361 37.1285 5.12332 36.7736 5.386 36.511C5.64868 36.2483 6.00355 36.0986 6.375 36.0937H6.84375V14.1187C6.85455 13.5221 7.02787 12.9397 7.34503 12.4342C7.6622 11.9287 8.11122 11.5193 8.64375 11.25L21.9375 6.37497C22.2579 6.21542 22.6108 6.13201 22.9688 6.13122L23.25 6.09372Z" fill="#038859"/>
<path d="M39.6562 19.65V22.65L24.6562 17.025L23.25 16.5L21.8438 17.025L6.84375 22.65V19.65L21.8438 14.025L22.7625 13.6875C22.9168 13.6225 23.0826 13.5891 23.25 13.5891C23.4174 13.5891 23.5832 13.6225 23.7375 13.6875L24.6562 14.025L39.6562 19.65Z" fill="#FBC02D"/>
<path d="M18.45 21.3562C18.2678 21.2256 18.057 21.1405 17.8352 21.1078C17.6135 21.0752 17.3871 21.0961 17.175 21.1687L11.55 23.0437C11.2714 23.1378 11.0294 23.3169 10.8579 23.5556C10.6863 23.7944 10.594 24.081 10.5938 24.375V37.5C10.5986 37.8714 10.7483 38.2263 11.011 38.489C11.2737 38.7517 11.6285 38.9014 12 38.9062H17.625C17.9965 38.9014 18.3513 38.7517 18.614 38.489C18.8767 38.2263 19.0264 37.8714 19.0312 37.5V22.5C19.0291 22.2774 18.9755 22.0584 18.8747 21.86C18.7738 21.6616 18.6285 21.4892 18.45 21.3562Z" fill="#FBC02D"/>
<path d="M40.125 38.9062H6.375C6.00204 38.9062 5.64435 38.7581 5.38063 38.4944C5.11691 38.2306 4.96875 37.873 4.96875 37.5C4.96875 37.127 5.11691 36.7694 5.38063 36.5056C5.64435 36.2419 6.00204 36.0938 6.375 36.0938H40.125C40.498 36.0938 40.8556 36.2419 41.1194 36.5056C41.3831 36.7694 41.5312 37.127 41.5312 37.5C41.5312 37.873 41.3831 38.2306 41.1194 38.4944C40.8556 38.7581 40.498 38.9062 40.125 38.9062Z" fill="#038859"/>
</svg>
