<svg width="46" height="45" viewBox="0 0 46 45" fill="none" xmlns="http://www.w3.org/2000/svg">
<path d="M37.7812 31.3125C37.7887 32.8725 37.4069 34.4097 36.6702 35.7848C35.9335 37.16 34.8653 38.3295 33.5624 39.1875C32.0105 40.2304 30.1822 40.7854 28.3124 40.7813H18.1874C16.3177 40.7854 14.4894 40.2304 12.9374 39.1875C11.6346 38.3295 10.5664 37.16 9.82971 35.7848C9.09304 34.4097 8.71116 32.8725 8.7187 31.3125C8.69974 28.4649 9.30228 25.6475 10.4843 23.0568C11.6663 20.4661 13.3993 18.1645 15.5624 16.3125C15.7405 16.1394 15.9283 15.9767 16.1249 15.825L17.6249 14.7375L16.7999 13.5937L15.2062 11.4187C15.0831 11.2746 14.9762 11.1175 14.8874 10.95C14.8813 10.8939 14.8813 10.8373 14.8874 10.7812C14.6116 10.2416 14.457 9.64824 14.4343 9.04263C14.4117 8.43701 14.5215 7.83375 14.7562 7.275C14.9473 6.79705 15.2386 6.36562 15.6106 6.00983C15.9825 5.65404 16.4265 5.38215 16.9124 5.2125C17.3443 5.06667 17.8026 5.0163 18.2558 5.06485C18.709 5.11341 19.1463 5.25974 19.5374 5.49375L19.8187 5.6625C19.9228 5.72731 20.043 5.76166 20.1656 5.76166C20.2882 5.76166 20.4084 5.72731 20.5124 5.6625L21.5624 5.04375C22.1008 4.7216 22.7164 4.55147 23.3437 4.55147C23.971 4.55147 24.5866 4.7216 25.1249 5.04375L26.1749 5.6625C26.279 5.72731 26.3992 5.76166 26.5218 5.76166C26.6444 5.76166 26.7646 5.72731 26.8687 5.6625L26.9999 5.49375C27.3911 5.25974 27.8284 5.11341 28.2816 5.06485C28.7348 5.0163 29.1931 5.06667 29.6249 5.2125C30.105 5.37819 30.544 5.64459 30.9127 5.99384C31.2813 6.34309 31.5711 6.76712 31.7624 7.2375C32.0007 7.80126 32.1141 8.40996 32.0946 9.0217C32.0752 9.63345 31.9235 10.2337 31.6499 10.7812C31.6259 10.8412 31.5944 10.8979 31.5562 10.95C31.4674 11.1175 31.3605 11.2746 31.2374 11.4187L30.1687 12.9187L28.8562 14.7937L30.3187 15.9562C30.9285 16.4351 31.5048 16.955 32.0437 17.5125C35.7026 21.175 37.765 26.1355 37.7812 31.3125Z" fill="#08A05E"/>
<path d="M23.25 32.8125C23.7678 32.8125 24.1875 32.3927 24.1875 31.875C24.1875 31.3572 23.7678 30.9375 23.25 30.9375C22.7322 30.9375 22.3125 31.3572 22.3125 31.875C22.3125 32.3927 22.7322 32.8125 23.25 32.8125Z" fill="#A3D6A6"/>
<path d="M37.7624 17.1562C37.6909 17.4723 37.5152 17.755 37.2635 17.9591C37.0119 18.1631 36.6989 18.2766 36.3749 18.2812H36.0937L32.0999 17.475L26.8687 16.425H15.6187C15.7967 16.2519 15.9845 16.0892 16.1812 15.9375L17.6249 14.7375L16.7999 13.5937H26.9062L30.2624 12.9187L36.1312 11.7375C36.4797 11.7075 36.8271 11.8068 37.1071 12.0164C37.3872 12.226 37.5804 12.5313 37.6499 12.8742C37.7194 13.217 37.6603 13.5734 37.484 13.8756C37.3077 14.1777 37.0264 14.4044 36.6937 14.5125L34.1624 15L36.6562 15.4875C37.0205 15.5687 37.3393 15.7878 37.5455 16.099C37.7518 16.4101 37.8295 16.789 37.7624 17.1562Z" fill="#038859"/>
<path d="M30.75 33.2812H27C26.627 33.2812 26.2694 33.1331 26.0056 32.8694C25.7419 32.6056 25.5938 32.248 25.5938 31.875C25.5938 31.502 25.7419 31.1443 26.0056 30.8806C26.2694 30.6169 26.627 30.4687 27 30.4687H29.3438V29.5312H27C26.6285 29.5264 26.2737 29.3767 26.011 29.114C25.7483 28.8513 25.5986 28.4964 25.5938 28.125V24.375C25.5986 24.0035 25.7483 23.6487 26.011 23.386C26.2737 23.1233 26.6285 22.9736 27 22.9687H30.75C31.123 22.9687 31.4806 23.1169 31.7444 23.3806C32.0081 23.6443 32.1563 24.002 32.1563 24.375C32.1563 24.748 32.0081 25.1056 31.7444 25.3694C31.4806 25.6331 31.123 25.7812 30.75 25.7812H28.4063V26.7187H30.75C31.1215 26.7236 31.4763 26.8733 31.739 27.136C32.0017 27.3987 32.1514 27.7535 32.1563 28.125V31.875C32.1514 32.2464 32.0017 32.6013 31.739 32.864C31.4763 33.1267 31.1215 33.2764 30.75 33.2812Z" fill="#A3D6A6"/>
<path d="M19.5 33.2813H15.75C15.3785 33.2764 15.0237 33.1267 14.761 32.864C14.4983 32.6013 14.3486 32.2465 14.3438 31.875V28.125C14.3486 27.7536 14.4983 27.3987 14.761 27.136C15.0237 26.8733 15.3785 26.7236 15.75 26.7188H18.0938V25.7813H15.75C15.377 25.7813 15.0194 25.6331 14.7556 25.3694C14.4919 25.1056 14.3438 24.748 14.3438 24.375C14.3438 24.002 14.4919 23.6444 14.7556 23.3806C15.0194 23.1169 15.377 22.9688 15.75 22.9688H19.5C19.8715 22.9736 20.2263 23.1233 20.489 23.386C20.7517 23.6487 20.9014 24.0035 20.9063 24.375V28.125C20.9014 28.4965 20.7517 28.8513 20.489 29.114C20.2263 29.3767 19.8715 29.5264 19.5 29.5313H17.1563V30.4688H19.5C19.873 30.4688 20.2306 30.6169 20.4944 30.8806C20.7581 31.1444 20.9063 31.502 20.9063 31.875C20.9063 32.248 20.7581 32.6056 20.4944 32.8694C20.2306 33.1331 19.873 33.2813 19.5 33.2813Z" fill="#A3D6A6"/>
</svg>
