<svg width="25" height="24" viewBox="0 0 25 24" fill="none" xmlns="http://www.w3.org/2000/svg">
<path d="M11.4257 10.6833C10.9659 10.4227 10.3915 10.616 10.1426 11.0876L8.91673 13.5817C8.89375 13.6289 8.85363 13.6656 8.80452 13.6844C8.7554 13.7033 8.70095 13.7028 8.65219 13.683C8.61355 13.6677 8.58043 13.6411 8.55715 13.6068C8.53383 13.5724 8.52145 13.5319 8.52154 13.4904V6.56322C8.52154 6.15222 8.14086 5.85408 7.72848 5.85408C7.31611 5.85408 6.95824 6.15222 6.95824 6.56322V11.1916C6.95925 11.278 6.92639 11.3614 6.8667 11.4241C6.80703 11.4868 6.72518 11.5238 6.63859 11.5272C6.59527 11.5281 6.55223 11.5203 6.51197 11.5043C6.47171 11.4883 6.43503 11.4645 6.40414 11.4342C6.37321 11.404 6.34865 11.3679 6.33188 11.3281C6.31511 11.2882 6.30649 11.2454 6.30649 11.2022V5.14494C6.30649 4.73393 5.9824 4.43579 5.57002 4.43579C5.15764 4.43579 4.82525 4.73393 4.82525 5.14494V11.1916C4.82626 11.278 4.7934 11.3614 4.73371 11.4241C4.67405 11.4868 4.59219 11.5238 4.5056 11.5272C4.46229 11.5281 4.41924 11.5203 4.37898 11.5043C4.33872 11.4883 4.30205 11.4645 4.27115 11.4342C4.24022 11.404 4.21566 11.3679 4.19889 11.3281C4.18213 11.2882 4.17351 11.2454 4.17351 11.2022V6.09046C4.17351 5.67945 3.81564 5.38132 3.40326 5.38132C2.99088 5.38132 2.63302 5.709 2.63302 6.12001V11.6643C2.63402 11.7508 2.60117 11.8342 2.54147 11.8969C2.48181 11.9595 2.39996 11.9965 2.31336 12C2.27005 12.0008 2.22701 11.993 2.18675 11.9771C2.14649 11.9611 2.10981 11.9373 2.07891 11.907C2.04798 11.8767 2.02343 11.8406 2.00666 11.8008C1.98989 11.761 1.98127 11.7182 1.98127 11.675V7.98151C1.98127 7.5705 1.65303 7.27237 1.24065 7.27237C0.828271 7.27237 0.496473 7.57434 0.500028 7.98151V14.3638C0.500028 17.833 2.63302 19.5642 5.24 19.5642H5.714C8.32098 19.5642 9.14188 18.3941 9.74297 16.964L11.7785 11.9704C11.9746 11.4386 11.8851 10.9437 11.4257 10.6833Z" fill="#895737"/>
<path d="M13.5743 10.6833C14.0341 10.4227 14.6085 10.616 14.8574 11.0876L16.0833 13.5817C16.1063 13.6289 16.1464 13.6656 16.1955 13.6844C16.2446 13.7033 16.2991 13.7028 16.3478 13.683C16.3864 13.6677 16.4196 13.6411 16.4429 13.6068C16.4662 13.5724 16.4785 13.5319 16.4785 13.4904V6.56322C16.4785 6.15222 16.8591 5.85408 17.2715 5.85408C17.6839 5.85408 18.0418 6.15222 18.0418 6.56322V11.1916C18.0408 11.278 18.0736 11.3614 18.1333 11.4241C18.193 11.4868 18.2748 11.5238 18.3614 11.5272C18.4047 11.5281 18.4478 11.5203 18.488 11.5043C18.5283 11.4883 18.565 11.4645 18.5959 11.4342C18.6268 11.404 18.6514 11.3679 18.6681 11.3281C18.6849 11.2882 18.6935 11.2454 18.6935 11.2022V5.14494C18.6935 4.73393 19.0176 4.43579 19.43 4.43579C19.8424 4.43579 20.1747 4.73393 20.1747 5.14494V11.1916C20.1737 11.278 20.2066 11.3614 20.2663 11.4241C20.326 11.4868 20.4078 11.5238 20.4944 11.5272C20.5377 11.5281 20.5808 11.5203 20.621 11.5043C20.6613 11.4883 20.698 11.4645 20.7289 11.4342C20.7598 11.404 20.7843 11.3679 20.8011 11.3281C20.8179 11.2882 20.8265 11.2454 20.8265 11.2022V6.09046C20.8265 5.67945 21.1844 5.38132 21.5967 5.38132C22.0091 5.38132 22.367 5.709 22.367 6.12001V11.6643C22.366 11.7508 22.3988 11.8342 22.4585 11.8969C22.5182 11.9595 22.6 11.9965 22.6866 12C22.7299 12.0008 22.773 11.993 22.8133 11.9771C22.8535 11.9611 22.8902 11.9373 22.9211 11.907C22.952 11.8767 22.9766 11.8406 22.9933 11.8008C23.0101 11.761 23.0187 11.7182 23.0187 11.675V7.98151C23.0187 7.5705 23.347 7.27237 23.7594 7.27237C24.1717 7.27237 24.5035 7.57434 24.5 7.98151V14.3638C24.5 17.833 22.367 19.5642 19.76 19.5642H19.286C16.679 19.5642 15.8581 18.3941 15.257 16.964L13.2215 11.9704C13.0254 11.4386 13.1149 10.9437 13.5743 10.6833Z" fill="#895737"/>
</svg>
