<svg width="25" height="24" viewBox="0 0 25 24" fill="none" xmlns="http://www.w3.org/2000/svg">
<path opacity="0.4" d="M11.25 2.45001C11.95 1.86001 13.08 1.86001 13.76 2.45001L15.34 3.80001C15.64 4.05001 16.21 4.26001 16.61 4.26001H18.31C19.37 4.26001 20.24 5.13001 20.24 6.19001V7.89001C20.24 8.29001 20.45 8.85001 20.7 9.15001L22.05 10.73C22.64 11.43 22.64 12.56 22.05 13.24L20.7 14.82C20.45 15.12 20.24 15.68 20.24 16.08V17.78C20.24 18.84 19.37 19.71 18.31 19.71H16.61C16.21 19.71 15.65 19.92 15.35 20.17L13.77 21.52C13.07 22.11 11.94 22.11 11.26 21.52L9.68001 20.17C9.38 19.92 8.81 19.71 8.42 19.71H6.67C5.61 19.71 4.74 18.84 4.74 17.78V16.07C4.74 15.68 4.54 15.11 4.29 14.82L2.94 13.23C2.36 12.54 2.36 11.42 2.94 10.73L4.29 9.14001C4.54 8.84001 4.74 8.28001 4.74 7.89001V6.20001C4.74 5.14001 5.61 4.27001 6.67 4.27001H8.4C8.8 4.27001 9.36 4.06001 9.66 3.81001L11.25 2.45001Z" fill="#895737"/>
<path d="M12.5 16.87C11.95 16.87 11.5 16.42 11.5 15.87C11.5 15.32 11.94 14.87 12.5 14.87C13.05 14.87 13.5 15.32 13.5 15.87C13.5 16.42 13.06 16.87 12.5 16.87Z" fill="#895737"/>
<path d="M12.5 13.72C12.09 13.72 11.75 13.38 11.75 12.97V8.13C11.75 7.72 12.09 7.38 12.5 7.38C12.91 7.38 13.25 7.72 13.25 8.13V12.96C13.25 13.38 12.92 13.72 12.5 13.72Z" fill="#895737"/>
</svg>
