<svg width="25" height="24" viewBox="0 0 25 24" fill="none" xmlns="http://www.w3.org/2000/svg">
<path d="M22.5 4.67V16.74C22.5 17.7 21.72 18.6 20.76 18.72L20.43 18.76C18.25 19.05 14.89 20.16 12.97 21.22C12.84 21.3 12.68 21.33 12.5 21.33V5.3C12.69 5.3 12.88 5.25 13.03 5.16L13.2 5.05C14.98 3.93 18.17 2.86 20.27 2.68H20.33C21.52 2.58 22.5 3.47 22.5 4.67Z" fill="#895737"/>
<path opacity="0.4" d="M4.66016 2.67041C6.76009 2.84045 9.93974 3.90032 11.7197 5.01025L11.9697 5.16064C12.1197 5.25064 12.31 5.30029 12.5 5.30029V21.3306C12.33 21.3306 12.1498 21.3002 12.0098 21.2202L11.9697 21.1997C10.0497 20.1498 6.70013 19.0503 4.53027 18.7603L4.24023 18.7202C3.28023 18.6002 2.5 17.6997 2.5 16.7397V4.66064C2.5 3.47064 3.47016 2.57041 4.66016 2.67041ZM6 10.7407C5.59 10.7407 5.25 11.0807 5.25 11.4907C5.25027 11.9005 5.59016 12.2407 6 12.2407H9C9.40984 12.2407 9.74973 11.9005 9.75 11.4907C9.75 11.0807 9.41 10.7407 9 10.7407H6ZM6 7.74072C5.59 7.74072 5.25 8.08072 5.25 8.49072C5.25027 8.9005 5.59016 9.24072 6 9.24072H8.25C8.65984 9.24072 8.99973 8.9005 9 8.49072C9 8.08072 8.66 7.74072 8.25 7.74072H6Z" fill="#895737"/>
</svg>
